<svg xmlns="http://www.w3.org/2000/svg" width="175" height="211.501" viewBox="0 0 175 211.501">
  <defs>
    <style>
      .cls-1, .cls-2, .cls-5 {
        fill: #fff;
      }

      .cls-1 {
        stroke: #000;
      }

      .cls-2 {
        stroke: #f0f0f0;
      }

      .cls-3 {
        fill: #f0f0f0;
      }

      .cls-4 {
        fill: #858666;
      }

      .cls-6, .cls-7 {
        fill: #da5468;
      }

      .cls-6 {
        stroke-linecap: square;
      }

      .cls-8 {
        fill: #b6374d;
      }

      .cls-9 {
        fill: #be4256;
      }

      .cls-10 {
        fill: #ea94a8;
      }

      .cls-11, .cls-13 {
        stroke: none;
      }

      .cls-12 {
        fill: none;
      }

      .cls-13 {
        fill: #b4d6c8;
      }
    </style>
  </defs>
  <g id="M_1_8_F" transform="translate(-88.687 -233)">
    <g id="Grupo_109" data-name="Grupo 109" transform="translate(88.334 233)">
      <g id="Rectángulo_4" data-name="Rectángulo 4" class="cls-1" transform="translate(0.352)">
        <rect class="cls-11" width="175" height="175" rx="19"/>
        <rect class="cls-12" x="0.5" y="0.5" width="174" height="174" rx="18.5"/>
      </g>
    </g>
    <g id="Grupo_259" data-name="Grupo 259" transform="translate(0 -19)">
      <path id="Trazado_93" data-name="Trazado 93" class="cls-2" d="M218.453,202.505l-15.917,15.948H179.978L164,202.505V179.948L179.978,164h22.557l15.917,15.948Z" transform="translate(38.988 178.47) rotate(22)"/>
      <path id="Trazado_311" data-name="Trazado 311" class="cls-3" d="M4.928-15.62,4.84-16.632a10.055,10.055,0,0,1,2.9,1.936,8.786,8.786,0,0,1,1.892,2.6,6.77,6.77,0,0,1,.66,2.9A8.146,8.146,0,0,1,8.91-4.6,10.124,10.124,0,0,1,5.192-1.254,10.786,10.786,0,0,1,0,0,10.786,10.786,0,0,1-5.192-1.254,10.124,10.124,0,0,1-8.91-4.6,8.146,8.146,0,0,1-10.3-9.2a6.833,6.833,0,0,1,.858-3.5A8.6,8.6,0,0,1-7.282-15.18a16.649,16.649,0,0,1,2.574-1.672L-5.06-15.62a8.646,8.646,0,0,1-2.134-1.254,6.293,6.293,0,0,1-1.694-2.09,6.428,6.428,0,0,1-.66-2.992,8.136,8.136,0,0,1,1.276-4.466,9.285,9.285,0,0,1,3.454-3.19A9.9,9.9,0,0,1,0-30.8a9.735,9.735,0,0,1,4.818,1.188,9.381,9.381,0,0,1,3.41,3.19A8.136,8.136,0,0,1,9.5-21.956a6.176,6.176,0,0,1-.748,3.168,6.389,6.389,0,0,1-1.8,2.024A10.274,10.274,0,0,1,4.928-15.62Zm-9.2-6.248a4.049,4.049,0,0,0,.55,2.112A4.07,4.07,0,0,0-2.2-18.282a4.374,4.374,0,0,0,2.2.55,4.254,4.254,0,0,0,2.178-.55,4.119,4.119,0,0,0,1.5-1.474,4.049,4.049,0,0,0,.55-2.112,3.894,3.894,0,0,0-1.21-2.926A4.172,4.172,0,0,0,0-25.96a4.229,4.229,0,0,0-3.058,1.166A3.894,3.894,0,0,0-4.268-21.868ZM0-4.84a5.155,5.155,0,0,0,3.564-1.3A4.068,4.068,0,0,0,5.016-9.284a4.1,4.1,0,0,0-.66-2.288,4.678,4.678,0,0,0-1.8-1.606A5.454,5.454,0,0,0,0-13.772a5.454,5.454,0,0,0-2.552.594,4.678,4.678,0,0,0-1.8,1.606,4.1,4.1,0,0,0-.66,2.288A4.068,4.068,0,0,0-3.564-6.138,5.155,5.155,0,0,0,0-4.84Z" transform="translate(143 444)"/>
      <path id="Trazado_95" data-name="Trazado 95" class="cls-4" d="M218.453,202.505l-15.917,15.948H179.978L164,202.505V179.948L179.978,164h22.557l15.917,15.948Z" transform="translate(111.988 178.47) rotate(22)"/>
      <path id="Trazado_312" data-name="Trazado 312" class="cls-5" d="M-7-6.2a3.136,3.136,0,0,1,.858.132A3.633,3.633,0,0,1-5.1-5.544,8.218,8.218,0,0,0-3.322-4.532a6.083,6.083,0,0,0,2.4.44A5.161,5.161,0,0,0,1.65-4.774a5.612,5.612,0,0,0,2-1.936,5.529,5.529,0,0,0,.792-3.014A5.177,5.177,0,0,0,3.762-12.5a4.493,4.493,0,0,0-1.8-1.672,5.206,5.206,0,0,0-2.4-.572,6.159,6.159,0,0,0-1.606.176q-.638.176-1.232.374a4.388,4.388,0,0,1-1.386.2,1.866,1.866,0,0,1-1.562-.7,2.635,2.635,0,0,1-.55-1.672,2.427,2.427,0,0,1,.242-1.1,5.472,5.472,0,0,1,.726-1.056l7.744-8.448L3.124-25.96H-7.7a2.388,2.388,0,0,1-1.76-.7,2.388,2.388,0,0,1-.7-1.76,2.263,2.263,0,0,1,.7-1.694A2.429,2.429,0,0,1-7.7-30.8H5.764a2.632,2.632,0,0,1,2.046.748,2.7,2.7,0,0,1,.682,1.892,2.279,2.279,0,0,1-.286,1.1,4.407,4.407,0,0,1-.77,1.012l-7.788,8.58-1.188-1.5A6.53,6.53,0,0,1-.2-19.36a7.362,7.362,0,0,1,1.43-.176,7.655,7.655,0,0,1,4.51,1.342A8.925,8.925,0,0,1,8.69-14.718a10.405,10.405,0,0,1,1.034,4.6A10.589,10.589,0,0,1,8.272-4.488,9.532,9.532,0,0,1,4.18-.836,14,14,0,0,1-1.98.44a13.194,13.194,0,0,1-3.212-.4A10.584,10.584,0,0,1-7.92-1.012a3.021,3.021,0,0,1-1.3-1.166,2.641,2.641,0,0,1-.33-1.21A3,3,0,0,1-8.822-5.3,2.25,2.25,0,0,1-7-6.2Z" transform="translate(217 444)"/>
    </g>
    <path id="Trazado_313" data-name="Trazado 313" d="M-2.4.44A13.19,13.19,0,0,1-5.874-.066,8.152,8.152,0,0,1-8.91-1.54a3.325,3.325,0,0,1-.9-1.254,3.74,3.74,0,0,1-.33-1.474A2.006,2.006,0,0,1-9.5-5.676a2.423,2.423,0,0,1,1.826-.66A3.733,3.733,0,0,1-5.7-5.5a10.828,10.828,0,0,0,1.54.792,4.382,4.382,0,0,0,1.716.352,7.113,7.113,0,0,0,3.41-.836A6.869,6.869,0,0,0,3.476-7.436a5.34,5.34,0,0,0,.946-3.036,5.144,5.144,0,0,0-.77-2.86A5.333,5.333,0,0,0,1.628-15.18a5.723,5.723,0,0,0-2.706-.66,5.922,5.922,0,0,0-2.376.44q-1.012.44-1.848.9a3.43,3.43,0,0,1-1.672.462,3.13,3.13,0,0,1-2.156-.638,2.734,2.734,0,0,1-.88-1.518,4.972,4.972,0,0,1-.088-1.584l1.364-10.912a2.511,2.511,0,0,1,.9-1.518A2.658,2.658,0,0,1-6.094-30.8H6.622a2.388,2.388,0,0,1,1.76.7,2.388,2.388,0,0,1,.7,1.76,2.263,2.263,0,0,1-.7,1.694,2.429,2.429,0,0,1-1.76.682H-4.73l.484-.4L-5.434-17.2l-.572-1.672a2.5,2.5,0,0,1,1.144-.836,12.09,12.09,0,0,1,2.024-.682A9.231,9.231,0,0,1-.594-20.68a10.393,10.393,0,0,1,5.28,1.342A9.865,9.865,0,0,1,8.36-15.686,10.187,10.187,0,0,1,9.7-10.472,9.587,9.587,0,0,1,8.734-6.2,11.116,11.116,0,0,1,6.072-2.728,12.634,12.634,0,0,1,2.2-.4,12.72,12.72,0,0,1-2.4.44Z" transform="translate(176 282)"/>
    <g id="Grupo_376" data-name="Grupo 376" transform="translate(-258.839 162.257)">
      <g id="Unión_13" data-name="Unión 13" class="cls-6" transform="translate(386.232 131)">
        <path class="cls-11" d="M 15.00389957427979 70.65770721435547 C 10.93828773498535 70.65770721435547 7.108821392059326 70.06864929199219 4.220932483673096 68.99903869628906 C 1.176588177680969 67.87149047851562 -0.5000007152557373 66.30929565429688 -0.5000007152557373 64.60020446777344 C -0.5000007152557373 64.38673400878906 -0.4386919438838959 64.20185089111328 -0.3303329050540924 64.01653289794922 L -0.7333451509475708 63.95896148681641 L 0.3542104065418243 63.23303985595703 L 14.97729969024658 53.47239685058594 L 14.97729969024658 28.40850448608398 C 14.97729969024658 24.77166175842285 16.58090972900391 21.32773780822754 19.49272155761719 18.71112823486328 C 22.26398468017578 16.2208251953125 25.94672966003418 14.72472953796387 29.90829849243164 14.470627784729 L 29.90829849243164 14.43190574645996 L 30.40829849243164 14.43190574645996 L 41.28581619262695 14.43190574645996 L 41.28879547119141 1.648878455162048 C 41.286376953125 1.610493302345276 41.28519821166992 1.56930935382843 41.28519821166992 1.523705363273621 C 41.28519821166992 0.4078386723995209 42.14741134643555 -0.4999946653842926 43.20719909667969 -0.4999946653842926 C 43.77897644042969 -0.4999946653842926 44.30795288085938 -0.2388410270214081 44.67039108276367 0.2110053449869156 L 60.27209854125977 0.2110053449869156 L 60.77209854125977 0.2110053449869156 L 60.77209854125977 0.7110053300857544 L 60.77209854125977 8.532905578613281 L 60.77209854125977 9.032905578613281 L 60.27209854125977 9.032905578613281 L 45.12919998168945 9.032905578613281 L 45.12919998168945 14.43190574645996 L 68.76000213623047 14.43190574645996 L 69.29910278320312 14.43190574645996 L 69.79910278320312 14.43190574645996 L 69.79910278320312 14.46049499511719 C 73.80876922607422 14.67935180664062 77.5430908203125 16.16042137145996 80.36008453369141 18.65855026245117 C 83.31800079345703 21.28166007995605 84.94699859619141 24.74426078796387 84.94699859619141 28.40850448608398 L 84.94699859619141 54.74880599975586 L 84.94699859619141 55.24880599975586 L 84.44699859619141 55.24880599975586 L 69.29910278320312 55.24880599975586 L 46.76219940185547 55.24880599975586 L 44.78742599487305 55.24880599975586 L 29.75805473327637 66.52288818359375 C 27.74213409423828 68.99838256835938 21.83116149902344 70.65770721435547 15.00389957427979 70.65770721435547 Z"/>
        <path class="cls-13" d="M 15.00389957427979 70.15769958496094 C 21.82769966125488 70.15769958496094 27.58680534362793 68.47019958496094 29.40749931335449 66.16080474853516 L 44.62072372436523 54.74880218505859 L 44.62920379638672 54.74880218505859 L 46.76220703125 54.74880218505859 L 69.29910278320312 54.74880218505859 L 84.44700622558594 54.74880218505859 L 84.44700622558594 28.40849685668945 C 84.44700622558594 21.12029647827148 77.71320343017578 15.18389701843262 69.29910278320312 14.94000244140625 L 69.29910278320312 14.93189716339111 L 68.76000213623047 14.93189716339111 L 44.62920379638672 14.93189716339111 L 44.62920379638672 8.532896995544434 L 60.27209854125977 8.532896995544434 L 60.27209854125977 0.7110027074813843 L 44.40986251831055 0.7110027074813843 C 44.15784072875977 0.2839086055755615 43.71352386474609 2.733656856435118e-06 43.20720672607422 2.733656856435118e-06 C 42.42150115966797 2.733656856435118e-06 41.78520584106445 0.6822027564048767 41.78520584106445 1.523696899414062 C 41.78520584106445 1.560602784156799 41.78609848022461 1.59660267829895 41.7888069152832 1.631696820259094 L 41.78569793701172 14.93189716339111 L 30.40829849243164 14.93189716339111 L 30.40829849243164 14.94557952880859 C 22.09929847717285 15.26588535308838 15.47729969024658 21.17083740234375 15.47729969024658 28.40849685668945 L 15.47729969024658 53.82089614868164 L 15.35580539703369 53.82089614868164 L 0.6318051815032959 63.64891052246094 L 0.6444051861763 63.65070724487305 C 0.5120993256568909 63.75240325927734 0.4058992862701416 63.85500335693359 0.3276051878929138 63.95849609375 C 0.06389930099248886 64.277099609375 5.180448624741985e-06 64.43730926513672 5.180448624741985e-06 64.60020446777344 C 5.180448624741985e-06 67.67010498046875 6.717605113983154 70.15769958496094 15.00389957427979 70.15769958496094 M 15.00389957427979 71.15769958496094 C 10.8804988861084 71.15769958496094 6.989369869232178 70.55759429931641 4.047275543212891 69.46791076660156 C 2.554616928100586 68.91506958007812 1.367969870567322 68.25834655761719 0.5202757716178894 67.51596832275391 C -0.73624187707901 66.41556549072266 -0.9999948143959045 65.32299041748047 -0.9999948143959045 64.60020446777344 C -0.9999948143959045 64.54093170166016 -0.9966796636581421 64.48335266113281 -0.9903873205184937 64.42732238769531 L -2.098477125167847 64.26902770996094 L 0.07664047181606293 62.81716918945312 L 14.47729969024658 53.20497894287109 L 14.47729969024658 28.40849685668945 C 14.47729969024658 24.62790870666504 16.13979339599609 21.05190849304199 19.15852355957031 18.33922576904297 C 21.90361976623535 15.87244319915771 25.51323699951172 14.35285091400146 29.40829849243164 14.00741291046143 L 29.40829849243164 13.93189716339111 L 30.40829849243164 13.93189716339111 L 40.78593444824219 13.93189716339111 L 40.78879928588867 1.663520574569702 C 40.78638458251953 1.619652390480042 40.78520584106445 1.573508262634277 40.78520584106445 1.523696899414062 C 40.78520584106445 0.1321321427822113 41.87171173095703 -0.9999972581863403 43.20720672607422 -0.9999972581863403 C 43.84971618652344 -0.9999972581863403 44.44841766357422 -0.7417757511138916 44.89412689208984 -0.2889972627162933 L 60.27209854125977 -0.2889972627162933 L 61.27209854125977 -0.2889972627162933 L 61.27209854125977 0.7110027074813843 L 61.27209854125977 8.532896995544434 L 61.27209854125977 9.532896995544434 L 60.27209854125977 9.532896995544434 L 45.62920379638672 9.532896995544434 L 45.62920379638672 13.93189716339111 L 68.76000213623047 13.93189716339111 L 69.29910278320312 13.93189716339111 L 70.29910278320312 13.93189716339111 L 70.29910278320312 13.99283123016357 C 74.24153900146484 14.30475807189941 77.9017333984375 15.81016254425049 80.69184112548828 18.28445053100586 C 83.75825500488281 21.0037784576416 85.44700622558594 24.5992374420166 85.44700622558594 28.40849685668945 L 85.44700622558594 54.74880218505859 L 85.44700622558594 55.74880218505859 L 84.44700622558594 55.74880218505859 L 69.29910278320312 55.74880218505859 L 46.76220703125 55.74880218505859 L 44.9541130065918 55.74880218505859 L 30.10578346252441 66.8870849609375 C 28.77236366271973 68.48255920410156 26.25290489196777 69.45217895507812 24.35321617126465 69.98775482177734 C 21.63838195800781 70.75313568115234 18.40544128417969 71.15769958496094 15.00389957427979 71.15769958496094 Z"/>
      </g>
      <g id="Grupo_26" data-name="Grupo 26" transform="translate(386.233 131)">
        <path id="Unión_10" data-name="Unión 10" class="cls-7" d="M0,17,0,1.626q0-.053,0-.108A1.509,1.509,0,0,1,1.5,0,1.508,1.508,0,0,1,3,1.436H3V1.5c0,.007,0,.014,0,.021s0,.019,0,.029L2.959,17Z" transform="translate(41.607 -0.257)"/>
        <rect id="Rectángulo_34" data-name="Rectángulo 34" class="cls-7" width="17" height="8" transform="translate(43.607 0.743)"/>
        <path id="Unión_8" data-name="Unión 8" class="cls-7" d="M38.863,40H0V0H38.863V.008C47.271.253,54,6.217,54,13.539V40Z" transform="translate(30.607 14.743)"/>
        <path id="Unión_9" data-name="Unión 9" class="cls-7" d="M0,40V13.538C0,6.061,6.939,0,15.5,0S31,6.061,31,13.538V40Z" transform="translate(15.607 14.743)"/>
        <path id="Unión_11" data-name="Unión 11" class="cls-7" d="M0,16.337,16.45,4c1.82-2.31,7.58-4,14.4-4,8.286,0,15,2.488,15,5.558,0,.163-.063.323-.328.642a1.679,1.679,0,0,1-.316.308h.012L30.5,16.337Z" transform="translate(45.857 70.158) rotate(180)"/>
        <path id="Unión_12" data-name="Unión 12" class="cls-8" d="M0,38V12.861C0,5.758,6.268,0,14,0S28,5.758,28,12.861V38Z" transform="translate(16.607 16.743)"/>
        <rect id="Rectángulo_36" data-name="Rectángulo 36" class="cls-9" width="1" height="14" transform="translate(43.607 0.743)"/>
        <path id="Trazado_314" data-name="Trazado 314" class="cls-10" d="M3.633-8.547v-4.767h3.99a9.741,9.741,0,0,1,1.228.073,2.725,2.725,0,0,1,1.019.326,1.791,1.791,0,0,1,.693.714,2.646,2.646,0,0,1,.252,1.26,2.165,2.165,0,0,1-.745,1.8,3.934,3.934,0,0,1-2.446.6ZM1.638-14.994V0H8.883a4.912,4.912,0,0,0,1.964-.368,4.356,4.356,0,0,0,1.428-.966,4,4,0,0,0,.872-1.375,4.475,4.475,0,0,0,.294-1.6A3.771,3.771,0,0,0,12.7-6.657a3.451,3.451,0,0,0-2.121-1.26v-.042A3.4,3.4,0,0,0,12.233-9.25a3.658,3.658,0,0,0,.578-2.068A3.386,3.386,0,0,0,12.3-13.23a3.906,3.906,0,0,0-1.249-1.218,2.566,2.566,0,0,0-.809-.315,8.414,8.414,0,0,0-1.019-.157q-.546-.052-1.1-.063t-1.039-.01ZM3.633-1.68V-6.867H8.19a6.306,6.306,0,0,1,1.218.115,3.036,3.036,0,0,1,1.04.4,2.118,2.118,0,0,1,.724.766,2.45,2.45,0,0,1,.273,1.218A2.6,2.6,0,0,1,10.7-2.394a2.868,2.868,0,0,1-2.069.714ZM16.107-14.994V0h2V-14.994ZM30.135-10.6h1.89a5.286,5.286,0,0,0-.472-2.132,4.153,4.153,0,0,0-1.176-1.48,4.851,4.851,0,0,0-1.733-.861,8.012,8.012,0,0,0-2.142-.273,7.691,7.691,0,0,0-2.005.262,5.514,5.514,0,0,0-1.743.8,4.039,4.039,0,0,0-1.229,1.365,3.973,3.973,0,0,0-.462,1.963,3.279,3.279,0,0,0,.41,1.712,3.32,3.32,0,0,0,1.092,1.113,6.346,6.346,0,0,0,1.544.693q.861.262,1.753.462t1.753.388a7.994,7.994,0,0,1,1.544.494,3.009,3.009,0,0,1,1.092.787,1.882,1.882,0,0,1,.41,1.26,2.453,2.453,0,0,1-.336,1.344,2.445,2.445,0,0,1-.882.829,3.991,3.991,0,0,1-1.228.431,7.448,7.448,0,0,1-1.355.126,6.409,6.409,0,0,1-1.638-.21,4.076,4.076,0,0,1-1.4-.651,3.342,3.342,0,0,1-.966-1.123,3.387,3.387,0,0,1-.368-1.628H20.6a5.273,5.273,0,0,0,.493,2.362A4.53,4.53,0,0,0,22.438-.935a5.886,5.886,0,0,0,1.974.956A8.792,8.792,0,0,0,26.8.336,9.115,9.115,0,0,0,28.864.094a5.986,5.986,0,0,0,1.88-.777,4.407,4.407,0,0,0,1.375-1.386,3.765,3.765,0,0,0,.535-2.047,3.76,3.76,0,0,0-.41-1.848,3.648,3.648,0,0,0-1.092-1.218,5.784,5.784,0,0,0-1.543-.766q-.861-.283-1.754-.494T26.1-8.831a9.182,9.182,0,0,1-1.543-.451,3.036,3.036,0,0,1-1.092-.7,1.563,1.563,0,0,1-.41-1.123,2.435,2.435,0,0,1,.284-1.229,2.2,2.2,0,0,1,.756-.788,3.29,3.29,0,0,1,1.081-.42,6.1,6.1,0,0,1,1.239-.126,4.234,4.234,0,0,1,2.552.724A3.124,3.124,0,0,1,30.135-10.6Z" transform="translate(46.607 44.743)"/>
      </g>
    </g>
  </g>
</svg>
