<svg xmlns="http://www.w3.org/2000/svg" width="175" height="211.501" viewBox="0 0 175 211.501">
  <g id="Grupo_366" data-name="Grupo 366" transform="translate(-88.687 -233)">
    <g id="Grupo_109" data-name="Grupo 109" transform="translate(88.334 233)">
      <g id="Rectángulo_4" data-name="Rectángulo 4" transform="translate(0.352)" fill="#fff" stroke="#000" stroke-width="1">
        <rect width="175" height="175" rx="19" stroke="none"/>
        <rect x="0.5" y="0.5" width="174" height="174" rx="18.5" fill="none"/>
      </g>
    </g>
    <g id="Grupo_259" data-name="Grupo 259" transform="translate(0 -19)">
      <path id="Trazado_93" data-name="Trazado 93" d="M218.453,202.505l-15.917,15.948H179.978L164,202.505V179.948L179.978,164h22.557l15.917,15.948Z" transform="translate(38.988 178.47) rotate(22)" fill="#fff" stroke="#f0f0f0" stroke-width="1"/>
      <text id="_6" data-name="6" transform="translate(143 444)" fill="#f0f0f0" font-size="44" font-family="Quicksand" font-weight="700"><tspan x="-12.056" y="0">6</tspan></text>
      <path id="Trazado_95" data-name="Trazado 95" d="M218.453,202.505l-15.917,15.948H179.978L164,202.505V179.948L179.978,164h22.557l15.917,15.948Z" transform="translate(111.988 178.47) rotate(22)" fill="#858666"/>
      <text id="_3" data-name="3" transform="translate(217 444)" fill="#fff" font-size="44" font-family="Quicksand" font-weight="700"><tspan x="-11.484" y="0">3</tspan></text>
    </g>
    <g id="Grupo_365" data-name="Grupo 365" transform="translate(-137.716 -131)">
      <path id="Trazado_8" data-name="Trazado 8" d="M339.922-344.738l-41.583-42.223,41.583-40.7,43.3,42.321Z" transform="translate(-27.339 851.659)" fill="#f2986e"/>
      <path id="Trazado_9" data-name="Trazado 9" d="M3.724,0h6.611L.906,51.6H-5.7Z" transform="translate(291.507 444.923)" fill="#ec7130"/>
      <path id="Trazado_10" data-name="Trazado 10" d="M.9,0H-5.7L3.719,51.6h6.608Z" transform="translate(330.685 444.923)" fill="#ec7130"/>
      <rect id="Rectángulo_16" data-name="Rectángulo 16" width="62.818" height="8.531" transform="translate(281.594 466.39)" fill="#fac66a"/>
      <path id="Trazado_11" data-name="Trazado 11" d="M305.5-393.149h6.3l5.329-8.513H305.5Z" transform="translate(-23.909 868.07)" fill="#ec7130"/>
      <path id="Trazado_12" data-name="Trazado 12" d="M336.242-392.958H347.01v-8.513h-6.284Z" transform="translate(-2.597 867.879)" fill="#eb7132"/>
      <path id="Trazado_14" data-name="Trazado 14" d="M314.36-392.975h7.974l5.005-8.513h-8.115Z" transform="translate(1.299 867.896)" fill="#ec7130"/>
      <path id="Trazado_19" data-name="Trazado 19" d="M314.36-392.975h7.974l5.005-8.513h-8.115Z" transform="translate(-16.882 867.896)" fill="#ec7130"/>
      <g id="Grupo_10" data-name="Grupo 10" transform="translate(281.594 450.879)">
        <rect id="Rectángulo_17" data-name="Rectángulo 17" width="62.818" height="8.531" transform="translate(0 0)" fill="#fac66a"/>
        <path id="Trazado_20" data-name="Trazado 20" d="M305.5-393.149h6.3l5.329-8.513H305.5Z" transform="translate(-305.503 401.68)" fill="#ec7130"/>
        <path id="Trazado_21" data-name="Trazado 21" d="M336.242-392.958H347.01v-8.513h-6.284Z" transform="translate(-284.192 401.489)" fill="#eb7132"/>
        <path id="Trazado_22" data-name="Trazado 22" d="M314.36-392.975h7.974l5.005-8.513h-8.115Z" transform="translate(-280.296 401.506)" fill="#ec7130"/>
        <path id="Trazado_23" data-name="Trazado 23" d="M314.36-392.975h7.974l5.005-8.513h-8.115Z" transform="translate(-298.476 401.506)" fill="#ec7130"/>
      </g>
    </g>
    <text id="_7" data-name="7" transform="translate(176 282)" font-size="44" font-family="Quicksand" font-weight="700"><tspan x="-12.518" y="0">7</tspan></text>
  </g>
</svg>
