<svg xmlns="http://www.w3.org/2000/svg" width="175" height="210.851" viewBox="0 0 175 210.851">
  <defs>
    <style>
      .cls-1, .cls-2, .cls-4 {
        fill: #fff;
      }

      .cls-1 {
        stroke: #000;
      }

      .cls-3 {
        fill: #3f3832;
      }

      .cls-5 {
        fill: #858666;
      }

      .cls-6, .cls-8 {
        stroke: none;
      }

      .cls-7 {
        fill: none;
      }

      .cls-8 {
        fill: #707070;
      }
    </style>
  </defs>
  <g id="M_1_1_T" transform="translate(-88.687 -233)">
    <g id="Grupo_109" data-name="Grupo 109" transform="translate(88.334 233)">
      <g id="Rectángulo_4" data-name="Rectángulo 4" class="cls-1" transform="translate(0.352)">
        <rect class="cls-6" width="175" height="175" rx="19"/>
        <rect class="cls-7" x="0.5" y="0.5" width="174" height="174" rx="18.5"/>
      </g>
    </g>
    <g id="Grupo_106" data-name="Grupo 106" transform="translate(116 296)">
      <g id="Grupo_46" data-name="Grupo 46" transform="translate(0 0)">
        <g id="Unión_22" data-name="Unión 22" class="cls-2" transform="translate(0)">
          <path class="cls-6" d="M 25.49951934814453 48.5 L 3.74970006942749 48.5 L 3.74970006942749 36.21768188476562 L 3.74970006942749 35.71768188476562 L 3.24970006942749 35.71768188476562 L 0.5 35.71768188476562 L 0.5 0.5 L 51.5 0.5 L 51.5 35.71768188476562 L 25.99951934814453 35.71768188476562 L 25.49951934814453 35.71768188476562 L 25.49951934814453 36.21768188476562 L 25.49951934814453 48.5 Z"/>
          <path class="cls-8" d="M 24.99951934814453 48 L 24.99951934814453 36.21768188476562 L 24.99951934814453 35.21768188476562 L 25.99951934814453 35.21768188476562 L 51 35.21768188476562 L 51 1 L 1 1 L 1 35.21768188476562 L 3.24970006942749 35.21768188476562 L 4.24970006942749 35.21768188476562 L 4.24970006942749 36.21768188476562 L 4.24970006942749 48 L 24.99951934814453 48 M 25.99951934814453 49 L 3.24970006942749 49 L 3.24970006942749 36.21768188476562 L -3.552713678800501e-15 36.21768188476562 L -3.552713678800501e-15 -3.552713678800501e-15 L 52 -3.552713678800501e-15 L 52 36.21768188476562 L 25.99951934814453 36.21768188476562 L 25.99951934814453 49 Z"/>
        </g>
      </g>
      <path id="Trazado_354" data-name="Trazado 354" d="M4.092-.792A.8.8,0,0,0,4.884,0a.81.81,0,0,0,.825-.792v-3.96H7.26a.81.81,0,0,0,.825-.792.81.81,0,0,0-.825-.792H5.709V-22.275c0-.033-.033-.066-.033-.132a1.045,1.045,0,0,0-.264-.4.762.762,0,0,0-1.122.1l-.033.033L-9.108-6.039a.762.762,0,0,0,.1,1.122.694.694,0,0,0,.5.165H4.092ZM-6.831-6.336,4.092-19.866v13.53Z" transform="translate(26 30)"/>
    </g>
    <g id="Grupo_259" data-name="Grupo 259" transform="translate(0 -19)">
      <path id="Trazado_93" data-name="Trazado 93" class="cls-3" d="M218.453,202.505l-15.917,15.948H179.978L164,202.505V179.948L179.978,164h22.557l15.917,15.948Z" transform="translate(38.988 178.47) rotate(22)"/>
      <path id="Trazado_276" data-name="Trazado 276" class="cls-4" d="M.044.44a9.2,9.2,0,0,1-4.29-.99A9.815,9.815,0,0,1-7.5-3.256,12.927,12.927,0,0,1-9.57-7.128a13.833,13.833,0,0,1-.726-4.444,23.928,23.928,0,0,1,.33-3.608A24.362,24.362,0,0,1-8.8-19.624a20.141,20.141,0,0,1,2.332-4.532,17.017,17.017,0,0,1,3.806-3.96A16.456,16.456,0,0,1,2.992-30.8,4.172,4.172,0,0,1,4-30.932,3.283,3.283,0,0,1,5.83-30.4a2.132,2.132,0,0,1,.814,1.936,2.486,2.486,0,0,1-.638,1.694A3.5,3.5,0,0,1,4.312-25.74a13.448,13.448,0,0,0-2.97,1.3,13.764,13.764,0,0,0-2.728,2.09,13.026,13.026,0,0,0-2.156,2.794,11.707,11.707,0,0,0-1.3,3.366l-1.188-.044A18.4,18.4,0,0,1-4.51-17.842a8.785,8.785,0,0,1,2.2-1.5,6.859,6.859,0,0,1,3.058-.638,7.985,7.985,0,0,1,3.41.792,10.816,10.816,0,0,1,3.08,2.178A10.775,10.775,0,0,1,9.46-13.75,9.646,9.646,0,0,1,10.3-9.768,9.888,9.888,0,0,1,8.91-4.62a10.378,10.378,0,0,1-3.7,3.7A9.976,9.976,0,0,1,.044.44Zm0-4.84a4.661,4.661,0,0,0,2.53-.7A5.049,5.049,0,0,0,4.356-7.04a5.684,5.684,0,0,0,.66-2.728,5.649,5.649,0,0,0-.66-2.75,5.092,5.092,0,0,0-1.782-1.914,4.661,4.661,0,0,0-2.53-.7,4.661,4.661,0,0,0-2.53.7,5.092,5.092,0,0,0-1.782,1.914,5.649,5.649,0,0,0-.66,2.75,5.684,5.684,0,0,0,.66,2.728A5.049,5.049,0,0,0-2.486-5.1,4.661,4.661,0,0,0,.044-4.4Z" transform="translate(143 444)"/>
      <path id="Trazado_95" data-name="Trazado 95" class="cls-5" d="M218.453,202.505l-15.917,15.948H179.978L164,202.505V179.948L179.978,164h22.557l15.917,15.948Z" transform="translate(111.988 178.47) rotate(22)"/>
      <path id="Trazado_277" data-name="Trazado 277" class="cls-4" d="M-7-6.2a3.136,3.136,0,0,1,.858.132A3.633,3.633,0,0,1-5.1-5.544,8.218,8.218,0,0,0-3.322-4.532a6.083,6.083,0,0,0,2.4.44A5.161,5.161,0,0,0,1.65-4.774a5.612,5.612,0,0,0,2-1.936,5.529,5.529,0,0,0,.792-3.014A5.177,5.177,0,0,0,3.762-12.5a4.493,4.493,0,0,0-1.8-1.672,5.206,5.206,0,0,0-2.4-.572,6.159,6.159,0,0,0-1.606.176q-.638.176-1.232.374a4.388,4.388,0,0,1-1.386.2,1.866,1.866,0,0,1-1.562-.7,2.635,2.635,0,0,1-.55-1.672,2.427,2.427,0,0,1,.242-1.1,5.472,5.472,0,0,1,.726-1.056l7.744-8.448L3.124-25.96H-7.7a2.388,2.388,0,0,1-1.76-.7,2.388,2.388,0,0,1-.7-1.76,2.263,2.263,0,0,1,.7-1.694A2.429,2.429,0,0,1-7.7-30.8H5.764a2.632,2.632,0,0,1,2.046.748,2.7,2.7,0,0,1,.682,1.892,2.279,2.279,0,0,1-.286,1.1,4.407,4.407,0,0,1-.77,1.012l-7.788,8.58-1.188-1.5A6.53,6.53,0,0,1-.2-19.36a7.362,7.362,0,0,1,1.43-.176,7.655,7.655,0,0,1,4.51,1.342A8.925,8.925,0,0,1,8.69-14.718a10.405,10.405,0,0,1,1.034,4.6A10.589,10.589,0,0,1,8.272-4.488,9.532,9.532,0,0,1,4.18-.836,14,14,0,0,1-1.98.44a13.194,13.194,0,0,1-3.212-.4A10.584,10.584,0,0,1-7.92-1.012a3.021,3.021,0,0,1-1.3-1.166,2.641,2.641,0,0,1-.33-1.21A3,3,0,0,1-8.822-5.3,2.25,2.25,0,0,1-7-6.2Z" transform="translate(217 444)"/>
    </g>
    <g id="Grupo_329" data-name="Grupo 329" transform="translate(191 296)">
      <g id="Grupo_46-2" data-name="Grupo 46" transform="translate(0 0)">
        <g id="Unión_22-2" data-name="Unión 22" class="cls-2" transform="translate(0)">
          <path class="cls-6" d="M 25.49951934814453 48.5 L 3.74970006942749 48.5 L 3.74970006942749 36.21768188476562 L 3.74970006942749 35.71768188476562 L 3.24970006942749 35.71768188476562 L 0.5 35.71768188476562 L 0.5 0.5 L 51.5 0.5 L 51.5 35.71768188476562 L 25.99951934814453 35.71768188476562 L 25.49951934814453 35.71768188476562 L 25.49951934814453 36.21768188476562 L 25.49951934814453 48.5 Z"/>
          <path class="cls-8" d="M 24.99951934814453 48 L 24.99951934814453 36.21768188476562 L 24.99951934814453 35.21768188476562 L 25.99951934814453 35.21768188476562 L 51 35.21768188476562 L 51 1 L 1 1 L 1 35.21768188476562 L 3.24970006942749 35.21768188476562 L 4.24970006942749 35.21768188476562 L 4.24970006942749 36.21768188476562 L 4.24970006942749 48 L 24.99951934814453 48 M 25.99951934814453 49 L 3.24970006942749 49 L 3.24970006942749 36.21768188476562 L -3.552713678800501e-15 36.21768188476562 L -3.552713678800501e-15 -3.552713678800501e-15 L 52 -3.552713678800501e-15 L 52 36.21768188476562 L 25.99951934814453 36.21768188476562 L 25.99951934814453 49 Z"/>
        </g>
      </g>
      <path id="Trazado_353" data-name="Trazado 353" d="M4.092-.792A.8.8,0,0,0,4.884,0a.81.81,0,0,0,.825-.792v-3.96H7.26a.81.81,0,0,0,.825-.792.81.81,0,0,0-.825-.792H5.709V-22.275c0-.033-.033-.066-.033-.132a1.045,1.045,0,0,0-.264-.4.762.762,0,0,0-1.122.1l-.033.033L-9.108-6.039a.762.762,0,0,0,.1,1.122.694.694,0,0,0,.5.165H4.092ZM-6.831-6.336,4.092-19.866v13.53Z" transform="translate(26 30)"/>
    </g>
  </g>
</svg>
