<svg xmlns="http://www.w3.org/2000/svg" width="175" height="210.851" viewBox="0 0 175 210.851">
  <defs>
    <style>
      .cls-1, .cls-2, .cls-4 {
        fill: #fff;
      }

      .cls-1 {
        stroke: #000;
      }

      .cls-3 {
        fill: #3f3832;
      }

      .cls-5 {
        fill: #858666;
      }

      .cls-6, .cls-8 {
        stroke: none;
      }

      .cls-7 {
        fill: none;
      }

      .cls-8 {
        fill: #707070;
      }
    </style>
  </defs>
  <g id="M_1_0_T" transform="translate(-88.687 -233)">
    <g id="Grupo_109" data-name="Grupo 109" transform="translate(88.334 233)">
      <g id="Rectángulo_4" data-name="Rectángulo 4" class="cls-1" transform="translate(0.352)">
        <rect class="cls-6" width="175" height="175" rx="19"/>
        <rect class="cls-7" x="0.5" y="0.5" width="174" height="174" rx="18.5"/>
      </g>
    </g>
    <g id="Grupo_106" data-name="Grupo 106" transform="translate(116 296)">
      <g id="Grupo_46" data-name="Grupo 46" transform="translate(0 0)">
        <g id="Unión_22" data-name="Unión 22" class="cls-2" transform="translate(0)">
          <path class="cls-6" d="M 25.49951934814453 48.5 L 3.74970006942749 48.5 L 3.74970006942749 36.21768188476562 L 3.74970006942749 35.71768188476562 L 3.24970006942749 35.71768188476562 L 0.5 35.71768188476562 L 0.5 0.5 L 51.5 0.5 L 51.5 35.71768188476562 L 25.99951934814453 35.71768188476562 L 25.49951934814453 35.71768188476562 L 25.49951934814453 36.21768188476562 L 25.49951934814453 48.5 Z"/>
          <path class="cls-8" d="M 24.99951934814453 48 L 24.99951934814453 36.21768188476562 L 24.99951934814453 35.21768188476562 L 25.99951934814453 35.21768188476562 L 51 35.21768188476562 L 51 1 L 1 1 L 1 35.21768188476562 L 3.24970006942749 35.21768188476562 L 4.24970006942749 35.21768188476562 L 4.24970006942749 36.21768188476562 L 4.24970006942749 48 L 24.99951934814453 48 M 25.99951934814453 49 L 3.24970006942749 49 L 3.24970006942749 36.21768188476562 L -3.552713678800501e-15 36.21768188476562 L -3.552713678800501e-15 -3.552713678800501e-15 L 52 -3.552713678800501e-15 L 52 36.21768188476562 L 25.99951934814453 36.21768188476562 L 25.99951934814453 49 Z"/>
        </g>
      </g>
      <path id="Trazado_355" data-name="Trazado 355" d="M-2.128,0A8.017,8.017,0,0,0,3.415-2.277,7.735,7.735,0,0,0,5.693-7.821a7.627,7.627,0,0,0-2.277-5.544A7.607,7.607,0,0,0-2.1-15.642a7.784,7.784,0,0,0-3.927,1.056L-5.2-21.45H4.867a.8.8,0,0,0,.825-.825.817.817,0,0,0-.825-.825H-5.891a.749.749,0,0,0-.528.2.693.693,0,0,0-.33.594L-7.871-13a1.429,1.429,0,0,1-.033.165.643.643,0,0,0,.033.264.121.121,0,0,0,.033.1v.033a.513.513,0,0,0,.2.264.8.8,0,0,0,1.155,0A6.114,6.114,0,0,1-2.1-13.992,6.142,6.142,0,0,1,2.26-12.21,6.163,6.163,0,0,1,4.043-7.821,6.1,6.1,0,0,1,2.227-3.465,6.1,6.1,0,0,1-2.128-1.65,6.2,6.2,0,0,1-6.484-3.432a.837.837,0,0,0-1.188,0,.8.8,0,0,0,0,1.155A7.817,7.817,0,0,0-2.128,0Z" transform="translate(26 30)"/>
    </g>
    <g id="Grupo_259" data-name="Grupo 259" transform="translate(0 -19)">
      <path id="Trazado_93" data-name="Trazado 93" class="cls-3" d="M218.453,202.505l-15.917,15.948H179.978L164,202.505V179.948L179.978,164h22.557l15.917,15.948Z" transform="translate(38.988 178.47) rotate(22)"/>
      <path id="Trazado_272" data-name="Trazado 272" class="cls-4" d="M4.928-15.62,4.84-16.632a10.055,10.055,0,0,1,2.9,1.936,8.786,8.786,0,0,1,1.892,2.6,6.77,6.77,0,0,1,.66,2.9A8.146,8.146,0,0,1,8.91-4.6,10.124,10.124,0,0,1,5.192-1.254,10.786,10.786,0,0,1,0,0,10.786,10.786,0,0,1-5.192-1.254,10.124,10.124,0,0,1-8.91-4.6,8.146,8.146,0,0,1-10.3-9.2a6.833,6.833,0,0,1,.858-3.5A8.6,8.6,0,0,1-7.282-15.18a16.649,16.649,0,0,1,2.574-1.672L-5.06-15.62a8.646,8.646,0,0,1-2.134-1.254,6.293,6.293,0,0,1-1.694-2.09,6.428,6.428,0,0,1-.66-2.992,8.136,8.136,0,0,1,1.276-4.466,9.285,9.285,0,0,1,3.454-3.19A9.9,9.9,0,0,1,0-30.8a9.735,9.735,0,0,1,4.818,1.188,9.381,9.381,0,0,1,3.41,3.19A8.136,8.136,0,0,1,9.5-21.956a6.176,6.176,0,0,1-.748,3.168,6.389,6.389,0,0,1-1.8,2.024A10.274,10.274,0,0,1,4.928-15.62Zm-9.2-6.248a4.049,4.049,0,0,0,.55,2.112A4.07,4.07,0,0,0-2.2-18.282a4.374,4.374,0,0,0,2.2.55,4.254,4.254,0,0,0,2.178-.55,4.119,4.119,0,0,0,1.5-1.474,4.049,4.049,0,0,0,.55-2.112,3.894,3.894,0,0,0-1.21-2.926A4.172,4.172,0,0,0,0-25.96a4.229,4.229,0,0,0-3.058,1.166A3.894,3.894,0,0,0-4.268-21.868ZM0-4.84a5.155,5.155,0,0,0,3.564-1.3A4.068,4.068,0,0,0,5.016-9.284a4.1,4.1,0,0,0-.66-2.288,4.678,4.678,0,0,0-1.8-1.606A5.454,5.454,0,0,0,0-13.772a5.454,5.454,0,0,0-2.552.594,4.678,4.678,0,0,0-1.8,1.606,4.1,4.1,0,0,0-.66,2.288A4.068,4.068,0,0,0-3.564-6.138,5.155,5.155,0,0,0,0-4.84Z" transform="translate(143 444)"/>
      <path id="Trazado_95" data-name="Trazado 95" class="cls-5" d="M218.453,202.505l-15.917,15.948H179.978L164,202.505V179.948L179.978,164h22.557l15.917,15.948Z" transform="translate(111.988 178.47) rotate(22)"/>
      <path id="Trazado_273" data-name="Trazado 273" class="cls-4" d="M5.06,0A2.474,2.474,0,0,1,3.212-.77a2.639,2.639,0,0,1-.748-1.914v-20.68l.924.22L-5.1-12.628l-.22-.572H9.592a2.388,2.388,0,0,1,1.76.7,2.388,2.388,0,0,1,.7,1.76,2.263,2.263,0,0,1-.7,1.694,2.429,2.429,0,0,1-1.76.682H-8.976a2.692,2.692,0,0,1-1.782-.748,2.356,2.356,0,0,1-.858-1.848,2.683,2.683,0,0,1,.66-1.76l13.9-17.028a2.505,2.505,0,0,1,.924-.77A2.813,2.813,0,0,1,5.148-30.8a2.455,2.455,0,0,1,1.87.77,2.682,2.682,0,0,1,.726,1.914V-2.684A2.6,2.6,0,0,1,6.974-.77,2.6,2.6,0,0,1,5.06,0Z" transform="translate(217 444)"/>
    </g>
    <g id="Grupo_329" data-name="Grupo 329" transform="translate(191 296)">
      <g id="Grupo_46-2" data-name="Grupo 46" transform="translate(0 0)">
        <g id="Unión_22-2" data-name="Unión 22" class="cls-2" transform="translate(0)">
          <path class="cls-6" d="M 25.49951934814453 48.5 L 3.74970006942749 48.5 L 3.74970006942749 36.21768188476562 L 3.74970006942749 35.71768188476562 L 3.24970006942749 35.71768188476562 L 0.5 35.71768188476562 L 0.5 0.5 L 51.5 0.5 L 51.5 35.71768188476562 L 25.99951934814453 35.71768188476562 L 25.49951934814453 35.71768188476562 L 25.49951934814453 36.21768188476562 L 25.49951934814453 48.5 Z"/>
          <path class="cls-8" d="M 24.99951934814453 48 L 24.99951934814453 36.21768188476562 L 24.99951934814453 35.21768188476562 L 25.99951934814453 35.21768188476562 L 51 35.21768188476562 L 51 1 L 1 1 L 1 35.21768188476562 L 3.24970006942749 35.21768188476562 L 4.24970006942749 35.21768188476562 L 4.24970006942749 36.21768188476562 L 4.24970006942749 48 L 24.99951934814453 48 M 25.99951934814453 49 L 3.24970006942749 49 L 3.24970006942749 36.21768188476562 L -3.552713678800501e-15 36.21768188476562 L -3.552713678800501e-15 -3.552713678800501e-15 L 52 -3.552713678800501e-15 L 52 36.21768188476562 L 25.99951934814453 36.21768188476562 L 25.99951934814453 49 Z"/>
        </g>
      </g>
      <path id="Trazado_356" data-name="Trazado 356" d="M-2.128,0A8.017,8.017,0,0,0,3.415-2.277,7.735,7.735,0,0,0,5.693-7.821a7.627,7.627,0,0,0-2.277-5.544A7.607,7.607,0,0,0-2.1-15.642a7.784,7.784,0,0,0-3.927,1.056L-5.2-21.45H4.867a.8.8,0,0,0,.825-.825.817.817,0,0,0-.825-.825H-5.891a.749.749,0,0,0-.528.2.693.693,0,0,0-.33.594L-7.871-13a1.429,1.429,0,0,1-.033.165.643.643,0,0,0,.033.264.121.121,0,0,0,.033.1v.033a.513.513,0,0,0,.2.264.8.8,0,0,0,1.155,0A6.114,6.114,0,0,1-2.1-13.992,6.142,6.142,0,0,1,2.26-12.21,6.163,6.163,0,0,1,4.043-7.821,6.1,6.1,0,0,1,2.227-3.465,6.1,6.1,0,0,1-2.128-1.65,6.2,6.2,0,0,1-6.484-3.432a.837.837,0,0,0-1.188,0,.8.8,0,0,0,0,1.155A7.817,7.817,0,0,0-2.128,0Z" transform="translate(26 30)"/>
    </g>
  </g>
</svg>
