<svg xmlns="http://www.w3.org/2000/svg" width="175" height="211.501" viewBox="0 0 175 211.501">
  <defs>
    <style>
      .cls-1, .cls-2, .cls-5, .cls-6 {
        fill: #fff;
      }

      .cls-1 {
        stroke: #000;
      }

      .cls-2 {
        stroke: #f0f0f0;
      }

      .cls-3 {
        fill: #f0f0f0;
      }

      .cls-4 {
        fill: #858666;
      }

      .cls-7 {
        fill: #bebbbb;
      }

      .cls-10, .cls-8 {
        stroke: none;
      }

      .cls-9 {
        fill: none;
      }

      .cls-10 {
        fill: #707070;
      }
    </style>
  </defs>
  <g id="M_1_6_F" transform="translate(-4968 -3067)">
    <g id="Grupo_341" data-name="Grupo 341" transform="translate(4879 2834)">
      <g id="Grupo_109" data-name="Grupo 109" transform="translate(88.648 233)">
        <g id="Rectángulo_4" data-name="Rectángulo 4" class="cls-1" transform="translate(0.352)">
          <rect class="cls-8" width="175" height="175" rx="19"/>
          <rect class="cls-9" x="0.5" y="0.5" width="174" height="174" rx="18.5"/>
        </g>
      </g>
      <g id="Grupo_259" data-name="Grupo 259" transform="translate(0 -19)">
        <path id="Trazado_93" data-name="Trazado 93" class="cls-2" d="M218.453,202.505l-15.917,15.948H179.978L164,202.505V179.948L179.978,164h22.557l15.917,15.948Z" transform="translate(38.988 178.47) rotate(22)"/>
        <path id="Trazado_301" data-name="Trazado 301" class="cls-3" d="M4.928-15.62,4.84-16.632a10.055,10.055,0,0,1,2.9,1.936,8.786,8.786,0,0,1,1.892,2.6,6.77,6.77,0,0,1,.66,2.9A8.146,8.146,0,0,1,8.91-4.6,10.124,10.124,0,0,1,5.192-1.254,10.786,10.786,0,0,1,0,0,10.786,10.786,0,0,1-5.192-1.254,10.124,10.124,0,0,1-8.91-4.6,8.146,8.146,0,0,1-10.3-9.2a6.833,6.833,0,0,1,.858-3.5A8.6,8.6,0,0,1-7.282-15.18a16.649,16.649,0,0,1,2.574-1.672L-5.06-15.62a8.646,8.646,0,0,1-2.134-1.254,6.293,6.293,0,0,1-1.694-2.09,6.428,6.428,0,0,1-.66-2.992,8.136,8.136,0,0,1,1.276-4.466,9.285,9.285,0,0,1,3.454-3.19A9.9,9.9,0,0,1,0-30.8a9.735,9.735,0,0,1,4.818,1.188,9.381,9.381,0,0,1,3.41,3.19A8.136,8.136,0,0,1,9.5-21.956a6.176,6.176,0,0,1-.748,3.168,6.389,6.389,0,0,1-1.8,2.024A10.274,10.274,0,0,1,4.928-15.62Zm-9.2-6.248a4.049,4.049,0,0,0,.55,2.112A4.07,4.07,0,0,0-2.2-18.282a4.374,4.374,0,0,0,2.2.55,4.254,4.254,0,0,0,2.178-.55,4.119,4.119,0,0,0,1.5-1.474,4.049,4.049,0,0,0,.55-2.112,3.894,3.894,0,0,0-1.21-2.926A4.172,4.172,0,0,0,0-25.96a4.229,4.229,0,0,0-3.058,1.166A3.894,3.894,0,0,0-4.268-21.868ZM0-4.84a5.155,5.155,0,0,0,3.564-1.3A4.068,4.068,0,0,0,5.016-9.284a4.1,4.1,0,0,0-.66-2.288,4.678,4.678,0,0,0-1.8-1.606A5.454,5.454,0,0,0,0-13.772a5.454,5.454,0,0,0-2.552.594,4.678,4.678,0,0,0-1.8,1.606,4.1,4.1,0,0,0-.66,2.288A4.068,4.068,0,0,0-3.564-6.138,5.155,5.155,0,0,0,0-4.84Z" transform="translate(143 444)"/>
        <path id="Trazado_95" data-name="Trazado 95" class="cls-4" d="M218.453,202.505l-15.917,15.948H179.978L164,202.505V179.948L179.978,164h22.557l15.917,15.948Z" transform="translate(111.988 178.47) rotate(22)"/>
        <path id="Trazado_302" data-name="Trazado 302" class="cls-5" d="M5.06,0A2.474,2.474,0,0,1,3.212-.77a2.639,2.639,0,0,1-.748-1.914v-20.68l.924.22L-5.1-12.628l-.22-.572H9.592a2.388,2.388,0,0,1,1.76.7,2.388,2.388,0,0,1,.7,1.76,2.263,2.263,0,0,1-.7,1.694,2.429,2.429,0,0,1-1.76.682H-8.976a2.692,2.692,0,0,1-1.782-.748,2.356,2.356,0,0,1-.858-1.848,2.683,2.683,0,0,1,.66-1.76l13.9-17.028a2.505,2.505,0,0,1,.924-.77A2.813,2.813,0,0,1,5.148-30.8a2.455,2.455,0,0,1,1.87.77,2.682,2.682,0,0,1,.726,1.914V-2.684A2.6,2.6,0,0,1,6.974-.77,2.6,2.6,0,0,1,5.06,0Z" transform="translate(217 444)"/>
      </g>
      <g id="Grupo_352" data-name="Grupo 352" transform="translate(132.418 264.236)">
        <g id="Grupo_106" data-name="Grupo 106" transform="translate(0 0)">
          <g id="Grupo_46" data-name="Grupo 46" transform="translate(0 0)">
            <g id="Unión_22" data-name="Unión 22" class="cls-6" transform="translate(-0.418 -0.236)">
              <path class="cls-8" d="M 5.749889850616455 10.75 L 0.9999300241470337 10.75 L 0.9999300241470337 8.130499839782715 L 0.9999300241470337 7.880499839782715 L 0.7499300241470337 7.880499839782715 L 0.25 7.880499839782715 L 0.25 0.25 L 11.75 0.25 L 11.75 7.880499839782715 L 5.999889850616455 7.880499839782715 L 5.749889850616455 7.880499839782715 L 5.749889850616455 8.130499839782715 L 5.749889850616455 10.75 Z"/>
              <path class="cls-10" d="M 5.499889850616455 10.5 L 5.499889850616455 8.130499839782715 L 5.499889850616455 7.630499839782715 L 5.999889850616455 7.630499839782715 L 11.5 7.630499839782715 L 11.5 0.5 L 0.5 0.5 L 0.5 7.630499839782715 L 0.7499300241470337 7.630499839782715 L 1.249930024147034 7.630499839782715 L 1.249930024147034 8.130499839782715 L 1.249930024147034 10.5 L 5.499889850616455 10.5 M 5.999889850616455 11 L 0.7499300241470337 11 L 0.7499300241470337 8.130499839782715 L -8.881784197001252e-16 8.130499839782715 L -8.881784197001252e-16 -8.881784197001252e-16 L 12 -8.881784197001252e-16 L 12 8.130499839782715 L 5.999889850616455 8.130499839782715 L 5.999889850616455 11 Z"/>
            </g>
          </g>
        </g>
        <g id="Grupo_347" data-name="Grupo 347" transform="translate(15.168 0)">
          <g id="Grupo_46-2" data-name="Grupo 46" transform="translate(0 0)">
            <g id="Unión_22-2" data-name="Unión 22" class="cls-6" transform="translate(0.414 -0.236)">
              <path class="cls-8" d="M 5.749889850616455 10.75 L 0.9999300241470337 10.75 L 0.9999300241470337 8.130499839782715 L 0.9999300241470337 7.880499839782715 L 0.7499300241470337 7.880499839782715 L 0.25 7.880499839782715 L 0.25 0.25 L 11.75 0.25 L 11.75 7.880499839782715 L 5.999889850616455 7.880499839782715 L 5.749889850616455 7.880499839782715 L 5.749889850616455 8.130499839782715 L 5.749889850616455 10.75 Z"/>
              <path class="cls-10" d="M 5.499889850616455 10.5 L 5.499889850616455 8.130499839782715 L 5.499889850616455 7.630499839782715 L 5.999889850616455 7.630499839782715 L 11.5 7.630499839782715 L 11.5 0.5 L 0.5 0.5 L 0.5 7.630499839782715 L 0.7499300241470337 7.630499839782715 L 1.249930024147034 7.630499839782715 L 1.249930024147034 8.130499839782715 L 1.249930024147034 10.5 L 5.499889850616455 10.5 M 5.999889850616455 11 L 0.7499300241470337 11 L 0.7499300241470337 8.130499839782715 L -8.881784197001252e-16 8.130499839782715 L -8.881784197001252e-16 -8.881784197001252e-16 L 12 -8.881784197001252e-16 L 12 8.130499839782715 L 5.999889850616455 8.130499839782715 L 5.999889850616455 11 Z"/>
            </g>
          </g>
        </g>
        <g id="Grupo_348" data-name="Grupo 348" transform="translate(30.336 0)">
          <g id="Grupo_46-3" data-name="Grupo 46" transform="translate(0 0)">
            <g id="Unión_22-3" data-name="Unión 22" class="cls-6" transform="translate(0.246 -0.236)">
              <path class="cls-8" d="M 5.749889850616455 10.75 L 0.9999300241470337 10.75 L 0.9999300241470337 8.130499839782715 L 0.9999300241470337 7.880499839782715 L 0.7499300241470337 7.880499839782715 L 0.25 7.880499839782715 L 0.25 0.25 L 11.75 0.25 L 11.75 7.880499839782715 L 5.999889850616455 7.880499839782715 L 5.749889850616455 7.880499839782715 L 5.749889850616455 8.130499839782715 L 5.749889850616455 10.75 Z"/>
              <path class="cls-10" d="M 5.499889850616455 10.5 L 5.499889850616455 8.130499839782715 L 5.499889850616455 7.630499839782715 L 5.999889850616455 7.630499839782715 L 11.5 7.630499839782715 L 11.5 0.5 L 0.5 0.5 L 0.5 7.630499839782715 L 0.7499300241470337 7.630499839782715 L 1.249930024147034 7.630499839782715 L 1.249930024147034 8.130499839782715 L 1.249930024147034 10.5 L 5.499889850616455 10.5 M 5.999889850616455 11 L 0.7499300241470337 11 L 0.7499300241470337 8.130499839782715 L -8.881784197001252e-16 8.130499839782715 L -8.881784197001252e-16 -8.881784197001252e-16 L 12 -8.881784197001252e-16 L 12 8.130499839782715 L 5.999889850616455 8.130499839782715 L 5.999889850616455 11 Z"/>
            </g>
          </g>
        </g>
        <g id="Grupo_349" data-name="Grupo 349" transform="translate(45.504 0)">
          <g id="Grupo_46-4" data-name="Grupo 46" transform="translate(0 0)">
            <g id="Unión_22-4" data-name="Unión 22" class="cls-6" transform="translate(0.078 -0.236)">
              <path class="cls-8" d="M 5.749889850616455 10.75 L 0.9999300241470337 10.75 L 0.9999300241470337 8.130499839782715 L 0.9999300241470337 7.880499839782715 L 0.7499300241470337 7.880499839782715 L 0.25 7.880499839782715 L 0.25 0.25 L 11.75 0.25 L 11.75 7.880499839782715 L 5.999889850616455 7.880499839782715 L 5.749889850616455 7.880499839782715 L 5.749889850616455 8.130499839782715 L 5.749889850616455 10.75 Z"/>
              <path class="cls-10" d="M 5.499889850616455 10.5 L 5.499889850616455 8.130499839782715 L 5.499889850616455 7.630499839782715 L 5.999889850616455 7.630499839782715 L 11.5 7.630499839782715 L 11.5 0.5 L 0.5 0.5 L 0.5 7.630499839782715 L 0.7499300241470337 7.630499839782715 L 1.249930024147034 7.630499839782715 L 1.249930024147034 8.130499839782715 L 1.249930024147034 10.5 L 5.499889850616455 10.5 M 5.999889850616455 11 L 0.7499300241470337 11 L 0.7499300241470337 8.130499839782715 L -8.881784197001252e-16 8.130499839782715 L -8.881784197001252e-16 -8.881784197001252e-16 L 12 -8.881784197001252e-16 L 12 8.130499839782715 L 5.999889850616455 8.130499839782715 L 5.999889850616455 11 Z"/>
            </g>
          </g>
        </g>
        <g id="Grupo_350" data-name="Grupo 350" transform="translate(59.724 0)">
          <g id="Grupo_46-5" data-name="Grupo 46" transform="translate(0 0)">
            <g id="Unión_22-5" data-name="Unión 22" class="cls-6" transform="translate(-0.142 -0.236)">
              <path class="cls-8" d="M 5.749889850616455 10.75 L 0.9999300241470337 10.75 L 0.9999300241470337 8.130499839782715 L 0.9999300241470337 7.880499839782715 L 0.7499300241470337 7.880499839782715 L 0.25 7.880499839782715 L 0.25 0.25 L 11.75 0.25 L 11.75 7.880499839782715 L 5.999889850616455 7.880499839782715 L 5.749889850616455 7.880499839782715 L 5.749889850616455 8.130499839782715 L 5.749889850616455 10.75 Z"/>
              <path class="cls-10" d="M 5.499889850616455 10.5 L 5.499889850616455 8.130499839782715 L 5.499889850616455 7.630499839782715 L 5.999889850616455 7.630499839782715 L 11.5 7.630499839782715 L 11.5 0.5 L 0.5 0.5 L 0.5 7.630499839782715 L 0.7499300241470337 7.630499839782715 L 1.249930024147034 7.630499839782715 L 1.249930024147034 8.130499839782715 L 1.249930024147034 10.5 L 5.499889850616455 10.5 M 5.999889850616455 11 L 0.7499300241470337 11 L 0.7499300241470337 8.130499839782715 L -8.881784197001252e-16 8.130499839782715 L -8.881784197001252e-16 -8.881784197001252e-16 L 12 -8.881784197001252e-16 L 12 8.130499839782715 L 5.999889850616455 8.130499839782715 L 5.999889850616455 11 Z"/>
            </g>
          </g>
        </g>
        <g id="Grupo_351" data-name="Grupo 351" transform="translate(74.892 0)">
          <g id="Grupo_46-6" data-name="Grupo 46" transform="translate(0 0)">
            <g id="Unión_22-6" data-name="Unión 22" class="cls-6" transform="translate(-0.31 -0.236)">
              <path class="cls-8" d="M 5.749889850616455 10.75 L 0.9999300241470337 10.75 L 0.9999300241470337 8.130499839782715 L 0.9999300241470337 7.880499839782715 L 0.7499300241470337 7.880499839782715 L 0.25 7.880499839782715 L 0.25 0.25 L 11.75 0.25 L 11.75 7.880499839782715 L 5.999889850616455 7.880499839782715 L 5.749889850616455 7.880499839782715 L 5.749889850616455 8.130499839782715 L 5.749889850616455 10.75 Z"/>
              <path class="cls-10" d="M 5.499889850616455 10.5 L 5.499889850616455 8.130499839782715 L 5.499889850616455 7.630499839782715 L 5.999889850616455 7.630499839782715 L 11.5 7.630499839782715 L 11.5 0.5 L 0.5 0.5 L 0.5 7.630499839782715 L 0.7499300241470337 7.630499839782715 L 1.249930024147034 7.630499839782715 L 1.249930024147034 8.130499839782715 L 1.249930024147034 10.5 L 5.499889850616455 10.5 M 5.999889850616455 11 L 0.7499300241470337 11 L 0.7499300241470337 8.130499839782715 L -8.881784197001252e-16 8.130499839782715 L -8.881784197001252e-16 -8.881784197001252e-16 L 12 -8.881784197001252e-16 L 12 8.130499839782715 L 5.999889850616455 8.130499839782715 L 5.999889850616455 11 Z"/>
            </g>
          </g>
        </g>
      </g>
      <g id="Grupo_353" data-name="Grupo 353" transform="translate(118.198 299.312)">
        <g id="Grupo_106-2" data-name="Grupo 106" transform="translate(15.22 0)">
          <g id="Grupo_46-7" data-name="Grupo 46" transform="translate(0 0)">
            <g id="Unión_22-7" data-name="Unión 22" class="cls-6" transform="translate(-0.418 -0.312)">
              <path class="cls-8" d="M 5.749889850616455 10.75 L 0.9999300241470337 10.75 L 0.9999300241470337 8.130499839782715 L 0.9999300241470337 7.880499839782715 L 0.7499300241470337 7.880499839782715 L 0.25 7.880499839782715 L 0.25 0.25 L 11.75 0.25 L 11.75 7.880499839782715 L 5.999889850616455 7.880499839782715 L 5.749889850616455 7.880499839782715 L 5.749889850616455 8.130499839782715 L 5.749889850616455 10.75 Z"/>
              <path class="cls-10" d="M 5.499889850616455 10.5 L 5.499889850616455 8.130499839782715 L 5.499889850616455 7.630499839782715 L 5.999889850616455 7.630499839782715 L 11.5 7.630499839782715 L 11.5 0.5 L 0.5 0.5 L 0.5 7.630499839782715 L 0.7499300241470337 7.630499839782715 L 1.249930024147034 7.630499839782715 L 1.249930024147034 8.130499839782715 L 1.249930024147034 10.5 L 5.499889850616455 10.5 M 5.999889850616455 11 L 0.7499300241470337 11 L 0.7499300241470337 8.130499839782715 L -8.881784197001252e-16 8.130499839782715 L -8.881784197001252e-16 -8.881784197001252e-16 L 12 -8.881784197001252e-16 L 12 8.130499839782715 L 5.999889850616455 8.130499839782715 L 5.999889850616455 11 Z"/>
            </g>
          </g>
        </g>
        <g id="Grupo_347-2" data-name="Grupo 347" transform="translate(29.388 0)">
          <g id="Grupo_46-8" data-name="Grupo 46" transform="translate(0 0)">
            <g id="Unión_22-8" data-name="Unión 22" class="cls-6" transform="translate(0.414 -0.312)">
              <path class="cls-8" d="M 5.749889850616455 10.75 L 0.9999300241470337 10.75 L 0.9999300241470337 8.130499839782715 L 0.9999300241470337 7.880499839782715 L 0.7499300241470337 7.880499839782715 L 0.25 7.880499839782715 L 0.25 0.25 L 11.75 0.25 L 11.75 7.880499839782715 L 5.999889850616455 7.880499839782715 L 5.749889850616455 7.880499839782715 L 5.749889850616455 8.130499839782715 L 5.749889850616455 10.75 Z"/>
              <path class="cls-10" d="M 5.499889850616455 10.5 L 5.499889850616455 8.130499839782715 L 5.499889850616455 7.630499839782715 L 5.999889850616455 7.630499839782715 L 11.5 7.630499839782715 L 11.5 0.5 L 0.5 0.5 L 0.5 7.630499839782715 L 0.7499300241470337 7.630499839782715 L 1.249930024147034 7.630499839782715 L 1.249930024147034 8.130499839782715 L 1.249930024147034 10.5 L 5.499889850616455 10.5 M 5.999889850616455 11 L 0.7499300241470337 11 L 0.7499300241470337 8.130499839782715 L -8.881784197001252e-16 8.130499839782715 L -8.881784197001252e-16 -8.881784197001252e-16 L 12 -8.881784197001252e-16 L 12 8.130499839782715 L 5.999889850616455 8.130499839782715 L 5.999889850616455 11 Z"/>
            </g>
          </g>
        </g>
        <g id="Grupo_348-2" data-name="Grupo 348" transform="translate(44.556 0)">
          <g id="Grupo_46-9" data-name="Grupo 46" transform="translate(0 0)">
            <g id="Unión_22-9" data-name="Unión 22" class="cls-6" transform="translate(0.246 -0.312)">
              <path class="cls-8" d="M 5.749889850616455 10.75 L 0.9999300241470337 10.75 L 0.9999300241470337 8.130499839782715 L 0.9999300241470337 7.880499839782715 L 0.7499300241470337 7.880499839782715 L 0.25 7.880499839782715 L 0.25 0.25 L 11.75 0.25 L 11.75 7.880499839782715 L 5.999889850616455 7.880499839782715 L 5.749889850616455 7.880499839782715 L 5.749889850616455 8.130499839782715 L 5.749889850616455 10.75 Z"/>
              <path class="cls-10" d="M 5.499889850616455 10.5 L 5.499889850616455 8.130499839782715 L 5.499889850616455 7.630499839782715 L 5.999889850616455 7.630499839782715 L 11.5 7.630499839782715 L 11.5 0.5 L 0.5 0.5 L 0.5 7.630499839782715 L 0.7499300241470337 7.630499839782715 L 1.249930024147034 7.630499839782715 L 1.249930024147034 8.130499839782715 L 1.249930024147034 10.5 L 5.499889850616455 10.5 M 5.999889850616455 11 L 0.7499300241470337 11 L 0.7499300241470337 8.130499839782715 L -8.881784197001252e-16 8.130499839782715 L -8.881784197001252e-16 -8.881784197001252e-16 L 12 -8.881784197001252e-16 L 12 8.130499839782715 L 5.999889850616455 8.130499839782715 L 5.999889850616455 11 Z"/>
            </g>
          </g>
        </g>
        <g id="Grupo_349-2" data-name="Grupo 349" transform="translate(59.723 0)">
          <g id="Grupo_46-10" data-name="Grupo 46" transform="translate(0 0)">
            <g id="Unión_22-10" data-name="Unión 22" class="cls-6" transform="translate(0.078 -0.312)">
              <path class="cls-8" d="M 5.749889850616455 10.75 L 0.9999300241470337 10.75 L 0.9999300241470337 8.130499839782715 L 0.9999300241470337 7.880499839782715 L 0.7499300241470337 7.880499839782715 L 0.25 7.880499839782715 L 0.25 0.25 L 11.75 0.25 L 11.75 7.880499839782715 L 5.999889850616455 7.880499839782715 L 5.749889850616455 7.880499839782715 L 5.749889850616455 8.130499839782715 L 5.749889850616455 10.75 Z"/>
              <path class="cls-10" d="M 5.499889850616455 10.5 L 5.499889850616455 8.130499839782715 L 5.499889850616455 7.630499839782715 L 5.999889850616455 7.630499839782715 L 11.5 7.630499839782715 L 11.5 0.5 L 0.5 0.5 L 0.5 7.630499839782715 L 0.7499300241470337 7.630499839782715 L 1.249930024147034 7.630499839782715 L 1.249930024147034 8.130499839782715 L 1.249930024147034 10.5 L 5.499889850616455 10.5 M 5.999889850616455 11 L 0.7499300241470337 11 L 0.7499300241470337 8.130499839782715 L -8.881784197001252e-16 8.130499839782715 L -8.881784197001252e-16 -8.881784197001252e-16 L 12 -8.881784197001252e-16 L 12 8.130499839782715 L 5.999889850616455 8.130499839782715 L 5.999889850616455 11 Z"/>
            </g>
          </g>
        </g>
        <g id="Grupo_350-2" data-name="Grupo 350" transform="translate(73.943 0)">
          <g id="Grupo_46-11" data-name="Grupo 46" transform="translate(0 0)">
            <g id="Unión_22-11" data-name="Unión 22" class="cls-6" transform="translate(-0.142 -0.312)">
              <path class="cls-8" d="M 5.749889850616455 10.75 L 0.9999300241470337 10.75 L 0.9999300241470337 8.130499839782715 L 0.9999300241470337 7.880499839782715 L 0.7499300241470337 7.880499839782715 L 0.25 7.880499839782715 L 0.25 0.25 L 11.75 0.25 L 11.75 7.880499839782715 L 5.999889850616455 7.880499839782715 L 5.749889850616455 7.880499839782715 L 5.749889850616455 8.130499839782715 L 5.749889850616455 10.75 Z"/>
              <path class="cls-10" d="M 5.499889850616455 10.5 L 5.499889850616455 8.130499839782715 L 5.499889850616455 7.630499839782715 L 5.999889850616455 7.630499839782715 L 11.5 7.630499839782715 L 11.5 0.5 L 0.5 0.5 L 0.5 7.630499839782715 L 0.7499300241470337 7.630499839782715 L 1.249930024147034 7.630499839782715 L 1.249930024147034 8.130499839782715 L 1.249930024147034 10.5 L 5.499889850616455 10.5 M 5.999889850616455 11 L 0.7499300241470337 11 L 0.7499300241470337 8.130499839782715 L -8.881784197001252e-16 8.130499839782715 L -8.881784197001252e-16 -8.881784197001252e-16 L 12 -8.881784197001252e-16 L 12 8.130499839782715 L 5.999889850616455 8.130499839782715 L 5.999889850616455 11 Z"/>
            </g>
          </g>
        </g>
        <g id="Grupo_351-2" data-name="Grupo 351" transform="translate(89.112 0)">
          <g id="Grupo_46-12" data-name="Grupo 46" transform="translate(0 0)">
            <g id="Unión_22-12" data-name="Unión 22" class="cls-6" transform="translate(-0.31 -0.312)">
              <path class="cls-8" d="M 5.749889850616455 10.75 L 0.9999300241470337 10.75 L 0.9999300241470337 8.130499839782715 L 0.9999300241470337 7.880499839782715 L 0.7499300241470337 7.880499839782715 L 0.25 7.880499839782715 L 0.25 0.25 L 11.75 0.25 L 11.75 7.880499839782715 L 5.999889850616455 7.880499839782715 L 5.749889850616455 7.880499839782715 L 5.749889850616455 8.130499839782715 L 5.749889850616455 10.75 Z"/>
              <path class="cls-10" d="M 5.499889850616455 10.5 L 5.499889850616455 8.130499839782715 L 5.499889850616455 7.630499839782715 L 5.999889850616455 7.630499839782715 L 11.5 7.630499839782715 L 11.5 0.5 L 0.5 0.5 L 0.5 7.630499839782715 L 0.7499300241470337 7.630499839782715 L 1.249930024147034 7.630499839782715 L 1.249930024147034 8.130499839782715 L 1.249930024147034 10.5 L 5.499889850616455 10.5 M 5.999889850616455 11 L 0.7499300241470337 11 L 0.7499300241470337 8.130499839782715 L -8.881784197001252e-16 8.130499839782715 L -8.881784197001252e-16 -8.881784197001252e-16 L 12 -8.881784197001252e-16 L 12 8.130499839782715 L 5.999889850616455 8.130499839782715 L 5.999889850616455 11 Z"/>
            </g>
          </g>
        </g>
        <g id="Grupo_354" data-name="Grupo 354" transform="translate(0 0)">
          <g id="Grupo_46-13" data-name="Grupo 46" transform="translate(0 0)">
            <g id="Unión_22-13" data-name="Unión 22" class="cls-6" transform="translate(-0.198 -0.312)">
              <path class="cls-8" d="M 5.749889850616455 10.75 L 0.9999300241470337 10.75 L 0.9999300241470337 8.130499839782715 L 0.9999300241470337 7.880499839782715 L 0.7499300241470337 7.880499839782715 L 0.25 7.880499839782715 L 0.25 0.25 L 11.75 0.25 L 11.75 7.880499839782715 L 5.999889850616455 7.880499839782715 L 5.749889850616455 7.880499839782715 L 5.749889850616455 8.130499839782715 L 5.749889850616455 10.75 Z"/>
              <path class="cls-10" d="M 5.499889850616455 10.5 L 5.499889850616455 8.130499839782715 L 5.499889850616455 7.630499839782715 L 5.999889850616455 7.630499839782715 L 11.5 7.630499839782715 L 11.5 0.5 L 0.5 0.5 L 0.5 7.630499839782715 L 0.7499300241470337 7.630499839782715 L 1.249930024147034 7.630499839782715 L 1.249930024147034 8.130499839782715 L 1.249930024147034 10.5 L 5.499889850616455 10.5 M 5.999889850616455 11 L 0.7499300241470337 11 L 0.7499300241470337 8.130499839782715 L -8.881784197001252e-16 8.130499839782715 L -8.881784197001252e-16 -8.881784197001252e-16 L 12 -8.881784197001252e-16 L 12 8.130499839782715 L 5.999889850616455 8.130499839782715 L 5.999889850616455 11 Z"/>
            </g>
          </g>
        </g>
        <g id="Grupo_355" data-name="Grupo 355" transform="translate(104.279 0)">
          <g id="Grupo_46-14" data-name="Grupo 46" transform="translate(0 0)">
            <g id="Unión_22-14" data-name="Unión 22" class="cls-6" transform="translate(-0.478 -0.312)">
              <path class="cls-8" d="M 5.749889850616455 10.75 L 0.9999300241470337 10.75 L 0.9999300241470337 8.130499839782715 L 0.9999300241470337 7.880499839782715 L 0.7499300241470337 7.880499839782715 L 0.25 7.880499839782715 L 0.25 0.25 L 11.75 0.25 L 11.75 7.880499839782715 L 5.999889850616455 7.880499839782715 L 5.749889850616455 7.880499839782715 L 5.749889850616455 8.130499839782715 L 5.749889850616455 10.75 Z"/>
              <path class="cls-10" d="M 5.499889850616455 10.5 L 5.499889850616455 8.130499839782715 L 5.499889850616455 7.630499839782715 L 5.999889850616455 7.630499839782715 L 11.5 7.630499839782715 L 11.5 0.5 L 0.5 0.5 L 0.5 7.630499839782715 L 0.7499300241470337 7.630499839782715 L 1.249930024147034 7.630499839782715 L 1.249930024147034 8.130499839782715 L 1.249930024147034 10.5 L 5.499889850616455 10.5 M 5.999889850616455 11 L 0.7499300241470337 11 L 0.7499300241470337 8.130499839782715 L -8.881784197001252e-16 8.130499839782715 L -8.881784197001252e-16 -8.881784197001252e-16 L 12 -8.881784197001252e-16 L 12 8.130499839782715 L 5.999889850616455 8.130499839782715 L 5.999889850616455 11 Z"/>
            </g>
          </g>
        </g>
      </g>
      <g id="Grupo_356" data-name="Grupo 356" transform="translate(103.03 334.388)">
        <g id="Grupo_106-3" data-name="Grupo 106" transform="translate(29.388 0)">
          <g id="Grupo_46-15" data-name="Grupo 46" transform="translate(0 0)">
            <g id="Unión_22-15" data-name="Unión 22" class="cls-7" transform="translate(-0.418 -0.388)">
              <path class="cls-8" d="M 5.749889850616455 10.75 L 0.9999300241470337 10.75 L 0.9999300241470337 8.130499839782715 L 0.9999300241470337 7.880499839782715 L 0.7499300241470337 7.880499839782715 L 0.25 7.880499839782715 L 0.25 0.25 L 11.75 0.25 L 11.75 7.880499839782715 L 5.999889850616455 7.880499839782715 L 5.749889850616455 7.880499839782715 L 5.749889850616455 8.130499839782715 L 5.749889850616455 10.75 Z"/>
              <path class="cls-10" d="M 5.499889850616455 10.5 L 5.499889850616455 8.130499839782715 L 5.499889850616455 7.630499839782715 L 5.999889850616455 7.630499839782715 L 11.5 7.630499839782715 L 11.5 0.5 L 0.5 0.5 L 0.5 7.630499839782715 L 0.7499300241470337 7.630499839782715 L 1.249930024147034 7.630499839782715 L 1.249930024147034 8.130499839782715 L 1.249930024147034 10.5 L 5.499889850616455 10.5 M 5.999889850616455 11 L 0.7499300241470337 11 L 0.7499300241470337 8.130499839782715 L -8.881784197001252e-16 8.130499839782715 L -8.881784197001252e-16 -8.881784197001252e-16 L 12 -8.881784197001252e-16 L 12 8.130499839782715 L 5.999889850616455 8.130499839782715 L 5.999889850616455 11 Z"/>
            </g>
          </g>
        </g>
        <g id="Grupo_347-3" data-name="Grupo 347" transform="translate(44.556 0)">
          <g id="Grupo_46-16" data-name="Grupo 46" transform="translate(0 0)">
            <g id="Unión_22-16" data-name="Unión 22" class="cls-7" transform="translate(0.414 -0.388)">
              <path class="cls-8" d="M 5.749889850616455 10.75 L 0.9999300241470337 10.75 L 0.9999300241470337 8.130499839782715 L 0.9999300241470337 7.880499839782715 L 0.7499300241470337 7.880499839782715 L 0.25 7.880499839782715 L 0.25 0.25 L 11.75 0.25 L 11.75 7.880499839782715 L 5.999889850616455 7.880499839782715 L 5.749889850616455 7.880499839782715 L 5.749889850616455 8.130499839782715 L 5.749889850616455 10.75 Z"/>
              <path class="cls-10" d="M 5.499889850616455 10.5 L 5.499889850616455 8.130499839782715 L 5.499889850616455 7.630499839782715 L 5.999889850616455 7.630499839782715 L 11.5 7.630499839782715 L 11.5 0.5 L 0.5 0.5 L 0.5 7.630499839782715 L 0.7499300241470337 7.630499839782715 L 1.249930024147034 7.630499839782715 L 1.249930024147034 8.130499839782715 L 1.249930024147034 10.5 L 5.499889850616455 10.5 M 5.999889850616455 11 L 0.7499300241470337 11 L 0.7499300241470337 8.130499839782715 L -8.881784197001252e-16 8.130499839782715 L -8.881784197001252e-16 -8.881784197001252e-16 L 12 -8.881784197001252e-16 L 12 8.130499839782715 L 5.999889850616455 8.130499839782715 L 5.999889850616455 11 Z"/>
            </g>
          </g>
        </g>
        <g id="Grupo_348-3" data-name="Grupo 348" transform="translate(59.724 0)">
          <g id="Grupo_46-17" data-name="Grupo 46" transform="translate(0 0)">
            <g id="Unión_22-17" data-name="Unión 22" class="cls-7" transform="translate(0.246 -0.388)">
              <path class="cls-8" d="M 5.749889850616455 10.75 L 0.9999300241470337 10.75 L 0.9999300241470337 8.130499839782715 L 0.9999300241470337 7.880499839782715 L 0.7499300241470337 7.880499839782715 L 0.25 7.880499839782715 L 0.25 0.25 L 11.75 0.25 L 11.75 7.880499839782715 L 5.999889850616455 7.880499839782715 L 5.749889850616455 7.880499839782715 L 5.749889850616455 8.130499839782715 L 5.749889850616455 10.75 Z"/>
              <path class="cls-10" d="M 5.499889850616455 10.5 L 5.499889850616455 8.130499839782715 L 5.499889850616455 7.630499839782715 L 5.999889850616455 7.630499839782715 L 11.5 7.630499839782715 L 11.5 0.5 L 0.5 0.5 L 0.5 7.630499839782715 L 0.7499300241470337 7.630499839782715 L 1.249930024147034 7.630499839782715 L 1.249930024147034 8.130499839782715 L 1.249930024147034 10.5 L 5.499889850616455 10.5 M 5.999889850616455 11 L 0.7499300241470337 11 L 0.7499300241470337 8.130499839782715 L -8.881784197001252e-16 8.130499839782715 L -8.881784197001252e-16 -8.881784197001252e-16 L 12 -8.881784197001252e-16 L 12 8.130499839782715 L 5.999889850616455 8.130499839782715 L 5.999889850616455 11 Z"/>
            </g>
          </g>
        </g>
        <g id="Grupo_349-3" data-name="Grupo 349" transform="translate(74.892 0)">
          <g id="Grupo_46-18" data-name="Grupo 46" transform="translate(0 0)">
            <g id="Unión_22-18" data-name="Unión 22" class="cls-7" transform="translate(0.078 -0.388)">
              <path class="cls-8" d="M 5.749889850616455 10.75 L 0.9999300241470337 10.75 L 0.9999300241470337 8.130499839782715 L 0.9999300241470337 7.880499839782715 L 0.7499300241470337 7.880499839782715 L 0.25 7.880499839782715 L 0.25 0.25 L 11.75 0.25 L 11.75 7.880499839782715 L 5.999889850616455 7.880499839782715 L 5.749889850616455 7.880499839782715 L 5.749889850616455 8.130499839782715 L 5.749889850616455 10.75 Z"/>
              <path class="cls-10" d="M 5.499889850616455 10.5 L 5.499889850616455 8.130499839782715 L 5.499889850616455 7.630499839782715 L 5.999889850616455 7.630499839782715 L 11.5 7.630499839782715 L 11.5 0.5 L 0.5 0.5 L 0.5 7.630499839782715 L 0.7499300241470337 7.630499839782715 L 1.249930024147034 7.630499839782715 L 1.249930024147034 8.130499839782715 L 1.249930024147034 10.5 L 5.499889850616455 10.5 M 5.999889850616455 11 L 0.7499300241470337 11 L 0.7499300241470337 8.130499839782715 L -8.881784197001252e-16 8.130499839782715 L -8.881784197001252e-16 -8.881784197001252e-16 L 12 -8.881784197001252e-16 L 12 8.130499839782715 L 5.999889850616455 8.130499839782715 L 5.999889850616455 11 Z"/>
            </g>
          </g>
        </g>
        <g id="Grupo_350-3" data-name="Grupo 350" transform="translate(89.112 0)">
          <g id="Grupo_46-19" data-name="Grupo 46" transform="translate(0 0)">
            <g id="Unión_22-19" data-name="Unión 22" class="cls-7" transform="translate(-0.142 -0.388)">
              <path class="cls-8" d="M 5.749889850616455 10.75 L 0.9999300241470337 10.75 L 0.9999300241470337 8.130499839782715 L 0.9999300241470337 7.880499839782715 L 0.7499300241470337 7.880499839782715 L 0.25 7.880499839782715 L 0.25 0.25 L 11.75 0.25 L 11.75 7.880499839782715 L 5.999889850616455 7.880499839782715 L 5.749889850616455 7.880499839782715 L 5.749889850616455 8.130499839782715 L 5.749889850616455 10.75 Z"/>
              <path class="cls-10" d="M 5.499889850616455 10.5 L 5.499889850616455 8.130499839782715 L 5.499889850616455 7.630499839782715 L 5.999889850616455 7.630499839782715 L 11.5 7.630499839782715 L 11.5 0.5 L 0.5 0.5 L 0.5 7.630499839782715 L 0.7499300241470337 7.630499839782715 L 1.249930024147034 7.630499839782715 L 1.249930024147034 8.130499839782715 L 1.249930024147034 10.5 L 5.499889850616455 10.5 M 5.999889850616455 11 L 0.7499300241470337 11 L 0.7499300241470337 8.130499839782715 L -8.881784197001252e-16 8.130499839782715 L -8.881784197001252e-16 -8.881784197001252e-16 L 12 -8.881784197001252e-16 L 12 8.130499839782715 L 5.999889850616455 8.130499839782715 L 5.999889850616455 11 Z"/>
            </g>
          </g>
        </g>
        <g id="Grupo_351-3" data-name="Grupo 351" transform="translate(104.28 0)">
          <g id="Grupo_46-20" data-name="Grupo 46" transform="translate(0 0)">
            <g id="Unión_22-20" data-name="Unión 22" class="cls-7" transform="translate(-0.31 -0.388)">
              <path class="cls-8" d="M 5.749889850616455 10.75 L 0.9999300241470337 10.75 L 0.9999300241470337 8.130499839782715 L 0.9999300241470337 7.880499839782715 L 0.7499300241470337 7.880499839782715 L 0.25 7.880499839782715 L 0.25 0.25 L 11.75 0.25 L 11.75 7.880499839782715 L 5.999889850616455 7.880499839782715 L 5.749889850616455 7.880499839782715 L 5.749889850616455 8.130499839782715 L 5.749889850616455 10.75 Z"/>
              <path class="cls-10" d="M 5.499889850616455 10.5 L 5.499889850616455 8.130499839782715 L 5.499889850616455 7.630499839782715 L 5.999889850616455 7.630499839782715 L 11.5 7.630499839782715 L 11.5 0.5 L 0.5 0.5 L 0.5 7.630499839782715 L 0.7499300241470337 7.630499839782715 L 1.249930024147034 7.630499839782715 L 1.249930024147034 8.130499839782715 L 1.249930024147034 10.5 L 5.499889850616455 10.5 M 5.999889850616455 11 L 0.7499300241470337 11 L 0.7499300241470337 8.130499839782715 L -8.881784197001252e-16 8.130499839782715 L -8.881784197001252e-16 -8.881784197001252e-16 L 12 -8.881784197001252e-16 L 12 8.130499839782715 L 5.999889850616455 8.130499839782715 L 5.999889850616455 11 Z"/>
            </g>
          </g>
        </g>
        <g id="Grupo_354-2" data-name="Grupo 354" transform="translate(15.168 0)">
          <g id="Grupo_46-21" data-name="Grupo 46" transform="translate(0 0)">
            <g id="Unión_22-21" data-name="Unión 22" class="cls-7" transform="translate(-0.198 -0.388)">
              <path class="cls-8" d="M 5.749889850616455 10.75 L 0.9999300241470337 10.75 L 0.9999300241470337 8.130499839782715 L 0.9999300241470337 7.880499839782715 L 0.7499300241470337 7.880499839782715 L 0.25 7.880499839782715 L 0.25 0.25 L 11.75 0.25 L 11.75 7.880499839782715 L 5.999889850616455 7.880499839782715 L 5.749889850616455 7.880499839782715 L 5.749889850616455 8.130499839782715 L 5.749889850616455 10.75 Z"/>
              <path class="cls-10" d="M 5.499889850616455 10.5 L 5.499889850616455 8.130499839782715 L 5.499889850616455 7.630499839782715 L 5.999889850616455 7.630499839782715 L 11.5 7.630499839782715 L 11.5 0.5 L 0.5 0.5 L 0.5 7.630499839782715 L 0.7499300241470337 7.630499839782715 L 1.249930024147034 7.630499839782715 L 1.249930024147034 8.130499839782715 L 1.249930024147034 10.5 L 5.499889850616455 10.5 M 5.999889850616455 11 L 0.7499300241470337 11 L 0.7499300241470337 8.130499839782715 L -8.881784197001252e-16 8.130499839782715 L -8.881784197001252e-16 -8.881784197001252e-16 L 12 -8.881784197001252e-16 L 12 8.130499839782715 L 5.999889850616455 8.130499839782715 L 5.999889850616455 11 Z"/>
            </g>
          </g>
        </g>
        <g id="Grupo_355-2" data-name="Grupo 355" transform="translate(119.448 0)">
          <g id="Grupo_46-22" data-name="Grupo 46" transform="translate(0 0)">
            <g id="Unión_22-22" data-name="Unión 22" class="cls-7" transform="translate(-0.478 -0.388)">
              <path class="cls-8" d="M 5.749889850616455 10.75 L 0.9999300241470337 10.75 L 0.9999300241470337 8.130499839782715 L 0.9999300241470337 7.880499839782715 L 0.7499300241470337 7.880499839782715 L 0.25 7.880499839782715 L 0.25 0.25 L 11.75 0.25 L 11.75 7.880499839782715 L 5.999889850616455 7.880499839782715 L 5.749889850616455 7.880499839782715 L 5.749889850616455 8.130499839782715 L 5.749889850616455 10.75 Z"/>
              <path class="cls-10" d="M 5.499889850616455 10.5 L 5.499889850616455 8.130499839782715 L 5.499889850616455 7.630499839782715 L 5.999889850616455 7.630499839782715 L 11.5 7.630499839782715 L 11.5 0.5 L 0.5 0.5 L 0.5 7.630499839782715 L 0.7499300241470337 7.630499839782715 L 1.249930024147034 7.630499839782715 L 1.249930024147034 8.130499839782715 L 1.249930024147034 10.5 L 5.499889850616455 10.5 M 5.999889850616455 11 L 0.7499300241470337 11 L 0.7499300241470337 8.130499839782715 L -8.881784197001252e-16 8.130499839782715 L -8.881784197001252e-16 -8.881784197001252e-16 L 12 -8.881784197001252e-16 L 12 8.130499839782715 L 5.999889850616455 8.130499839782715 L 5.999889850616455 11 Z"/>
            </g>
          </g>
        </g>
        <g id="Grupo_357" data-name="Grupo 357" transform="translate(0 0)">
          <g id="Grupo_46-23" data-name="Grupo 46" transform="translate(0 0)">
            <g id="Unión_22-23" data-name="Unión 22" class="cls-7" transform="translate(-0.03 -0.388)">
              <path class="cls-8" d="M 5.749889850616455 10.75 L 0.9999300241470337 10.75 L 0.9999300241470337 8.130499839782715 L 0.9999300241470337 7.880499839782715 L 0.7499300241470337 7.880499839782715 L 0.25 7.880499839782715 L 0.25 0.25 L 11.75 0.25 L 11.75 7.880499839782715 L 5.999889850616455 7.880499839782715 L 5.749889850616455 7.880499839782715 L 5.749889850616455 8.130499839782715 L 5.749889850616455 10.75 Z"/>
              <path class="cls-10" d="M 5.499889850616455 10.5 L 5.499889850616455 8.130499839782715 L 5.499889850616455 7.630499839782715 L 5.999889850616455 7.630499839782715 L 11.5 7.630499839782715 L 11.5 0.5 L 0.5 0.5 L 0.5 7.630499839782715 L 0.7499300241470337 7.630499839782715 L 1.249930024147034 7.630499839782715 L 1.249930024147034 8.130499839782715 L 1.249930024147034 10.5 L 5.499889850616455 10.5 M 5.999889850616455 11 L 0.7499300241470337 11 L 0.7499300241470337 8.130499839782715 L -8.881784197001252e-16 8.130499839782715 L -8.881784197001252e-16 -8.881784197001252e-16 L 12 -8.881784197001252e-16 L 12 8.130499839782715 L 5.999889850616455 8.130499839782715 L 5.999889850616455 11 Z"/>
            </g>
          </g>
        </g>
        <g id="Grupo_358" data-name="Grupo 358" transform="translate(134.616 0)">
          <g id="Grupo_46-24" data-name="Grupo 46" transform="translate(0 0)">
            <g id="Unión_22-24" data-name="Unión 22" class="cls-7" transform="translate(0.354 -0.388)">
              <path class="cls-8" d="M 5.749889850616455 10.75 L 0.9999300241470337 10.75 L 0.9999300241470337 8.130499839782715 L 0.9999300241470337 7.880499839782715 L 0.7499300241470337 7.880499839782715 L 0.25 7.880499839782715 L 0.25 0.25 L 11.75 0.25 L 11.75 7.880499839782715 L 5.999889850616455 7.880499839782715 L 5.749889850616455 7.880499839782715 L 5.749889850616455 8.130499839782715 L 5.749889850616455 10.75 Z"/>
              <path class="cls-10" d="M 5.499889850616455 10.5 L 5.499889850616455 8.130499839782715 L 5.499889850616455 7.630499839782715 L 5.999889850616455 7.630499839782715 L 11.5 7.630499839782715 L 11.5 0.5 L 0.5 0.5 L 0.5 7.630499839782715 L 0.7499300241470337 7.630499839782715 L 1.249930024147034 7.630499839782715 L 1.249930024147034 8.130499839782715 L 1.249930024147034 10.5 L 5.499889850616455 10.5 M 5.999889850616455 11 L 0.7499300241470337 11 L 0.7499300241470337 8.130499839782715 L -8.881784197001252e-16 8.130499839782715 L -8.881784197001252e-16 -8.881784197001252e-16 L 12 -8.881784197001252e-16 L 12 8.130499839782715 L 5.999889850616455 8.130499839782715 L 5.999889850616455 11 Z"/>
            </g>
          </g>
        </g>
      </g>
    </g>
    <path id="Polígono_3" data-name="Polígono 3" d="M3.5,0,7,6H0Z" transform="translate(4979.5 3168.5) rotate(90)"/>
  </g>
</svg>
