<svg xmlns="http://www.w3.org/2000/svg" width="175" height="211.501" viewBox="0 0 175 211.501">
  <g id="Grupo_372" data-name="Grupo 372" transform="translate(-4968 -3067)">
    <g id="Grupo_341" data-name="Grupo 341" transform="translate(4879 2834)">
      <g id="Grupo_109" data-name="Grupo 109" transform="translate(88.648 233)">
        <g id="Rectángulo_4" data-name="Rectángulo 4" transform="translate(0.352)" fill="#fff" stroke="#000" stroke-width="1">
          <rect width="175" height="175" rx="19" stroke="none"/>
          <rect x="0.5" y="0.5" width="174" height="174" rx="18.5" fill="none"/>
        </g>
      </g>
      <g id="Grupo_259" data-name="Grupo 259" transform="translate(0 -19)">
        <path id="Trazado_93" data-name="Trazado 93" d="M218.453,202.505l-15.917,15.948H179.978L164,202.505V179.948L179.978,164h22.557l15.917,15.948Z" transform="translate(38.988 178.47) rotate(22)" fill="#fff" stroke="#f0f0f0" stroke-width="1"/>
        <text id="_8" data-name="8" transform="translate(143 444)" fill="#f0f0f0" font-size="44" font-family="Quicksand" font-weight="700"><tspan x="-12.936" y="0">8</tspan></text>
        <path id="Trazado_95" data-name="Trazado 95" d="M218.453,202.505l-15.917,15.948H179.978L164,202.505V179.948L179.978,164h22.557l15.917,15.948Z" transform="translate(111.988 178.47) rotate(22)" fill="#858666"/>
        <text id="_4" data-name="4" transform="translate(217 444)" fill="#fff" font-size="44" font-family="Quicksand" font-weight="700"><tspan x="-15.576" y="0">4</tspan></text>
      </g>
      <g id="Grupo_352" data-name="Grupo 352" transform="translate(132.418 264.236)">
        <g id="Grupo_106" data-name="Grupo 106" transform="translate(0 0)">
          <g id="Grupo_46" data-name="Grupo 46" transform="translate(0 0)">
            <g id="Unión_22" data-name="Unión 22" transform="translate(-0.418 -0.236)" fill="#fff">
              <path d="M 5.749889850616455 10.75 L 0.9999300241470337 10.75 L 0.9999300241470337 8.130499839782715 L 0.9999300241470337 7.880499839782715 L 0.7499300241470337 7.880499839782715 L 0.25 7.880499839782715 L 0.25 0.25 L 11.75 0.25 L 11.75 7.880499839782715 L 5.999889850616455 7.880499839782715 L 5.749889850616455 7.880499839782715 L 5.749889850616455 8.130499839782715 L 5.749889850616455 10.75 Z" stroke="none"/>
              <path d="M 5.499889850616455 10.5 L 5.499889850616455 8.130499839782715 L 5.499889850616455 7.630499839782715 L 5.999889850616455 7.630499839782715 L 11.5 7.630499839782715 L 11.5 0.5 L 0.5 0.5 L 0.5 7.630499839782715 L 0.7499300241470337 7.630499839782715 L 1.249930024147034 7.630499839782715 L 1.249930024147034 8.130499839782715 L 1.249930024147034 10.5 L 5.499889850616455 10.5 M 5.999889850616455 11 L 0.7499300241470337 11 L 0.7499300241470337 8.130499839782715 L -8.881784197001252e-16 8.130499839782715 L -8.881784197001252e-16 -8.881784197001252e-16 L 12 -8.881784197001252e-16 L 12 8.130499839782715 L 5.999889850616455 8.130499839782715 L 5.999889850616455 11 Z" stroke="none" fill="#707070"/>
            </g>
          </g>
        </g>
        <g id="Grupo_347" data-name="Grupo 347" transform="translate(15.168 0)">
          <g id="Grupo_46-2" data-name="Grupo 46" transform="translate(0 0)">
            <g id="Unión_22-2" data-name="Unión 22" transform="translate(0.414 -0.236)" fill="#fff">
              <path d="M 5.749889850616455 10.75 L 0.9999300241470337 10.75 L 0.9999300241470337 8.130499839782715 L 0.9999300241470337 7.880499839782715 L 0.7499300241470337 7.880499839782715 L 0.25 7.880499839782715 L 0.25 0.25 L 11.75 0.25 L 11.75 7.880499839782715 L 5.999889850616455 7.880499839782715 L 5.749889850616455 7.880499839782715 L 5.749889850616455 8.130499839782715 L 5.749889850616455 10.75 Z" stroke="none"/>
              <path d="M 5.499889850616455 10.5 L 5.499889850616455 8.130499839782715 L 5.499889850616455 7.630499839782715 L 5.999889850616455 7.630499839782715 L 11.5 7.630499839782715 L 11.5 0.5 L 0.5 0.5 L 0.5 7.630499839782715 L 0.7499300241470337 7.630499839782715 L 1.249930024147034 7.630499839782715 L 1.249930024147034 8.130499839782715 L 1.249930024147034 10.5 L 5.499889850616455 10.5 M 5.999889850616455 11 L 0.7499300241470337 11 L 0.7499300241470337 8.130499839782715 L -8.881784197001252e-16 8.130499839782715 L -8.881784197001252e-16 -8.881784197001252e-16 L 12 -8.881784197001252e-16 L 12 8.130499839782715 L 5.999889850616455 8.130499839782715 L 5.999889850616455 11 Z" stroke="none" fill="#707070"/>
            </g>
          </g>
        </g>
        <g id="Grupo_348" data-name="Grupo 348" transform="translate(30.336 0)">
          <g id="Grupo_46-3" data-name="Grupo 46" transform="translate(0 0)">
            <g id="Unión_22-3" data-name="Unión 22" transform="translate(0.246 -0.236)" fill="#fff">
              <path d="M 5.749889850616455 10.75 L 0.9999300241470337 10.75 L 0.9999300241470337 8.130499839782715 L 0.9999300241470337 7.880499839782715 L 0.7499300241470337 7.880499839782715 L 0.25 7.880499839782715 L 0.25 0.25 L 11.75 0.25 L 11.75 7.880499839782715 L 5.999889850616455 7.880499839782715 L 5.749889850616455 7.880499839782715 L 5.749889850616455 8.130499839782715 L 5.749889850616455 10.75 Z" stroke="none"/>
              <path d="M 5.499889850616455 10.5 L 5.499889850616455 8.130499839782715 L 5.499889850616455 7.630499839782715 L 5.999889850616455 7.630499839782715 L 11.5 7.630499839782715 L 11.5 0.5 L 0.5 0.5 L 0.5 7.630499839782715 L 0.7499300241470337 7.630499839782715 L 1.249930024147034 7.630499839782715 L 1.249930024147034 8.130499839782715 L 1.249930024147034 10.5 L 5.499889850616455 10.5 M 5.999889850616455 11 L 0.7499300241470337 11 L 0.7499300241470337 8.130499839782715 L -8.881784197001252e-16 8.130499839782715 L -8.881784197001252e-16 -8.881784197001252e-16 L 12 -8.881784197001252e-16 L 12 8.130499839782715 L 5.999889850616455 8.130499839782715 L 5.999889850616455 11 Z" stroke="none" fill="#707070"/>
            </g>
          </g>
        </g>
        <g id="Grupo_349" data-name="Grupo 349" transform="translate(45.504 0)">
          <g id="Grupo_46-4" data-name="Grupo 46" transform="translate(0 0)">
            <g id="Unión_22-4" data-name="Unión 22" transform="translate(0.078 -0.236)" fill="#fff">
              <path d="M 5.749889850616455 10.75 L 0.9999300241470337 10.75 L 0.9999300241470337 8.130499839782715 L 0.9999300241470337 7.880499839782715 L 0.7499300241470337 7.880499839782715 L 0.25 7.880499839782715 L 0.25 0.25 L 11.75 0.25 L 11.75 7.880499839782715 L 5.999889850616455 7.880499839782715 L 5.749889850616455 7.880499839782715 L 5.749889850616455 8.130499839782715 L 5.749889850616455 10.75 Z" stroke="none"/>
              <path d="M 5.499889850616455 10.5 L 5.499889850616455 8.130499839782715 L 5.499889850616455 7.630499839782715 L 5.999889850616455 7.630499839782715 L 11.5 7.630499839782715 L 11.5 0.5 L 0.5 0.5 L 0.5 7.630499839782715 L 0.7499300241470337 7.630499839782715 L 1.249930024147034 7.630499839782715 L 1.249930024147034 8.130499839782715 L 1.249930024147034 10.5 L 5.499889850616455 10.5 M 5.999889850616455 11 L 0.7499300241470337 11 L 0.7499300241470337 8.130499839782715 L -8.881784197001252e-16 8.130499839782715 L -8.881784197001252e-16 -8.881784197001252e-16 L 12 -8.881784197001252e-16 L 12 8.130499839782715 L 5.999889850616455 8.130499839782715 L 5.999889850616455 11 Z" stroke="none" fill="#707070"/>
            </g>
          </g>
        </g>
        <g id="Grupo_350" data-name="Grupo 350" transform="translate(59.724 0)">
          <g id="Grupo_46-5" data-name="Grupo 46" transform="translate(0 0)">
            <g id="Unión_22-5" data-name="Unión 22" transform="translate(-0.142 -0.236)" fill="#fff">
              <path d="M 5.749889850616455 10.75 L 0.9999300241470337 10.75 L 0.9999300241470337 8.130499839782715 L 0.9999300241470337 7.880499839782715 L 0.7499300241470337 7.880499839782715 L 0.25 7.880499839782715 L 0.25 0.25 L 11.75 0.25 L 11.75 7.880499839782715 L 5.999889850616455 7.880499839782715 L 5.749889850616455 7.880499839782715 L 5.749889850616455 8.130499839782715 L 5.749889850616455 10.75 Z" stroke="none"/>
              <path d="M 5.499889850616455 10.5 L 5.499889850616455 8.130499839782715 L 5.499889850616455 7.630499839782715 L 5.999889850616455 7.630499839782715 L 11.5 7.630499839782715 L 11.5 0.5 L 0.5 0.5 L 0.5 7.630499839782715 L 0.7499300241470337 7.630499839782715 L 1.249930024147034 7.630499839782715 L 1.249930024147034 8.130499839782715 L 1.249930024147034 10.5 L 5.499889850616455 10.5 M 5.999889850616455 11 L 0.7499300241470337 11 L 0.7499300241470337 8.130499839782715 L -8.881784197001252e-16 8.130499839782715 L -8.881784197001252e-16 -8.881784197001252e-16 L 12 -8.881784197001252e-16 L 12 8.130499839782715 L 5.999889850616455 8.130499839782715 L 5.999889850616455 11 Z" stroke="none" fill="#707070"/>
            </g>
          </g>
        </g>
        <g id="Grupo_351" data-name="Grupo 351" transform="translate(74.892 0)">
          <g id="Grupo_46-6" data-name="Grupo 46" transform="translate(0 0)">
            <g id="Unión_22-6" data-name="Unión 22" transform="translate(-0.31 -0.236)" fill="#fff">
              <path d="M 5.749889850616455 10.75 L 0.9999300241470337 10.75 L 0.9999300241470337 8.130499839782715 L 0.9999300241470337 7.880499839782715 L 0.7499300241470337 7.880499839782715 L 0.25 7.880499839782715 L 0.25 0.25 L 11.75 0.25 L 11.75 7.880499839782715 L 5.999889850616455 7.880499839782715 L 5.749889850616455 7.880499839782715 L 5.749889850616455 8.130499839782715 L 5.749889850616455 10.75 Z" stroke="none"/>
              <path d="M 5.499889850616455 10.5 L 5.499889850616455 8.130499839782715 L 5.499889850616455 7.630499839782715 L 5.999889850616455 7.630499839782715 L 11.5 7.630499839782715 L 11.5 0.5 L 0.5 0.5 L 0.5 7.630499839782715 L 0.7499300241470337 7.630499839782715 L 1.249930024147034 7.630499839782715 L 1.249930024147034 8.130499839782715 L 1.249930024147034 10.5 L 5.499889850616455 10.5 M 5.999889850616455 11 L 0.7499300241470337 11 L 0.7499300241470337 8.130499839782715 L -8.881784197001252e-16 8.130499839782715 L -8.881784197001252e-16 -8.881784197001252e-16 L 12 -8.881784197001252e-16 L 12 8.130499839782715 L 5.999889850616455 8.130499839782715 L 5.999889850616455 11 Z" stroke="none" fill="#707070"/>
            </g>
          </g>
        </g>
      </g>
      <g id="Grupo_353" data-name="Grupo 353" transform="translate(118.198 299.312)">
        <g id="Grupo_106-2" data-name="Grupo 106" transform="translate(15.22 0)">
          <g id="Grupo_46-7" data-name="Grupo 46" transform="translate(0 0)">
            <g id="Unión_22-7" data-name="Unión 22" transform="translate(-0.418 -0.312)" fill="#fff">
              <path d="M 5.749889850616455 10.75 L 0.9999300241470337 10.75 L 0.9999300241470337 8.130499839782715 L 0.9999300241470337 7.880499839782715 L 0.7499300241470337 7.880499839782715 L 0.25 7.880499839782715 L 0.25 0.25 L 11.75 0.25 L 11.75 7.880499839782715 L 5.999889850616455 7.880499839782715 L 5.749889850616455 7.880499839782715 L 5.749889850616455 8.130499839782715 L 5.749889850616455 10.75 Z" stroke="none"/>
              <path d="M 5.499889850616455 10.5 L 5.499889850616455 8.130499839782715 L 5.499889850616455 7.630499839782715 L 5.999889850616455 7.630499839782715 L 11.5 7.630499839782715 L 11.5 0.5 L 0.5 0.5 L 0.5 7.630499839782715 L 0.7499300241470337 7.630499839782715 L 1.249930024147034 7.630499839782715 L 1.249930024147034 8.130499839782715 L 1.249930024147034 10.5 L 5.499889850616455 10.5 M 5.999889850616455 11 L 0.7499300241470337 11 L 0.7499300241470337 8.130499839782715 L -8.881784197001252e-16 8.130499839782715 L -8.881784197001252e-16 -8.881784197001252e-16 L 12 -8.881784197001252e-16 L 12 8.130499839782715 L 5.999889850616455 8.130499839782715 L 5.999889850616455 11 Z" stroke="none" fill="#707070"/>
            </g>
          </g>
        </g>
        <g id="Grupo_347-2" data-name="Grupo 347" transform="translate(29.388 0)">
          <g id="Grupo_46-8" data-name="Grupo 46" transform="translate(0 0)">
            <g id="Unión_22-8" data-name="Unión 22" transform="translate(0.414 -0.312)" fill="#fff">
              <path d="M 5.749889850616455 10.75 L 0.9999300241470337 10.75 L 0.9999300241470337 8.130499839782715 L 0.9999300241470337 7.880499839782715 L 0.7499300241470337 7.880499839782715 L 0.25 7.880499839782715 L 0.25 0.25 L 11.75 0.25 L 11.75 7.880499839782715 L 5.999889850616455 7.880499839782715 L 5.749889850616455 7.880499839782715 L 5.749889850616455 8.130499839782715 L 5.749889850616455 10.75 Z" stroke="none"/>
              <path d="M 5.499889850616455 10.5 L 5.499889850616455 8.130499839782715 L 5.499889850616455 7.630499839782715 L 5.999889850616455 7.630499839782715 L 11.5 7.630499839782715 L 11.5 0.5 L 0.5 0.5 L 0.5 7.630499839782715 L 0.7499300241470337 7.630499839782715 L 1.249930024147034 7.630499839782715 L 1.249930024147034 8.130499839782715 L 1.249930024147034 10.5 L 5.499889850616455 10.5 M 5.999889850616455 11 L 0.7499300241470337 11 L 0.7499300241470337 8.130499839782715 L -8.881784197001252e-16 8.130499839782715 L -8.881784197001252e-16 -8.881784197001252e-16 L 12 -8.881784197001252e-16 L 12 8.130499839782715 L 5.999889850616455 8.130499839782715 L 5.999889850616455 11 Z" stroke="none" fill="#707070"/>
            </g>
          </g>
        </g>
        <g id="Grupo_348-2" data-name="Grupo 348" transform="translate(44.556 0)">
          <g id="Grupo_46-9" data-name="Grupo 46" transform="translate(0 0)">
            <g id="Unión_22-9" data-name="Unión 22" transform="translate(0.246 -0.312)" fill="#fff">
              <path d="M 5.749889850616455 10.75 L 0.9999300241470337 10.75 L 0.9999300241470337 8.130499839782715 L 0.9999300241470337 7.880499839782715 L 0.7499300241470337 7.880499839782715 L 0.25 7.880499839782715 L 0.25 0.25 L 11.75 0.25 L 11.75 7.880499839782715 L 5.999889850616455 7.880499839782715 L 5.749889850616455 7.880499839782715 L 5.749889850616455 8.130499839782715 L 5.749889850616455 10.75 Z" stroke="none"/>
              <path d="M 5.499889850616455 10.5 L 5.499889850616455 8.130499839782715 L 5.499889850616455 7.630499839782715 L 5.999889850616455 7.630499839782715 L 11.5 7.630499839782715 L 11.5 0.5 L 0.5 0.5 L 0.5 7.630499839782715 L 0.7499300241470337 7.630499839782715 L 1.249930024147034 7.630499839782715 L 1.249930024147034 8.130499839782715 L 1.249930024147034 10.5 L 5.499889850616455 10.5 M 5.999889850616455 11 L 0.7499300241470337 11 L 0.7499300241470337 8.130499839782715 L -8.881784197001252e-16 8.130499839782715 L -8.881784197001252e-16 -8.881784197001252e-16 L 12 -8.881784197001252e-16 L 12 8.130499839782715 L 5.999889850616455 8.130499839782715 L 5.999889850616455 11 Z" stroke="none" fill="#707070"/>
            </g>
          </g>
        </g>
        <g id="Grupo_349-2" data-name="Grupo 349" transform="translate(59.723 0)">
          <g id="Grupo_46-10" data-name="Grupo 46" transform="translate(0 0)">
            <g id="Unión_22-10" data-name="Unión 22" transform="translate(0.078 -0.312)" fill="#fff">
              <path d="M 5.749889850616455 10.75 L 0.9999300241470337 10.75 L 0.9999300241470337 8.130499839782715 L 0.9999300241470337 7.880499839782715 L 0.7499300241470337 7.880499839782715 L 0.25 7.880499839782715 L 0.25 0.25 L 11.75 0.25 L 11.75 7.880499839782715 L 5.999889850616455 7.880499839782715 L 5.749889850616455 7.880499839782715 L 5.749889850616455 8.130499839782715 L 5.749889850616455 10.75 Z" stroke="none"/>
              <path d="M 5.499889850616455 10.5 L 5.499889850616455 8.130499839782715 L 5.499889850616455 7.630499839782715 L 5.999889850616455 7.630499839782715 L 11.5 7.630499839782715 L 11.5 0.5 L 0.5 0.5 L 0.5 7.630499839782715 L 0.7499300241470337 7.630499839782715 L 1.249930024147034 7.630499839782715 L 1.249930024147034 8.130499839782715 L 1.249930024147034 10.5 L 5.499889850616455 10.5 M 5.999889850616455 11 L 0.7499300241470337 11 L 0.7499300241470337 8.130499839782715 L -8.881784197001252e-16 8.130499839782715 L -8.881784197001252e-16 -8.881784197001252e-16 L 12 -8.881784197001252e-16 L 12 8.130499839782715 L 5.999889850616455 8.130499839782715 L 5.999889850616455 11 Z" stroke="none" fill="#707070"/>
            </g>
          </g>
        </g>
        <g id="Grupo_350-2" data-name="Grupo 350" transform="translate(73.943 0)">
          <g id="Grupo_46-11" data-name="Grupo 46" transform="translate(0 0)">
            <g id="Unión_22-11" data-name="Unión 22" transform="translate(-0.142 -0.312)" fill="#fff">
              <path d="M 5.749889850616455 10.75 L 0.9999300241470337 10.75 L 0.9999300241470337 8.130499839782715 L 0.9999300241470337 7.880499839782715 L 0.7499300241470337 7.880499839782715 L 0.25 7.880499839782715 L 0.25 0.25 L 11.75 0.25 L 11.75 7.880499839782715 L 5.999889850616455 7.880499839782715 L 5.749889850616455 7.880499839782715 L 5.749889850616455 8.130499839782715 L 5.749889850616455 10.75 Z" stroke="none"/>
              <path d="M 5.499889850616455 10.5 L 5.499889850616455 8.130499839782715 L 5.499889850616455 7.630499839782715 L 5.999889850616455 7.630499839782715 L 11.5 7.630499839782715 L 11.5 0.5 L 0.5 0.5 L 0.5 7.630499839782715 L 0.7499300241470337 7.630499839782715 L 1.249930024147034 7.630499839782715 L 1.249930024147034 8.130499839782715 L 1.249930024147034 10.5 L 5.499889850616455 10.5 M 5.999889850616455 11 L 0.7499300241470337 11 L 0.7499300241470337 8.130499839782715 L -8.881784197001252e-16 8.130499839782715 L -8.881784197001252e-16 -8.881784197001252e-16 L 12 -8.881784197001252e-16 L 12 8.130499839782715 L 5.999889850616455 8.130499839782715 L 5.999889850616455 11 Z" stroke="none" fill="#707070"/>
            </g>
          </g>
        </g>
        <g id="Grupo_351-2" data-name="Grupo 351" transform="translate(89.112 0)">
          <g id="Grupo_46-12" data-name="Grupo 46" transform="translate(0 0)">
            <g id="Unión_22-12" data-name="Unión 22" transform="translate(-0.31 -0.312)" fill="#fff">
              <path d="M 5.749889850616455 10.75 L 0.9999300241470337 10.75 L 0.9999300241470337 8.130499839782715 L 0.9999300241470337 7.880499839782715 L 0.7499300241470337 7.880499839782715 L 0.25 7.880499839782715 L 0.25 0.25 L 11.75 0.25 L 11.75 7.880499839782715 L 5.999889850616455 7.880499839782715 L 5.749889850616455 7.880499839782715 L 5.749889850616455 8.130499839782715 L 5.749889850616455 10.75 Z" stroke="none"/>
              <path d="M 5.499889850616455 10.5 L 5.499889850616455 8.130499839782715 L 5.499889850616455 7.630499839782715 L 5.999889850616455 7.630499839782715 L 11.5 7.630499839782715 L 11.5 0.5 L 0.5 0.5 L 0.5 7.630499839782715 L 0.7499300241470337 7.630499839782715 L 1.249930024147034 7.630499839782715 L 1.249930024147034 8.130499839782715 L 1.249930024147034 10.5 L 5.499889850616455 10.5 M 5.999889850616455 11 L 0.7499300241470337 11 L 0.7499300241470337 8.130499839782715 L -8.881784197001252e-16 8.130499839782715 L -8.881784197001252e-16 -8.881784197001252e-16 L 12 -8.881784197001252e-16 L 12 8.130499839782715 L 5.999889850616455 8.130499839782715 L 5.999889850616455 11 Z" stroke="none" fill="#707070"/>
            </g>
          </g>
        </g>
        <g id="Grupo_354" data-name="Grupo 354" transform="translate(0 0)">
          <g id="Grupo_46-13" data-name="Grupo 46" transform="translate(0 0)">
            <g id="Unión_22-13" data-name="Unión 22" transform="translate(-0.198 -0.312)" fill="#fff">
              <path d="M 5.749889850616455 10.75 L 0.9999300241470337 10.75 L 0.9999300241470337 8.130499839782715 L 0.9999300241470337 7.880499839782715 L 0.7499300241470337 7.880499839782715 L 0.25 7.880499839782715 L 0.25 0.25 L 11.75 0.25 L 11.75 7.880499839782715 L 5.999889850616455 7.880499839782715 L 5.749889850616455 7.880499839782715 L 5.749889850616455 8.130499839782715 L 5.749889850616455 10.75 Z" stroke="none"/>
              <path d="M 5.499889850616455 10.5 L 5.499889850616455 8.130499839782715 L 5.499889850616455 7.630499839782715 L 5.999889850616455 7.630499839782715 L 11.5 7.630499839782715 L 11.5 0.5 L 0.5 0.5 L 0.5 7.630499839782715 L 0.7499300241470337 7.630499839782715 L 1.249930024147034 7.630499839782715 L 1.249930024147034 8.130499839782715 L 1.249930024147034 10.5 L 5.499889850616455 10.5 M 5.999889850616455 11 L 0.7499300241470337 11 L 0.7499300241470337 8.130499839782715 L -8.881784197001252e-16 8.130499839782715 L -8.881784197001252e-16 -8.881784197001252e-16 L 12 -8.881784197001252e-16 L 12 8.130499839782715 L 5.999889850616455 8.130499839782715 L 5.999889850616455 11 Z" stroke="none" fill="#707070"/>
            </g>
          </g>
        </g>
        <g id="Grupo_355" data-name="Grupo 355" transform="translate(104.279 0)">
          <g id="Grupo_46-14" data-name="Grupo 46" transform="translate(0 0)">
            <g id="Unión_22-14" data-name="Unión 22" transform="translate(-0.478 -0.312)" fill="#fff">
              <path d="M 5.749889850616455 10.75 L 0.9999300241470337 10.75 L 0.9999300241470337 8.130499839782715 L 0.9999300241470337 7.880499839782715 L 0.7499300241470337 7.880499839782715 L 0.25 7.880499839782715 L 0.25 0.25 L 11.75 0.25 L 11.75 7.880499839782715 L 5.999889850616455 7.880499839782715 L 5.749889850616455 7.880499839782715 L 5.749889850616455 8.130499839782715 L 5.749889850616455 10.75 Z" stroke="none"/>
              <path d="M 5.499889850616455 10.5 L 5.499889850616455 8.130499839782715 L 5.499889850616455 7.630499839782715 L 5.999889850616455 7.630499839782715 L 11.5 7.630499839782715 L 11.5 0.5 L 0.5 0.5 L 0.5 7.630499839782715 L 0.7499300241470337 7.630499839782715 L 1.249930024147034 7.630499839782715 L 1.249930024147034 8.130499839782715 L 1.249930024147034 10.5 L 5.499889850616455 10.5 M 5.999889850616455 11 L 0.7499300241470337 11 L 0.7499300241470337 8.130499839782715 L -8.881784197001252e-16 8.130499839782715 L -8.881784197001252e-16 -8.881784197001252e-16 L 12 -8.881784197001252e-16 L 12 8.130499839782715 L 5.999889850616455 8.130499839782715 L 5.999889850616455 11 Z" stroke="none" fill="#707070"/>
            </g>
          </g>
        </g>
      </g>
      <g id="Grupo_356" data-name="Grupo 356" transform="translate(103.03 334.388)">
        <g id="Grupo_106-3" data-name="Grupo 106" transform="translate(29.388 0)">
          <g id="Grupo_46-15" data-name="Grupo 46" transform="translate(0 0)">
            <g id="Unión_22-15" data-name="Unión 22" transform="translate(-0.418 -0.388)" fill="#bebbbb">
              <path d="M 5.749889850616455 10.75 L 0.9999300241470337 10.75 L 0.9999300241470337 8.130499839782715 L 0.9999300241470337 7.880499839782715 L 0.7499300241470337 7.880499839782715 L 0.25 7.880499839782715 L 0.25 0.25 L 11.75 0.25 L 11.75 7.880499839782715 L 5.999889850616455 7.880499839782715 L 5.749889850616455 7.880499839782715 L 5.749889850616455 8.130499839782715 L 5.749889850616455 10.75 Z" stroke="none"/>
              <path d="M 5.499889850616455 10.5 L 5.499889850616455 8.130499839782715 L 5.499889850616455 7.630499839782715 L 5.999889850616455 7.630499839782715 L 11.5 7.630499839782715 L 11.5 0.5 L 0.5 0.5 L 0.5 7.630499839782715 L 0.7499300241470337 7.630499839782715 L 1.249930024147034 7.630499839782715 L 1.249930024147034 8.130499839782715 L 1.249930024147034 10.5 L 5.499889850616455 10.5 M 5.999889850616455 11 L 0.7499300241470337 11 L 0.7499300241470337 8.130499839782715 L -8.881784197001252e-16 8.130499839782715 L -8.881784197001252e-16 -8.881784197001252e-16 L 12 -8.881784197001252e-16 L 12 8.130499839782715 L 5.999889850616455 8.130499839782715 L 5.999889850616455 11 Z" stroke="none" fill="#707070"/>
            </g>
          </g>
        </g>
        <g id="Grupo_347-3" data-name="Grupo 347" transform="translate(44.556 0)">
          <g id="Grupo_46-16" data-name="Grupo 46" transform="translate(0 0)">
            <g id="Unión_22-16" data-name="Unión 22" transform="translate(0.414 -0.388)" fill="#bebbbb">
              <path d="M 5.749889850616455 10.75 L 0.9999300241470337 10.75 L 0.9999300241470337 8.130499839782715 L 0.9999300241470337 7.880499839782715 L 0.7499300241470337 7.880499839782715 L 0.25 7.880499839782715 L 0.25 0.25 L 11.75 0.25 L 11.75 7.880499839782715 L 5.999889850616455 7.880499839782715 L 5.749889850616455 7.880499839782715 L 5.749889850616455 8.130499839782715 L 5.749889850616455 10.75 Z" stroke="none"/>
              <path d="M 5.499889850616455 10.5 L 5.499889850616455 8.130499839782715 L 5.499889850616455 7.630499839782715 L 5.999889850616455 7.630499839782715 L 11.5 7.630499839782715 L 11.5 0.5 L 0.5 0.5 L 0.5 7.630499839782715 L 0.7499300241470337 7.630499839782715 L 1.249930024147034 7.630499839782715 L 1.249930024147034 8.130499839782715 L 1.249930024147034 10.5 L 5.499889850616455 10.5 M 5.999889850616455 11 L 0.7499300241470337 11 L 0.7499300241470337 8.130499839782715 L -8.881784197001252e-16 8.130499839782715 L -8.881784197001252e-16 -8.881784197001252e-16 L 12 -8.881784197001252e-16 L 12 8.130499839782715 L 5.999889850616455 8.130499839782715 L 5.999889850616455 11 Z" stroke="none" fill="#707070"/>
            </g>
          </g>
        </g>
        <g id="Grupo_348-3" data-name="Grupo 348" transform="translate(59.724 0)">
          <g id="Grupo_46-17" data-name="Grupo 46" transform="translate(0 0)">
            <g id="Unión_22-17" data-name="Unión 22" transform="translate(0.246 -0.388)" fill="#bebbbb">
              <path d="M 5.749889850616455 10.75 L 0.9999300241470337 10.75 L 0.9999300241470337 8.130499839782715 L 0.9999300241470337 7.880499839782715 L 0.7499300241470337 7.880499839782715 L 0.25 7.880499839782715 L 0.25 0.25 L 11.75 0.25 L 11.75 7.880499839782715 L 5.999889850616455 7.880499839782715 L 5.749889850616455 7.880499839782715 L 5.749889850616455 8.130499839782715 L 5.749889850616455 10.75 Z" stroke="none"/>
              <path d="M 5.499889850616455 10.5 L 5.499889850616455 8.130499839782715 L 5.499889850616455 7.630499839782715 L 5.999889850616455 7.630499839782715 L 11.5 7.630499839782715 L 11.5 0.5 L 0.5 0.5 L 0.5 7.630499839782715 L 0.7499300241470337 7.630499839782715 L 1.249930024147034 7.630499839782715 L 1.249930024147034 8.130499839782715 L 1.249930024147034 10.5 L 5.499889850616455 10.5 M 5.999889850616455 11 L 0.7499300241470337 11 L 0.7499300241470337 8.130499839782715 L -8.881784197001252e-16 8.130499839782715 L -8.881784197001252e-16 -8.881784197001252e-16 L 12 -8.881784197001252e-16 L 12 8.130499839782715 L 5.999889850616455 8.130499839782715 L 5.999889850616455 11 Z" stroke="none" fill="#707070"/>
            </g>
          </g>
        </g>
        <g id="Grupo_349-3" data-name="Grupo 349" transform="translate(74.892 0)">
          <g id="Grupo_46-18" data-name="Grupo 46" transform="translate(0 0)">
            <g id="Unión_22-18" data-name="Unión 22" transform="translate(0.078 -0.388)" fill="#bebbbb">
              <path d="M 5.749889850616455 10.75 L 0.9999300241470337 10.75 L 0.9999300241470337 8.130499839782715 L 0.9999300241470337 7.880499839782715 L 0.7499300241470337 7.880499839782715 L 0.25 7.880499839782715 L 0.25 0.25 L 11.75 0.25 L 11.75 7.880499839782715 L 5.999889850616455 7.880499839782715 L 5.749889850616455 7.880499839782715 L 5.749889850616455 8.130499839782715 L 5.749889850616455 10.75 Z" stroke="none"/>
              <path d="M 5.499889850616455 10.5 L 5.499889850616455 8.130499839782715 L 5.499889850616455 7.630499839782715 L 5.999889850616455 7.630499839782715 L 11.5 7.630499839782715 L 11.5 0.5 L 0.5 0.5 L 0.5 7.630499839782715 L 0.7499300241470337 7.630499839782715 L 1.249930024147034 7.630499839782715 L 1.249930024147034 8.130499839782715 L 1.249930024147034 10.5 L 5.499889850616455 10.5 M 5.999889850616455 11 L 0.7499300241470337 11 L 0.7499300241470337 8.130499839782715 L -8.881784197001252e-16 8.130499839782715 L -8.881784197001252e-16 -8.881784197001252e-16 L 12 -8.881784197001252e-16 L 12 8.130499839782715 L 5.999889850616455 8.130499839782715 L 5.999889850616455 11 Z" stroke="none" fill="#707070"/>
            </g>
          </g>
        </g>
        <g id="Grupo_350-3" data-name="Grupo 350" transform="translate(89.112 0)">
          <g id="Grupo_46-19" data-name="Grupo 46" transform="translate(0 0)">
            <g id="Unión_22-19" data-name="Unión 22" transform="translate(-0.142 -0.388)" fill="#bebbbb">
              <path d="M 5.749889850616455 10.75 L 0.9999300241470337 10.75 L 0.9999300241470337 8.130499839782715 L 0.9999300241470337 7.880499839782715 L 0.7499300241470337 7.880499839782715 L 0.25 7.880499839782715 L 0.25 0.25 L 11.75 0.25 L 11.75 7.880499839782715 L 5.999889850616455 7.880499839782715 L 5.749889850616455 7.880499839782715 L 5.749889850616455 8.130499839782715 L 5.749889850616455 10.75 Z" stroke="none"/>
              <path d="M 5.499889850616455 10.5 L 5.499889850616455 8.130499839782715 L 5.499889850616455 7.630499839782715 L 5.999889850616455 7.630499839782715 L 11.5 7.630499839782715 L 11.5 0.5 L 0.5 0.5 L 0.5 7.630499839782715 L 0.7499300241470337 7.630499839782715 L 1.249930024147034 7.630499839782715 L 1.249930024147034 8.130499839782715 L 1.249930024147034 10.5 L 5.499889850616455 10.5 M 5.999889850616455 11 L 0.7499300241470337 11 L 0.7499300241470337 8.130499839782715 L -8.881784197001252e-16 8.130499839782715 L -8.881784197001252e-16 -8.881784197001252e-16 L 12 -8.881784197001252e-16 L 12 8.130499839782715 L 5.999889850616455 8.130499839782715 L 5.999889850616455 11 Z" stroke="none" fill="#707070"/>
            </g>
          </g>
        </g>
        <g id="Grupo_351-3" data-name="Grupo 351" transform="translate(104.28 0)">
          <g id="Grupo_46-20" data-name="Grupo 46" transform="translate(0 0)">
            <g id="Unión_22-20" data-name="Unión 22" transform="translate(-0.31 -0.388)" fill="#bebbbb">
              <path d="M 5.749889850616455 10.75 L 0.9999300241470337 10.75 L 0.9999300241470337 8.130499839782715 L 0.9999300241470337 7.880499839782715 L 0.7499300241470337 7.880499839782715 L 0.25 7.880499839782715 L 0.25 0.25 L 11.75 0.25 L 11.75 7.880499839782715 L 5.999889850616455 7.880499839782715 L 5.749889850616455 7.880499839782715 L 5.749889850616455 8.130499839782715 L 5.749889850616455 10.75 Z" stroke="none"/>
              <path d="M 5.499889850616455 10.5 L 5.499889850616455 8.130499839782715 L 5.499889850616455 7.630499839782715 L 5.999889850616455 7.630499839782715 L 11.5 7.630499839782715 L 11.5 0.5 L 0.5 0.5 L 0.5 7.630499839782715 L 0.7499300241470337 7.630499839782715 L 1.249930024147034 7.630499839782715 L 1.249930024147034 8.130499839782715 L 1.249930024147034 10.5 L 5.499889850616455 10.5 M 5.999889850616455 11 L 0.7499300241470337 11 L 0.7499300241470337 8.130499839782715 L -8.881784197001252e-16 8.130499839782715 L -8.881784197001252e-16 -8.881784197001252e-16 L 12 -8.881784197001252e-16 L 12 8.130499839782715 L 5.999889850616455 8.130499839782715 L 5.999889850616455 11 Z" stroke="none" fill="#707070"/>
            </g>
          </g>
        </g>
        <g id="Grupo_354-2" data-name="Grupo 354" transform="translate(15.168 0)">
          <g id="Grupo_46-21" data-name="Grupo 46" transform="translate(0 0)">
            <g id="Unión_22-21" data-name="Unión 22" transform="translate(-0.198 -0.388)" fill="#bebbbb">
              <path d="M 5.749889850616455 10.75 L 0.9999300241470337 10.75 L 0.9999300241470337 8.130499839782715 L 0.9999300241470337 7.880499839782715 L 0.7499300241470337 7.880499839782715 L 0.25 7.880499839782715 L 0.25 0.25 L 11.75 0.25 L 11.75 7.880499839782715 L 5.999889850616455 7.880499839782715 L 5.749889850616455 7.880499839782715 L 5.749889850616455 8.130499839782715 L 5.749889850616455 10.75 Z" stroke="none"/>
              <path d="M 5.499889850616455 10.5 L 5.499889850616455 8.130499839782715 L 5.499889850616455 7.630499839782715 L 5.999889850616455 7.630499839782715 L 11.5 7.630499839782715 L 11.5 0.5 L 0.5 0.5 L 0.5 7.630499839782715 L 0.7499300241470337 7.630499839782715 L 1.249930024147034 7.630499839782715 L 1.249930024147034 8.130499839782715 L 1.249930024147034 10.5 L 5.499889850616455 10.5 M 5.999889850616455 11 L 0.7499300241470337 11 L 0.7499300241470337 8.130499839782715 L -8.881784197001252e-16 8.130499839782715 L -8.881784197001252e-16 -8.881784197001252e-16 L 12 -8.881784197001252e-16 L 12 8.130499839782715 L 5.999889850616455 8.130499839782715 L 5.999889850616455 11 Z" stroke="none" fill="#707070"/>
            </g>
          </g>
        </g>
        <g id="Grupo_355-2" data-name="Grupo 355" transform="translate(119.448 0)">
          <g id="Grupo_46-22" data-name="Grupo 46" transform="translate(0 0)">
            <g id="Unión_22-22" data-name="Unión 22" transform="translate(-0.478 -0.388)" fill="#bebbbb">
              <path d="M 5.749889850616455 10.75 L 0.9999300241470337 10.75 L 0.9999300241470337 8.130499839782715 L 0.9999300241470337 7.880499839782715 L 0.7499300241470337 7.880499839782715 L 0.25 7.880499839782715 L 0.25 0.25 L 11.75 0.25 L 11.75 7.880499839782715 L 5.999889850616455 7.880499839782715 L 5.749889850616455 7.880499839782715 L 5.749889850616455 8.130499839782715 L 5.749889850616455 10.75 Z" stroke="none"/>
              <path d="M 5.499889850616455 10.5 L 5.499889850616455 8.130499839782715 L 5.499889850616455 7.630499839782715 L 5.999889850616455 7.630499839782715 L 11.5 7.630499839782715 L 11.5 0.5 L 0.5 0.5 L 0.5 7.630499839782715 L 0.7499300241470337 7.630499839782715 L 1.249930024147034 7.630499839782715 L 1.249930024147034 8.130499839782715 L 1.249930024147034 10.5 L 5.499889850616455 10.5 M 5.999889850616455 11 L 0.7499300241470337 11 L 0.7499300241470337 8.130499839782715 L -8.881784197001252e-16 8.130499839782715 L -8.881784197001252e-16 -8.881784197001252e-16 L 12 -8.881784197001252e-16 L 12 8.130499839782715 L 5.999889850616455 8.130499839782715 L 5.999889850616455 11 Z" stroke="none" fill="#707070"/>
            </g>
          </g>
        </g>
        <g id="Grupo_357" data-name="Grupo 357" transform="translate(0 0)">
          <g id="Grupo_46-23" data-name="Grupo 46" transform="translate(0 0)">
            <g id="Unión_22-23" data-name="Unión 22" transform="translate(-0.03 -0.388)" fill="#bebbbb">
              <path d="M 5.749889850616455 10.75 L 0.9999300241470337 10.75 L 0.9999300241470337 8.130499839782715 L 0.9999300241470337 7.880499839782715 L 0.7499300241470337 7.880499839782715 L 0.25 7.880499839782715 L 0.25 0.25 L 11.75 0.25 L 11.75 7.880499839782715 L 5.999889850616455 7.880499839782715 L 5.749889850616455 7.880499839782715 L 5.749889850616455 8.130499839782715 L 5.749889850616455 10.75 Z" stroke="none"/>
              <path d="M 5.499889850616455 10.5 L 5.499889850616455 8.130499839782715 L 5.499889850616455 7.630499839782715 L 5.999889850616455 7.630499839782715 L 11.5 7.630499839782715 L 11.5 0.5 L 0.5 0.5 L 0.5 7.630499839782715 L 0.7499300241470337 7.630499839782715 L 1.249930024147034 7.630499839782715 L 1.249930024147034 8.130499839782715 L 1.249930024147034 10.5 L 5.499889850616455 10.5 M 5.999889850616455 11 L 0.7499300241470337 11 L 0.7499300241470337 8.130499839782715 L -8.881784197001252e-16 8.130499839782715 L -8.881784197001252e-16 -8.881784197001252e-16 L 12 -8.881784197001252e-16 L 12 8.130499839782715 L 5.999889850616455 8.130499839782715 L 5.999889850616455 11 Z" stroke="none" fill="#707070"/>
            </g>
          </g>
        </g>
        <g id="Grupo_358" data-name="Grupo 358" transform="translate(134.616 0)">
          <g id="Grupo_46-24" data-name="Grupo 46" transform="translate(0 0)">
            <g id="Unión_22-24" data-name="Unión 22" transform="translate(0.354 -0.388)" fill="#bebbbb">
              <path d="M 5.749889850616455 10.75 L 0.9999300241470337 10.75 L 0.9999300241470337 8.130499839782715 L 0.9999300241470337 7.880499839782715 L 0.7499300241470337 7.880499839782715 L 0.25 7.880499839782715 L 0.25 0.25 L 11.75 0.25 L 11.75 7.880499839782715 L 5.999889850616455 7.880499839782715 L 5.749889850616455 7.880499839782715 L 5.749889850616455 8.130499839782715 L 5.749889850616455 10.75 Z" stroke="none"/>
              <path d="M 5.499889850616455 10.5 L 5.499889850616455 8.130499839782715 L 5.499889850616455 7.630499839782715 L 5.999889850616455 7.630499839782715 L 11.5 7.630499839782715 L 11.5 0.5 L 0.5 0.5 L 0.5 7.630499839782715 L 0.7499300241470337 7.630499839782715 L 1.249930024147034 7.630499839782715 L 1.249930024147034 8.130499839782715 L 1.249930024147034 10.5 L 5.499889850616455 10.5 M 5.999889850616455 11 L 0.7499300241470337 11 L 0.7499300241470337 8.130499839782715 L -8.881784197001252e-16 8.130499839782715 L -8.881784197001252e-16 -8.881784197001252e-16 L 12 -8.881784197001252e-16 L 12 8.130499839782715 L 5.999889850616455 8.130499839782715 L 5.999889850616455 11 Z" stroke="none" fill="#707070"/>
            </g>
          </g>
        </g>
      </g>
    </g>
    <path id="Polígono_3" data-name="Polígono 3" d="M3.5,0,7,6H0Z" transform="translate(4979.5 3168.5) rotate(90)"/>
  </g>
</svg>
