<svg xmlns="http://www.w3.org/2000/svg" width="175" height="210.851" viewBox="0 0 175 210.851">
  <g id="Grupo_378" data-name="Grupo 378" transform="translate(-88.687 -233)">
    <g id="Grupo_109" data-name="Grupo 109" transform="translate(88.334 233)">
      <g id="Rectángulo_4" data-name="Rectángulo 4" transform="translate(0.352)" fill="#fff" stroke="#000" stroke-width="1">
        <rect width="175" height="175" rx="19" stroke="none"/>
        <rect x="0.5" y="0.5" width="174" height="174" rx="18.5" fill="none"/>
      </g>
    </g>
    <g id="Grupo_106" data-name="Grupo 106" transform="translate(99 256)">
      <g id="Grupo_46" data-name="Grupo 46" transform="translate(0 0.765)">
        <g id="Unión_22" data-name="Unión 22" transform="translate(0 0.235)" fill="#fff">
          <path d="M 19.49962997436523 36.5 L 2.999769926071167 36.5 L 2.999769926071167 27.34804916381836 L 2.999769926071167 26.84804916381836 L 2.499769926071167 26.84804916381836 L 0.5 26.84804916381836 L 0.5 0.5 L 39.5 0.5 L 39.5 26.84804916381836 L 19.99962997436523 26.84804916381836 L 19.49962997436523 26.84804916381836 L 19.49962997436523 27.34804916381836 L 19.49962997436523 36.5 Z" stroke="none"/>
          <path d="M 18.99962997436523 36 L 18.99962997436523 27.34804916381836 L 18.99962997436523 26.34804916381836 L 19.99962997436523 26.34804916381836 L 39 26.34804916381836 L 39 1 L 1 1 L 1 26.34804916381836 L 2.499769926071167 26.34804916381836 L 3.499769926071167 26.34804916381836 L 3.499769926071167 27.34804916381836 L 3.499769926071167 36 L 18.99962997436523 36 M 19.99962997436523 37 L 2.499769926071167 37 L 2.499769926071167 27.34804916381836 L 0 27.34804916381836 L 0 0 L 40 0 L 40 27.34804916381836 L 19.99962997436523 27.34804916381836 L 19.99962997436523 37 Z" stroke="none" fill="#707070"/>
        </g>
      </g>
      <text id="_1" data-name="1" transform="translate(19 24)" font-size="25" font-family="Quicksand-Regular, Quicksand"><tspan x="-4.188" y="0">1</tspan></text>
    </g>
    <g id="Grupo_259" data-name="Grupo 259" transform="translate(0 -19)">
      <path id="Trazado_93" data-name="Trazado 93" d="M218.453,202.505l-15.917,15.948H179.978L164,202.505V179.948L179.978,164h22.557l15.917,15.948Z" transform="translate(38.988 178.47) rotate(22)" fill="#3f3832"/>
      <text id="_8" data-name="8" transform="translate(143 444)" fill="#fff" font-size="44" font-family="Quicksand" font-weight="700"><tspan x="-12.936" y="0">8</tspan></text>
      <path id="Trazado_95" data-name="Trazado 95" d="M218.453,202.505l-15.917,15.948H179.978L164,202.505V179.948L179.978,164h22.557l15.917,15.948Z" transform="translate(111.988 178.47) rotate(22)" fill="#858666"/>
      <text id="_4" data-name="4" transform="translate(217 444)" fill="#fff" font-size="44" font-family="Quicksand" font-weight="700"><tspan x="-15.576" y="0">4</tspan></text>
    </g>
    <g id="Grupo_329" data-name="Grupo 329" transform="translate(156.355 256)">
      <g id="Grupo_46-2" data-name="Grupo 46" transform="translate(0 0.765)">
        <g id="Unión_22-2" data-name="Unión 22" transform="translate(-0.356 0.235)" fill="#fff">
          <path d="M 19.49962997436523 36.5 L 2.999769926071167 36.5 L 2.999769926071167 27.34804916381836 L 2.999769926071167 26.84804916381836 L 2.499769926071167 26.84804916381836 L 0.5 26.84804916381836 L 0.5 0.5 L 39.5 0.5 L 39.5 26.84804916381836 L 19.99962997436523 26.84804916381836 L 19.49962997436523 26.84804916381836 L 19.49962997436523 27.34804916381836 L 19.49962997436523 36.5 Z" stroke="none"/>
          <path d="M 18.99962997436523 36 L 18.99962997436523 27.34804916381836 L 18.99962997436523 26.34804916381836 L 19.99962997436523 26.34804916381836 L 39 26.34804916381836 L 39 1 L 1 1 L 1 26.34804916381836 L 2.499769926071167 26.34804916381836 L 3.499769926071167 26.34804916381836 L 3.499769926071167 27.34804916381836 L 3.499769926071167 36 L 18.99962997436523 36 M 19.99962997436523 37 L 2.499769926071167 37 L 2.499769926071167 27.34804916381836 L 0 27.34804916381836 L 0 0 L 40 0 L 40 27.34804916381836 L 19.99962997436523 27.34804916381836 L 19.99962997436523 37 Z" stroke="none" fill="#707070"/>
        </g>
      </g>
      <text id="_1-2" data-name="1" transform="translate(19.645 24)" font-size="25" font-family="Quicksand-Regular, Quicksand"><tspan x="-4.188" y="0">1</tspan></text>
    </g>
    <g id="Grupo_379" data-name="Grupo 379" transform="translate(213.355 256)">
      <g id="Grupo_46-3" data-name="Grupo 46" transform="translate(0 0.765)">
        <g id="Unión_22-3" data-name="Unión 22" transform="translate(-0.356 0.235)" fill="#fff">
          <path d="M 19.49962997436523 36.5 L 2.999769926071167 36.5 L 2.999769926071167 27.34804916381836 L 2.999769926071167 26.84804916381836 L 2.499769926071167 26.84804916381836 L 0.5 26.84804916381836 L 0.5 0.5 L 39.5 0.5 L 39.5 26.84804916381836 L 19.99962997436523 26.84804916381836 L 19.49962997436523 26.84804916381836 L 19.49962997436523 27.34804916381836 L 19.49962997436523 36.5 Z" stroke="none"/>
          <path d="M 18.99962997436523 36 L 18.99962997436523 27.34804916381836 L 18.99962997436523 26.34804916381836 L 19.99962997436523 26.34804916381836 L 39 26.34804916381836 L 39 1 L 1 1 L 1 26.34804916381836 L 2.499769926071167 26.34804916381836 L 3.499769926071167 26.34804916381836 L 3.499769926071167 27.34804916381836 L 3.499769926071167 36 L 18.99962997436523 36 M 19.99962997436523 37 L 2.499769926071167 37 L 2.499769926071167 27.34804916381836 L 0 27.34804916381836 L 0 0 L 40 0 L 40 27.34804916381836 L 19.99962997436523 27.34804916381836 L 19.99962997436523 37 Z" stroke="none" fill="#707070"/>
        </g>
      </g>
      <text id="_1-3" data-name="1" transform="translate(19.645 24)" font-size="25" font-family="Quicksand-Regular, Quicksand"><tspan x="-4.188" y="0">1</tspan></text>
    </g>
    <g id="Grupo_380" data-name="Grupo 380" transform="translate(99 314)">
      <g id="Grupo_46-4" data-name="Grupo 46" transform="translate(0 0.765)">
        <g id="Unión_22-4" data-name="Unión 22" transform="translate(0 0.235)" fill="#fff">
          <path d="M 19.49962997436523 36.5 L 2.999769926071167 36.5 L 2.999769926071167 27.34804916381836 L 2.999769926071167 26.84804916381836 L 2.499769926071167 26.84804916381836 L 0.5 26.84804916381836 L 0.5 0.5 L 39.5 0.5 L 39.5 26.84804916381836 L 19.99962997436523 26.84804916381836 L 19.49962997436523 26.84804916381836 L 19.49962997436523 27.34804916381836 L 19.49962997436523 36.5 Z" stroke="none"/>
          <path d="M 18.99962997436523 36 L 18.99962997436523 27.34804916381836 L 18.99962997436523 26.34804916381836 L 19.99962997436523 26.34804916381836 L 39 26.34804916381836 L 39 1 L 1 1 L 1 26.34804916381836 L 2.499769926071167 26.34804916381836 L 3.499769926071167 26.34804916381836 L 3.499769926071167 27.34804916381836 L 3.499769926071167 36 L 18.99962997436523 36 M 19.99962997436523 37 L 2.499769926071167 37 L 2.499769926071167 27.34804916381836 L 0 27.34804916381836 L 0 0 L 40 0 L 40 27.34804916381836 L 19.99962997436523 27.34804916381836 L 19.99962997436523 37 Z" stroke="none" fill="#707070"/>
        </g>
      </g>
      <text id="_1-4" data-name="1" transform="translate(19 24)" font-size="25" font-family="Quicksand-Regular, Quicksand"><tspan x="-4.188" y="0">1</tspan></text>
    </g>
    <g id="Grupo_381" data-name="Grupo 381" transform="translate(156.355 314)">
      <g id="Grupo_46-5" data-name="Grupo 46" transform="translate(0 0.765)">
        <g id="Unión_22-5" data-name="Unión 22" transform="translate(-0.356 0.235)" fill="#fff">
          <path d="M 19.49962997436523 36.5 L 2.999769926071167 36.5 L 2.999769926071167 27.34804916381836 L 2.999769926071167 26.84804916381836 L 2.499769926071167 26.84804916381836 L 0.5 26.84804916381836 L 0.5 0.5 L 39.5 0.5 L 39.5 26.84804916381836 L 19.99962997436523 26.84804916381836 L 19.49962997436523 26.84804916381836 L 19.49962997436523 27.34804916381836 L 19.49962997436523 36.5 Z" stroke="none"/>
          <path d="M 18.99962997436523 36 L 18.99962997436523 27.34804916381836 L 18.99962997436523 26.34804916381836 L 19.99962997436523 26.34804916381836 L 39 26.34804916381836 L 39 1 L 1 1 L 1 26.34804916381836 L 2.499769926071167 26.34804916381836 L 3.499769926071167 26.34804916381836 L 3.499769926071167 27.34804916381836 L 3.499769926071167 36 L 18.99962997436523 36 M 19.99962997436523 37 L 2.499769926071167 37 L 2.499769926071167 27.34804916381836 L 0 27.34804916381836 L 0 0 L 40 0 L 40 27.34804916381836 L 19.99962997436523 27.34804916381836 L 19.99962997436523 37 Z" stroke="none" fill="#707070"/>
        </g>
      </g>
      <text id="_1-5" data-name="1" transform="translate(19.645 24)" font-size="25" font-family="Quicksand-Regular, Quicksand"><tspan x="-4.188" y="0">1</tspan></text>
    </g>
    <g id="Grupo_382" data-name="Grupo 382" transform="translate(213.355 314)">
      <g id="Grupo_46-6" data-name="Grupo 46" transform="translate(0 0.765)">
        <g id="Unión_22-6" data-name="Unión 22" transform="translate(-0.356 0.235)" fill="#fff">
          <path d="M 19.49962997436523 36.5 L 2.999769926071167 36.5 L 2.999769926071167 27.34804916381836 L 2.999769926071167 26.84804916381836 L 2.499769926071167 26.84804916381836 L 0.5 26.84804916381836 L 0.5 0.5 L 39.5 0.5 L 39.5 26.84804916381836 L 19.99962997436523 26.84804916381836 L 19.49962997436523 26.84804916381836 L 19.49962997436523 27.34804916381836 L 19.49962997436523 36.5 Z" stroke="none"/>
          <path d="M 18.99962997436523 36 L 18.99962997436523 27.34804916381836 L 18.99962997436523 26.34804916381836 L 19.99962997436523 26.34804916381836 L 39 26.34804916381836 L 39 1 L 1 1 L 1 26.34804916381836 L 2.499769926071167 26.34804916381836 L 3.499769926071167 26.34804916381836 L 3.499769926071167 27.34804916381836 L 3.499769926071167 36 L 18.99962997436523 36 M 19.99962997436523 37 L 2.499769926071167 37 L 2.499769926071167 27.34804916381836 L 0 27.34804916381836 L 0 0 L 40 0 L 40 27.34804916381836 L 19.99962997436523 27.34804916381836 L 19.99962997436523 37 Z" stroke="none" fill="#707070"/>
        </g>
      </g>
      <text id="_1-6" data-name="1" transform="translate(19.645 24)" font-size="25" font-family="Quicksand-Regular, Quicksand"><tspan x="-4.188" y="0">1</tspan></text>
    </g>
  </g>
</svg>
