<svg xmlns="http://www.w3.org/2000/svg" width="175" height="210.851" viewBox="0 0 175 210.851">
  <defs>
    <style>
      .cls-1, .cls-2, .cls-4 {
        fill: #fff;
      }

      .cls-1 {
        stroke: #000;
      }

      .cls-3 {
        fill: #3f3832;
      }

      .cls-5 {
        fill: #858666;
      }

      .cls-6, .cls-8 {
        stroke: none;
      }

      .cls-7 {
        fill: none;
      }

      .cls-8 {
        fill: #707070;
      }
    </style>
  </defs>
  <g id="M_1_9_T" transform="translate(-88.687 -233)">
    <g id="Grupo_109" data-name="Grupo 109" transform="translate(88.334 233)">
      <g id="Rectángulo_4" data-name="Rectángulo 4" class="cls-1" transform="translate(0.352)">
        <rect class="cls-6" width="175" height="175" rx="19"/>
        <rect class="cls-7" x="0.5" y="0.5" width="174" height="174" rx="18.5"/>
      </g>
    </g>
    <g id="Grupo_106" data-name="Grupo 106" transform="translate(99 256)">
      <g id="Grupo_46" data-name="Grupo 46" transform="translate(0 0.765)">
        <g id="Unión_22" data-name="Unión 22" class="cls-2" transform="translate(0 0.235)">
          <path class="cls-6" d="M 19.49962997436523 36.5 L 2.999769926071167 36.5 L 2.999769926071167 27.34804916381836 L 2.999769926071167 26.84804916381836 L 2.499769926071167 26.84804916381836 L 0.5 26.84804916381836 L 0.5 0.5 L 39.5 0.5 L 39.5 26.84804916381836 L 19.99962997436523 26.84804916381836 L 19.49962997436523 26.84804916381836 L 19.49962997436523 27.34804916381836 L 19.49962997436523 36.5 Z"/>
          <path class="cls-8" d="M 18.99962997436523 36 L 18.99962997436523 27.34804916381836 L 18.99962997436523 26.34804916381836 L 19.99962997436523 26.34804916381836 L 39 26.34804916381836 L 39 1 L 1 1 L 1 26.34804916381836 L 2.499769926071167 26.34804916381836 L 3.499769926071167 26.34804916381836 L 3.499769926071167 27.34804916381836 L 3.499769926071167 36 L 18.99962997436523 36 M 19.99962997436523 37 L 2.499769926071167 37 L 2.499769926071167 27.34804916381836 L 0 27.34804916381836 L 0 0 L 40 0 L 40 27.34804916381836 L 19.99962997436523 27.34804916381836 L 19.99962997436523 37 Z"/>
        </g>
      </g>
      <path id="Trazado_322" data-name="Trazado 322" d="M.037-.6a.608.608,0,0,0,.6.6.592.592,0,0,0,.6-.6V-16.675a.721.721,0,0,0-.075-.45.633.633,0,0,0-.825-.225L-3.037-15.3a.577.577,0,0,0-.225.825.609.609,0,0,0,.525.3.613.613,0,0,0,.3-.1l2.475-1.45Z" transform="translate(19 24)"/>
    </g>
    <g id="Grupo_259" data-name="Grupo 259" transform="translate(0 -19)">
      <path id="Trazado_93" data-name="Trazado 93" class="cls-3" d="M218.453,202.505l-15.917,15.948H179.978L164,202.505V179.948L179.978,164h22.557l15.917,15.948Z" transform="translate(38.988 178.47) rotate(22)"/>
      <path id="Trazado_315" data-name="Trazado 315" class="cls-4" d="M4.928-15.62,4.84-16.632a10.055,10.055,0,0,1,2.9,1.936,8.786,8.786,0,0,1,1.892,2.6,6.77,6.77,0,0,1,.66,2.9A8.146,8.146,0,0,1,8.91-4.6,10.124,10.124,0,0,1,5.192-1.254,10.786,10.786,0,0,1,0,0,10.786,10.786,0,0,1-5.192-1.254,10.124,10.124,0,0,1-8.91-4.6,8.146,8.146,0,0,1-10.3-9.2a6.833,6.833,0,0,1,.858-3.5A8.6,8.6,0,0,1-7.282-15.18a16.649,16.649,0,0,1,2.574-1.672L-5.06-15.62a8.646,8.646,0,0,1-2.134-1.254,6.293,6.293,0,0,1-1.694-2.09,6.428,6.428,0,0,1-.66-2.992,8.136,8.136,0,0,1,1.276-4.466,9.285,9.285,0,0,1,3.454-3.19A9.9,9.9,0,0,1,0-30.8a9.735,9.735,0,0,1,4.818,1.188,9.381,9.381,0,0,1,3.41,3.19A8.136,8.136,0,0,1,9.5-21.956a6.176,6.176,0,0,1-.748,3.168,6.389,6.389,0,0,1-1.8,2.024A10.274,10.274,0,0,1,4.928-15.62Zm-9.2-6.248a4.049,4.049,0,0,0,.55,2.112A4.07,4.07,0,0,0-2.2-18.282a4.374,4.374,0,0,0,2.2.55,4.254,4.254,0,0,0,2.178-.55,4.119,4.119,0,0,0,1.5-1.474,4.049,4.049,0,0,0,.55-2.112,3.894,3.894,0,0,0-1.21-2.926A4.172,4.172,0,0,0,0-25.96a4.229,4.229,0,0,0-3.058,1.166A3.894,3.894,0,0,0-4.268-21.868ZM0-4.84a5.155,5.155,0,0,0,3.564-1.3A4.068,4.068,0,0,0,5.016-9.284a4.1,4.1,0,0,0-.66-2.288,4.678,4.678,0,0,0-1.8-1.606A5.454,5.454,0,0,0,0-13.772a5.454,5.454,0,0,0-2.552.594,4.678,4.678,0,0,0-1.8,1.606,4.1,4.1,0,0,0-.66,2.288A4.068,4.068,0,0,0-3.564-6.138,5.155,5.155,0,0,0,0-4.84Z" transform="translate(143 444)"/>
      <path id="Trazado_95" data-name="Trazado 95" class="cls-5" d="M218.453,202.505l-15.917,15.948H179.978L164,202.505V179.948L179.978,164h22.557l15.917,15.948Z" transform="translate(111.988 178.47) rotate(22)"/>
      <path id="Trazado_316" data-name="Trazado 316" class="cls-4" d="M5.06,0A2.474,2.474,0,0,1,3.212-.77a2.639,2.639,0,0,1-.748-1.914v-20.68l.924.22L-5.1-12.628l-.22-.572H9.592a2.388,2.388,0,0,1,1.76.7,2.388,2.388,0,0,1,.7,1.76,2.263,2.263,0,0,1-.7,1.694,2.429,2.429,0,0,1-1.76.682H-8.976a2.692,2.692,0,0,1-1.782-.748,2.356,2.356,0,0,1-.858-1.848,2.683,2.683,0,0,1,.66-1.76l13.9-17.028a2.505,2.505,0,0,1,.924-.77A2.813,2.813,0,0,1,5.148-30.8a2.455,2.455,0,0,1,1.87.77,2.682,2.682,0,0,1,.726,1.914V-2.684A2.6,2.6,0,0,1,6.974-.77,2.6,2.6,0,0,1,5.06,0Z" transform="translate(217 444)"/>
    </g>
    <g id="Grupo_329" data-name="Grupo 329" transform="translate(156.355 256)">
      <g id="Grupo_46-2" data-name="Grupo 46" transform="translate(0 0.765)">
        <g id="Unión_22-2" data-name="Unión 22" class="cls-2" transform="translate(-0.356 0.235)">
          <path class="cls-6" d="M 19.49962997436523 36.5 L 2.999769926071167 36.5 L 2.999769926071167 27.34804916381836 L 2.999769926071167 26.84804916381836 L 2.499769926071167 26.84804916381836 L 0.5 26.84804916381836 L 0.5 0.5 L 39.5 0.5 L 39.5 26.84804916381836 L 19.99962997436523 26.84804916381836 L 19.49962997436523 26.84804916381836 L 19.49962997436523 27.34804916381836 L 19.49962997436523 36.5 Z"/>
          <path class="cls-8" d="M 18.99962997436523 36 L 18.99962997436523 27.34804916381836 L 18.99962997436523 26.34804916381836 L 19.99962997436523 26.34804916381836 L 39 26.34804916381836 L 39 1 L 1 1 L 1 26.34804916381836 L 2.499769926071167 26.34804916381836 L 3.499769926071167 26.34804916381836 L 3.499769926071167 27.34804916381836 L 3.499769926071167 36 L 18.99962997436523 36 M 19.99962997436523 37 L 2.499769926071167 37 L 2.499769926071167 27.34804916381836 L 0 27.34804916381836 L 0 0 L 40 0 L 40 27.34804916381836 L 19.99962997436523 27.34804916381836 L 19.99962997436523 37 Z"/>
        </g>
      </g>
      <path id="Trazado_321" data-name="Trazado 321" d="M.037-.6a.608.608,0,0,0,.6.6.592.592,0,0,0,.6-.6V-16.675a.721.721,0,0,0-.075-.45.633.633,0,0,0-.825-.225L-3.037-15.3a.577.577,0,0,0-.225.825.609.609,0,0,0,.525.3.613.613,0,0,0,.3-.1l2.475-1.45Z" transform="translate(19.645 24)"/>
    </g>
    <g id="Grupo_379" data-name="Grupo 379" transform="translate(213.355 256)">
      <g id="Grupo_46-3" data-name="Grupo 46" transform="translate(0 0.765)">
        <g id="Unión_22-3" data-name="Unión 22" class="cls-2" transform="translate(-0.356 0.235)">
          <path class="cls-6" d="M 19.49962997436523 36.5 L 2.999769926071167 36.5 L 2.999769926071167 27.34804916381836 L 2.999769926071167 26.84804916381836 L 2.499769926071167 26.84804916381836 L 0.5 26.84804916381836 L 0.5 0.5 L 39.5 0.5 L 39.5 26.84804916381836 L 19.99962997436523 26.84804916381836 L 19.49962997436523 26.84804916381836 L 19.49962997436523 27.34804916381836 L 19.49962997436523 36.5 Z"/>
          <path class="cls-8" d="M 18.99962997436523 36 L 18.99962997436523 27.34804916381836 L 18.99962997436523 26.34804916381836 L 19.99962997436523 26.34804916381836 L 39 26.34804916381836 L 39 1 L 1 1 L 1 26.34804916381836 L 2.499769926071167 26.34804916381836 L 3.499769926071167 26.34804916381836 L 3.499769926071167 27.34804916381836 L 3.499769926071167 36 L 18.99962997436523 36 M 19.99962997436523 37 L 2.499769926071167 37 L 2.499769926071167 27.34804916381836 L 0 27.34804916381836 L 0 0 L 40 0 L 40 27.34804916381836 L 19.99962997436523 27.34804916381836 L 19.99962997436523 37 Z"/>
        </g>
      </g>
      <path id="Trazado_320" data-name="Trazado 320" d="M.037-.6a.608.608,0,0,0,.6.6.592.592,0,0,0,.6-.6V-16.675a.721.721,0,0,0-.075-.45.633.633,0,0,0-.825-.225L-3.037-15.3a.577.577,0,0,0-.225.825.609.609,0,0,0,.525.3.613.613,0,0,0,.3-.1l2.475-1.45Z" transform="translate(19.645 24)"/>
    </g>
    <g id="Grupo_380" data-name="Grupo 380" transform="translate(99 314)">
      <g id="Grupo_46-4" data-name="Grupo 46" transform="translate(0 0.765)">
        <g id="Unión_22-4" data-name="Unión 22" class="cls-2" transform="translate(0 0.235)">
          <path class="cls-6" d="M 19.49962997436523 36.5 L 2.999769926071167 36.5 L 2.999769926071167 27.34804916381836 L 2.999769926071167 26.84804916381836 L 2.499769926071167 26.84804916381836 L 0.5 26.84804916381836 L 0.5 0.5 L 39.5 0.5 L 39.5 26.84804916381836 L 19.99962997436523 26.84804916381836 L 19.49962997436523 26.84804916381836 L 19.49962997436523 27.34804916381836 L 19.49962997436523 36.5 Z"/>
          <path class="cls-8" d="M 18.99962997436523 36 L 18.99962997436523 27.34804916381836 L 18.99962997436523 26.34804916381836 L 19.99962997436523 26.34804916381836 L 39 26.34804916381836 L 39 1 L 1 1 L 1 26.34804916381836 L 2.499769926071167 26.34804916381836 L 3.499769926071167 26.34804916381836 L 3.499769926071167 27.34804916381836 L 3.499769926071167 36 L 18.99962997436523 36 M 19.99962997436523 37 L 2.499769926071167 37 L 2.499769926071167 27.34804916381836 L 0 27.34804916381836 L 0 0 L 40 0 L 40 27.34804916381836 L 19.99962997436523 27.34804916381836 L 19.99962997436523 37 Z"/>
        </g>
      </g>
      <path id="Trazado_317" data-name="Trazado 317" d="M.037-.6a.608.608,0,0,0,.6.6.592.592,0,0,0,.6-.6V-16.675a.721.721,0,0,0-.075-.45.633.633,0,0,0-.825-.225L-3.037-15.3a.577.577,0,0,0-.225.825.609.609,0,0,0,.525.3.613.613,0,0,0,.3-.1l2.475-1.45Z" transform="translate(19 24)"/>
    </g>
    <g id="Grupo_381" data-name="Grupo 381" transform="translate(156.355 314)">
      <g id="Grupo_46-5" data-name="Grupo 46" transform="translate(0 0.765)">
        <g id="Unión_22-5" data-name="Unión 22" class="cls-2" transform="translate(-0.356 0.235)">
          <path class="cls-6" d="M 19.49962997436523 36.5 L 2.999769926071167 36.5 L 2.999769926071167 27.34804916381836 L 2.999769926071167 26.84804916381836 L 2.499769926071167 26.84804916381836 L 0.5 26.84804916381836 L 0.5 0.5 L 39.5 0.5 L 39.5 26.84804916381836 L 19.99962997436523 26.84804916381836 L 19.49962997436523 26.84804916381836 L 19.49962997436523 27.34804916381836 L 19.49962997436523 36.5 Z"/>
          <path class="cls-8" d="M 18.99962997436523 36 L 18.99962997436523 27.34804916381836 L 18.99962997436523 26.34804916381836 L 19.99962997436523 26.34804916381836 L 39 26.34804916381836 L 39 1 L 1 1 L 1 26.34804916381836 L 2.499769926071167 26.34804916381836 L 3.499769926071167 26.34804916381836 L 3.499769926071167 27.34804916381836 L 3.499769926071167 36 L 18.99962997436523 36 M 19.99962997436523 37 L 2.499769926071167 37 L 2.499769926071167 27.34804916381836 L 0 27.34804916381836 L 0 0 L 40 0 L 40 27.34804916381836 L 19.99962997436523 27.34804916381836 L 19.99962997436523 37 Z"/>
        </g>
      </g>
      <path id="Trazado_318" data-name="Trazado 318" d="M.037-.6a.608.608,0,0,0,.6.6.592.592,0,0,0,.6-.6V-16.675a.721.721,0,0,0-.075-.45.633.633,0,0,0-.825-.225L-3.037-15.3a.577.577,0,0,0-.225.825.609.609,0,0,0,.525.3.613.613,0,0,0,.3-.1l2.475-1.45Z" transform="translate(19.645 24)"/>
    </g>
    <g id="Grupo_382" data-name="Grupo 382" transform="translate(213.355 314)">
      <g id="Grupo_46-6" data-name="Grupo 46" transform="translate(0 0.765)">
        <g id="Unión_22-6" data-name="Unión 22" class="cls-2" transform="translate(-0.356 0.235)">
          <path class="cls-6" d="M 19.49962997436523 36.5 L 2.999769926071167 36.5 L 2.999769926071167 27.34804916381836 L 2.999769926071167 26.84804916381836 L 2.499769926071167 26.84804916381836 L 0.5 26.84804916381836 L 0.5 0.5 L 39.5 0.5 L 39.5 26.84804916381836 L 19.99962997436523 26.84804916381836 L 19.49962997436523 26.84804916381836 L 19.49962997436523 27.34804916381836 L 19.49962997436523 36.5 Z"/>
          <path class="cls-8" d="M 18.99962997436523 36 L 18.99962997436523 27.34804916381836 L 18.99962997436523 26.34804916381836 L 19.99962997436523 26.34804916381836 L 39 26.34804916381836 L 39 1 L 1 1 L 1 26.34804916381836 L 2.499769926071167 26.34804916381836 L 3.499769926071167 26.34804916381836 L 3.499769926071167 27.34804916381836 L 3.499769926071167 36 L 18.99962997436523 36 M 19.99962997436523 37 L 2.499769926071167 37 L 2.499769926071167 27.34804916381836 L 0 27.34804916381836 L 0 0 L 40 0 L 40 27.34804916381836 L 19.99962997436523 27.34804916381836 L 19.99962997436523 37 Z"/>
        </g>
      </g>
      <path id="Trazado_319" data-name="Trazado 319" d="M.037-.6a.608.608,0,0,0,.6.6.592.592,0,0,0,.6-.6V-16.675a.721.721,0,0,0-.075-.45.633.633,0,0,0-.825-.225L-3.037-15.3a.577.577,0,0,0-.225.825.609.609,0,0,0,.525.3.613.613,0,0,0,.3-.1l2.475-1.45Z" transform="translate(19.645 24)"/>
    </g>
  </g>
</svg>
