<svg xmlns="http://www.w3.org/2000/svg" width="175" height="210.851" viewBox="0 0 175 210.851">
  <g id="Grupo_375" data-name="Grupo 375" transform="translate(-88.687 -233)">
    <g id="Grupo_109" data-name="Grupo 109" transform="translate(88.334 233)">
      <g id="Rectángulo_4" data-name="Rectángulo 4" transform="translate(0.352)" fill="#fff" stroke="#000" stroke-width="1">
        <rect width="175" height="175" rx="19" stroke="none"/>
        <rect x="0.5" y="0.5" width="174" height="174" rx="18.5" fill="none"/>
      </g>
    </g>
    <g id="Grupo_259" data-name="Grupo 259" transform="translate(0 -19)">
      <path id="Trazado_93" data-name="Trazado 93" d="M218.453,202.505l-15.917,15.948H179.978L164,202.505V179.948L179.978,164h22.557l15.917,15.948Z" transform="translate(38.988 178.47) rotate(22)" fill="#3f3832"/>
      <text id="_8" data-name="8" transform="translate(143 444)" fill="#fff" font-size="44" font-family="Quicksand" font-weight="700"><tspan x="-12.936" y="0">8</tspan></text>
      <path id="Trazado_95" data-name="Trazado 95" d="M218.453,202.505l-15.917,15.948H179.978L164,202.505V179.948L179.978,164h22.557l15.917,15.948Z" transform="translate(111.988 178.47) rotate(22)" fill="#858666"/>
      <text id="_3" data-name="3" transform="translate(217 444)" fill="#fff" font-size="44" font-family="Quicksand" font-weight="700"><tspan x="-11.484" y="0">3</tspan></text>
    </g>
    <text id="_5" data-name="5" transform="translate(176 282)" font-size="44" font-family="Quicksand" font-weight="700"><tspan x="-12.738" y="0">5</tspan></text>
    <g id="Grupo_376" data-name="Grupo 376" transform="translate(-258.839 162.257)">
      <g id="Unión_13" data-name="Unión 13" transform="translate(386.232 131)" fill="#da5468" stroke-linecap="square">
        <path d="M 15.00389957427979 70.65770721435547 C 10.93828773498535 70.65770721435547 7.108821392059326 70.06864929199219 4.220932483673096 68.99903869628906 C 1.176588177680969 67.87149047851562 -0.5000007152557373 66.30929565429688 -0.5000007152557373 64.60020446777344 C -0.5000007152557373 64.38673400878906 -0.4386919438838959 64.20185089111328 -0.3303329050540924 64.01653289794922 L -0.7333451509475708 63.95896148681641 L 0.3542104065418243 63.23303985595703 L 14.97729969024658 53.47239685058594 L 14.97729969024658 28.40850448608398 C 14.97729969024658 24.77166175842285 16.58090972900391 21.32773780822754 19.49272155761719 18.71112823486328 C 22.26398468017578 16.2208251953125 25.94672966003418 14.72472953796387 29.90829849243164 14.470627784729 L 29.90829849243164 14.43190574645996 L 30.40829849243164 14.43190574645996 L 41.28581619262695 14.43190574645996 L 41.28879547119141 1.648878455162048 C 41.286376953125 1.610493302345276 41.28519821166992 1.56930935382843 41.28519821166992 1.523705363273621 C 41.28519821166992 0.4078386723995209 42.14741134643555 -0.4999946653842926 43.20719909667969 -0.4999946653842926 C 43.77897644042969 -0.4999946653842926 44.30795288085938 -0.2388410270214081 44.67039108276367 0.2110053449869156 L 60.27209854125977 0.2110053449869156 L 60.77209854125977 0.2110053449869156 L 60.77209854125977 0.7110053300857544 L 60.77209854125977 8.532905578613281 L 60.77209854125977 9.032905578613281 L 60.27209854125977 9.032905578613281 L 45.12919998168945 9.032905578613281 L 45.12919998168945 14.43190574645996 L 68.76000213623047 14.43190574645996 L 69.29910278320312 14.43190574645996 L 69.79910278320312 14.43190574645996 L 69.79910278320312 14.46049499511719 C 73.80876922607422 14.67935180664062 77.5430908203125 16.16042137145996 80.36008453369141 18.65855026245117 C 83.31800079345703 21.28166007995605 84.94699859619141 24.74426078796387 84.94699859619141 28.40850448608398 L 84.94699859619141 54.74880599975586 L 84.94699859619141 55.24880599975586 L 84.44699859619141 55.24880599975586 L 69.29910278320312 55.24880599975586 L 46.76219940185547 55.24880599975586 L 44.78742599487305 55.24880599975586 L 29.75805473327637 66.52288818359375 C 27.74213409423828 68.99838256835938 21.83116149902344 70.65770721435547 15.00389957427979 70.65770721435547 Z" stroke="none"/>
        <path d="M 15.00389957427979 70.15769958496094 C 21.82769966125488 70.15769958496094 27.58680534362793 68.47019958496094 29.40749931335449 66.16080474853516 L 44.62072372436523 54.74880218505859 L 44.62920379638672 54.74880218505859 L 46.76220703125 54.74880218505859 L 69.29910278320312 54.74880218505859 L 84.44700622558594 54.74880218505859 L 84.44700622558594 28.40849685668945 C 84.44700622558594 21.12029647827148 77.71320343017578 15.18389701843262 69.29910278320312 14.94000244140625 L 69.29910278320312 14.93189716339111 L 68.76000213623047 14.93189716339111 L 44.62920379638672 14.93189716339111 L 44.62920379638672 8.532896995544434 L 60.27209854125977 8.532896995544434 L 60.27209854125977 0.7110027074813843 L 44.40986251831055 0.7110027074813843 C 44.15784072875977 0.2839086055755615 43.71352386474609 2.733656856435118e-06 43.20720672607422 2.733656856435118e-06 C 42.42150115966797 2.733656856435118e-06 41.78520584106445 0.6822027564048767 41.78520584106445 1.523696899414062 C 41.78520584106445 1.560602784156799 41.78609848022461 1.59660267829895 41.7888069152832 1.631696820259094 L 41.78569793701172 14.93189716339111 L 30.40829849243164 14.93189716339111 L 30.40829849243164 14.94557952880859 C 22.09929847717285 15.26588535308838 15.47729969024658 21.17083740234375 15.47729969024658 28.40849685668945 L 15.47729969024658 53.82089614868164 L 15.35580539703369 53.82089614868164 L 0.6318051815032959 63.64891052246094 L 0.6444051861763 63.65070724487305 C 0.5120993256568909 63.75240325927734 0.4058992862701416 63.85500335693359 0.3276051878929138 63.95849609375 C 0.06389930099248886 64.277099609375 5.180448624741985e-06 64.43730926513672 5.180448624741985e-06 64.60020446777344 C 5.180448624741985e-06 67.67010498046875 6.717605113983154 70.15769958496094 15.00389957427979 70.15769958496094 M 15.00389957427979 71.15769958496094 C 10.8804988861084 71.15769958496094 6.989369869232178 70.55759429931641 4.047275543212891 69.46791076660156 C 2.554616928100586 68.91506958007812 1.367969870567322 68.25834655761719 0.5202757716178894 67.51596832275391 C -0.73624187707901 66.41556549072266 -0.9999948143959045 65.32299041748047 -0.9999948143959045 64.60020446777344 C -0.9999948143959045 64.54093170166016 -0.9966796636581421 64.48335266113281 -0.9903873205184937 64.42732238769531 L -2.098477125167847 64.26902770996094 L 0.07664047181606293 62.81716918945312 L 14.47729969024658 53.20497894287109 L 14.47729969024658 28.40849685668945 C 14.47729969024658 24.62790870666504 16.13979339599609 21.05190849304199 19.15852355957031 18.33922576904297 C 21.90361976623535 15.87244319915771 25.51323699951172 14.35285091400146 29.40829849243164 14.00741291046143 L 29.40829849243164 13.93189716339111 L 30.40829849243164 13.93189716339111 L 40.78593444824219 13.93189716339111 L 40.78879928588867 1.663520574569702 C 40.78638458251953 1.619652390480042 40.78520584106445 1.573508262634277 40.78520584106445 1.523696899414062 C 40.78520584106445 0.1321321427822113 41.87171173095703 -0.9999972581863403 43.20720672607422 -0.9999972581863403 C 43.84971618652344 -0.9999972581863403 44.44841766357422 -0.7417757511138916 44.89412689208984 -0.2889972627162933 L 60.27209854125977 -0.2889972627162933 L 61.27209854125977 -0.2889972627162933 L 61.27209854125977 0.7110027074813843 L 61.27209854125977 8.532896995544434 L 61.27209854125977 9.532896995544434 L 60.27209854125977 9.532896995544434 L 45.62920379638672 9.532896995544434 L 45.62920379638672 13.93189716339111 L 68.76000213623047 13.93189716339111 L 69.29910278320312 13.93189716339111 L 70.29910278320312 13.93189716339111 L 70.29910278320312 13.99283123016357 C 74.24153900146484 14.30475807189941 77.9017333984375 15.81016254425049 80.69184112548828 18.28445053100586 C 83.75825500488281 21.0037784576416 85.44700622558594 24.5992374420166 85.44700622558594 28.40849685668945 L 85.44700622558594 54.74880218505859 L 85.44700622558594 55.74880218505859 L 84.44700622558594 55.74880218505859 L 69.29910278320312 55.74880218505859 L 46.76220703125 55.74880218505859 L 44.9541130065918 55.74880218505859 L 30.10578346252441 66.8870849609375 C 28.77236366271973 68.48255920410156 26.25290489196777 69.45217895507812 24.35321617126465 69.98775482177734 C 21.63838195800781 70.75313568115234 18.40544128417969 71.15769958496094 15.00389957427979 71.15769958496094 Z" stroke="none" fill="#b4d6c8"/>
      </g>
      <g id="Grupo_26" data-name="Grupo 26" transform="translate(386.233 131)">
        <path id="Unión_10" data-name="Unión 10" d="M0,17,0,1.626q0-.053,0-.108A1.509,1.509,0,0,1,1.5,0,1.508,1.508,0,0,1,3,1.436H3V1.5c0,.007,0,.014,0,.021s0,.019,0,.029L2.959,17Z" transform="translate(41.607 -0.257)" fill="#da5468"/>
        <rect id="Rectángulo_34" data-name="Rectángulo 34" width="17" height="8" transform="translate(43.607 0.743)" fill="#da5468"/>
        <path id="Unión_8" data-name="Unión 8" d="M38.863,40H0V0H38.863V.008C47.271.253,54,6.217,54,13.539V40Z" transform="translate(30.607 14.743)" fill="#da5468"/>
        <path id="Unión_9" data-name="Unión 9" d="M0,40V13.538C0,6.061,6.939,0,15.5,0S31,6.061,31,13.538V40Z" transform="translate(15.607 14.743)" fill="#da5468"/>
        <path id="Unión_11" data-name="Unión 11" d="M0,16.337,16.45,4c1.82-2.31,7.58-4,14.4-4,8.286,0,15,2.488,15,5.558,0,.163-.063.323-.328.642a1.679,1.679,0,0,1-.316.308h.012L30.5,16.337Z" transform="translate(45.857 70.158) rotate(180)" fill="#da5468"/>
        <path id="Unión_12" data-name="Unión 12" d="M0,38V12.861C0,5.758,6.268,0,14,0S28,5.758,28,12.861V38Z" transform="translate(16.607 16.743)" fill="#b6374d"/>
        <rect id="Rectángulo_36" data-name="Rectángulo 36" width="1" height="14" transform="translate(43.607 0.743)" fill="#be4256"/>
        <text id="BIS" transform="translate(46.607 44.743)" fill="#ea94a8" font-size="21" font-family="HelveticaNeue, Helvetica Neue"><tspan x="0" y="0">BIS</tspan></text>
      </g>
    </g>
  </g>
</svg>
