<svg xmlns="http://www.w3.org/2000/svg" width="175" height="211.537" viewBox="0 0 175 211.537">
  <g id="Grupo_412" data-name="Grupo 412" transform="translate(-5583.687 -3489)">
    <g id="Grupo_409" data-name="Grupo 409" transform="translate(5495 3256)">
      <g id="Grupo_109" data-name="Grupo 109" transform="translate(88.334 233)">
        <g id="Rectángulo_4" data-name="Rectángulo 4" transform="translate(0.352)" fill="#fff" stroke="#000" stroke-width="1">
          <rect width="175" height="175" rx="19" stroke="none"/>
          <rect x="0.5" y="0.5" width="174" height="174" rx="18.5" fill="none"/>
        </g>
      </g>
      <g id="Grupo_259" data-name="Grupo 259" transform="translate(0 -19)">
        <path id="Trazado_93" data-name="Trazado 93" d="M218.453,202.505l-15.917,15.948H179.978L164,202.505V179.948L179.978,164h22.557l15.917,15.948Z" transform="translate(38.776 178.507) rotate(22)" fill="#fff" stroke="#f0f0f0" stroke-width="1"/>
        <text id="_10" data-name="10" transform="translate(145 442)" fill="#f0f0f0" font-size="40" font-family="Quicksand" font-weight="700"><tspan x="-19.56" y="0">10</tspan></text>
        <path id="Trazado_95" data-name="Trazado 95" d="M218.453,202.505l-15.917,15.948H179.978L164,202.505V179.948L179.978,164h22.557l15.917,15.948Z" transform="translate(111.988 178.47) rotate(22)" fill="#858666"/>
        <text id="_5" data-name="5" transform="translate(217 444)" fill="#fff" font-size="44" font-family="Quicksand" font-weight="700"><tspan x="-12.738" y="0">5</tspan></text>
      </g>
    </g>
    <g id="Grupo_410" data-name="Grupo 410" transform="translate(625.07 411.664)">
      <g id="Grupo_341" data-name="Grupo 341" transform="translate(4994.397 3122.197)">
        <g id="Grupo_352" data-name="Grupo 352" transform="translate(0 36.85)">
          <g id="Grupo_106" data-name="Grupo 106" transform="translate(0 0)">
            <g id="Grupo_46" data-name="Grupo 46" transform="translate(0 0)">
              <g id="Unión_22" data-name="Unión 22" transform="translate(-0.468 0.289)" fill="#fff">
                <path d="M 7.749849796295166 14.75 L 1.249909996986389 14.75 L 1.249909996986389 11.08705043792725 L 1.249909996986389 10.83705043792725 L 0.9999099969863892 10.83705043792725 L 0.25 10.83705043792725 L 0.25 0.25 L 15.75 0.25 L 15.75 10.83705043792725 L 7.999849796295166 10.83705043792725 L 7.749849796295166 10.83705043792725 L 7.749849796295166 11.08705043792725 L 7.749849796295166 14.75 Z" stroke="none"/>
                <path d="M 7.499849796295166 14.5 L 7.499849796295166 11.08705043792725 L 7.499849796295166 10.58705043792725 L 7.999849796295166 10.58705043792725 L 15.5 10.58705043792725 L 15.5 0.5 L 0.5 0.5 L 0.5 10.58705043792725 L 0.9999099969863892 10.58705043792725 L 1.499909996986389 10.58705043792725 L 1.499909996986389 11.08705043792725 L 1.499909996986389 14.5 L 7.499849796295166 14.5 M 7.999849796295166 15 L 0.9999099969863892 15 L 0.9999099969863892 11.08705043792725 L 0 11.08705043792725 L 0 -8.881784197001252e-16 L 16 -8.881784197001252e-16 L 16 11.08705043792725 L 7.999849796295166 11.08705043792725 L 7.999849796295166 15 Z" stroke="none" fill="#707070"/>
              </g>
            </g>
          </g>
        </g>
        <g id="Grupo_391" data-name="Grupo 391" transform="translate(0 0)">
          <g id="Grupo_106-2" data-name="Grupo 106" transform="translate(0 0)">
            <g id="Grupo_46-2" data-name="Grupo 46" transform="translate(0 0)">
              <g id="Unión_22-2" data-name="Unión 22" transform="translate(-0.468 0.139)" fill="#fff">
                <path d="M 7.749849796295166 14.75 L 1.249909996986389 14.75 L 1.249909996986389 11.08705043792725 L 1.249909996986389 10.83705043792725 L 0.9999099969863892 10.83705043792725 L 0.25 10.83705043792725 L 0.25 0.25 L 15.75 0.25 L 15.75 10.83705043792725 L 7.999849796295166 10.83705043792725 L 7.749849796295166 10.83705043792725 L 7.749849796295166 11.08705043792725 L 7.749849796295166 14.75 Z" stroke="none"/>
                <path d="M 7.499849796295166 14.5 L 7.499849796295166 11.08705043792725 L 7.499849796295166 10.58705043792725 L 7.999849796295166 10.58705043792725 L 15.5 10.58705043792725 L 15.5 0.5 L 0.5 0.5 L 0.5 10.58705043792725 L 0.9999099969863892 10.58705043792725 L 1.499909996986389 10.58705043792725 L 1.499909996986389 11.08705043792725 L 1.499909996986389 14.5 L 7.499849796295166 14.5 M 7.999849796295166 15 L 0.9999099969863892 15 L 0.9999099969863892 11.08705043792725 L 0 11.08705043792725 L 0 -8.881784197001252e-16 L 16 -8.881784197001252e-16 L 16 11.08705043792725 L 7.999849796295166 11.08705043792725 L 7.999849796295166 15 Z" stroke="none" fill="#707070"/>
              </g>
            </g>
          </g>
        </g>
        <g id="Grupo_392" data-name="Grupo 392" transform="translate(0 73.699)">
          <g id="Grupo_106-3" data-name="Grupo 106" transform="translate(0 0)">
            <g id="Grupo_46-3" data-name="Grupo 46" transform="translate(0 0)">
              <g id="Unión_22-3" data-name="Unión 22" transform="translate(-0.468 0.44)" fill="#bebbbb">
                <path d="M 7.749849796295166 14.75 L 1.249909996986389 14.75 L 1.249909996986389 11.08705043792725 L 1.249909996986389 10.83705043792725 L 0.9999099969863892 10.83705043792725 L 0.25 10.83705043792725 L 0.25 0.25 L 15.75 0.25 L 15.75 10.83705043792725 L 7.999849796295166 10.83705043792725 L 7.749849796295166 10.83705043792725 L 7.749849796295166 11.08705043792725 L 7.749849796295166 14.75 Z" stroke="none"/>
                <path d="M 7.499849796295166 14.5 L 7.499849796295166 11.08705043792725 L 7.499849796295166 10.58705043792725 L 7.999849796295166 10.58705043792725 L 15.5 10.58705043792725 L 15.5 0.5 L 0.5 0.5 L 0.5 10.58705043792725 L 0.9999099969863892 10.58705043792725 L 1.499909996986389 10.58705043792725 L 1.499909996986389 11.08705043792725 L 1.499909996986389 14.5 L 7.499849796295166 14.5 M 7.999849796295166 15 L 0.9999099969863892 15 L 0.9999099969863892 11.08705043792725 L 0 11.08705043792725 L 0 -8.881784197001252e-16 L 16 -8.881784197001252e-16 L 16 11.08705043792725 L 7.999849796295166 11.08705043792725 L 7.999849796295166 15 Z" stroke="none" fill="#707070"/>
              </g>
            </g>
          </g>
        </g>
      </g>
      <path id="Polígono_3" data-name="Polígono 3" d="M4.3,0,8.6,7.37H0Z" transform="translate(4988.87 3198.888) rotate(90)"/>
      <g id="Grupo_393" data-name="Grupo 393" transform="translate(5048.535 3166.272)">
        <path id="Trazado_88" data-name="Trazado 88" d="M1587.865-586.367c-.023.464,5.88-5.952,25.792,0,.657.2,1.3.379,2,.565,18.661,4.952,29.574-1.367,31.249-3.874,1.733-2.592-6.636,6.354-24.233-1.412S1587.889-586.832,1587.865-586.367Z" transform="translate(-1587.865 633.895)" fill="#37c837"/>
        <g id="Grupo_60" data-name="Grupo 60" transform="translate(31.403 20.037)">
          <path id="path977-5-8" d="M-51.621,326.65h8.5" transform="translate(55.813 -301.135)" fill="none" stroke="#241f1c" stroke-linecap="round" stroke-linejoin="round" stroke-width="0.4"/>
          <path id="path979-8-6-6-8-5-7-2-3-7" d="M-49,330.766l-.058-16.227h1.892l.111,16.214Z" transform="translate(56.684 -305.252)" fill="#784421" stroke="#241f1c" stroke-linecap="round" stroke-linejoin="round" stroke-width="0.4"/>
          <ellipse id="path837-1-2-8-9-4" cx="6.095" cy="5.858" rx="6.095" ry="5.858" transform="translate(0 8.816)" fill="#5fd35f" stroke="rgba(36,31,28,0.99)" stroke-linecap="round" stroke-linejoin="round" stroke-width="0.4"/>
          <ellipse id="ellipse9017" cx="9.319" cy="8.957" rx="9.319" ry="8.957" transform="translate(2.511)" fill="#37c837" stroke="rgba(36,31,28,0.99)" stroke-linecap="round" stroke-linejoin="round" stroke-width="0.4"/>
        </g>
        <g id="Grupo_61" data-name="Grupo 61" transform="translate(7.004 0)">
          <ellipse id="path4729" cx="7.198" cy="6.679" rx="7.198" ry="6.679" transform="translate(5.022 16.372)" fill="#2ca02c" stroke="#241f1c" stroke-linecap="round" stroke-linejoin="round" stroke-width="0.4"/>
          <path id="path979-8-6-6-8-5-7" d="M-13.222,417.518l-.1-28.824h3.362l.2,28.8Z" transform="translate(29.216 -373.977)" fill="#784421" stroke="#241f1c" stroke-linecap="round" stroke-linejoin="round" stroke-width="0.4"/>
          <ellipse id="path4729-7" cx="9.648" cy="8.952" rx="9.648" ry="8.952" transform="translate(0 4.172)" fill="#37c837" stroke="#241f1c" stroke-linecap="round" stroke-linejoin="round" stroke-width="0.4"/>
          <ellipse id="path4729-7-7" cx="9.648" cy="8.952" rx="9.648" ry="8.952" transform="translate(11.125)" fill="#5fd35f" stroke="#241f1c" stroke-linecap="round" stroke-linejoin="round" stroke-width="0.4"/>
          <path id="path977-8-5-8-2-0" d="M-14.931,400.952H-3.745" transform="translate(26.999 -357.061)" fill="none" stroke="#241f1c" stroke-linecap="round" stroke-linejoin="round" stroke-width="0.4"/>
          <ellipse id="path4729-7-7-7" cx="6.961" cy="6.459" rx="6.961" ry="6.459" transform="translate(19.562 14.635)" fill="#37c837" stroke="#241f1c" stroke-linecap="round" stroke-linejoin="round" stroke-width="0.4"/>
        </g>
      </g>
      <g id="Grupo_394" data-name="Grupo 394" transform="translate(5049.729 3105)">
        <path id="Trazado_7" data-name="Trazado 7" d="M220.139-387.187l-8.144-32.847,57.048,17.042-7.81,15.008Z" transform="translate(-211.995 420.035)" fill="#8dd1e4"/>
        <g id="Grupo_5" data-name="Grupo 5" transform="translate(23.281 18.482)">
          <ellipse id="Elipse_10" data-name="Elipse 10" cx="18.5" cy="7" rx="18.5" ry="7" transform="translate(-0.08 4.853)" fill="#388caf"/>
          <ellipse id="Elipse_11" data-name="Elipse 11" cx="18.5" cy="7" rx="18.5" ry="7" transform="translate(-0.08 4.853)" fill="#5abce6"/>
          <g id="Elipse_12" data-name="Elipse 12" transform="translate(-0.08 4.853)" fill="none" stroke="#b4d6c8" stroke-width="0.4">
            <ellipse cx="18.5" cy="7" rx="18.5" ry="7" stroke="none"/>
            <ellipse cx="18.5" cy="7" rx="18.3" ry="6.8" fill="none"/>
          </g>
          <path id="Trazado_4" data-name="Trazado 4" d="M249.153-381.32V-393.7" transform="translate(-240.646 396.064)" fill="none" stroke="#75c3e4" stroke-width="0.4"/>
          <line id="Línea_2" data-name="Línea 2" x2="5.541" transform="translate(8.782 10.914)" fill="none" stroke="#75c3e4" stroke-width="0.4"/>
          <line id="Línea_3" data-name="Línea 3" y1="11.864" transform="translate(14.323 2.522)" fill="none" stroke="#75c3e4" stroke-width="0.4"/>
          <line id="Línea_4" data-name="Línea 4" x2="5.541" transform="translate(8.782 7.603)" fill="none" stroke="#75c3e4" stroke-width="0.4"/>
          <line id="Línea_5" data-name="Línea 5" y1="3.958" transform="translate(4.824 2.522)" fill="none" stroke="#388caf" stroke-width="0.4"/>
          <line id="Línea_6" data-name="Línea 6" y1="3.958" transform="translate(10.365 1.73)" fill="none" stroke="#388caf" stroke-width="0.4"/>
          <path id="Trazado_5" data-name="Trazado 5" d="M244.508-394.056v.1l.061-.776a1.946,1.946,0,0,1,1.757-.954,1.8,1.8,0,0,1,1.859,1.731" transform="translate(-239.677 396.478)" fill="none" stroke="#75c3e4" stroke-width="0.4"/>
          <path id="Trazado_6" data-name="Trazado 6" d="M244.5-394.117v.156a1.083,1.083,0,0,1,.121-.645,1.947,1.947,0,0,1,1.739-1.08,2.246,2.246,0,0,1,2.07,2.216c.024.05.051.825.051.825" transform="translate(-234.132 395.686)" fill="none" stroke="#75c3e4" stroke-width="0.4"/>
        </g>
        <g id="Grupo_14" data-name="Grupo 14" transform="translate(11.229 10.113)">
          <path id="Unión_2" data-name="Unión 2" d="M15.265,22.143h-9.7C6.2,21.305,7.8,20.711,9.67,20.585L8.785,7.927A4.164,4.164,0,0,0,4.724,8.951c0,.016,0,.032,0,.048L4.7,8.979l-.029.037c0-.021,0-.041-.006-.062-1.29-.891-3.838-.51-4.658.921C-.2,5.216,3.557,1.035,8.78.022L8.82,0l.051.016C14-.076,18.548,3.072,19.394,7.51c-1.085-1.057-3.675-1.1-4.669.205,0,.023,0,.045.007.067-1.172-.9-4.111-.719-5.13.489l.859,12.288c2.157.009,4.083.643,4.8,1.582h0ZM9.6,8.255c0-.01,0-.015,0-.016Z" transform="translate(0.922 1.017)" fill="none" stroke="#b4d6c8" stroke-width="0.4"/>
          <rect id="Rectángulo_19" data-name="Rectángulo 19" width="0.792" height="14.249" transform="matrix(0.998, -0.07, 0.07, 0.998, 9.652, 8.165)" fill="#85afbe"/>
          <path id="Sustracción_1" data-name="Sustracción 1" d="M9.705,1.583H0C.726.636,2.676,0,4.853,0S8.979.636,9.7,1.582Z" transform="translate(6.483 21.577)" fill="#3289ad"/>
          <g id="Grupo_12" data-name="Grupo 12" transform="matrix(0.995, -0.105, 0.105, 0.995, 0, 2.041)">
            <path id="Trazado_28" data-name="Trazado 28" d="M9.814,0C4.485.437.281,4.213,0,8.888A3.6,3.6,0,0,1,4.785,8.51,9.194,9.194,0,0,1,9.814,0Z" transform="translate(0 0.012)" fill="#388caf"/>
            <path id="Trazado_29" data-name="Trazado 29" d="M2.377,1.595A9.08,9.08,0,0,1,5.059,8.28c1.123-1.2,3.7-.889,4.671.278C9.352,4.04,5.132.426,0,0A9.615,9.615,0,0,1,2.377,1.595Z" transform="translate(9.796 0.017)" fill="#388caf"/>
            <path id="Trazado_30" data-name="Trazado 30" d="M10.133,8.359A9.145,9.145,0,0,0,7.69,1.837,8.251,8.251,0,0,0,5.067,0,8.076,8.076,0,0,0,2.443,1.837,9.209,9.209,0,0,0,0,8.534a3.971,3.971,0,0,1,4.93-.175c-.013.42-.032.121,0,0s.1-.11,0,0C6.03,7.209,9.046,7.322,10.133,8.359Z" transform="translate(4.729 0)" fill="#d9eff7"/>
          </g>
        </g>
      </g>
      <text id="_" data-name="+" transform="translate(5075.93 3155.335)" font-size="18" font-family="HelveticaNeue, Helvetica Neue"><tspan x="-5.4" y="0">+</tspan></text>
    </g>
  </g>
</svg>
