<svg xmlns="http://www.w3.org/2000/svg" width="175" height="210.851" viewBox="0 0 175 210.851">
  <defs>
    <style>
      .cls-1, .cls-3 {
        fill: #fff;
      }

      .cls-1 {
        stroke: #000;
      }

      .cls-2 {
        fill: #3f3832;
      }

      .cls-4 {
        fill: #858666;
      }

      .cls-5 {
        fill: #8dd1e4;
      }

      .cls-6 {
        fill: #388caf;
      }

      .cls-7 {
        fill: #5abce6;
      }

      .cls-10, .cls-16, .cls-8, .cls-9 {
        fill: none;
      }

      .cls-8 {
        stroke: #b4d6c8;
      }

      .cls-10, .cls-8, .cls-9 {
        stroke-width: 0.4px;
      }

      .cls-9 {
        stroke: #75c3e4;
      }

      .cls-10 {
        stroke: #388caf;
      }

      .cls-11 {
        fill: #85afbe;
      }

      .cls-12 {
        fill: #3289ad;
      }

      .cls-13 {
        fill: #d9eff7;
      }

      .cls-14 {
        fill: #bebbbb;
      }

      .cls-15, .cls-17 {
        stroke: none;
      }

      .cls-17 {
        fill: #707070;
      }
    </style>
  </defs>
  <g id="M_2_3_T" transform="translate(-4968 -3067)">
    <g id="Grupo_341" data-name="Grupo 341" transform="translate(4879 2834)">
      <g id="Grupo_109" data-name="Grupo 109" transform="translate(88.648 233)">
        <g id="Rectángulo_4" data-name="Rectángulo 4" class="cls-1" transform="translate(0.352)">
          <rect class="cls-15" width="175" height="175" rx="19"/>
          <rect class="cls-16" x="0.5" y="0.5" width="174" height="174" rx="18.5"/>
        </g>
      </g>
      <g id="Grupo_259" data-name="Grupo 259" transform="translate(0 -19)">
        <path id="Trazado_93" data-name="Trazado 93" class="cls-2" d="M218.453,202.505l-15.917,15.948H179.978L164,202.505V179.948L179.978,164h22.557l15.917,15.948Z" transform="translate(38.988 178.47) rotate(22)"/>
        <path id="Trazado_395" data-name="Trazado 395" class="cls-3" d="M-3.5.22A2.783,2.783,0,0,1-5.412-.506a2.343,2.343,0,0,1-.814-1.826A2.8,2.8,0,0,1-5.962-3.52L4.818-27.148,5.3-25.96H-7.414a2.388,2.388,0,0,1-1.76-.7,2.388,2.388,0,0,1-.7-1.76,2.263,2.263,0,0,1,.7-1.694,2.429,2.429,0,0,1,1.76-.682H7.9a3,3,0,0,1,2,.726,2.337,2.337,0,0,1,.858,1.87,3.01,3.01,0,0,1-.264,1.188L-1.078-1.452A2.5,2.5,0,0,1-2.068-.22,2.6,2.6,0,0,1-3.5.22Z" transform="translate(143 444)"/>
        <path id="Trazado_95" data-name="Trazado 95" class="cls-4" d="M218.453,202.505l-15.917,15.948H179.978L164,202.505V179.948L179.978,164h22.557l15.917,15.948Z" transform="translate(111.988 178.47) rotate(22)"/>
        <path id="Trazado_394" data-name="Trazado 394" class="cls-3" d="M5.06,0A2.474,2.474,0,0,1,3.212-.77a2.639,2.639,0,0,1-.748-1.914v-20.68l.924.22L-5.1-12.628l-.22-.572H9.592a2.388,2.388,0,0,1,1.76.7,2.388,2.388,0,0,1,.7,1.76,2.263,2.263,0,0,1-.7,1.694,2.429,2.429,0,0,1-1.76.682H-8.976a2.692,2.692,0,0,1-1.782-.748,2.356,2.356,0,0,1-.858-1.848,2.683,2.683,0,0,1,.66-1.76l13.9-17.028a2.505,2.505,0,0,1,.924-.77A2.813,2.813,0,0,1,5.148-30.8a2.455,2.455,0,0,1,1.87.77,2.682,2.682,0,0,1,.726,1.914V-2.684A2.6,2.6,0,0,1,6.974-.77,2.6,2.6,0,0,1,5.06,0Z" transform="translate(217 444)"/>
      </g>
    </g>
    <path id="Polígono_3" data-name="Polígono 3" d="M3.5,0,7,6H0Z" transform="translate(4987.5 3159.5) rotate(90)"/>
    <g id="Grupo_394" data-name="Grupo 394" transform="translate(5032.046 3128)">
      <path id="Trazado_7" data-name="Trazado 7" class="cls-5" d="M221.681-380.964l-9.687-39.07,67.857,20.271-9.289,17.851Z" transform="translate(-211.995 420.035)"/>
      <g id="Grupo_5" data-name="Grupo 5" transform="translate(27.692 21.984)">
        <ellipse id="Elipse_10" data-name="Elipse 10" class="cls-6" cx="22" cy="8" rx="22" ry="8" transform="translate(0.262 6.015)"/>
        <ellipse id="Elipse_11" data-name="Elipse 11" class="cls-7" cx="22" cy="8" rx="22" ry="8" transform="translate(0.262 6.015)"/>
        <g id="Elipse_12" data-name="Elipse 12" class="cls-8" transform="translate(0.262 6.015)">
          <ellipse class="cls-15" cx="22" cy="8" rx="22" ry="8"/>
          <ellipse class="cls-16" cx="22" cy="8" rx="21.8" ry="7.8"/>
        </g>
        <path id="Trazado_4" data-name="Trazado 4" class="cls-9" d="M249.153-378.974V-393.7" transform="translate(-239.034 396.512)"/>
        <line id="Línea_2" data-name="Línea 2" class="cls-9" x2="6.591" transform="translate(10.446 12.982)"/>
        <line id="Línea_3" data-name="Línea 3" class="cls-9" y1="14.111" transform="translate(17.037 3)"/>
        <line id="Línea_4" data-name="Línea 4" class="cls-9" x2="6.591" transform="translate(10.446 9.044)"/>
        <line id="Línea_5" data-name="Línea 5" class="cls-10" y1="4.708" transform="translate(5.738 3)"/>
        <line id="Línea_6" data-name="Línea 6" class="cls-10" y1="4.708" transform="translate(12.329 2.058)"/>
        <path id="Trazado_5" data-name="Trazado 5" class="cls-9" d="M244.508-393.747v.12l.073-.923a2.315,2.315,0,0,1,2.09-1.135,2.136,2.136,0,0,1,2.211,2.058" transform="translate(-238.762 396.628)"/>
        <path id="Trazado_6" data-name="Trazado 6" class="cls-9" d="M244.5-393.82v.186a1.288,1.288,0,0,1,.144-.768,2.316,2.316,0,0,1,2.069-1.284c1.255,0,2.257,1.042,2.462,2.636.029.06.06.981.06.981" transform="translate(-232.17 395.686)"/>
      </g>
      <g id="Grupo_14" data-name="Grupo 14" transform="translate(13.356 12.03)">
        <path id="Unión_2" data-name="Unión 2" class="cls-8" d="M18.157,26.339H6.615c.763-1,2.666-1.7,4.887-1.853L10.45,9.429a4.952,4.952,0,0,0-4.831,1.219l.005.056-.031-.023-.033.043-.008-.073C4.019,9.59.986,10.044.01,11.747-.237,6.2,4.23,1.23,10.442.027L10.491,0l.058.018c6.1-.109,11.512,3.635,12.518,8.915-1.29-1.258-4.369-1.3-5.553.243,0,.027.006.054.009.081-1.394-1.076-4.893-.856-6.1.582l1.022,14.616c2.565.011,4.856.764,5.713,1.881l0,0ZM11.421,9.82c0-.014,0-.02,0-.02Z" transform="translate(1.096 1.21)"/>
        <rect id="Rectángulo_19" data-name="Rectángulo 19" class="cls-11" width="0.942" height="16.948" transform="matrix(0.998, -0.07, 0.07, 0.998, 11.481, 9.712)"/>
        <path id="Sustracción_1" data-name="Sustracción 1" class="cls-12" d="M11.544,1.883H0C.863.756,3.183,0,5.773,0s4.907.756,5.771,1.881Z" transform="translate(7.711 25.665)"/>
        <g id="Grupo_12" data-name="Grupo 12" transform="matrix(0.995, -0.105, 0.105, 0.995, 0, 2.428)">
          <path id="Trazado_28" data-name="Trazado 28" class="cls-6" d="M11.674,0C5.335.52.334,5.012,0,10.572c1.167-1.617,4.31-1.729,5.692-.45A10.936,10.936,0,0,1,11.674,0Z" transform="translate(0 0.015)"/>
          <path id="Trazado_29" data-name="Trazado 29" class="cls-6" d="M2.827,1.9A10.8,10.8,0,0,1,6.018,9.849c1.336-1.423,4.4-1.058,5.556.331C11.124,4.806,6.1.507,0,0A11.437,11.437,0,0,1,2.827,1.9Z" transform="translate(11.652 0.02)"/>
          <path id="Trazado_30" data-name="Trazado 30" class="cls-13" d="M12.053,9.942A10.877,10.877,0,0,0,9.147,2.185,9.815,9.815,0,0,0,6.027,0,9.606,9.606,0,0,0,2.906,2.185,10.953,10.953,0,0,0,0,10.15c1.323-1.427,4.579-1.508,5.864-.208-.015.5-.038.144,0,0s.124-.131,0,0C7.172,8.575,10.76,8.709,12.053,9.942Z" transform="translate(5.625 0)"/>
        </g>
      </g>
    </g>
    <path id="Polígono_17" data-name="Polígono 17" d="M3.5,0,7,6H0Z" transform="translate(4987.5 3129.5) rotate(90)"/>
    <g id="Grupo_403" data-name="Grupo 403" transform="translate(4992.37 3158.064)">
      <g id="Grupo_106" data-name="Grupo 106" transform="translate(0 0)">
        <g id="Grupo_46" data-name="Grupo 46" transform="translate(0 0)">
          <g id="Unión_22" data-name="Unión 22" class="cls-14" transform="translate(-0.37 -0.064)">
            <path class="cls-15" d="M 6.249879837036133 11.75 L 1.062420010566711 11.75 L 1.062420010566711 8.869640350341797 L 1.062420010566711 8.619640350341797 L 0.8124200105667114 8.619640350341797 L 0.25 8.619640350341797 L 0.25 0.25 L 12.75 0.25 L 12.75 8.619640350341797 L 6.499879837036133 8.619640350341797 L 6.249879837036133 8.619640350341797 L 6.249879837036133 8.869640350341797 L 6.249879837036133 11.75 Z"/>
            <path class="cls-17" d="M 5.999879837036133 11.5 L 5.999879837036133 8.869640350341797 L 5.999879837036133 8.369640350341797 L 6.499879837036133 8.369640350341797 L 12.5 8.369640350341797 L 12.5 0.5 L 0.5 0.5 L 0.5 8.369640350341797 L 0.8124200105667114 8.369640350341797 L 1.312420010566711 8.369640350341797 L 1.312420010566711 8.869640350341797 L 1.312420010566711 11.5 L 5.999879837036133 11.5 M 6.499879837036133 12 L 0.8124200105667114 12 L 0.8124200105667114 8.869640350341797 L -8.881784197001252e-16 8.869640350341797 L -8.881784197001252e-16 -8.881784197001252e-16 L 13 -8.881784197001252e-16 L 13 8.869640350341797 L 6.499879837036133 8.869640350341797 L 6.499879837036133 12 Z"/>
          </g>
        </g>
      </g>
    </g>
    <g id="Grupo_404" data-name="Grupo 404" transform="translate(4992.37 3128.064)">
      <g id="Grupo_106-2" data-name="Grupo 106" transform="translate(0 0)">
        <g id="Grupo_46-2" data-name="Grupo 46" transform="translate(0 0)">
          <g id="Unión_22-2" data-name="Unión 22" class="cls-14" transform="translate(-0.37 -0.064)">
            <path class="cls-15" d="M 6.249879837036133 11.75 L 1.062420010566711 11.75 L 1.062420010566711 8.869640350341797 L 1.062420010566711 8.619640350341797 L 0.8124200105667114 8.619640350341797 L 0.25 8.619640350341797 L 0.25 0.25 L 12.75 0.25 L 12.75 8.619640350341797 L 6.499879837036133 8.619640350341797 L 6.249879837036133 8.619640350341797 L 6.249879837036133 8.869640350341797 L 6.249879837036133 11.75 Z"/>
            <path class="cls-17" d="M 5.999879837036133 11.5 L 5.999879837036133 8.869640350341797 L 5.999879837036133 8.369640350341797 L 6.499879837036133 8.369640350341797 L 12.5 8.369640350341797 L 12.5 0.5 L 0.5 0.5 L 0.5 8.369640350341797 L 0.8124200105667114 8.369640350341797 L 1.312420010566711 8.369640350341797 L 1.312420010566711 8.869640350341797 L 1.312420010566711 11.5 L 5.999879837036133 11.5 M 6.499879837036133 12 L 0.8124200105667114 12 L 0.8124200105667114 8.869640350341797 L -8.881784197001252e-16 8.869640350341797 L -8.881784197001252e-16 -8.881784197001252e-16 L 13 -8.881784197001252e-16 L 13 8.869640350341797 L 6.499879837036133 8.869640350341797 L 6.499879837036133 12 Z"/>
          </g>
        </g>
      </g>
    </g>
  </g>
</svg>
