<svg xmlns="http://www.w3.org/2000/svg" width="175" height="211.538" viewBox="0 0 175 211.538">
  <defs>
    <style>
      .cls-1, .cls-2, .cls-4, .cls-7 {
        fill: #fff;
      }

      .cls-1 {
        stroke: #000;
      }

      .cls-3 {
        font-size: 33px;
        font-family: Quicksand-Regular, Quicksand;
      }

      .cls-4 {
        stroke: #f0f0f0;
      }

      .cls-5 {
        fill: #f0f0f0;
      }

      .cls-6 {
        fill: #858666;
      }

      .cls-10, .cls-8 {
        stroke: none;
      }

      .cls-9 {
        fill: none;
      }

      .cls-10 {
        fill: #707070;
      }
    </style>
  </defs>
  <g id="M_2_7_F" transform="translate(-88.687 -233)">
    <g id="Grupo_109" data-name="Grupo 109" transform="translate(88.334 233)">
      <g id="Rectángulo_4" data-name="Rectángulo 4" class="cls-1" transform="translate(0.352)">
        <rect class="cls-8" width="175" height="175" rx="19"/>
        <rect class="cls-9" x="0.5" y="0.5" width="174" height="174" rx="18.5"/>
      </g>
    </g>
    <g id="Grupo_106" data-name="Grupo 106" transform="translate(116 262)">
      <g id="Grupo_46" data-name="Grupo 46" transform="translate(0 0)">
        <g id="Unión_22" data-name="Unión 22" class="cls-2" transform="translate(0)">
          <path class="cls-8" d="M 25.49951934814453 48.5 L 3.74970006942749 48.5 L 3.74970006942749 36.21768188476562 L 3.74970006942749 35.71768188476562 L 3.24970006942749 35.71768188476562 L 0.5 35.71768188476562 L 0.5 0.5 L 51.5 0.5 L 51.5 35.71768188476562 L 25.99951934814453 35.71768188476562 L 25.49951934814453 35.71768188476562 L 25.49951934814453 36.21768188476562 L 25.49951934814453 48.5 Z"/>
          <path class="cls-10" d="M 24.99951934814453 48 L 24.99951934814453 36.21768188476562 L 24.99951934814453 35.21768188476562 L 25.99951934814453 35.21768188476562 L 51 35.21768188476562 L 51 1 L 1 1 L 1 35.21768188476562 L 3.24970006942749 35.21768188476562 L 4.24970006942749 35.21768188476562 L 4.24970006942749 36.21768188476562 L 4.24970006942749 48 L 24.99951934814453 48 M 25.99951934814453 49 L 3.24970006942749 49 L 3.24970006942749 36.21768188476562 L -3.552713678800501e-15 36.21768188476562 L -3.552713678800501e-15 -3.552713678800501e-15 L 52 -3.552713678800501e-15 L 52 36.21768188476562 L 25.99951934814453 36.21768188476562 L 25.99951934814453 49 Z"/>
        </g>
      </g>
      <text id="_3" data-name="3" class="cls-3" transform="translate(26 30)"><tspan x="-10.065" y="0">3</tspan></text>
    </g>
    <g id="Grupo_329" data-name="Grupo 329" transform="translate(191 262)">
      <g id="Grupo_46-2" data-name="Grupo 46" transform="translate(0 0)">
        <g id="Unión_22-2" data-name="Unión 22" class="cls-2" transform="translate(0)">
          <path class="cls-8" d="M 25.49951934814453 48.5 L 3.74970006942749 48.5 L 3.74970006942749 36.21768188476562 L 3.74970006942749 35.71768188476562 L 3.24970006942749 35.71768188476562 L 0.5 35.71768188476562 L 0.5 0.5 L 51.5 0.5 L 51.5 35.71768188476562 L 25.99951934814453 35.71768188476562 L 25.49951934814453 35.71768188476562 L 25.49951934814453 36.21768188476562 L 25.49951934814453 48.5 Z"/>
          <path class="cls-10" d="M 24.99951934814453 48 L 24.99951934814453 36.21768188476562 L 24.99951934814453 35.21768188476562 L 25.99951934814453 35.21768188476562 L 51 35.21768188476562 L 51 1 L 1 1 L 1 35.21768188476562 L 3.24970006942749 35.21768188476562 L 4.24970006942749 35.21768188476562 L 4.24970006942749 36.21768188476562 L 4.24970006942749 48 L 24.99951934814453 48 M 25.99951934814453 49 L 3.24970006942749 49 L 3.24970006942749 36.21768188476562 L -3.552713678800501e-15 36.21768188476562 L -3.552713678800501e-15 -3.552713678800501e-15 L 52 -3.552713678800501e-15 L 52 36.21768188476562 L 25.99951934814453 36.21768188476562 L 25.99951934814453 49 Z"/>
        </g>
      </g>
      <path id="Trazado_440" data-name="Trazado 440" d="M5.874-21.912a.665.665,0,0,0,.1-.363.817.817,0,0,0-.825-.825H-5.643a.817.817,0,0,0-.825.825.817.817,0,0,0,.825.825H3.2l-5.742,5.907a.837.837,0,0,0,0,1.188h.033a.861.861,0,0,0,.66.33A6.04,6.04,0,0,1,2.508-12.21,6.04,6.04,0,0,1,4.323-7.854,6.17,6.17,0,0,1,2.508-3.465,6.275,6.275,0,0,1-1.881-1.683,6.2,6.2,0,0,1-6.237-3.465a.8.8,0,0,0-1.155,0,.8.8,0,0,0,0,1.155A7.7,7.7,0,0,0-1.881,0,7.851,7.851,0,0,0,3.663-2.31a7.715,7.715,0,0,0,2.31-5.544A7.817,7.817,0,0,0,3.7-13.4,7.765,7.765,0,0,0-.264-15.51l5.973-6.138A.719.719,0,0,0,5.874-21.912Z" transform="translate(26 30)"/>
    </g>
    <g id="Grupo_369" data-name="Grupo 369" transform="translate(152 322)">
      <g id="Grupo_46-3" data-name="Grupo 46" transform="translate(0 0)">
        <g id="Unión_22-3" data-name="Unión 22" class="cls-2" transform="translate(0)">
          <path class="cls-8" d="M 25.49951934814453 48.5 L 3.74970006942749 48.5 L 3.74970006942749 36.21768188476562 L 3.74970006942749 35.71768188476562 L 3.24970006942749 35.71768188476562 L 0.5 35.71768188476562 L 0.5 0.5 L 51.5 0.5 L 51.5 35.71768188476562 L 25.99951934814453 35.71768188476562 L 25.49951934814453 35.71768188476562 L 25.49951934814453 36.21768188476562 L 25.49951934814453 48.5 Z"/>
          <path class="cls-10" d="M 24.99951934814453 48 L 24.99951934814453 36.21768188476562 L 24.99951934814453 35.21768188476562 L 25.99951934814453 35.21768188476562 L 51 35.21768188476562 L 51 1 L 1 1 L 1 35.21768188476562 L 3.24970006942749 35.21768188476562 L 4.24970006942749 35.21768188476562 L 4.24970006942749 36.21768188476562 L 4.24970006942749 48 L 24.99951934814453 48 M 25.99951934814453 49 L 3.24970006942749 49 L 3.24970006942749 36.21768188476562 L -3.552713678800501e-15 36.21768188476562 L -3.552713678800501e-15 -3.552713678800501e-15 L 52 -3.552713678800501e-15 L 52 36.21768188476562 L 25.99951934814453 36.21768188476562 L 25.99951934814453 49 Z"/>
        </g>
      </g>
      <path id="Trazado_439" data-name="Trazado 439" d="M4.092-.792A.8.8,0,0,0,4.884,0a.81.81,0,0,0,.825-.792v-3.96H7.26a.81.81,0,0,0,.825-.792.81.81,0,0,0-.825-.792H5.709V-22.275c0-.033-.033-.066-.033-.132a1.045,1.045,0,0,0-.264-.4.762.762,0,0,0-1.122.1l-.033.033L-9.108-6.039a.762.762,0,0,0,.1,1.122.694.694,0,0,0,.5.165H4.092ZM-6.831-6.336,4.092-19.866v13.53Z" transform="translate(26 30)"/>
    </g>
    <g id="Grupo_414" data-name="Grupo 414" transform="translate(0 -19)">
      <path id="Trazado_93" data-name="Trazado 93" class="cls-4" d="M218.453,202.505l-15.917,15.948H179.978L164,202.505V179.948L179.978,164h22.557l15.917,15.948Z" transform="translate(38.776 178.507) rotate(22)"/>
      <path id="Trazado_412" data-name="Trazado 412" class="cls-5" d="M-9.08,0a2.53,2.53,0,0,1-1.84-.7,2.329,2.329,0,0,1-.72-1.74V-22.6l.56.88-3.04,1.84a2.447,2.447,0,0,1-1.28.36,2.183,2.183,0,0,1-1.72-.78,2.49,2.49,0,0,1-.68-1.66,2.279,2.279,0,0,1,1.24-2.08l6.04-3.6A3.655,3.655,0,0,1-8.8-28a2.232,2.232,0,0,1,1.7.7,2.438,2.438,0,0,1,.66,1.74V-2.44A2.3,2.3,0,0,1-7.18-.7,2.653,2.653,0,0,1-9.08,0ZM14.56-4.4a2.171,2.171,0,0,1,1.6.64,2.171,2.171,0,0,1,.64,1.6,2.057,2.057,0,0,1-.64,1.54,2.208,2.208,0,0,1-1.6.62H.96A2.139,2.139,0,0,1-.68-.64a2.3,2.3,0,0,1-.6-1.64A2.482,2.482,0,0,1-.56-4.04l8.72-9.32a15.924,15.924,0,0,0,2.32-3.18,6.382,6.382,0,0,0,.88-3.02,4.269,4.269,0,0,0-.6-2.24A4.716,4.716,0,0,0,9.2-23.4,3.852,3.852,0,0,0,7.12-24a4.321,4.321,0,0,0-2.36.78,7.955,7.955,0,0,0-2.12,2.06,2.133,2.133,0,0,1-.96.8,2.8,2.8,0,0,1-.88.16,2.385,2.385,0,0,1-1.62-.66,2.008,2.008,0,0,1-.74-1.54,2.236,2.236,0,0,1,.46-1.32A10.827,10.827,0,0,1,.04-25.04a12.06,12.06,0,0,1,3.52-2.44A9.18,9.18,0,0,1,7.4-28.4a9.281,9.281,0,0,1,4.68,1.12,7.85,7.85,0,0,1,3.04,3.08,9.046,9.046,0,0,1,1.08,4.44,10.147,10.147,0,0,1-.62,3.42,15.753,15.753,0,0,1-1.7,3.38A24.8,24.8,0,0,1,11.4-9.8L6-4.04,5.56-4.4Z" transform="translate(145 442)"/>
      <path id="Trazado_95" data-name="Trazado 95" class="cls-6" d="M218.453,202.505l-15.917,15.948H179.978L164,202.505V179.948L179.978,164h22.557l15.917,15.948Z" transform="translate(111.988 178.47) rotate(22)"/>
      <path id="Trazado_413" data-name="Trazado 413" class="cls-7" d="M-3.5.22A2.783,2.783,0,0,1-5.412-.506a2.343,2.343,0,0,1-.814-1.826A2.8,2.8,0,0,1-5.962-3.52L4.818-27.148,5.3-25.96H-7.414a2.388,2.388,0,0,1-1.76-.7,2.388,2.388,0,0,1-.7-1.76,2.263,2.263,0,0,1,.7-1.694,2.429,2.429,0,0,1,1.76-.682H7.9a3,3,0,0,1,2,.726,2.337,2.337,0,0,1,.858,1.87,3.01,3.01,0,0,1-.264,1.188L-1.078-1.452A2.5,2.5,0,0,1-2.068-.22,2.6,2.6,0,0,1-3.5.22Z" transform="translate(217 444)"/>
    </g>
  </g>
</svg>
