<svg xmlns="http://www.w3.org/2000/svg" width="175" height="211.538" viewBox="0 0 175 211.538">
  <defs>
    <style>
      .cls-1, .cls-2, .cls-3, .cls-6 {
        fill: #fff;
      }

      .cls-1 {
        stroke: #000;
      }

      .cls-3 {
        stroke: #f0f0f0;
      }

      .cls-4 {
        fill: #f0f0f0;
      }

      .cls-5 {
        fill: #858666;
      }

      .cls-7, .cls-9 {
        stroke: none;
      }

      .cls-8 {
        fill: none;
      }

      .cls-9 {
        fill: #707070;
      }
    </style>
  </defs>
  <g id="M_2_6_F" transform="translate(-88.687 -233)">
    <g id="Grupo_109" data-name="Grupo 109" transform="translate(88.334 233)">
      <g id="Rectángulo_4" data-name="Rectángulo 4" class="cls-1" transform="translate(0.352)">
        <rect class="cls-7" width="175" height="175" rx="19"/>
        <rect class="cls-8" x="0.5" y="0.5" width="174" height="174" rx="18.5"/>
      </g>
    </g>
    <g id="Grupo_106" data-name="Grupo 106" transform="translate(116 322)">
      <g id="Grupo_46" data-name="Grupo 46" transform="translate(0 0)">
        <g id="Unión_22" data-name="Unión 22" class="cls-2" transform="translate(0)">
          <path class="cls-7" d="M 25.49951934814453 48.5 L 3.74970006942749 48.5 L 3.74970006942749 36.21768188476562 L 3.74970006942749 35.71768188476562 L 3.24970006942749 35.71768188476562 L 0.5 35.71768188476562 L 0.5 0.5 L 51.5 0.5 L 51.5 35.71768188476562 L 25.99951934814453 35.71768188476562 L 25.49951934814453 35.71768188476562 L 25.49951934814453 36.21768188476562 L 25.49951934814453 48.5 Z"/>
          <path class="cls-9" d="M 24.99951934814453 48 L 24.99951934814453 36.21768188476562 L 24.99951934814453 35.21768188476562 L 25.99951934814453 35.21768188476562 L 51 35.21768188476562 L 51 1 L 1 1 L 1 35.21768188476562 L 3.24970006942749 35.21768188476562 L 4.24970006942749 35.21768188476562 L 4.24970006942749 36.21768188476562 L 4.24970006942749 48 L 24.99951934814453 48 M 25.99951934814453 49 L 3.24970006942749 49 L 3.24970006942749 36.21768188476562 L -3.552713678800501e-15 36.21768188476562 L -3.552713678800501e-15 -3.552713678800501e-15 L 52 -3.552713678800501e-15 L 52 36.21768188476562 L 25.99951934814453 36.21768188476562 L 25.99951934814453 49 Z"/>
        </g>
      </g>
      <path id="Trazado_444" data-name="Trazado 444" d="M-7.986-.231A.749.749,0,0,0-7.392,0h13A.8.8,0,0,0,6.4-.792a.81.81,0,0,0-.792-.825H-5.313l9.24-8.349A7.594,7.594,0,0,0,6.4-15.576a7.358,7.358,0,0,0-1.98-5.049A7.337,7.337,0,0,0-1.122-23.1a7.744,7.744,0,0,0-5.115,1.947L-7.359-20.1a.758.758,0,0,0-.033,1.122.758.758,0,0,0,1.122.033l1.122-1.023a6.009,6.009,0,0,1,4.026-1.518,5.889,5.889,0,0,1,4.389,1.947,5.881,5.881,0,0,1,1.551,3.96,5.993,5.993,0,0,1-1.98,4.422L-7.953-1.419A.868.868,0,0,0-7.986-.231Z" transform="translate(26 30)"/>
    </g>
    <g id="Grupo_329" data-name="Grupo 329" transform="translate(191 322)">
      <g id="Grupo_46-2" data-name="Grupo 46" transform="translate(0 0)">
        <g id="Unión_22-2" data-name="Unión 22" class="cls-2" transform="translate(0)">
          <path class="cls-7" d="M 25.49951934814453 48.5 L 3.74970006942749 48.5 L 3.74970006942749 36.21768188476562 L 3.74970006942749 35.71768188476562 L 3.24970006942749 35.71768188476562 L 0.5 35.71768188476562 L 0.5 0.5 L 51.5 0.5 L 51.5 35.71768188476562 L 25.99951934814453 35.71768188476562 L 25.49951934814453 35.71768188476562 L 25.49951934814453 36.21768188476562 L 25.49951934814453 48.5 Z"/>
          <path class="cls-9" d="M 24.99951934814453 48 L 24.99951934814453 36.21768188476562 L 24.99951934814453 35.21768188476562 L 25.99951934814453 35.21768188476562 L 51 35.21768188476562 L 51 1 L 1 1 L 1 35.21768188476562 L 3.24970006942749 35.21768188476562 L 4.24970006942749 35.21768188476562 L 4.24970006942749 36.21768188476562 L 4.24970006942749 48 L 24.99951934814453 48 M 25.99951934814453 49 L 3.24970006942749 49 L 3.24970006942749 36.21768188476562 L -3.552713678800501e-15 36.21768188476562 L -3.552713678800501e-15 -3.552713678800501e-15 L 52 -3.552713678800501e-15 L 52 36.21768188476562 L 25.99951934814453 36.21768188476562 L 25.99951934814453 49 Z"/>
        </g>
      </g>
      <path id="Trazado_445" data-name="Trazado 445" d="M-7.986-.231A.749.749,0,0,0-7.392,0h13A.8.8,0,0,0,6.4-.792a.81.81,0,0,0-.792-.825H-5.313l9.24-8.349A7.594,7.594,0,0,0,6.4-15.576a7.358,7.358,0,0,0-1.98-5.049A7.337,7.337,0,0,0-1.122-23.1a7.744,7.744,0,0,0-5.115,1.947L-7.359-20.1a.758.758,0,0,0-.033,1.122.758.758,0,0,0,1.122.033l1.122-1.023a6.009,6.009,0,0,1,4.026-1.518,5.889,5.889,0,0,1,4.389,1.947,5.881,5.881,0,0,1,1.551,3.96,5.993,5.993,0,0,1-1.98,4.422L-7.953-1.419A.868.868,0,0,0-7.986-.231Z" transform="translate(26 30)"/>
    </g>
    <g id="Grupo_369" data-name="Grupo 369" transform="translate(152 253)">
      <g id="Grupo_46-3" data-name="Grupo 46" transform="translate(0 0)">
        <g id="Unión_22-3" data-name="Unión 22" class="cls-2" transform="translate(0)">
          <path class="cls-7" d="M 25.49951934814453 48.5 L 3.74970006942749 48.5 L 3.74970006942749 36.21768188476562 L 3.74970006942749 35.71768188476562 L 3.24970006942749 35.71768188476562 L 0.5 35.71768188476562 L 0.5 0.5 L 51.5 0.5 L 51.5 35.71768188476562 L 25.99951934814453 35.71768188476562 L 25.49951934814453 35.71768188476562 L 25.49951934814453 36.21768188476562 L 25.49951934814453 48.5 Z"/>
          <path class="cls-9" d="M 24.99951934814453 48 L 24.99951934814453 36.21768188476562 L 24.99951934814453 35.21768188476562 L 25.99951934814453 35.21768188476562 L 51 35.21768188476562 L 51 1 L 1 1 L 1 35.21768188476562 L 3.24970006942749 35.21768188476562 L 4.24970006942749 35.21768188476562 L 4.24970006942749 36.21768188476562 L 4.24970006942749 48 L 24.99951934814453 48 M 25.99951934814453 49 L 3.24970006942749 49 L 3.24970006942749 36.21768188476562 L -3.552713678800501e-15 36.21768188476562 L -3.552713678800501e-15 -3.552713678800501e-15 L 52 -3.552713678800501e-15 L 52 36.21768188476562 L 25.99951934814453 36.21768188476562 L 25.99951934814453 49 Z"/>
        </g>
      </g>
      <path id="Trazado_446" data-name="Trazado 446" d="M-2.128,0A8.017,8.017,0,0,0,3.415-2.277,7.735,7.735,0,0,0,5.693-7.821a7.627,7.627,0,0,0-2.277-5.544A7.607,7.607,0,0,0-2.1-15.642a7.784,7.784,0,0,0-3.927,1.056L-5.2-21.45H4.867a.8.8,0,0,0,.825-.825.817.817,0,0,0-.825-.825H-5.891a.749.749,0,0,0-.528.2.693.693,0,0,0-.33.594L-7.871-13a1.429,1.429,0,0,1-.033.165.643.643,0,0,0,.033.264.121.121,0,0,0,.033.1v.033a.513.513,0,0,0,.2.264.8.8,0,0,0,1.155,0A6.114,6.114,0,0,1-2.1-13.992,6.142,6.142,0,0,1,2.26-12.21,6.163,6.163,0,0,1,4.043-7.821,6.1,6.1,0,0,1,2.227-3.465,6.1,6.1,0,0,1-2.128-1.65,6.2,6.2,0,0,1-6.484-3.432a.837.837,0,0,0-1.188,0,.8.8,0,0,0,0,1.155A7.817,7.817,0,0,0-2.128,0Z" transform="translate(26 30)"/>
    </g>
    <g id="Grupo_414" data-name="Grupo 414" transform="translate(0 -19)">
      <path id="Trazado_93" data-name="Trazado 93" class="cls-3" d="M218.453,202.505l-15.917,15.948H179.978L164,202.505V179.948L179.978,164h22.557l15.917,15.948Z" transform="translate(38.776 178.507) rotate(22)"/>
      <path id="Trazado_408" data-name="Trazado 408" class="cls-4" d="M-10.64,0a2.53,2.53,0,0,1-1.84-.7,2.329,2.329,0,0,1-.72-1.74V-22.6l.56.88-3.04,1.84a2.447,2.447,0,0,1-1.28.36,2.183,2.183,0,0,1-1.72-.78,2.49,2.49,0,0,1-.68-1.66,2.279,2.279,0,0,1,1.24-2.08l6.04-3.6A3.655,3.655,0,0,1-10.36-28a2.232,2.232,0,0,1,1.7.7A2.438,2.438,0,0,1-8-25.56V-2.44A2.3,2.3,0,0,1-8.74-.7,2.653,2.653,0,0,1-10.64,0ZM7.28.4A9.3,9.3,0,0,1,1.46-1.42,11.231,11.231,0,0,1-2.16-6.5,21.009,21.009,0,0,1-3.4-14a20.969,20.969,0,0,1,1.24-7.52,11.241,11.241,0,0,1,3.62-5.06A9.3,9.3,0,0,1,7.28-28.4a9.3,9.3,0,0,1,5.82,1.82,11.241,11.241,0,0,1,3.62,5.06A20.969,20.969,0,0,1,17.96-14a21.009,21.009,0,0,1-1.24,7.5A11.231,11.231,0,0,1,13.1-1.42,9.3,9.3,0,0,1,7.28.4Zm0-4.8a4.276,4.276,0,0,0,2.9-1.06,6.894,6.894,0,0,0,1.9-3.2A17.88,17.88,0,0,0,12.76-14a17.84,17.84,0,0,0-.68-5.36,6.89,6.89,0,0,0-1.9-3.18,4.276,4.276,0,0,0-2.9-1.06A4.3,4.3,0,0,0,4.4-22.54a6.8,6.8,0,0,0-1.92,3.18A17.84,17.84,0,0,0,1.8-14a17.88,17.88,0,0,0,.68,5.34A6.8,6.8,0,0,0,4.4-5.46,4.3,4.3,0,0,0,7.28-4.4Z" transform="translate(145 442)"/>
      <path id="Trazado_95" data-name="Trazado 95" class="cls-5" d="M218.453,202.505l-15.917,15.948H179.978L164,202.505V179.948L179.978,164h22.557l15.917,15.948Z" transform="translate(111.988 178.47) rotate(22)"/>
      <path id="Trazado_409" data-name="Trazado 409" class="cls-6" d="M.044.44a9.2,9.2,0,0,1-4.29-.99A9.815,9.815,0,0,1-7.5-3.256,12.927,12.927,0,0,1-9.57-7.128a13.833,13.833,0,0,1-.726-4.444,23.928,23.928,0,0,1,.33-3.608A24.362,24.362,0,0,1-8.8-19.624a20.141,20.141,0,0,1,2.332-4.532,17.017,17.017,0,0,1,3.806-3.96A16.456,16.456,0,0,1,2.992-30.8,4.172,4.172,0,0,1,4-30.932,3.283,3.283,0,0,1,5.83-30.4a2.132,2.132,0,0,1,.814,1.936,2.486,2.486,0,0,1-.638,1.694A3.5,3.5,0,0,1,4.312-25.74a13.448,13.448,0,0,0-2.97,1.3,13.764,13.764,0,0,0-2.728,2.09,13.026,13.026,0,0,0-2.156,2.794,11.707,11.707,0,0,0-1.3,3.366l-1.188-.044A18.4,18.4,0,0,1-4.51-17.842a8.785,8.785,0,0,1,2.2-1.5,6.859,6.859,0,0,1,3.058-.638,7.985,7.985,0,0,1,3.41.792,10.816,10.816,0,0,1,3.08,2.178A10.775,10.775,0,0,1,9.46-13.75,9.646,9.646,0,0,1,10.3-9.768,9.888,9.888,0,0,1,8.91-4.62a10.378,10.378,0,0,1-3.7,3.7A9.976,9.976,0,0,1,.044.44Zm0-4.84a4.661,4.661,0,0,0,2.53-.7A5.049,5.049,0,0,0,4.356-7.04a5.684,5.684,0,0,0,.66-2.728,5.649,5.649,0,0,0-.66-2.75,5.092,5.092,0,0,0-1.782-1.914,4.661,4.661,0,0,0-2.53-.7,4.661,4.661,0,0,0-2.53.7,5.092,5.092,0,0,0-1.782,1.914,5.649,5.649,0,0,0-.66,2.75,5.684,5.684,0,0,0,.66,2.728A5.049,5.049,0,0,0-2.486-5.1,4.661,4.661,0,0,0,.044-4.4Z" transform="translate(217 444)"/>
    </g>
  </g>
</svg>
