<svg xmlns="http://www.w3.org/2000/svg" width="175" height="211.538" viewBox="0 0 175 211.538">
  <defs>
    <style>
      .cls-1, .cls-2, .cls-3, .cls-6 {
        fill: #fff;
      }

      .cls-1 {
        stroke: #000;
      }

      .cls-3 {
        stroke: #f0f0f0;
      }

      .cls-4 {
        fill: #f0f0f0;
      }

      .cls-5 {
        fill: #858666;
      }

      .cls-7, .cls-9 {
        stroke: none;
      }

      .cls-8 {
        fill: none;
      }

      .cls-9 {
        fill: #707070;
      }
    </style>
  </defs>
  <g id="M_2_0_F" transform="translate(-88.687 -233)">
    <g id="Grupo_109" data-name="Grupo 109" transform="translate(88.334 233)">
      <g id="Rectángulo_4" data-name="Rectángulo 4" class="cls-1" transform="translate(0.352)">
        <rect class="cls-7" width="175" height="175" rx="19"/>
        <rect class="cls-8" x="0.5" y="0.5" width="174" height="174" rx="18.5"/>
      </g>
    </g>
    <g id="Grupo_106" data-name="Grupo 106" transform="translate(97 262)">
      <g id="Grupo_46" data-name="Grupo 46" transform="translate(0 0.784)">
        <g id="Unión_22" data-name="Unión 22" class="cls-2" transform="translate(0 0.216)">
          <path class="cls-7" d="M 19.99962043762207 37.5 L 3.062259912490845 37.5 L 3.062259912490845 28.08717918395996 L 3.062259912490845 27.58717918395996 L 2.562259912490845 27.58717918395996 L 0.5 27.58717918395996 L 0.5 0.5 L 40.5 0.5 L 40.5 27.58717918395996 L 20.49962043762207 27.58717918395996 L 19.99962043762207 27.58717918395996 L 19.99962043762207 28.08717918395996 L 19.99962043762207 37.5 Z"/>
          <path class="cls-9" d="M 19.49962043762207 37 L 19.49962043762207 28.08717918395996 L 19.49962043762207 27.08717918395996 L 20.49962043762207 27.08717918395996 L 40 27.08717918395996 L 40 1 L 1 1 L 1 27.08717918395996 L 2.562259912490845 27.08717918395996 L 3.562259912490845 27.08717918395996 L 3.562259912490845 28.08717918395996 L 3.562259912490845 37 L 19.49962043762207 37 M 20.49962043762207 38 L 2.562259912490845 38 L 2.562259912490845 28.08717918395996 L 0 28.08717918395996 L 0 0 L 41 0 L 41 28.08717918395996 L 20.49962043762207 28.08717918395996 L 20.49962043762207 38 Z"/>
        </g>
      </g>
      <path id="Trazado_460" data-name="Trazado 460" d="M.037-.6a.608.608,0,0,0,.6.6.592.592,0,0,0,.6-.6V-16.675a.721.721,0,0,0-.075-.45.633.633,0,0,0-.825-.225L-3.037-15.3a.577.577,0,0,0-.225.825.609.609,0,0,0,.525.3.613.613,0,0,0,.3-.1l2.475-1.45Z" transform="translate(20 24)"/>
    </g>
    <g id="Grupo_259" data-name="Grupo 259" transform="translate(0 -19)">
      <path id="Trazado_93" data-name="Trazado 93" class="cls-3" d="M218.453,202.505l-15.917,15.948H179.978L164,202.505V179.948L179.978,164h22.557l15.917,15.948Z" transform="translate(38.776 178.507) rotate(22)"/>
      <path id="Trazado_384" data-name="Trazado 384" class="cls-4" d="M-5.64,0A2.53,2.53,0,0,1-7.48-.7,2.329,2.329,0,0,1-8.2-2.44V-22.6l.56.88-3.04,1.84a2.447,2.447,0,0,1-1.28.36,2.183,2.183,0,0,1-1.72-.78,2.49,2.49,0,0,1-.68-1.66,2.279,2.279,0,0,1,1.24-2.08l6.04-3.6A3.655,3.655,0,0,1-5.36-28a2.232,2.232,0,0,1,1.7.7A2.438,2.438,0,0,1-3-25.56V-2.44A2.3,2.3,0,0,1-3.74-.7,2.653,2.653,0,0,1-5.64,0ZM8.92,0A2.53,2.53,0,0,1,7.08-.7a2.329,2.329,0,0,1-.72-1.74V-22.6l.56.88L3.88-19.88a2.447,2.447,0,0,1-1.28.36A2.183,2.183,0,0,1,.88-20.3,2.49,2.49,0,0,1,.2-21.96a2.279,2.279,0,0,1,1.24-2.08l6.04-3.6A3.655,3.655,0,0,1,9.2-28a2.232,2.232,0,0,1,1.7.7,2.438,2.438,0,0,1,.66,1.74V-2.44A2.3,2.3,0,0,1,10.82-.7,2.653,2.653,0,0,1,8.92,0Z" transform="translate(145 442)"/>
      <path id="Trazado_95" data-name="Trazado 95" class="cls-5" d="M218.453,202.505l-15.917,15.948H179.978L164,202.505V179.948L179.978,164h22.557l15.917,15.948Z" transform="translate(111.988 178.47) rotate(22)"/>
      <path id="Trazado_385" data-name="Trazado 385" class="cls-6" d="M.044.44a9.2,9.2,0,0,1-4.29-.99A9.815,9.815,0,0,1-7.5-3.256,12.927,12.927,0,0,1-9.57-7.128a13.833,13.833,0,0,1-.726-4.444,23.928,23.928,0,0,1,.33-3.608A24.362,24.362,0,0,1-8.8-19.624a20.141,20.141,0,0,1,2.332-4.532,17.017,17.017,0,0,1,3.806-3.96A16.456,16.456,0,0,1,2.992-30.8,4.172,4.172,0,0,1,4-30.932,3.283,3.283,0,0,1,5.83-30.4a2.132,2.132,0,0,1,.814,1.936,2.486,2.486,0,0,1-.638,1.694A3.5,3.5,0,0,1,4.312-25.74a13.448,13.448,0,0,0-2.97,1.3,13.764,13.764,0,0,0-2.728,2.09,13.026,13.026,0,0,0-2.156,2.794,11.707,11.707,0,0,0-1.3,3.366l-1.188-.044A18.4,18.4,0,0,1-4.51-17.842a8.785,8.785,0,0,1,2.2-1.5,6.859,6.859,0,0,1,3.058-.638,7.985,7.985,0,0,1,3.41.792,10.816,10.816,0,0,1,3.08,2.178A10.775,10.775,0,0,1,9.46-13.75,9.646,9.646,0,0,1,10.3-9.768,9.888,9.888,0,0,1,8.91-4.62a10.378,10.378,0,0,1-3.7,3.7A9.976,9.976,0,0,1,.044.44Zm0-4.84a4.661,4.661,0,0,0,2.53-.7A5.049,5.049,0,0,0,4.356-7.04a5.684,5.684,0,0,0,.66-2.728,5.649,5.649,0,0,0-.66-2.75,5.092,5.092,0,0,0-1.782-1.914,4.661,4.661,0,0,0-2.53-.7,4.661,4.661,0,0,0-2.53.7,5.092,5.092,0,0,0-1.782,1.914,5.649,5.649,0,0,0-.66,2.75,5.684,5.684,0,0,0,.66,2.728A5.049,5.049,0,0,0-2.486-5.1,4.661,4.661,0,0,0,.044-4.4Z" transform="translate(217 444)"/>
    </g>
    <g id="Grupo_329" data-name="Grupo 329" transform="translate(155.824 262)">
      <g id="Grupo_46-2" data-name="Grupo 46" transform="translate(0 0.784)">
        <g id="Unión_22-2" data-name="Unión 22" class="cls-2" transform="translate(0.176 0.216)">
          <path class="cls-7" d="M 19.99962043762207 37.5 L 3.062259912490845 37.5 L 3.062259912490845 28.08717918395996 L 3.062259912490845 27.58717918395996 L 2.562259912490845 27.58717918395996 L 0.5 27.58717918395996 L 0.5 0.5 L 40.5 0.5 L 40.5 27.58717918395996 L 20.49962043762207 27.58717918395996 L 19.99962043762207 27.58717918395996 L 19.99962043762207 28.08717918395996 L 19.99962043762207 37.5 Z"/>
          <path class="cls-9" d="M 19.49962043762207 37 L 19.49962043762207 28.08717918395996 L 19.49962043762207 27.08717918395996 L 20.49962043762207 27.08717918395996 L 40 27.08717918395996 L 40 1 L 1 1 L 1 27.08717918395996 L 2.562259912490845 27.08717918395996 L 3.562259912490845 27.08717918395996 L 3.562259912490845 28.08717918395996 L 3.562259912490845 37 L 19.49962043762207 37 M 20.49962043762207 38 L 2.562259912490845 38 L 2.562259912490845 28.08717918395996 L 0 28.08717918395996 L 0 0 L 41 0 L 41 28.08717918395996 L 20.49962043762207 28.08717918395996 L 20.49962043762207 38 Z"/>
        </g>
      </g>
      <path id="Trazado_461" data-name="Trazado 461" d="M.037-.6a.608.608,0,0,0,.6.6.592.592,0,0,0,.6-.6V-16.675a.721.721,0,0,0-.075-.45.633.633,0,0,0-.825-.225L-3.037-15.3a.577.577,0,0,0-.225.825.609.609,0,0,0,.525.3.613.613,0,0,0,.3-.1l2.475-1.45Z" transform="translate(20.176 24)"/>
    </g>
    <g id="Grupo_387" data-name="Grupo 387" transform="translate(214.824 262)">
      <g id="Grupo_46-3" data-name="Grupo 46" transform="translate(0 0.784)">
        <g id="Unión_22-3" data-name="Unión 22" class="cls-2" transform="translate(0.176 0.216)">
          <path class="cls-7" d="M 19.99962043762207 37.5 L 3.062259912490845 37.5 L 3.062259912490845 28.08717918395996 L 3.062259912490845 27.58717918395996 L 2.562259912490845 27.58717918395996 L 0.5 27.58717918395996 L 0.5 0.5 L 40.5 0.5 L 40.5 27.58717918395996 L 20.49962043762207 27.58717918395996 L 19.99962043762207 27.58717918395996 L 19.99962043762207 28.08717918395996 L 19.99962043762207 37.5 Z"/>
          <path class="cls-9" d="M 19.49962043762207 37 L 19.49962043762207 28.08717918395996 L 19.49962043762207 27.08717918395996 L 20.49962043762207 27.08717918395996 L 40 27.08717918395996 L 40 1 L 1 1 L 1 27.08717918395996 L 2.562259912490845 27.08717918395996 L 3.562259912490845 27.08717918395996 L 3.562259912490845 28.08717918395996 L 3.562259912490845 37 L 19.49962043762207 37 M 20.49962043762207 38 L 2.562259912490845 38 L 2.562259912490845 28.08717918395996 L 0 28.08717918395996 L 0 0 L 41 0 L 41 28.08717918395996 L 20.49962043762207 28.08717918395996 L 20.49962043762207 38 Z"/>
        </g>
      </g>
      <path id="Trazado_462" data-name="Trazado 462" d="M.037-.6a.608.608,0,0,0,.6.6.592.592,0,0,0,.6-.6V-16.675a.721.721,0,0,0-.075-.45.633.633,0,0,0-.825-.225L-3.037-15.3a.577.577,0,0,0-.225.825.609.609,0,0,0,.525.3.613.613,0,0,0,.3-.1l2.475-1.45Z" transform="translate(20.176 24)"/>
    </g>
    <g id="Grupo_388" data-name="Grupo 388" transform="translate(155.824 324)">
      <g id="Grupo_46-4" data-name="Grupo 46" transform="translate(0 0.784)">
        <g id="Unión_22-4" data-name="Unión 22" class="cls-2" transform="translate(0.176 0.216)">
          <path class="cls-7" d="M 19.99962043762207 37.5 L 3.062259912490845 37.5 L 3.062259912490845 28.08717918395996 L 3.062259912490845 27.58717918395996 L 2.562259912490845 27.58717918395996 L 0.5 27.58717918395996 L 0.5 0.5 L 40.5 0.5 L 40.5 27.58717918395996 L 20.49962043762207 27.58717918395996 L 19.99962043762207 27.58717918395996 L 19.99962043762207 28.08717918395996 L 19.99962043762207 37.5 Z"/>
          <path class="cls-9" d="M 19.49962043762207 37 L 19.49962043762207 28.08717918395996 L 19.49962043762207 27.08717918395996 L 20.49962043762207 27.08717918395996 L 40 27.08717918395996 L 40 1 L 1 1 L 1 27.08717918395996 L 2.562259912490845 27.08717918395996 L 3.562259912490845 27.08717918395996 L 3.562259912490845 28.08717918395996 L 3.562259912490845 37 L 19.49962043762207 37 M 20.49962043762207 38 L 2.562259912490845 38 L 2.562259912490845 28.08717918395996 L 0 28.08717918395996 L 0 0 L 41 0 L 41 28.08717918395996 L 20.49962043762207 28.08717918395996 L 20.49962043762207 38 Z"/>
        </g>
      </g>
      <path id="Trazado_459" data-name="Trazado 459" d="M-6.425-6.725a8.661,8.661,0,0,0,.05,1.15A5.771,5.771,0,0,0-.6,0,5.767,5.767,0,0,0,5.2-5.775,5.783,5.783,0,0,0-.6-11.55,5.748,5.748,0,0,0-4.925-9.575a11.432,11.432,0,0,1,1.25-3.5,5.928,5.928,0,0,1,5.1-3.175.654.654,0,0,0,.6-.65.608.608,0,0,0-.625-.575,7.1,7.1,0,0,0-6.125,3.8A14.436,14.436,0,0,0-6.425-6.725Zm1.275.95A4.567,4.567,0,0,1-.6-10.325,4.577,4.577,0,0,1,4-5.775,4.577,4.577,0,0,1-.6-1.225a4.581,4.581,0,0,1-4.525-3.95A.371.371,0,0,0-5.1-5.35a1.267,1.267,0,0,1-.05-.325Z" transform="translate(20.176 24)"/>
    </g>
  </g>
</svg>
