<svg xmlns="http://www.w3.org/2000/svg" width="175" height="210.887" viewBox="0 0 175 210.887">
  <defs>
    <style>
      .cls-1, .cls-3, .cls-5 {
        fill: #fff;
      }

      .cls-1 {
        stroke: #000;
      }

      .cls-2 {
        fill: #3f3832;
      }

      .cls-4 {
        fill: #858666;
      }

      .cls-6 {
        fill: #bebbbb;
      }

      .cls-11, .cls-13, .cls-7 {
        fill: #37c837;
      }

      .cls-18, .cls-19, .cls-20, .cls-25, .cls-8 {
        fill: none;
      }

      .cls-12, .cls-13, .cls-14, .cls-8, .cls-9 {
        stroke: #241f1c;
      }

      .cls-10, .cls-11, .cls-12, .cls-13, .cls-14, .cls-8, .cls-9 {
        stroke-linecap: round;
        stroke-linejoin: round;
      }

      .cls-10, .cls-11, .cls-12, .cls-13, .cls-14, .cls-18, .cls-19, .cls-20, .cls-8, .cls-9 {
        stroke-width: 0.4px;
      }

      .cls-9 {
        fill: #784421;
      }

      .cls-10, .cls-14 {
        fill: #5fd35f;
      }

      .cls-10, .cls-11 {
        stroke: rgba(36,31,28,0.99);
      }

      .cls-12 {
        fill: #2ca02c;
      }

      .cls-15 {
        fill: #8dd1e4;
      }

      .cls-16 {
        fill: #388caf;
      }

      .cls-17 {
        fill: #5abce6;
      }

      .cls-18 {
        stroke: #b4d6c8;
      }

      .cls-19 {
        stroke: #75c3e4;
      }

      .cls-20 {
        stroke: #388caf;
      }

      .cls-21 {
        fill: #85afbe;
      }

      .cls-22 {
        fill: #3289ad;
      }

      .cls-23 {
        fill: #d9eff7;
      }

      .cls-24, .cls-26 {
        stroke: none;
      }

      .cls-26 {
        fill: #707070;
      }
    </style>
  </defs>
  <g id="M_2_5_T" transform="translate(-5583.687 -3489)">
    <g id="Grupo_409" data-name="Grupo 409" transform="translate(5495 3256)">
      <g id="Grupo_109" data-name="Grupo 109" transform="translate(88.334 233)">
        <g id="Rectángulo_4" data-name="Rectángulo 4" class="cls-1" transform="translate(0.352)">
          <rect class="cls-24" width="175" height="175" rx="19"/>
          <rect class="cls-25" x="0.5" y="0.5" width="174" height="174" rx="18.5"/>
        </g>
      </g>
      <g id="Grupo_259" data-name="Grupo 259" transform="translate(0 -19)">
        <path id="Trazado_93" data-name="Trazado 93" class="cls-2" d="M218.453,202.505l-15.917,15.948H179.978L164,202.505V179.948L179.978,164h22.557l15.917,15.948Z" transform="translate(38.776 178.507) rotate(22)"/>
        <path id="Trazado_403" data-name="Trazado 403" class="cls-3" d="M-10.64,0a2.53,2.53,0,0,1-1.84-.7,2.329,2.329,0,0,1-.72-1.74V-22.6l.56.88-3.04,1.84a2.447,2.447,0,0,1-1.28.36,2.183,2.183,0,0,1-1.72-.78,2.49,2.49,0,0,1-.68-1.66,2.279,2.279,0,0,1,1.24-2.08l6.04-3.6A3.655,3.655,0,0,1-10.36-28a2.232,2.232,0,0,1,1.7.7A2.438,2.438,0,0,1-8-25.56V-2.44A2.3,2.3,0,0,1-8.74-.7,2.653,2.653,0,0,1-10.64,0ZM7.28.4A9.3,9.3,0,0,1,1.46-1.42,11.231,11.231,0,0,1-2.16-6.5,21.009,21.009,0,0,1-3.4-14a20.969,20.969,0,0,1,1.24-7.52,11.241,11.241,0,0,1,3.62-5.06A9.3,9.3,0,0,1,7.28-28.4a9.3,9.3,0,0,1,5.82,1.82,11.241,11.241,0,0,1,3.62,5.06A20.969,20.969,0,0,1,17.96-14a21.009,21.009,0,0,1-1.24,7.5A11.231,11.231,0,0,1,13.1-1.42,9.3,9.3,0,0,1,7.28.4Zm0-4.8a4.276,4.276,0,0,0,2.9-1.06,6.894,6.894,0,0,0,1.9-3.2A17.88,17.88,0,0,0,12.76-14a17.84,17.84,0,0,0-.68-5.36,6.89,6.89,0,0,0-1.9-3.18,4.276,4.276,0,0,0-2.9-1.06A4.3,4.3,0,0,0,4.4-22.54a6.8,6.8,0,0,0-1.92,3.18A17.84,17.84,0,0,0,1.8-14a17.88,17.88,0,0,0,.68,5.34A6.8,6.8,0,0,0,4.4-5.46,4.3,4.3,0,0,0,7.28-4.4Z" transform="translate(145 442)"/>
        <path id="Trazado_95" data-name="Trazado 95" class="cls-4" d="M218.453,202.505l-15.917,15.948H179.978L164,202.505V179.948L179.978,164h22.557l15.917,15.948Z" transform="translate(111.988 178.47) rotate(22)"/>
        <path id="Trazado_402" data-name="Trazado 402" class="cls-3" d="M-2.4.44A13.19,13.19,0,0,1-5.874-.066,8.152,8.152,0,0,1-8.91-1.54a3.325,3.325,0,0,1-.9-1.254,3.74,3.74,0,0,1-.33-1.474A2.006,2.006,0,0,1-9.5-5.676a2.423,2.423,0,0,1,1.826-.66A3.733,3.733,0,0,1-5.7-5.5a10.828,10.828,0,0,0,1.54.792,4.382,4.382,0,0,0,1.716.352,7.113,7.113,0,0,0,3.41-.836A6.869,6.869,0,0,0,3.476-7.436a5.34,5.34,0,0,0,.946-3.036,5.144,5.144,0,0,0-.77-2.86A5.333,5.333,0,0,0,1.628-15.18a5.723,5.723,0,0,0-2.706-.66,5.922,5.922,0,0,0-2.376.44q-1.012.44-1.848.9a3.43,3.43,0,0,1-1.672.462,3.13,3.13,0,0,1-2.156-.638,2.734,2.734,0,0,1-.88-1.518,4.972,4.972,0,0,1-.088-1.584l1.364-10.912a2.511,2.511,0,0,1,.9-1.518A2.658,2.658,0,0,1-6.094-30.8H6.622a2.388,2.388,0,0,1,1.76.7,2.388,2.388,0,0,1,.7,1.76,2.263,2.263,0,0,1-.7,1.694,2.429,2.429,0,0,1-1.76.682H-4.73l.484-.4L-5.434-17.2l-.572-1.672a2.5,2.5,0,0,1,1.144-.836,12.09,12.09,0,0,1,2.024-.682A9.231,9.231,0,0,1-.594-20.68a10.393,10.393,0,0,1,5.28,1.342A9.865,9.865,0,0,1,8.36-15.686,10.187,10.187,0,0,1,9.7-10.472,9.587,9.587,0,0,1,8.734-6.2,11.116,11.116,0,0,1,6.072-2.728,12.634,12.634,0,0,1,2.2-.4,12.72,12.72,0,0,1-2.4.44Z" transform="translate(217 444)"/>
      </g>
    </g>
    <g id="Grupo_410" data-name="Grupo 410" transform="translate(625.07 411.664)">
      <g id="Grupo_341" data-name="Grupo 341" transform="translate(4994.397 3122.197)">
        <g id="Grupo_352" data-name="Grupo 352" transform="translate(0 36.85)">
          <g id="Grupo_106" data-name="Grupo 106" transform="translate(0 0)">
            <g id="Grupo_46" data-name="Grupo 46" transform="translate(0 0)">
              <g id="Unión_22" data-name="Unión 22" class="cls-5" transform="translate(-0.468 0.289)">
                <path class="cls-24" d="M 7.749849796295166 14.75 L 1.249909996986389 14.75 L 1.249909996986389 11.08705043792725 L 1.249909996986389 10.83705043792725 L 0.9999099969863892 10.83705043792725 L 0.25 10.83705043792725 L 0.25 0.25 L 15.75 0.25 L 15.75 10.83705043792725 L 7.999849796295166 10.83705043792725 L 7.749849796295166 10.83705043792725 L 7.749849796295166 11.08705043792725 L 7.749849796295166 14.75 Z"/>
                <path class="cls-26" d="M 7.499849796295166 14.5 L 7.499849796295166 11.08705043792725 L 7.499849796295166 10.58705043792725 L 7.999849796295166 10.58705043792725 L 15.5 10.58705043792725 L 15.5 0.5 L 0.5 0.5 L 0.5 10.58705043792725 L 0.9999099969863892 10.58705043792725 L 1.499909996986389 10.58705043792725 L 1.499909996986389 11.08705043792725 L 1.499909996986389 14.5 L 7.499849796295166 14.5 M 7.999849796295166 15 L 0.9999099969863892 15 L 0.9999099969863892 11.08705043792725 L 0 11.08705043792725 L 0 -8.881784197001252e-16 L 16 -8.881784197001252e-16 L 16 11.08705043792725 L 7.999849796295166 11.08705043792725 L 7.999849796295166 15 Z"/>
              </g>
            </g>
          </g>
        </g>
        <g id="Grupo_391" data-name="Grupo 391" transform="translate(0 0)">
          <g id="Grupo_106-2" data-name="Grupo 106" transform="translate(0 0)">
            <g id="Grupo_46-2" data-name="Grupo 46" transform="translate(0 0)">
              <g id="Unión_22-2" data-name="Unión 22" class="cls-5" transform="translate(-0.468 0.139)">
                <path class="cls-24" d="M 7.749849796295166 14.75 L 1.249909996986389 14.75 L 1.249909996986389 11.08705043792725 L 1.249909996986389 10.83705043792725 L 0.9999099969863892 10.83705043792725 L 0.25 10.83705043792725 L 0.25 0.25 L 15.75 0.25 L 15.75 10.83705043792725 L 7.999849796295166 10.83705043792725 L 7.749849796295166 10.83705043792725 L 7.749849796295166 11.08705043792725 L 7.749849796295166 14.75 Z"/>
                <path class="cls-26" d="M 7.499849796295166 14.5 L 7.499849796295166 11.08705043792725 L 7.499849796295166 10.58705043792725 L 7.999849796295166 10.58705043792725 L 15.5 10.58705043792725 L 15.5 0.5 L 0.5 0.5 L 0.5 10.58705043792725 L 0.9999099969863892 10.58705043792725 L 1.499909996986389 10.58705043792725 L 1.499909996986389 11.08705043792725 L 1.499909996986389 14.5 L 7.499849796295166 14.5 M 7.999849796295166 15 L 0.9999099969863892 15 L 0.9999099969863892 11.08705043792725 L 0 11.08705043792725 L 0 -8.881784197001252e-16 L 16 -8.881784197001252e-16 L 16 11.08705043792725 L 7.999849796295166 11.08705043792725 L 7.999849796295166 15 Z"/>
              </g>
            </g>
          </g>
        </g>
        <g id="Grupo_392" data-name="Grupo 392" transform="translate(0 73.699)">
          <g id="Grupo_106-3" data-name="Grupo 106" transform="translate(0 0)">
            <g id="Grupo_46-3" data-name="Grupo 46" transform="translate(0 0)">
              <g id="Unión_22-3" data-name="Unión 22" class="cls-6" transform="translate(-0.468 0.44)">
                <path class="cls-24" d="M 7.749849796295166 14.75 L 1.249909996986389 14.75 L 1.249909996986389 11.08705043792725 L 1.249909996986389 10.83705043792725 L 0.9999099969863892 10.83705043792725 L 0.25 10.83705043792725 L 0.25 0.25 L 15.75 0.25 L 15.75 10.83705043792725 L 7.999849796295166 10.83705043792725 L 7.749849796295166 10.83705043792725 L 7.749849796295166 11.08705043792725 L 7.749849796295166 14.75 Z"/>
                <path class="cls-26" d="M 7.499849796295166 14.5 L 7.499849796295166 11.08705043792725 L 7.499849796295166 10.58705043792725 L 7.999849796295166 10.58705043792725 L 15.5 10.58705043792725 L 15.5 0.5 L 0.5 0.5 L 0.5 10.58705043792725 L 0.9999099969863892 10.58705043792725 L 1.499909996986389 10.58705043792725 L 1.499909996986389 11.08705043792725 L 1.499909996986389 14.5 L 7.499849796295166 14.5 M 7.999849796295166 15 L 0.9999099969863892 15 L 0.9999099969863892 11.08705043792725 L 0 11.08705043792725 L 0 -8.881784197001252e-16 L 16 -8.881784197001252e-16 L 16 11.08705043792725 L 7.999849796295166 11.08705043792725 L 7.999849796295166 15 Z"/>
              </g>
            </g>
          </g>
        </g>
      </g>
      <path id="Polígono_3" data-name="Polígono 3" d="M4.3,0,8.6,7.37H0Z" transform="translate(4988.87 3198.888) rotate(90)"/>
      <g id="Grupo_393" data-name="Grupo 393" transform="translate(5048.535 3166.272)">
        <path id="Trazado_88" data-name="Trazado 88" class="cls-7" d="M1587.865-586.367c-.023.464,5.88-5.952,25.792,0,.657.2,1.3.379,2,.565,18.661,4.952,29.574-1.367,31.249-3.874,1.733-2.592-6.636,6.354-24.233-1.412S1587.889-586.832,1587.865-586.367Z" transform="translate(-1587.865 633.895)"/>
        <g id="Grupo_60" data-name="Grupo 60" transform="translate(31.403 20.037)">
          <path id="path977-5-8" class="cls-8" d="M-51.621,326.65h8.5" transform="translate(55.813 -301.135)"/>
          <path id="path979-8-6-6-8-5-7-2-3-7" class="cls-9" d="M-49,330.766l-.058-16.227h1.892l.111,16.214Z" transform="translate(56.684 -305.252)"/>
          <ellipse id="path837-1-2-8-9-4" class="cls-10" cx="6.095" cy="5.858" rx="6.095" ry="5.858" transform="translate(0 8.816)"/>
          <ellipse id="ellipse9017" class="cls-11" cx="9.319" cy="8.957" rx="9.319" ry="8.957" transform="translate(2.511)"/>
        </g>
        <g id="Grupo_61" data-name="Grupo 61" transform="translate(7.004 0)">
          <ellipse id="path4729" class="cls-12" cx="7.198" cy="6.679" rx="7.198" ry="6.679" transform="translate(5.022 16.372)"/>
          <path id="path979-8-6-6-8-5-7" class="cls-9" d="M-13.222,417.518l-.1-28.824h3.362l.2,28.8Z" transform="translate(29.216 -373.977)"/>
          <ellipse id="path4729-7" class="cls-13" cx="9.648" cy="8.952" rx="9.648" ry="8.952" transform="translate(0 4.172)"/>
          <ellipse id="path4729-7-7" class="cls-14" cx="9.648" cy="8.952" rx="9.648" ry="8.952" transform="translate(11.125)"/>
          <path id="path977-8-5-8-2-0" class="cls-8" d="M-14.931,400.952H-3.745" transform="translate(26.999 -357.061)"/>
          <ellipse id="path4729-7-7-7" class="cls-13" cx="6.961" cy="6.459" rx="6.961" ry="6.459" transform="translate(19.562 14.635)"/>
        </g>
      </g>
      <g id="Grupo_394" data-name="Grupo 394" transform="translate(5049.729 3105)">
        <path id="Trazado_7" data-name="Trazado 7" class="cls-15" d="M220.139-387.187l-8.144-32.847,57.048,17.042-7.81,15.008Z" transform="translate(-211.995 420.035)"/>
        <g id="Grupo_5" data-name="Grupo 5" transform="translate(23.281 18.482)">
          <ellipse id="Elipse_10" data-name="Elipse 10" class="cls-16" cx="18.5" cy="7" rx="18.5" ry="7" transform="translate(-0.08 4.853)"/>
          <ellipse id="Elipse_11" data-name="Elipse 11" class="cls-17" cx="18.5" cy="7" rx="18.5" ry="7" transform="translate(-0.08 4.853)"/>
          <g id="Elipse_12" data-name="Elipse 12" class="cls-18" transform="translate(-0.08 4.853)">
            <ellipse class="cls-24" cx="18.5" cy="7" rx="18.5" ry="7"/>
            <ellipse class="cls-25" cx="18.5" cy="7" rx="18.3" ry="6.8"/>
          </g>
          <path id="Trazado_4" data-name="Trazado 4" class="cls-19" d="M249.153-381.32V-393.7" transform="translate(-240.646 396.064)"/>
          <line id="Línea_2" data-name="Línea 2" class="cls-19" x2="5.541" transform="translate(8.782 10.914)"/>
          <line id="Línea_3" data-name="Línea 3" class="cls-19" y1="11.864" transform="translate(14.323 2.522)"/>
          <line id="Línea_4" data-name="Línea 4" class="cls-19" x2="5.541" transform="translate(8.782 7.603)"/>
          <line id="Línea_5" data-name="Línea 5" class="cls-20" y1="3.958" transform="translate(4.824 2.522)"/>
          <line id="Línea_6" data-name="Línea 6" class="cls-20" y1="3.958" transform="translate(10.365 1.73)"/>
          <path id="Trazado_5" data-name="Trazado 5" class="cls-19" d="M244.508-394.056v.1l.061-.776a1.946,1.946,0,0,1,1.757-.954,1.8,1.8,0,0,1,1.859,1.731" transform="translate(-239.677 396.478)"/>
          <path id="Trazado_6" data-name="Trazado 6" class="cls-19" d="M244.5-394.117v.156a1.083,1.083,0,0,1,.121-.645,1.947,1.947,0,0,1,1.739-1.08,2.246,2.246,0,0,1,2.07,2.216c.024.05.051.825.051.825" transform="translate(-234.132 395.686)"/>
        </g>
        <g id="Grupo_14" data-name="Grupo 14" transform="translate(11.229 10.113)">
          <path id="Unión_2" data-name="Unión 2" class="cls-18" d="M15.265,22.143h-9.7C6.2,21.305,7.8,20.711,9.67,20.585L8.785,7.927A4.164,4.164,0,0,0,4.724,8.951c0,.016,0,.032,0,.048L4.7,8.979l-.029.037c0-.021,0-.041-.006-.062-1.29-.891-3.838-.51-4.658.921C-.2,5.216,3.557,1.035,8.78.022L8.82,0l.051.016C14-.076,18.548,3.072,19.394,7.51c-1.085-1.057-3.675-1.1-4.669.205,0,.023,0,.045.007.067-1.172-.9-4.111-.719-5.13.489l.859,12.288c2.157.009,4.083.643,4.8,1.582h0ZM9.6,8.255c0-.01,0-.015,0-.016Z" transform="translate(0.922 1.017)"/>
          <rect id="Rectángulo_19" data-name="Rectángulo 19" class="cls-21" width="0.792" height="14.249" transform="matrix(0.998, -0.07, 0.07, 0.998, 9.652, 8.165)"/>
          <path id="Sustracción_1" data-name="Sustracción 1" class="cls-22" d="M9.705,1.583H0C.726.636,2.676,0,4.853,0S8.979.636,9.7,1.582Z" transform="translate(6.483 21.577)"/>
          <g id="Grupo_12" data-name="Grupo 12" transform="matrix(0.995, -0.105, 0.105, 0.995, 0, 2.041)">
            <path id="Trazado_28" data-name="Trazado 28" class="cls-16" d="M9.814,0C4.485.437.281,4.213,0,8.888A3.6,3.6,0,0,1,4.785,8.51,9.194,9.194,0,0,1,9.814,0Z" transform="translate(0 0.012)"/>
            <path id="Trazado_29" data-name="Trazado 29" class="cls-16" d="M2.377,1.595A9.08,9.08,0,0,1,5.059,8.28c1.123-1.2,3.7-.889,4.671.278C9.352,4.04,5.132.426,0,0A9.615,9.615,0,0,1,2.377,1.595Z" transform="translate(9.796 0.017)"/>
            <path id="Trazado_30" data-name="Trazado 30" class="cls-23" d="M10.133,8.359A9.145,9.145,0,0,0,7.69,1.837,8.251,8.251,0,0,0,5.067,0,8.076,8.076,0,0,0,2.443,1.837,9.209,9.209,0,0,0,0,8.534a3.971,3.971,0,0,1,4.93-.175c-.013.42-.032.121,0,0s.1-.11,0,0C6.03,7.209,9.046,7.322,10.133,8.359Z" transform="translate(4.729 0)"/>
          </g>
        </g>
      </g>
      <path id="Trazado_447" data-name="Trazado 447" d="M.612-5.166V-9.108H-.612v3.942H-4.536v1.224H-.612V0H.612V-3.942H4.536V-5.166Z" transform="translate(5075.93 3155.335)"/>
    </g>
  </g>
</svg>
