<svg xmlns="http://www.w3.org/2000/svg" width="175" height="210.851" viewBox="0 0 175 210.851">
  <defs>
    <style>
      .cls-1, .cls-3 {
        fill: #fff;
      }

      .cls-1 {
        stroke: #000;
      }

      .cls-2 {
        fill: #3f3832;
      }

      .cls-4 {
        fill: #858666;
      }

      .cls-5 {
        fill: #bebbbb;
      }

      .cls-10, .cls-12, .cls-6 {
        fill: #37c837;
      }

      .cls-15, .cls-7 {
        fill: none;
      }

      .cls-11, .cls-12, .cls-13, .cls-7, .cls-8 {
        stroke: #241f1c;
      }

      .cls-10, .cls-11, .cls-12, .cls-13, .cls-7, .cls-8, .cls-9 {
        stroke-linecap: round;
        stroke-linejoin: round;
        stroke-width: 0.4px;
      }

      .cls-8 {
        fill: #784421;
      }

      .cls-13, .cls-9 {
        fill: #5fd35f;
      }

      .cls-10, .cls-9 {
        stroke: rgba(36,31,28,0.99);
      }

      .cls-11 {
        fill: #2ca02c;
      }

      .cls-14, .cls-16 {
        stroke: none;
      }

      .cls-16 {
        fill: #707070;
      }
    </style>
  </defs>
  <g id="M_2_4_T" transform="translate(-4968 -3067)">
    <g id="Grupo_341" data-name="Grupo 341" transform="translate(4879 2834)">
      <g id="Grupo_109" data-name="Grupo 109" transform="translate(88.648 233)">
        <g id="Rectángulo_4" data-name="Rectángulo 4" class="cls-1" transform="translate(0.352)">
          <rect class="cls-14" width="175" height="175" rx="19"/>
          <rect class="cls-15" x="0.5" y="0.5" width="174" height="174" rx="18.5"/>
        </g>
      </g>
      <g id="Grupo_259" data-name="Grupo 259" transform="translate(0 -19)">
        <path id="Trazado_93" data-name="Trazado 93" class="cls-2" d="M218.453,202.505l-15.917,15.948H179.978L164,202.505V179.948L179.978,164h22.557l15.917,15.948Z" transform="translate(38.988 178.47) rotate(22)"/>
        <path id="Trazado_399" data-name="Trazado 399" class="cls-3" d="M-3.5.22A2.783,2.783,0,0,1-5.412-.506a2.343,2.343,0,0,1-.814-1.826A2.8,2.8,0,0,1-5.962-3.52L4.818-27.148,5.3-25.96H-7.414a2.388,2.388,0,0,1-1.76-.7,2.388,2.388,0,0,1-.7-1.76,2.263,2.263,0,0,1,.7-1.694,2.429,2.429,0,0,1,1.76-.682H7.9a3,3,0,0,1,2,.726,2.337,2.337,0,0,1,.858,1.87,3.01,3.01,0,0,1-.264,1.188L-1.078-1.452A2.5,2.5,0,0,1-2.068-.22,2.6,2.6,0,0,1-3.5.22Z" transform="translate(143 444)"/>
        <path id="Trazado_95" data-name="Trazado 95" class="cls-4" d="M218.453,202.505l-15.917,15.948H179.978L164,202.505V179.948L179.978,164h22.557l15.917,15.948Z" transform="translate(111.988 178.47) rotate(22)"/>
        <path id="Trazado_398" data-name="Trazado 398" class="cls-3" d="M5.06,0A2.474,2.474,0,0,1,3.212-.77a2.639,2.639,0,0,1-.748-1.914v-20.68l.924.22L-5.1-12.628l-.22-.572H9.592a2.388,2.388,0,0,1,1.76.7,2.388,2.388,0,0,1,.7,1.76,2.263,2.263,0,0,1-.7,1.694,2.429,2.429,0,0,1-1.76.682H-8.976a2.692,2.692,0,0,1-1.782-.748,2.356,2.356,0,0,1-.858-1.848,2.683,2.683,0,0,1,.66-1.76l13.9-17.028a2.505,2.505,0,0,1,.924-.77A2.813,2.813,0,0,1,5.148-30.8a2.455,2.455,0,0,1,1.87.77,2.682,2.682,0,0,1,.726,1.914V-2.684A2.6,2.6,0,0,1,6.974-.77,2.6,2.6,0,0,1,5.06,0Z" transform="translate(217 444)"/>
      </g>
    </g>
    <path id="Polígono_3" data-name="Polígono 3" d="M3.5,0,7,6H0Z" transform="translate(4987.5 3159.5) rotate(90)"/>
    <path id="Polígono_17" data-name="Polígono 17" d="M3.5,0,7,6H0Z" transform="translate(4987.5 3129.5) rotate(90)"/>
    <g id="Grupo_403" data-name="Grupo 403" transform="translate(4992.37 3158.064)">
      <g id="Grupo_106" data-name="Grupo 106" transform="translate(0 0)">
        <g id="Grupo_46" data-name="Grupo 46" transform="translate(0 0)">
          <g id="Unión_22" data-name="Unión 22" class="cls-5" transform="translate(-0.37 -0.064)">
            <path class="cls-14" d="M 6.249879837036133 11.75 L 1.062420010566711 11.75 L 1.062420010566711 8.869640350341797 L 1.062420010566711 8.619640350341797 L 0.8124200105667114 8.619640350341797 L 0.25 8.619640350341797 L 0.25 0.25 L 12.75 0.25 L 12.75 8.619640350341797 L 6.499879837036133 8.619640350341797 L 6.249879837036133 8.619640350341797 L 6.249879837036133 8.869640350341797 L 6.249879837036133 11.75 Z"/>
            <path class="cls-16" d="M 5.999879837036133 11.5 L 5.999879837036133 8.869640350341797 L 5.999879837036133 8.369640350341797 L 6.499879837036133 8.369640350341797 L 12.5 8.369640350341797 L 12.5 0.5 L 0.5 0.5 L 0.5 8.369640350341797 L 0.8124200105667114 8.369640350341797 L 1.312420010566711 8.369640350341797 L 1.312420010566711 8.869640350341797 L 1.312420010566711 11.5 L 5.999879837036133 11.5 M 6.499879837036133 12 L 0.8124200105667114 12 L 0.8124200105667114 8.869640350341797 L -8.881784197001252e-16 8.869640350341797 L -8.881784197001252e-16 -8.881784197001252e-16 L 13 -8.881784197001252e-16 L 13 8.869640350341797 L 6.499879837036133 8.869640350341797 L 6.499879837036133 12 Z"/>
          </g>
        </g>
      </g>
    </g>
    <g id="Grupo_404" data-name="Grupo 404" transform="translate(4992.37 3128.064)">
      <g id="Grupo_106-2" data-name="Grupo 106" transform="translate(0 0)">
        <g id="Grupo_46-2" data-name="Grupo 46" transform="translate(0 0)">
          <g id="Unión_22-2" data-name="Unión 22" class="cls-5" transform="translate(-0.37 -0.064)">
            <path class="cls-14" d="M 6.249879837036133 11.75 L 1.062420010566711 11.75 L 1.062420010566711 8.869640350341797 L 1.062420010566711 8.619640350341797 L 0.8124200105667114 8.619640350341797 L 0.25 8.619640350341797 L 0.25 0.25 L 12.75 0.25 L 12.75 8.619640350341797 L 6.499879837036133 8.619640350341797 L 6.249879837036133 8.619640350341797 L 6.249879837036133 8.869640350341797 L 6.249879837036133 11.75 Z"/>
            <path class="cls-16" d="M 5.999879837036133 11.5 L 5.999879837036133 8.869640350341797 L 5.999879837036133 8.369640350341797 L 6.499879837036133 8.369640350341797 L 12.5 8.369640350341797 L 12.5 0.5 L 0.5 0.5 L 0.5 8.369640350341797 L 0.8124200105667114 8.369640350341797 L 1.312420010566711 8.369640350341797 L 1.312420010566711 8.869640350341797 L 1.312420010566711 11.5 L 5.999879837036133 11.5 M 6.499879837036133 12 L 0.8124200105667114 12 L 0.8124200105667114 8.869640350341797 L -8.881784197001252e-16 8.869640350341797 L -8.881784197001252e-16 -8.881784197001252e-16 L 13 -8.881784197001252e-16 L 13 8.869640350341797 L 6.499879837036133 8.869640350341797 L 6.499879837036133 12 Z"/>
          </g>
        </g>
      </g>
    </g>
    <g id="Grupo_407" data-name="Grupo 407" transform="translate(5025.12 3110.756)">
      <path id="Trazado_88" data-name="Trazado 88" class="cls-6" d="M1587.865-583.29c-.033.659,8.35-8.452,36.624,0,.933.278,1.851.538,2.846.8,26.5,7.031,41.995-1.94,44.373-5.5,2.46-3.68-9.423,9.023-34.41-2S1587.9-583.95,1587.865-583.29Z" transform="translate(-1587.865 650.778)"/>
      <g id="Grupo_60" data-name="Grupo 60" transform="translate(44.591 28.452)">
        <path id="path977-5-8" class="cls-7" d="M-51.621,326.65h12.065" transform="translate(57.574 -290.42)"/>
        <path id="path979-8-6-6-8-5-7-2-3-7" class="cls-8" d="M-48.98,337.581l-.082-23.042h2.687l.157,23.023Z" transform="translate(59.885 -301.351)"/>
        <ellipse id="path837-1-2-8-9-4" class="cls-9" cx="8.655" cy="8.319" rx="8.655" ry="8.319" transform="translate(0 12.518)"/>
        <ellipse id="ellipse9017" class="cls-10" cx="13.233" cy="12.719" rx="13.233" ry="12.719" transform="translate(3.565)"/>
      </g>
      <g id="Grupo_61" data-name="Grupo 61" transform="translate(9.945 0)">
        <ellipse id="path4729" class="cls-11" cx="10.22" cy="9.484" rx="10.22" ry="9.484" transform="translate(7.131 23.248)"/>
        <path id="path979-8-6-6-8-5-7" class="cls-8" d="M-13.179,429.623l-.145-40.929h4.773l.279,40.894Z" transform="translate(35.89 -367.797)"/>
        <ellipse id="path4729-7" class="cls-12" cx="13.699" cy="12.712" rx="13.699" ry="12.712" transform="translate(0 5.924)"/>
        <ellipse id="path4729-7-7" class="cls-13" cx="13.699" cy="12.712" rx="13.699" ry="12.712" transform="translate(15.797)"/>
        <path id="path977-8-5-8-2-0" class="cls-7" d="M-14.931,400.952H.953" transform="translate(32.067 -338.629)"/>
        <ellipse id="path4729-7-7-7" class="cls-12" cx="9.884" cy="9.172" rx="9.884" ry="9.172" transform="translate(27.778 20.781)"/>
      </g>
    </g>
  </g>
</svg>
