<svg xmlns="http://www.w3.org/2000/svg" width="175" height="210.887" viewBox="0 0 175 210.887">
  <g id="Grupo_418" data-name="Grupo 418" transform="translate(-89 -233)">
    <g id="Grupo_109" data-name="Grupo 109" transform="translate(88.648 233)">
      <g id="Rectángulo_4" data-name="Rectángulo 4" transform="translate(0.352)" fill="#fff" stroke="#000" stroke-width="1">
        <rect width="175" height="175" rx="19" stroke="none"/>
        <rect x="0.5" y="0.5" width="174" height="174" rx="18.5" fill="none"/>
      </g>
    </g>
    <g id="Grupo_414" data-name="Grupo 414" transform="translate(0 -19)">
      <path id="Trazado_93" data-name="Trazado 93" d="M218.453,202.505l-15.917,15.948H179.978L164,202.505V179.948L179.978,164h22.557l15.917,15.948Z" transform="translate(38.776 178.507) rotate(22)" fill="#3f3832"/>
      <text id="_10" data-name="10" transform="translate(145 442)" fill="#fff" font-size="40" font-family="Quicksand" font-weight="700"><tspan x="-19.56" y="0">10</tspan></text>
      <path id="Trazado_95" data-name="Trazado 95" d="M218.453,202.505l-15.917,15.948H179.978L164,202.505V179.948L179.978,164h22.557l15.917,15.948Z" transform="translate(111.988 178.47) rotate(22)" fill="#858666"/>
      <text id="_5" data-name="5" transform="translate(217 444)" fill="#fff" font-size="44" font-family="Quicksand" font-weight="700"><tspan x="-12.738" y="0">5</tspan></text>
    </g>
    <g id="Grupo_419" data-name="Grupo 419" transform="translate(-4)">
      <g id="Elipse_51" data-name="Elipse 51" transform="translate(164 263)" fill="#fff" stroke="#707070" stroke-width="2">
        <circle cx="16" cy="16" r="16" stroke="none"/>
        <circle cx="16" cy="16" r="15" fill="none"/>
      </g>
      <g id="Elipse_52" data-name="Elipse 52" transform="translate(168 267)" fill="#fff" stroke="#707070" stroke-width="1">
        <circle cx="12" cy="12" r="12" stroke="none"/>
        <circle cx="12" cy="12" r="11.5" fill="none"/>
      </g>
      <text id="_1" data-name="1" transform="translate(178 258)" font-size="24" font-family="Quicksand-Regular, Quicksand"><tspan x="-4.02" y="0">1</tspan></text>
    </g>
    <path id="Polígono_18" data-name="Polígono 18" d="M3.5,0,7,6H0Z" transform="translate(110.5 325.5) rotate(90)"/>
    <g id="Grupo_420" data-name="Grupo 420" transform="translate(115.37 324.064)">
      <g id="Grupo_106" data-name="Grupo 106" transform="translate(0 0)">
        <g id="Grupo_46" data-name="Grupo 46" transform="translate(0 0)">
          <g id="Unión_22" data-name="Unión 22" transform="translate(-0.37 -0.064)" fill="#bebbbb">
            <path d="M 6.249879837036133 11.75 L 1.062420010566711 11.75 L 1.062420010566711 8.869640350341797 L 1.062420010566711 8.619640350341797 L 0.8124200105667114 8.619640350341797 L 0.25 8.619640350341797 L 0.25 0.25 L 12.75 0.25 L 12.75 8.619640350341797 L 6.499879837036133 8.619640350341797 L 6.249879837036133 8.619640350341797 L 6.249879837036133 8.869640350341797 L 6.249879837036133 11.75 Z" stroke="none"/>
            <path d="M 5.999879837036133 11.5 L 5.999879837036133 8.869640350341797 L 5.999879837036133 8.369640350341797 L 6.499879837036133 8.369640350341797 L 12.5 8.369640350341797 L 12.5 0.5 L 0.5 0.5 L 0.5 8.369640350341797 L 0.8124200105667114 8.369640350341797 L 1.312420010566711 8.369640350341797 L 1.312420010566711 8.869640350341797 L 1.312420010566711 11.5 L 5.999879837036133 11.5 M 6.499879837036133 12 L 0.8124200105667114 12 L 0.8124200105667114 8.869640350341797 L -8.881784197001252e-16 8.869640350341797 L -8.881784197001252e-16 -8.881784197001252e-16 L 13 -8.881784197001252e-16 L 13 8.869640350341797 L 6.499879837036133 8.869640350341797 L 6.499879837036133 12 Z" stroke="none" fill="#707070"/>
          </g>
        </g>
      </g>
    </g>
    <g id="Grupo_421" data-name="Grupo 421" transform="translate(203.634 309.937)">
      <path id="Trazado_88" data-name="Trazado 88" d="M1587.865-587.977c-.018.362,4.588-4.644,20.122,0,.512.153,1.017.3,1.564.44,14.559,3.863,23.073-1.066,24.38-3.022,1.352-2.022-5.177,4.957-18.906-1.1S1587.884-588.34,1587.865-587.977Z" transform="translate(-1587.865 625.057)" fill="#37c837"/>
      <g id="Grupo_60" data-name="Grupo 60" transform="translate(24.499 15.632)">
        <path id="path977-5-8" d="M-51.621,326.65h6.629" transform="translate(54.892 -306.744)" fill="none" stroke="#241f1c" stroke-linecap="round" stroke-linejoin="round" stroke-width="0.4"/>
        <path id="path979-8-6-6-8-5-7-2-3-7" d="M-49.017,327.2l-.045-12.66h1.476l.086,12.649Z" transform="translate(55.008 -307.293)" fill="#784421" stroke="#241f1c" stroke-linecap="round" stroke-linejoin="round" stroke-width="0.4"/>
        <ellipse id="path837-1-2-8-9-4" cx="4.755" cy="4.571" rx="4.755" ry="4.571" transform="translate(0 6.878)" fill="#5fd35f" stroke="rgba(36,31,28,0.99)" stroke-linecap="round" stroke-linejoin="round" stroke-width="0.4"/>
        <ellipse id="ellipse9017" cx="7.27" cy="6.988" rx="7.27" ry="6.988" transform="translate(1.959)" fill="#37c837" stroke="rgba(36,31,28,0.99)" stroke-linecap="round" stroke-linejoin="round" stroke-width="0.4"/>
      </g>
      <g id="Grupo_61" data-name="Grupo 61" transform="translate(5.464 0)">
        <ellipse id="path4729" cx="5.615" cy="5.211" rx="5.615" ry="5.211" transform="translate(3.918 12.773)" fill="#2ca02c" stroke="#241f1c" stroke-linecap="round" stroke-linejoin="round" stroke-width="0.4"/>
        <path id="path979-8-6-6-8-5-7" d="M-13.245,411.181l-.08-22.487H-10.7l.154,22.468Z" transform="translate(25.723 -377.213)" fill="#784421" stroke="#241f1c" stroke-linecap="round" stroke-linejoin="round" stroke-width="0.4"/>
        <ellipse id="path4729-7" cx="7.527" cy="6.984" rx="7.527" ry="6.984" transform="translate(0 3.255)" fill="#37c837" stroke="#241f1c" stroke-linecap="round" stroke-linejoin="round" stroke-width="0.4"/>
        <ellipse id="path4729-7-7" cx="7.527" cy="6.984" rx="7.527" ry="6.984" transform="translate(8.679)" fill="#5fd35f" stroke="#241f1c" stroke-linecap="round" stroke-linejoin="round" stroke-width="0.4"/>
        <path id="path977-8-5-8-2-0" d="M-14.931,400.952H-6.2" transform="translate(24.346 -366.71)" fill="none" stroke="#241f1c" stroke-linecap="round" stroke-linejoin="round" stroke-width="0.4"/>
        <ellipse id="path4729-7-7-7" cx="5.43" cy="5.039" rx="5.43" ry="5.039" transform="translate(15.262 11.417)" fill="#37c837" stroke="#241f1c" stroke-linecap="round" stroke-linejoin="round" stroke-width="0.4"/>
      </g>
    </g>
    <g id="Grupo_422" data-name="Grupo 422" transform="translate(140.976 314.746)">
      <path id="Trazado_7" data-name="Trazado 7" d="M218.348-394.408l-6.354-25.626,44.507,13.3-6.093,11.708Z" transform="translate(-211.995 420.035)" fill="#8dd1e4"/>
      <g id="Grupo_5" data-name="Grupo 5" transform="translate(18.101 14.419)">
        <ellipse id="Elipse_10" data-name="Elipse 10" cx="14.5" cy="5.5" rx="14.5" ry="5.5" transform="translate(-0.076 3.835)" fill="#388caf"/>
        <ellipse id="Elipse_11" data-name="Elipse 11" cx="14.5" cy="5.5" rx="14.5" ry="5.5" transform="translate(-0.076 3.835)" fill="#5abce6"/>
        <g id="Elipse_12" data-name="Elipse 12" transform="translate(-0.076 3.835)" fill="none" stroke="#b4d6c8" stroke-width="0.4">
          <ellipse cx="14.5" cy="5.5" rx="14.5" ry="5.5" stroke="none"/>
          <ellipse cx="14.5" cy="5.5" rx="14.3" ry="5.3" fill="none"/>
        </g>
        <path id="Trazado_4" data-name="Trazado 4" d="M249.153-384.043V-393.7" transform="translate(-242.454 395.546)" fill="none" stroke="#75c3e4" stroke-width="0.4"/>
        <line id="Línea_2" data-name="Línea 2" x2="4.323" transform="translate(6.914 8.515)" fill="none" stroke="#75c3e4" stroke-width="0.4"/>
        <line id="Línea_3" data-name="Línea 3" y1="9.256" transform="translate(11.237 1.968)" fill="none" stroke="#75c3e4" stroke-width="0.4"/>
        <line id="Línea_4" data-name="Línea 4" x2="4.323" transform="translate(6.914 5.932)" fill="none" stroke="#75c3e4" stroke-width="0.4"/>
        <line id="Línea_5" data-name="Línea 5" y1="3.088" transform="translate(3.826 1.968)" fill="none" stroke="#388caf" stroke-width="0.4"/>
        <line id="Línea_6" data-name="Línea 6" y1="3.088" transform="translate(8.149 1.35)" fill="none" stroke="#388caf" stroke-width="0.4"/>
        <path id="Trazado_5" data-name="Trazado 5" d="M244.508-394.414v.078l.048-.606a1.518,1.518,0,0,1,1.371-.745,1.4,1.4,0,0,1,1.45,1.35" transform="translate(-240.677 396.304)" fill="none" stroke="#75c3e4" stroke-width="0.4"/>
        <path id="Trazado_6" data-name="Trazado 6" d="M244.5-394.462v.122a.845.845,0,0,1,.095-.5,1.519,1.519,0,0,1,1.357-.842,1.752,1.752,0,0,1,1.615,1.729c.019.039.039.643.039.643" transform="translate(-236.346 395.686)" fill="none" stroke="#75c3e4" stroke-width="0.4"/>
      </g>
      <g id="Grupo_14" data-name="Grupo 14" transform="translate(8.76 7.89)">
        <path id="Unión_2" data-name="Unión 2" d="M11.909,17.276H4.338a4.625,4.625,0,0,1,3.206-1.216l-.69-9.875a3.249,3.249,0,0,0-3.169.8c0,.013,0,.025,0,.037L3.668,7l-.023.029L3.64,6.986A2.82,2.82,0,0,0,.006,7.7C-.156,4.068,2.775.807,6.848.017L6.881,0l.04.013c4-.072,7.549,2.383,8.21,5.846a2.754,2.754,0,0,0-3.643.16c0,.017,0,.035.006.053a3.568,3.568,0,0,0-4,.381l.671,9.586c1.682.007,3.185.5,3.747,1.235h0ZM7.49,6.44c0-.008,0-.012,0-.012Z" transform="translate(0.72 0.794)" fill="none" stroke="#b4d6c8" stroke-width="0.4"/>
        <rect id="Rectángulo_19" data-name="Rectángulo 19" width="0.618" height="11.116" transform="matrix(0.998, -0.07, 0.07, 0.998, 7.53, 6.37)" fill="#85afbe"/>
        <path id="Sustracción_1" data-name="Sustracción 1" d="M7.572,1.235H0C.566.5,2.088,0,3.786,0S7,.5,7.571,1.234Z" transform="translate(5.058 16.834)" fill="#3289ad"/>
        <g id="Grupo_12" data-name="Grupo 12" transform="matrix(0.995, -0.105, 0.105, 0.995, 0, 1.592)">
          <path id="Trazado_28" data-name="Trazado 28" d="M7.657,0C3.5.341.219,3.287,0,6.934a2.811,2.811,0,0,1,3.733-.3A7.173,7.173,0,0,1,7.657,0Z" transform="translate(0 0.01)" fill="#388caf"/>
          <path id="Trazado_29" data-name="Trazado 29" d="M1.855,1.244A7.084,7.084,0,0,1,3.947,6.46a2.75,2.75,0,0,1,3.644.217C7.3,3.152,4,.332,0,0A7.5,7.5,0,0,1,1.855,1.244Z" transform="translate(7.642 0.013)" fill="#388caf"/>
          <path id="Trazado_30" data-name="Trazado 30" d="M7.905,6.521A7.134,7.134,0,0,0,6,1.433,6.437,6.437,0,0,0,3.953,0,6.3,6.3,0,0,0,1.906,1.433,7.184,7.184,0,0,0,0,6.658a3.1,3.1,0,0,1,3.846-.136c-.01.327-.025.095,0,0s.081-.086,0,0A3.539,3.539,0,0,1,7.905,6.521Z" transform="translate(3.689 0)" fill="#d9eff7"/>
        </g>
      </g>
    </g>
  </g>
</svg>
