<svg xmlns="http://www.w3.org/2000/svg" width="175" height="211.501" viewBox="0 0 175 211.501">
  <g id="Grupo_408" data-name="Grupo 408" transform="translate(-4968 -3067)">
    <g id="Grupo_341" data-name="Grupo 341" transform="translate(4879 2834)">
      <g id="Grupo_109" data-name="Grupo 109" transform="translate(88.648 233)">
        <g id="Rectángulo_4" data-name="Rectángulo 4" transform="translate(0.352)" fill="#fff" stroke="#000" stroke-width="1">
          <rect width="175" height="175" rx="19" stroke="none"/>
          <rect x="0.5" y="0.5" width="174" height="174" rx="18.5" fill="none"/>
        </g>
      </g>
      <g id="Grupo_259" data-name="Grupo 259" transform="translate(0 -19)">
        <path id="Trazado_93" data-name="Trazado 93" d="M218.453,202.505l-15.917,15.948H179.978L164,202.505V179.948L179.978,164h22.557l15.917,15.948Z" transform="translate(38.988 178.47) rotate(22)" fill="#fff" stroke="#f0f0f0" stroke-width="1"/>
        <text id="_7" data-name="7" transform="translate(143 444)" fill="#f0f0f0" font-size="44" font-family="Quicksand" font-weight="700"><tspan x="-12.518" y="0">7</tspan></text>
        <path id="Trazado_95" data-name="Trazado 95" d="M218.453,202.505l-15.917,15.948H179.978L164,202.505V179.948L179.978,164h22.557l15.917,15.948Z" transform="translate(111.988 178.47) rotate(22)" fill="#858666"/>
        <text id="_4" data-name="4" transform="translate(217 444)" fill="#fff" font-size="44" font-family="Quicksand" font-weight="700"><tspan x="-15.576" y="0">4</tspan></text>
      </g>
    </g>
    <path id="Polígono_3" data-name="Polígono 3" d="M3.5,0,7,6H0Z" transform="translate(4987.5 3159.5) rotate(90)"/>
    <path id="Polígono_17" data-name="Polígono 17" d="M3.5,0,7,6H0Z" transform="translate(4987.5 3129.5) rotate(90)"/>
    <g id="Grupo_403" data-name="Grupo 403" transform="translate(4992.37 3158.064)">
      <g id="Grupo_106" data-name="Grupo 106" transform="translate(0 0)">
        <g id="Grupo_46" data-name="Grupo 46" transform="translate(0 0)">
          <g id="Unión_22" data-name="Unión 22" transform="translate(-0.37 -0.064)" fill="#bebbbb">
            <path d="M 6.249879837036133 11.75 L 1.062420010566711 11.75 L 1.062420010566711 8.869640350341797 L 1.062420010566711 8.619640350341797 L 0.8124200105667114 8.619640350341797 L 0.25 8.619640350341797 L 0.25 0.25 L 12.75 0.25 L 12.75 8.619640350341797 L 6.499879837036133 8.619640350341797 L 6.249879837036133 8.619640350341797 L 6.249879837036133 8.869640350341797 L 6.249879837036133 11.75 Z" stroke="none"/>
            <path d="M 5.999879837036133 11.5 L 5.999879837036133 8.869640350341797 L 5.999879837036133 8.369640350341797 L 6.499879837036133 8.369640350341797 L 12.5 8.369640350341797 L 12.5 0.5 L 0.5 0.5 L 0.5 8.369640350341797 L 0.8124200105667114 8.369640350341797 L 1.312420010566711 8.369640350341797 L 1.312420010566711 8.869640350341797 L 1.312420010566711 11.5 L 5.999879837036133 11.5 M 6.499879837036133 12 L 0.8124200105667114 12 L 0.8124200105667114 8.869640350341797 L -8.881784197001252e-16 8.869640350341797 L -8.881784197001252e-16 -8.881784197001252e-16 L 13 -8.881784197001252e-16 L 13 8.869640350341797 L 6.499879837036133 8.869640350341797 L 6.499879837036133 12 Z" stroke="none" fill="#707070"/>
          </g>
        </g>
      </g>
    </g>
    <g id="Grupo_404" data-name="Grupo 404" transform="translate(4992.37 3128.064)">
      <g id="Grupo_106-2" data-name="Grupo 106" transform="translate(0 0)">
        <g id="Grupo_46-2" data-name="Grupo 46" transform="translate(0 0)">
          <g id="Unión_22-2" data-name="Unión 22" transform="translate(-0.37 -0.064)" fill="#bebbbb">
            <path d="M 6.249879837036133 11.75 L 1.062420010566711 11.75 L 1.062420010566711 8.869640350341797 L 1.062420010566711 8.619640350341797 L 0.8124200105667114 8.619640350341797 L 0.25 8.619640350341797 L 0.25 0.25 L 12.75 0.25 L 12.75 8.619640350341797 L 6.499879837036133 8.619640350341797 L 6.249879837036133 8.619640350341797 L 6.249879837036133 8.869640350341797 L 6.249879837036133 11.75 Z" stroke="none"/>
            <path d="M 5.999879837036133 11.5 L 5.999879837036133 8.869640350341797 L 5.999879837036133 8.369640350341797 L 6.499879837036133 8.369640350341797 L 12.5 8.369640350341797 L 12.5 0.5 L 0.5 0.5 L 0.5 8.369640350341797 L 0.8124200105667114 8.369640350341797 L 1.312420010566711 8.369640350341797 L 1.312420010566711 8.869640350341797 L 1.312420010566711 11.5 L 5.999879837036133 11.5 M 6.499879837036133 12 L 0.8124200105667114 12 L 0.8124200105667114 8.869640350341797 L -8.881784197001252e-16 8.869640350341797 L -8.881784197001252e-16 -8.881784197001252e-16 L 13 -8.881784197001252e-16 L 13 8.869640350341797 L 6.499879837036133 8.869640350341797 L 6.499879837036133 12 Z" stroke="none" fill="#707070"/>
          </g>
        </g>
      </g>
    </g>
    <g id="Grupo_407" data-name="Grupo 407" transform="translate(5025.12 3110.756)">
      <path id="Trazado_88" data-name="Trazado 88" d="M1587.865-583.29c-.033.659,8.35-8.452,36.624,0,.933.278,1.851.538,2.846.8,26.5,7.031,41.995-1.94,44.373-5.5,2.46-3.68-9.423,9.023-34.41-2S1587.9-583.95,1587.865-583.29Z" transform="translate(-1587.865 650.778)" fill="#37c837"/>
      <g id="Grupo_60" data-name="Grupo 60" transform="translate(44.591 28.452)">
        <path id="path977-5-8" d="M-51.621,326.65h12.065" transform="translate(57.574 -290.42)" fill="none" stroke="#241f1c" stroke-linecap="round" stroke-linejoin="round" stroke-width="0.4"/>
        <path id="path979-8-6-6-8-5-7-2-3-7" d="M-48.98,337.581l-.082-23.042h2.687l.157,23.023Z" transform="translate(59.885 -301.351)" fill="#784421" stroke="#241f1c" stroke-linecap="round" stroke-linejoin="round" stroke-width="0.4"/>
        <ellipse id="path837-1-2-8-9-4" cx="8.655" cy="8.319" rx="8.655" ry="8.319" transform="translate(0 12.518)" fill="#5fd35f" stroke="rgba(36,31,28,0.99)" stroke-linecap="round" stroke-linejoin="round" stroke-width="0.4"/>
        <ellipse id="ellipse9017" cx="13.233" cy="12.719" rx="13.233" ry="12.719" transform="translate(3.565)" fill="#37c837" stroke="rgba(36,31,28,0.99)" stroke-linecap="round" stroke-linejoin="round" stroke-width="0.4"/>
      </g>
      <g id="Grupo_61" data-name="Grupo 61" transform="translate(9.945 0)">
        <ellipse id="path4729" cx="10.22" cy="9.484" rx="10.22" ry="9.484" transform="translate(7.131 23.248)" fill="#2ca02c" stroke="#241f1c" stroke-linecap="round" stroke-linejoin="round" stroke-width="0.4"/>
        <path id="path979-8-6-6-8-5-7" d="M-13.179,429.623l-.145-40.929h4.773l.279,40.894Z" transform="translate(35.89 -367.797)" fill="#784421" stroke="#241f1c" stroke-linecap="round" stroke-linejoin="round" stroke-width="0.4"/>
        <ellipse id="path4729-7" cx="13.699" cy="12.712" rx="13.699" ry="12.712" transform="translate(0 5.924)" fill="#37c837" stroke="#241f1c" stroke-linecap="round" stroke-linejoin="round" stroke-width="0.4"/>
        <ellipse id="path4729-7-7" cx="13.699" cy="12.712" rx="13.699" ry="12.712" transform="translate(15.797)" fill="#5fd35f" stroke="#241f1c" stroke-linecap="round" stroke-linejoin="round" stroke-width="0.4"/>
        <path id="path977-8-5-8-2-0" d="M-14.931,400.952H.953" transform="translate(32.067 -338.629)" fill="none" stroke="#241f1c" stroke-linecap="round" stroke-linejoin="round" stroke-width="0.4"/>
        <ellipse id="path4729-7-7-7" cx="9.884" cy="9.172" rx="9.884" ry="9.172" transform="translate(27.778 20.781)" fill="#37c837" stroke="#241f1c" stroke-linecap="round" stroke-linejoin="round" stroke-width="0.4"/>
      </g>
    </g>
  </g>
</svg>
