<svg xmlns="http://www.w3.org/2000/svg" width="175" height="210.85" viewBox="0 0 175 210.85">
  <g id="Grupo_402" data-name="Grupo 402" transform="translate(-4968 -3067)">
    <g id="Grupo_341" data-name="Grupo 341" transform="translate(4879 2834)">
      <g id="Grupo_109" data-name="Grupo 109" transform="translate(88.648 233)">
        <g id="Rectángulo_4" data-name="Rectángulo 4" transform="translate(0.352)" fill="#fff" stroke="#000" stroke-width="1">
          <rect width="175" height="175" rx="19" stroke="none"/>
          <rect x="0.5" y="0.5" width="174" height="174" rx="18.5" fill="none"/>
        </g>
      </g>
      <g id="Grupo_259" data-name="Grupo 259" transform="translate(0 -19)">
        <path id="Trazado_93" data-name="Trazado 93" d="M218.453,202.505l-15.917,15.948H179.978L164,202.505V179.948L179.978,164h22.557l15.917,15.948Z" transform="translate(38.988 178.47) rotate(22)" fill="#3f3832"/>
        <text id="_7" data-name="7" transform="translate(143 444)" fill="#fff" font-size="44" font-family="Quicksand" font-weight="700"><tspan x="-12.518" y="0">7</tspan></text>
        <path id="Trazado_95" data-name="Trazado 95" d="M218.453,202.505l-15.917,15.948H179.978L164,202.505V179.948L179.978,164h22.557l15.917,15.948Z" transform="translate(111.988 178.47) rotate(22)" fill="#858666"/>
        <text id="_4" data-name="4" transform="translate(217 444)" fill="#fff" font-size="44" font-family="Quicksand" font-weight="700"><tspan x="-15.576" y="0">4</tspan></text>
      </g>
    </g>
    <path id="Polígono_3" data-name="Polígono 3" d="M3.5,0,7,6H0Z" transform="translate(4987.5 3159.5) rotate(90)"/>
    <g id="Grupo_394" data-name="Grupo 394" transform="translate(5032.046 3128)">
      <path id="Trazado_7" data-name="Trazado 7" d="M221.681-380.964l-9.687-39.07,67.857,20.271-9.289,17.851Z" transform="translate(-211.995 420.035)" fill="#8dd1e4"/>
      <g id="Grupo_5" data-name="Grupo 5" transform="translate(27.692 21.984)">
        <ellipse id="Elipse_10" data-name="Elipse 10" cx="22" cy="8" rx="22" ry="8" transform="translate(0.262 6.015)" fill="#388caf"/>
        <ellipse id="Elipse_11" data-name="Elipse 11" cx="22" cy="8" rx="22" ry="8" transform="translate(0.262 6.015)" fill="#5abce6"/>
        <g id="Elipse_12" data-name="Elipse 12" transform="translate(0.262 6.015)" fill="none" stroke="#b4d6c8" stroke-width="0.4">
          <ellipse cx="22" cy="8" rx="22" ry="8" stroke="none"/>
          <ellipse cx="22" cy="8" rx="21.8" ry="7.8" fill="none"/>
        </g>
        <path id="Trazado_4" data-name="Trazado 4" d="M249.153-378.974V-393.7" transform="translate(-239.034 396.512)" fill="none" stroke="#75c3e4" stroke-width="0.4"/>
        <line id="Línea_2" data-name="Línea 2" x2="6.591" transform="translate(10.446 12.982)" fill="none" stroke="#75c3e4" stroke-width="0.4"/>
        <line id="Línea_3" data-name="Línea 3" y1="14.111" transform="translate(17.037 3)" fill="none" stroke="#75c3e4" stroke-width="0.4"/>
        <line id="Línea_4" data-name="Línea 4" x2="6.591" transform="translate(10.446 9.044)" fill="none" stroke="#75c3e4" stroke-width="0.4"/>
        <line id="Línea_5" data-name="Línea 5" y1="4.708" transform="translate(5.738 3)" fill="none" stroke="#388caf" stroke-width="0.4"/>
        <line id="Línea_6" data-name="Línea 6" y1="4.708" transform="translate(12.329 2.058)" fill="none" stroke="#388caf" stroke-width="0.4"/>
        <path id="Trazado_5" data-name="Trazado 5" d="M244.508-393.747v.12l.073-.923a2.315,2.315,0,0,1,2.09-1.135,2.136,2.136,0,0,1,2.211,2.058" transform="translate(-238.762 396.628)" fill="none" stroke="#75c3e4" stroke-width="0.4"/>
        <path id="Trazado_6" data-name="Trazado 6" d="M244.5-393.82v.186a1.288,1.288,0,0,1,.144-.768,2.316,2.316,0,0,1,2.069-1.284c1.255,0,2.257,1.042,2.462,2.636.029.06.06.981.06.981" transform="translate(-232.17 395.686)" fill="none" stroke="#75c3e4" stroke-width="0.4"/>
      </g>
      <g id="Grupo_14" data-name="Grupo 14" transform="translate(13.356 12.03)">
        <path id="Unión_2" data-name="Unión 2" d="M18.157,26.339H6.615c.763-1,2.666-1.7,4.887-1.853L10.45,9.429a4.952,4.952,0,0,0-4.831,1.219l.005.056-.031-.023-.033.043-.008-.073C4.019,9.59.986,10.044.01,11.747-.237,6.2,4.23,1.23,10.442.027L10.491,0l.058.018c6.1-.109,11.512,3.635,12.518,8.915-1.29-1.258-4.369-1.3-5.553.243,0,.027.006.054.009.081-1.394-1.076-4.893-.856-6.1.582l1.022,14.616c2.565.011,4.856.764,5.713,1.881l0,0ZM11.421,9.82c0-.014,0-.02,0-.02Z" transform="translate(1.096 1.21)" fill="none" stroke="#b4d6c8" stroke-width="0.4"/>
        <rect id="Rectángulo_19" data-name="Rectángulo 19" width="0.942" height="16.948" transform="matrix(0.998, -0.07, 0.07, 0.998, 11.481, 9.712)" fill="#85afbe"/>
        <path id="Sustracción_1" data-name="Sustracción 1" d="M11.544,1.883H0C.863.756,3.183,0,5.773,0s4.907.756,5.771,1.881Z" transform="translate(7.711 25.665)" fill="#3289ad"/>
        <g id="Grupo_12" data-name="Grupo 12" transform="matrix(0.995, -0.105, 0.105, 0.995, 0, 2.428)">
          <path id="Trazado_28" data-name="Trazado 28" d="M11.674,0C5.335.52.334,5.012,0,10.572c1.167-1.617,4.31-1.729,5.692-.45A10.936,10.936,0,0,1,11.674,0Z" transform="translate(0 0.015)" fill="#388caf"/>
          <path id="Trazado_29" data-name="Trazado 29" d="M2.827,1.9A10.8,10.8,0,0,1,6.018,9.849c1.336-1.423,4.4-1.058,5.556.331C11.124,4.806,6.1.507,0,0A11.437,11.437,0,0,1,2.827,1.9Z" transform="translate(11.652 0.02)" fill="#388caf"/>
          <path id="Trazado_30" data-name="Trazado 30" d="M12.053,9.942A10.877,10.877,0,0,0,9.147,2.185,9.815,9.815,0,0,0,6.027,0,9.606,9.606,0,0,0,2.906,2.185,10.953,10.953,0,0,0,0,10.15c1.323-1.427,4.579-1.508,5.864-.208-.015.5-.038.144,0,0s.124-.131,0,0C7.172,8.575,10.76,8.709,12.053,9.942Z" transform="translate(5.625 0)" fill="#d9eff7"/>
        </g>
      </g>
    </g>
    <path id="Polígono_17" data-name="Polígono 17" d="M3.5,0,7,6H0Z" transform="translate(4987.5 3129.5) rotate(90)"/>
    <g id="Grupo_403" data-name="Grupo 403" transform="translate(4992.37 3158.064)">
      <g id="Grupo_106" data-name="Grupo 106" transform="translate(0 0)">
        <g id="Grupo_46" data-name="Grupo 46" transform="translate(0 0)">
          <g id="Unión_22" data-name="Unión 22" transform="translate(-0.37 -0.064)" fill="#bebbbb">
            <path d="M 6.249879837036133 11.75 L 1.062420010566711 11.75 L 1.062420010566711 8.869640350341797 L 1.062420010566711 8.619640350341797 L 0.8124200105667114 8.619640350341797 L 0.25 8.619640350341797 L 0.25 0.25 L 12.75 0.25 L 12.75 8.619640350341797 L 6.499879837036133 8.619640350341797 L 6.249879837036133 8.619640350341797 L 6.249879837036133 8.869640350341797 L 6.249879837036133 11.75 Z" stroke="none"/>
            <path d="M 5.999879837036133 11.5 L 5.999879837036133 8.869640350341797 L 5.999879837036133 8.369640350341797 L 6.499879837036133 8.369640350341797 L 12.5 8.369640350341797 L 12.5 0.5 L 0.5 0.5 L 0.5 8.369640350341797 L 0.8124200105667114 8.369640350341797 L 1.312420010566711 8.369640350341797 L 1.312420010566711 8.869640350341797 L 1.312420010566711 11.5 L 5.999879837036133 11.5 M 6.499879837036133 12 L 0.8124200105667114 12 L 0.8124200105667114 8.869640350341797 L -8.881784197001252e-16 8.869640350341797 L -8.881784197001252e-16 -8.881784197001252e-16 L 13 -8.881784197001252e-16 L 13 8.869640350341797 L 6.499879837036133 8.869640350341797 L 6.499879837036133 12 Z" stroke="none" fill="#707070"/>
          </g>
        </g>
      </g>
    </g>
    <g id="Grupo_404" data-name="Grupo 404" transform="translate(4992.37 3128.064)">
      <g id="Grupo_106-2" data-name="Grupo 106" transform="translate(0 0)">
        <g id="Grupo_46-2" data-name="Grupo 46" transform="translate(0 0)">
          <g id="Unión_22-2" data-name="Unión 22" transform="translate(-0.37 -0.064)" fill="#bebbbb">
            <path d="M 6.249879837036133 11.75 L 1.062420010566711 11.75 L 1.062420010566711 8.869640350341797 L 1.062420010566711 8.619640350341797 L 0.8124200105667114 8.619640350341797 L 0.25 8.619640350341797 L 0.25 0.25 L 12.75 0.25 L 12.75 8.619640350341797 L 6.499879837036133 8.619640350341797 L 6.249879837036133 8.619640350341797 L 6.249879837036133 8.869640350341797 L 6.249879837036133 11.75 Z" stroke="none"/>
            <path d="M 5.999879837036133 11.5 L 5.999879837036133 8.869640350341797 L 5.999879837036133 8.369640350341797 L 6.499879837036133 8.369640350341797 L 12.5 8.369640350341797 L 12.5 0.5 L 0.5 0.5 L 0.5 8.369640350341797 L 0.8124200105667114 8.369640350341797 L 1.312420010566711 8.369640350341797 L 1.312420010566711 8.869640350341797 L 1.312420010566711 11.5 L 5.999879837036133 11.5 M 6.499879837036133 12 L 0.8124200105667114 12 L 0.8124200105667114 8.869640350341797 L -8.881784197001252e-16 8.869640350341797 L -8.881784197001252e-16 -8.881784197001252e-16 L 13 -8.881784197001252e-16 L 13 8.869640350341797 L 6.499879837036133 8.869640350341797 L 6.499879837036133 12 Z" stroke="none" fill="#707070"/>
          </g>
        </g>
      </g>
    </g>
  </g>
</svg>
