<svg xmlns="http://www.w3.org/2000/svg" width="175" height="211.501" viewBox="0 0 175 211.501">
  <g id="Grupo_401" data-name="Grupo 401" transform="translate(-88.687 -233)">
    <g id="Grupo_109" data-name="Grupo 109" transform="translate(88.334 233)">
      <g id="Rectángulo_4" data-name="Rectángulo 4" transform="translate(0.352)" fill="#fff" stroke="#000" stroke-width="1">
        <rect width="175" height="175" rx="19" stroke="none"/>
        <rect x="0.5" y="0.5" width="174" height="174" rx="18.5" fill="none"/>
      </g>
    </g>
    <g id="Grupo_259" data-name="Grupo 259" transform="translate(0 -19)">
      <path id="Trazado_93" data-name="Trazado 93" d="M218.453,202.505l-15.917,15.948H179.978L164,202.505V179.948L179.978,164h22.557l15.917,15.948Z" transform="translate(38.988 178.47) rotate(22)" fill="#fff" stroke="#f0f0f0" stroke-width="1"/>
      <text id="_9" data-name="9" transform="translate(143 444)" fill="#f0f0f0" font-size="44" font-family="Quicksand" font-weight="700"><tspan x="-12.056" y="0">9</tspan></text>
      <path id="Trazado_95" data-name="Trazado 95" d="M218.453,202.505l-15.917,15.948H179.978L164,202.505V179.948L179.978,164h22.557l15.917,15.948Z" transform="translate(111.988 178.47) rotate(22)" fill="#858666"/>
      <text id="_5" data-name="5" transform="translate(217 444)" fill="#fff" font-size="44" font-family="Quicksand" font-weight="700"><tspan x="-12.738" y="0">5</tspan></text>
    </g>
    <g id="Grupo_397" data-name="Grupo 397" transform="translate(97 321)">
      <g id="Grupo_46" data-name="Grupo 46" transform="translate(0 0.784)">
        <g id="Unión_22" data-name="Unión 22" transform="translate(0 0.216)" fill="#fff">
          <path d="M 19.99962043762207 37.5 L 3.062259912490845 37.5 L 3.062259912490845 28.08717918395996 L 3.062259912490845 27.58717918395996 L 2.562259912490845 27.58717918395996 L 0.5 27.58717918395996 L 0.5 0.5 L 40.5 0.5 L 40.5 27.58717918395996 L 20.49962043762207 27.58717918395996 L 19.99962043762207 27.58717918395996 L 19.99962043762207 28.08717918395996 L 19.99962043762207 37.5 Z" stroke="none"/>
          <path d="M 19.49962043762207 37 L 19.49962043762207 28.08717918395996 L 19.49962043762207 27.08717918395996 L 20.49962043762207 27.08717918395996 L 40 27.08717918395996 L 40 1 L 1 1 L 1 27.08717918395996 L 2.562259912490845 27.08717918395996 L 3.562259912490845 27.08717918395996 L 3.562259912490845 28.08717918395996 L 3.562259912490845 37 L 19.49962043762207 37 M 20.49962043762207 38 L 2.562259912490845 38 L 2.562259912490845 28.08717918395996 L 0 28.08717918395996 L 0 0 L 41 0 L 41 28.08717918395996 L 20.49962043762207 28.08717918395996 L 20.49962043762207 38 Z" stroke="none" fill="#707070"/>
        </g>
      </g>
      <text id="_1" data-name="1" transform="translate(20 24)" font-size="25" font-family="Quicksand-Regular, Quicksand"><tspan x="-4.188" y="0">1</tspan></text>
    </g>
    <g id="Grupo_398" data-name="Grupo 398" transform="translate(155.824 321)">
      <g id="Grupo_46-2" data-name="Grupo 46" transform="translate(0 0.784)">
        <g id="Unión_22-2" data-name="Unión 22" transform="translate(0.176 0.216)" fill="#fff">
          <path d="M 19.99962043762207 37.5 L 3.062259912490845 37.5 L 3.062259912490845 28.08717918395996 L 3.062259912490845 27.58717918395996 L 2.562259912490845 27.58717918395996 L 0.5 27.58717918395996 L 0.5 0.5 L 40.5 0.5 L 40.5 27.58717918395996 L 20.49962043762207 27.58717918395996 L 19.99962043762207 27.58717918395996 L 19.99962043762207 28.08717918395996 L 19.99962043762207 37.5 Z" stroke="none"/>
          <path d="M 19.49962043762207 37 L 19.49962043762207 28.08717918395996 L 19.49962043762207 27.08717918395996 L 20.49962043762207 27.08717918395996 L 40 27.08717918395996 L 40 1 L 1 1 L 1 27.08717918395996 L 2.562259912490845 27.08717918395996 L 3.562259912490845 27.08717918395996 L 3.562259912490845 28.08717918395996 L 3.562259912490845 37 L 19.49962043762207 37 M 20.49962043762207 38 L 2.562259912490845 38 L 2.562259912490845 28.08717918395996 L 0 28.08717918395996 L 0 0 L 41 0 L 41 28.08717918395996 L 20.49962043762207 28.08717918395996 L 20.49962043762207 38 Z" stroke="none" fill="#707070"/>
        </g>
      </g>
      <text id="_1-2" data-name="1" transform="translate(20.176 24)" font-size="25" font-family="Quicksand-Regular, Quicksand"><tspan x="-4.188" y="0">1</tspan></text>
    </g>
    <g id="Grupo_399" data-name="Grupo 399" transform="translate(214.824 321)">
      <g id="Grupo_46-3" data-name="Grupo 46" transform="translate(0 0.784)">
        <g id="Unión_22-3" data-name="Unión 22" transform="translate(0.176 0.216)" fill="#fff">
          <path d="M 19.99962043762207 37.5 L 3.062259912490845 37.5 L 3.062259912490845 28.08717918395996 L 3.062259912490845 27.58717918395996 L 2.562259912490845 27.58717918395996 L 0.5 27.58717918395996 L 0.5 0.5 L 40.5 0.5 L 40.5 27.58717918395996 L 20.49962043762207 27.58717918395996 L 19.99962043762207 27.58717918395996 L 19.99962043762207 28.08717918395996 L 19.99962043762207 37.5 Z" stroke="none"/>
          <path d="M 19.49962043762207 37 L 19.49962043762207 28.08717918395996 L 19.49962043762207 27.08717918395996 L 20.49962043762207 27.08717918395996 L 40 27.08717918395996 L 40 1 L 1 1 L 1 27.08717918395996 L 2.562259912490845 27.08717918395996 L 3.562259912490845 27.08717918395996 L 3.562259912490845 28.08717918395996 L 3.562259912490845 37 L 19.49962043762207 37 M 20.49962043762207 38 L 2.562259912490845 38 L 2.562259912490845 28.08717918395996 L 0 28.08717918395996 L 0 0 L 41 0 L 41 28.08717918395996 L 20.49962043762207 28.08717918395996 L 20.49962043762207 38 Z" stroke="none" fill="#707070"/>
        </g>
      </g>
      <text id="_1-3" data-name="1" transform="translate(20.176 24)" font-size="25" font-family="Quicksand-Regular, Quicksand"><tspan x="-4.188" y="0">1</tspan></text>
    </g>
    <g id="Grupo_400" data-name="Grupo 400" transform="translate(155.824 251)">
      <g id="Grupo_46-4" data-name="Grupo 46" transform="translate(0 0.784)">
        <g id="Unión_22-4" data-name="Unión 22" transform="translate(0.176 0.216)" fill="#fff">
          <path d="M 19.99962043762207 37.5 L 3.062259912490845 37.5 L 3.062259912490845 28.08717918395996 L 3.062259912490845 27.58717918395996 L 2.562259912490845 27.58717918395996 L 0.5 27.58717918395996 L 0.5 0.5 L 40.5 0.5 L 40.5 27.58717918395996 L 20.49962043762207 27.58717918395996 L 19.99962043762207 27.58717918395996 L 19.99962043762207 28.08717918395996 L 19.99962043762207 37.5 Z" stroke="none"/>
          <path d="M 19.49962043762207 37 L 19.49962043762207 28.08717918395996 L 19.49962043762207 27.08717918395996 L 20.49962043762207 27.08717918395996 L 40 27.08717918395996 L 40 1 L 1 1 L 1 27.08717918395996 L 2.562259912490845 27.08717918395996 L 3.562259912490845 27.08717918395996 L 3.562259912490845 28.08717918395996 L 3.562259912490845 37 L 19.49962043762207 37 M 20.49962043762207 38 L 2.562259912490845 38 L 2.562259912490845 28.08717918395996 L 0 28.08717918395996 L 0 0 L 41 0 L 41 28.08717918395996 L 20.49962043762207 28.08717918395996 L 20.49962043762207 38 Z" stroke="none" fill="#707070"/>
        </g>
      </g>
      <text id="_4" data-name="4" transform="translate(20.176 24)" font-size="25" font-family="Quicksand-Regular, Quicksand"><tspan x="-8.3" y="0">4</tspan></text>
    </g>
  </g>
</svg>
