<svg xmlns="http://www.w3.org/2000/svg" width="175" height="211.501" viewBox="0 0 175 211.501">
  <defs>
    <style>
      .cls-1, .cls-2, .cls-5, .cls-7 {
        fill: #fff;
      }

      .cls-1 {
        stroke: #000;
      }

      .cls-2 {
        stroke: #f0f0f0;
      }

      .cls-3 {
        fill: #f0f0f0;
      }

      .cls-4 {
        fill: #858666;
      }

      .cls-6 {
        fill: #bebbbb;
      }

      .cls-12, .cls-14, .cls-8 {
        fill: #37c837;
      }

      .cls-19, .cls-20, .cls-21, .cls-26, .cls-9 {
        fill: none;
      }

      .cls-10, .cls-13, .cls-14, .cls-15, .cls-9 {
        stroke: #241f1c;
      }

      .cls-10, .cls-11, .cls-12, .cls-13, .cls-14, .cls-15, .cls-9 {
        stroke-linecap: round;
        stroke-linejoin: round;
      }

      .cls-10, .cls-11, .cls-12, .cls-13, .cls-14, .cls-15, .cls-19, .cls-20, .cls-21, .cls-9 {
        stroke-width: 0.4px;
      }

      .cls-10 {
        fill: #784421;
      }

      .cls-11, .cls-15 {
        fill: #5fd35f;
      }

      .cls-11, .cls-12 {
        stroke: rgba(36,31,28,0.99);
      }

      .cls-13 {
        fill: #2ca02c;
      }

      .cls-16 {
        fill: #8dd1e4;
      }

      .cls-17 {
        fill: #388caf;
      }

      .cls-18 {
        fill: #5abce6;
      }

      .cls-19 {
        stroke: #b4d6c8;
      }

      .cls-20 {
        stroke: #75c3e4;
      }

      .cls-21 {
        stroke: #388caf;
      }

      .cls-22 {
        fill: #85afbe;
      }

      .cls-23 {
        fill: #3289ad;
      }

      .cls-24 {
        fill: #d9eff7;
      }

      .cls-25, .cls-27 {
        stroke: none;
      }

      .cls-27 {
        fill: #707070;
      }
    </style>
  </defs>
  <g id="M_2_1_F" transform="translate(-4968 -3067)">
    <g id="Grupo_341" data-name="Grupo 341" transform="translate(4879 2834)">
      <g id="Grupo_109" data-name="Grupo 109" transform="translate(88.648 233)">
        <g id="Rectángulo_4" data-name="Rectángulo 4" class="cls-1" transform="translate(0.352)">
          <rect class="cls-25" width="175" height="175" rx="19"/>
          <rect class="cls-26" x="0.5" y="0.5" width="174" height="174" rx="18.5"/>
        </g>
      </g>
      <g id="Grupo_259" data-name="Grupo 259" transform="translate(0 -19)">
        <path id="Trazado_93" data-name="Trazado 93" class="cls-2" d="M218.453,202.505l-15.917,15.948H179.978L164,202.505V179.948L179.978,164h22.557l15.917,15.948Z" transform="translate(38.988 178.47) rotate(22)"/>
        <path id="Trazado_386" data-name="Trazado 386" class="cls-3" d="M4.928-15.62,4.84-16.632a10.055,10.055,0,0,1,2.9,1.936,8.786,8.786,0,0,1,1.892,2.6,6.77,6.77,0,0,1,.66,2.9A8.146,8.146,0,0,1,8.91-4.6,10.124,10.124,0,0,1,5.192-1.254,10.786,10.786,0,0,1,0,0,10.786,10.786,0,0,1-5.192-1.254,10.124,10.124,0,0,1-8.91-4.6,8.146,8.146,0,0,1-10.3-9.2a6.833,6.833,0,0,1,.858-3.5A8.6,8.6,0,0,1-7.282-15.18a16.649,16.649,0,0,1,2.574-1.672L-5.06-15.62a8.646,8.646,0,0,1-2.134-1.254,6.293,6.293,0,0,1-1.694-2.09,6.428,6.428,0,0,1-.66-2.992,8.136,8.136,0,0,1,1.276-4.466,9.285,9.285,0,0,1,3.454-3.19A9.9,9.9,0,0,1,0-30.8a9.735,9.735,0,0,1,4.818,1.188,9.381,9.381,0,0,1,3.41,3.19A8.136,8.136,0,0,1,9.5-21.956a6.176,6.176,0,0,1-.748,3.168,6.389,6.389,0,0,1-1.8,2.024A10.274,10.274,0,0,1,4.928-15.62Zm-9.2-6.248a4.049,4.049,0,0,0,.55,2.112A4.07,4.07,0,0,0-2.2-18.282a4.374,4.374,0,0,0,2.2.55,4.254,4.254,0,0,0,2.178-.55,4.119,4.119,0,0,0,1.5-1.474,4.049,4.049,0,0,0,.55-2.112,3.894,3.894,0,0,0-1.21-2.926A4.172,4.172,0,0,0,0-25.96a4.229,4.229,0,0,0-3.058,1.166A3.894,3.894,0,0,0-4.268-21.868ZM0-4.84a5.155,5.155,0,0,0,3.564-1.3A4.068,4.068,0,0,0,5.016-9.284a4.1,4.1,0,0,0-.66-2.288,4.678,4.678,0,0,0-1.8-1.606A5.454,5.454,0,0,0,0-13.772a5.454,5.454,0,0,0-2.552.594,4.678,4.678,0,0,0-1.8,1.606,4.1,4.1,0,0,0-.66,2.288A4.068,4.068,0,0,0-3.564-6.138,5.155,5.155,0,0,0,0-4.84Z" transform="translate(143 444)"/>
        <path id="Trazado_95" data-name="Trazado 95" class="cls-4" d="M218.453,202.505l-15.917,15.948H179.978L164,202.505V179.948L179.978,164h22.557l15.917,15.948Z" transform="translate(111.988 178.47) rotate(22)"/>
        <path id="Trazado_387" data-name="Trazado 387" class="cls-5" d="M-7-6.2a3.136,3.136,0,0,1,.858.132A3.633,3.633,0,0,1-5.1-5.544,8.218,8.218,0,0,0-3.322-4.532a6.083,6.083,0,0,0,2.4.44A5.161,5.161,0,0,0,1.65-4.774a5.612,5.612,0,0,0,2-1.936,5.529,5.529,0,0,0,.792-3.014A5.177,5.177,0,0,0,3.762-12.5a4.493,4.493,0,0,0-1.8-1.672,5.206,5.206,0,0,0-2.4-.572,6.159,6.159,0,0,0-1.606.176q-.638.176-1.232.374a4.388,4.388,0,0,1-1.386.2,1.866,1.866,0,0,1-1.562-.7,2.635,2.635,0,0,1-.55-1.672,2.427,2.427,0,0,1,.242-1.1,5.472,5.472,0,0,1,.726-1.056l7.744-8.448L3.124-25.96H-7.7a2.388,2.388,0,0,1-1.76-.7,2.388,2.388,0,0,1-.7-1.76,2.263,2.263,0,0,1,.7-1.694A2.429,2.429,0,0,1-7.7-30.8H5.764a2.632,2.632,0,0,1,2.046.748,2.7,2.7,0,0,1,.682,1.892,2.279,2.279,0,0,1-.286,1.1,4.407,4.407,0,0,1-.77,1.012l-7.788,8.58-1.188-1.5A6.53,6.53,0,0,1-.2-19.36a7.362,7.362,0,0,1,1.43-.176,7.655,7.655,0,0,1,4.51,1.342A8.925,8.925,0,0,1,8.69-14.718a10.405,10.405,0,0,1,1.034,4.6A10.589,10.589,0,0,1,8.272-4.488,9.532,9.532,0,0,1,4.18-.836,14,14,0,0,1-1.98.44a13.194,13.194,0,0,1-3.212-.4A10.584,10.584,0,0,1-7.92-1.012a3.021,3.021,0,0,1-1.3-1.166,2.641,2.641,0,0,1-.33-1.21A3,3,0,0,1-8.822-5.3,2.25,2.25,0,0,1-7-6.2Z" transform="translate(217 444)"/>
      </g>
      <g id="Grupo_352" data-name="Grupo 352" transform="translate(113.37 315.064)">
        <g id="Grupo_106" data-name="Grupo 106" transform="translate(0 0)">
          <g id="Grupo_46" data-name="Grupo 46" transform="translate(0 0)">
            <g id="Unión_22" data-name="Unión 22" class="cls-6" transform="translate(-0.37 -0.064)">
              <path class="cls-25" d="M 6.249879837036133 11.75 L 1.062420010566711 11.75 L 1.062420010566711 8.869640350341797 L 1.062420010566711 8.619640350341797 L 0.8124200105667114 8.619640350341797 L 0.25 8.619640350341797 L 0.25 0.25 L 12.75 0.25 L 12.75 8.619640350341797 L 6.499879837036133 8.619640350341797 L 6.249879837036133 8.619640350341797 L 6.249879837036133 8.869640350341797 L 6.249879837036133 11.75 Z"/>
              <path class="cls-27" d="M 5.999879837036133 11.5 L 5.999879837036133 8.869640350341797 L 5.999879837036133 8.369640350341797 L 6.499879837036133 8.369640350341797 L 12.5 8.369640350341797 L 12.5 0.5 L 0.5 0.5 L 0.5 8.369640350341797 L 0.8124200105667114 8.369640350341797 L 1.312420010566711 8.369640350341797 L 1.312420010566711 8.869640350341797 L 1.312420010566711 11.5 L 5.999879837036133 11.5 M 6.499879837036133 12 L 0.8124200105667114 12 L 0.8124200105667114 8.869640350341797 L -8.881784197001252e-16 8.869640350341797 L -8.881784197001252e-16 -8.881784197001252e-16 L 13 -8.881784197001252e-16 L 13 8.869640350341797 L 6.499879837036133 8.869640350341797 L 6.499879837036133 12 Z"/>
            </g>
          </g>
        </g>
      </g>
      <g id="Grupo_391" data-name="Grupo 391" transform="translate(113.37 285.064)">
        <g id="Grupo_106-2" data-name="Grupo 106" transform="translate(0 0)">
          <g id="Grupo_46-2" data-name="Grupo 46" transform="translate(0 0)">
            <g id="Unión_22-2" data-name="Unión 22" class="cls-7" transform="translate(-0.37 -0.064)">
              <path class="cls-25" d="M 6.249879837036133 11.75 L 1.062420010566711 11.75 L 1.062420010566711 8.869640350341797 L 1.062420010566711 8.619640350341797 L 0.8124200105667114 8.619640350341797 L 0.25 8.619640350341797 L 0.25 0.25 L 12.75 0.25 L 12.75 8.619640350341797 L 6.499879837036133 8.619640350341797 L 6.249879837036133 8.619640350341797 L 6.249879837036133 8.869640350341797 L 6.249879837036133 11.75 Z"/>
              <path class="cls-27" d="M 5.999879837036133 11.5 L 5.999879837036133 8.869640350341797 L 5.999879837036133 8.369640350341797 L 6.499879837036133 8.369640350341797 L 12.5 8.369640350341797 L 12.5 0.5 L 0.5 0.5 L 0.5 8.369640350341797 L 0.8124200105667114 8.369640350341797 L 1.312420010566711 8.369640350341797 L 1.312420010566711 8.869640350341797 L 1.312420010566711 11.5 L 5.999879837036133 11.5 M 6.499879837036133 12 L 0.8124200105667114 12 L 0.8124200105667114 8.869640350341797 L -8.881784197001252e-16 8.869640350341797 L -8.881784197001252e-16 -8.881784197001252e-16 L 13 -8.881784197001252e-16 L 13 8.869640350341797 L 6.499879837036133 8.869640350341797 L 6.499879837036133 12 Z"/>
            </g>
          </g>
        </g>
      </g>
      <g id="Grupo_392" data-name="Grupo 392" transform="translate(113.37 345.064)">
        <g id="Grupo_106-3" data-name="Grupo 106" transform="translate(0 0)">
          <g id="Grupo_46-3" data-name="Grupo 46" transform="translate(0 0)">
            <g id="Unión_22-3" data-name="Unión 22" class="cls-7" transform="translate(-0.37 -0.064)">
              <path class="cls-25" d="M 6.249879837036133 11.75 L 1.062420010566711 11.75 L 1.062420010566711 8.869640350341797 L 1.062420010566711 8.619640350341797 L 0.8124200105667114 8.619640350341797 L 0.25 8.619640350341797 L 0.25 0.25 L 12.75 0.25 L 12.75 8.619640350341797 L 6.499879837036133 8.619640350341797 L 6.249879837036133 8.619640350341797 L 6.249879837036133 8.869640350341797 L 6.249879837036133 11.75 Z"/>
              <path class="cls-27" d="M 5.999879837036133 11.5 L 5.999879837036133 8.869640350341797 L 5.999879837036133 8.369640350341797 L 6.499879837036133 8.369640350341797 L 12.5 8.369640350341797 L 12.5 0.5 L 0.5 0.5 L 0.5 8.369640350341797 L 0.8124200105667114 8.369640350341797 L 1.312420010566711 8.369640350341797 L 1.312420010566711 8.869640350341797 L 1.312420010566711 11.5 L 5.999879837036133 11.5 M 6.499879837036133 12 L 0.8124200105667114 12 L 0.8124200105667114 8.869640350341797 L -8.881784197001252e-16 8.869640350341797 L -8.881784197001252e-16 -8.881784197001252e-16 L 13 -8.881784197001252e-16 L 13 8.869640350341797 L 6.499879837036133 8.869640350341797 L 6.499879837036133 12 Z"/>
            </g>
          </g>
        </g>
      </g>
    </g>
    <path id="Polígono_3" data-name="Polígono 3" d="M3.5,0,7,6H0Z" transform="translate(4987.5 3150.5) rotate(90)"/>
    <g id="Grupo_393" data-name="Grupo 393" transform="translate(5036.074 3154.883)">
      <path id="Trazado_88" data-name="Trazado 88" class="cls-8" d="M1587.865-587.729c-.019.378,4.787-4.846,21,0,.535.159,1.061.308,1.632.46,15.192,4.031,24.077-1.113,25.44-3.154,1.411-2.11-5.4,5.173-19.729-1.149S1587.884-588.107,1587.865-587.729Z" transform="translate(-1587.865 626.422)"/>
      <g id="Grupo_60" data-name="Grupo 60" transform="translate(25.566 16.312)">
        <path id="path977-5-8" class="cls-9" d="M-51.621,326.65H-44.7" transform="translate(55.034 -305.878)"/>
        <path id="path979-8-6-6-8-5-7-2-3-7" class="cls-10" d="M-49.015,327.75l-.047-13.211h1.541l.09,13.2Z" transform="translate(55.267 -306.978)"/>
        <ellipse id="path837-1-2-8-9-4" class="cls-11" cx="4.962" cy="4.769" rx="4.962" ry="4.769" transform="translate(0 7.177)"/>
        <ellipse id="ellipse9017" class="cls-12" cx="7.587" cy="7.292" rx="7.587" ry="7.292" transform="translate(2.044)"/>
      </g>
      <g id="Grupo_61" data-name="Grupo 61" transform="translate(5.702 0)">
        <ellipse id="path4729" class="cls-13" cx="5.86" cy="5.437" rx="5.86" ry="5.437" transform="translate(4.089 13.329)"/>
        <path id="path979-8-6-6-8-5-7" class="cls-10" d="M-13.241,412.16l-.083-23.466h2.737l.16,23.446Z" transform="translate(26.262 -376.713)"/>
        <ellipse id="path4729-7" class="cls-14" cx="7.854" cy="7.288" rx="7.854" ry="7.288" transform="translate(0 3.396)"/>
        <ellipse id="path4729-7-7" class="cls-15" cx="7.854" cy="7.288" rx="7.854" ry="7.288" transform="translate(9.057)"/>
        <path id="path977-8-5-8-2-0" class="cls-9" d="M-14.931,400.952h9.107" transform="translate(24.756 -365.22)"/>
        <ellipse id="path4729-7-7-7" class="cls-14" cx="5.667" cy="5.258" rx="5.667" ry="5.258" transform="translate(15.926 11.914)"/>
      </g>
    </g>
    <g id="Grupo_394" data-name="Grupo 394" transform="translate(5037.046 3105)">
      <path id="Trazado_7" data-name="Trazado 7" class="cls-16" d="M218.625-393.293l-6.63-26.742,46.444,13.874-6.358,12.218Z" transform="translate(-211.995 420.035)"/>
      <g id="Grupo_5" data-name="Grupo 5" transform="translate(19.339 15.047)">
        <ellipse id="Elipse_10" data-name="Elipse 10" class="cls-17" cx="15" cy="5.5" rx="15" ry="5.5" transform="translate(-0.386 3.953)"/>
        <ellipse id="Elipse_11" data-name="Elipse 11" class="cls-18" cx="15" cy="5.5" rx="15" ry="5.5" transform="translate(-0.386 3.953)"/>
        <g id="Elipse_12" data-name="Elipse 12" class="cls-19" transform="translate(-0.386 3.953)">
          <ellipse class="cls-25" cx="15" cy="5.5" rx="15" ry="5.5"/>
          <ellipse class="cls-26" cx="15" cy="5.5" rx="14.8" ry="5.3"/>
        </g>
        <path id="Trazado_4" data-name="Trazado 4" class="cls-20" d="M249.153-383.622V-393.7" transform="translate(-242.613 395.626)"/>
        <line id="Línea_2" data-name="Línea 2" class="cls-20" x2="4.511" transform="translate(6.764 8.885)"/>
        <line id="Línea_3" data-name="Línea 3" class="cls-20" y1="9.658" transform="translate(11.275 2.053)"/>
        <line id="Línea_4" data-name="Línea 4" class="cls-20" x2="4.511" transform="translate(6.764 6.19)"/>
        <line id="Línea_5" data-name="Línea 5" class="cls-21" y1="3.222" transform="translate(3.542 2.053)"/>
        <line id="Línea_6" data-name="Línea 6" class="cls-21" y1="3.222" transform="translate(8.053 1.409)"/>
        <path id="Trazado_5" data-name="Trazado 5" class="cls-20" d="M244.508-394.359v.082l.05-.632a1.584,1.584,0,0,1,1.431-.777,1.462,1.462,0,0,1,1.513,1.409" transform="translate(-240.961 396.33)"/>
        <path id="Trazado_6" data-name="Trazado 6" class="cls-20" d="M244.5-394.409v.127a.882.882,0,0,1,.1-.525,1.585,1.585,0,0,1,1.416-.879,1.828,1.828,0,0,1,1.685,1.8c.02.041.041.672.041.672" transform="translate(-236.443 395.686)"/>
      </g>
      <g id="Grupo_14" data-name="Grupo 14" transform="translate(9.141 8.234)">
        <path id="Unión_2" data-name="Unión 2" class="cls-19" d="M12.428,18.027h-7.9a4.828,4.828,0,0,1,3.345-1.268l-.721-10.3a3.388,3.388,0,0,0-3.306.834c0,.014,0,.026,0,.039L3.829,7.31l-.023.031L3.8,7.29a2.944,2.944,0,0,0-3.793.75C-.162,4.246,2.9.842,7.15.017L7.181,0l.04.013C11.4-.062,15.1,2.5,15.79,6.115a2.872,2.872,0,0,0-3.8.167c0,.018,0,.037.006.055a3.728,3.728,0,0,0-4.177.4l.7,10c1.756.007,3.325.523,3.911,1.288h0ZM7.817,6.72c0-.008,0-.013,0-.013Z" transform="translate(0.75 0.828)"/>
        <rect id="Rectángulo_19" data-name="Rectángulo 19" class="cls-22" width="0.644" height="11.6" transform="matrix(0.998, -0.07, 0.07, 0.998, 7.858, 6.648)"/>
        <path id="Sustracción_1" data-name="Sustracción 1" class="cls-23" d="M7.9,1.289H0C.591.517,2.179,0,3.951,0S7.31.517,7.9,1.288Z" transform="translate(5.278 17.567)"/>
        <g id="Grupo_12" data-name="Grupo 12" transform="matrix(0.995, -0.105, 0.105, 0.995, 0, 1.662)">
          <path id="Trazado_28" data-name="Trazado 28" class="cls-17" d="M7.99,0C3.652.356.229,3.43,0,7.236a2.934,2.934,0,0,1,3.9-.308A7.485,7.485,0,0,1,7.99,0Z" transform="translate(0 0.01)"/>
          <path id="Trazado_29" data-name="Trazado 29" class="cls-17" d="M1.935,1.3A7.392,7.392,0,0,1,4.119,6.741a2.87,2.87,0,0,1,3.8.226C7.614,3.289,4.178.347,0,0A7.828,7.828,0,0,1,1.935,1.3Z" transform="translate(7.975 0.014)"/>
          <path id="Trazado_30" data-name="Trazado 30" class="cls-24" d="M8.25,6.8A7.445,7.445,0,0,0,6.261,1.5,6.718,6.718,0,0,0,4.125,0,6.575,6.575,0,0,0,1.989,1.5,7.5,7.5,0,0,0,0,6.947,3.233,3.233,0,0,1,4.014,6.8c-.011.342-.026.1,0,0s.085-.09,0,0C4.909,5.869,7.365,5.961,8.25,6.8Z" transform="translate(3.85 0)"/>
        </g>
      </g>
    </g>
    <path id="Trazado_458" data-name="Trazado 458" d="M.51-4.3V-7.59H-.51V-4.3H-3.78v1.02H-.51V0H.51V-3.285H3.78V-4.3Z" transform="translate(5058 3146)"/>
  </g>
</svg>
