<svg xmlns="http://www.w3.org/2000/svg" width="175" height="211.501" viewBox="0 0 175 211.501">
  <defs>
    <style>
      .cls-1, .cls-2, .cls-5, .cls-6 {
        fill: #fff;
      }

      .cls-1 {
        stroke: #000;
      }

      .cls-2 {
        stroke: #f0f0f0;
      }

      .cls-3 {
        fill: #f0f0f0;
      }

      .cls-4 {
        fill: #858666;
      }

      .cls-7, .cls-9 {
        stroke: none;
      }

      .cls-8 {
        fill: none;
      }

      .cls-9 {
        fill: #707070;
      }
    </style>
  </defs>
  <g id="M_2_2_F" transform="translate(-88.687 -233)">
    <g id="Grupo_109" data-name="Grupo 109" transform="translate(88.334 233)">
      <g id="Rectángulo_4" data-name="Rectángulo 4" class="cls-1" transform="translate(0.352)">
        <rect class="cls-7" width="175" height="175" rx="19"/>
        <rect class="cls-8" x="0.5" y="0.5" width="174" height="174" rx="18.5"/>
      </g>
    </g>
    <g id="Grupo_259" data-name="Grupo 259" transform="translate(0 -19)">
      <path id="Trazado_93" data-name="Trazado 93" class="cls-2" d="M218.453,202.505l-15.917,15.948H179.978L164,202.505V179.948L179.978,164h22.557l15.917,15.948Z" transform="translate(38.988 178.47) rotate(22)"/>
      <path id="Trazado_392" data-name="Trazado 392" class="cls-3" d="M-.044-31.372a9.2,9.2,0,0,1,4.29.99A9.815,9.815,0,0,1,7.5-27.676a12.988,12.988,0,0,1,2.068,3.85A13.77,13.77,0,0,1,10.3-19.36a23.928,23.928,0,0,1-.33,3.608A24.362,24.362,0,0,1,8.8-11.308,20.141,20.141,0,0,1,6.468-6.776a17.017,17.017,0,0,1-3.806,3.96A16.456,16.456,0,0,1-2.992-.132,4.172,4.172,0,0,1-4,0,3.188,3.188,0,0,1-5.83-.55a2.14,2.14,0,0,1-.814-1.914A2.463,2.463,0,0,1-6.006-4.18,3.576,3.576,0,0,1-4.312-5.192,14.229,14.229,0,0,0-.374-7.128a13.722,13.722,0,0,0,3.322-3.256A10.969,10.969,0,0,0,4.84-14.74l1.188.044a19.124,19.124,0,0,1-1.474,1.584,8.466,8.466,0,0,1-2.2,1.518,6.967,6.967,0,0,1-3.1.638,7.985,7.985,0,0,1-3.41-.792,10.816,10.816,0,0,1-3.08-2.178A10.775,10.775,0,0,1-9.46-17.182a9.646,9.646,0,0,1-.836-3.982,9.854,9.854,0,0,1,1.386-5.17,10.379,10.379,0,0,1,3.718-3.674A10.01,10.01,0,0,1-.044-31.372Zm0,4.84a4.694,4.694,0,0,0-2.508.7,5.034,5.034,0,0,0-1.8,1.914,5.649,5.649,0,0,0-.66,2.75,5.684,5.684,0,0,0,.66,2.728,4.992,4.992,0,0,0,1.8,1.936,4.694,4.694,0,0,0,2.508.7,4.661,4.661,0,0,0,2.53-.7,5.049,5.049,0,0,0,1.782-1.936,5.684,5.684,0,0,0,.66-2.728,5.649,5.649,0,0,0-.66-2.75,5.092,5.092,0,0,0-1.782-1.914A4.661,4.661,0,0,0-.044-26.532Z" transform="translate(143 444)"/>
      <path id="Trazado_95" data-name="Trazado 95" class="cls-4" d="M218.453,202.505l-15.917,15.948H179.978L164,202.505V179.948L179.978,164h22.557l15.917,15.948Z" transform="translate(111.988 178.47) rotate(22)"/>
      <path id="Trazado_393" data-name="Trazado 393" class="cls-5" d="M-2.4.44A13.19,13.19,0,0,1-5.874-.066,8.152,8.152,0,0,1-8.91-1.54a3.325,3.325,0,0,1-.9-1.254,3.74,3.74,0,0,1-.33-1.474A2.006,2.006,0,0,1-9.5-5.676a2.423,2.423,0,0,1,1.826-.66A3.733,3.733,0,0,1-5.7-5.5a10.828,10.828,0,0,0,1.54.792,4.382,4.382,0,0,0,1.716.352,7.113,7.113,0,0,0,3.41-.836A6.869,6.869,0,0,0,3.476-7.436a5.34,5.34,0,0,0,.946-3.036,5.144,5.144,0,0,0-.77-2.86A5.333,5.333,0,0,0,1.628-15.18a5.723,5.723,0,0,0-2.706-.66,5.922,5.922,0,0,0-2.376.44q-1.012.44-1.848.9a3.43,3.43,0,0,1-1.672.462,3.13,3.13,0,0,1-2.156-.638,2.734,2.734,0,0,1-.88-1.518,4.972,4.972,0,0,1-.088-1.584l1.364-10.912a2.511,2.511,0,0,1,.9-1.518A2.658,2.658,0,0,1-6.094-30.8H6.622a2.388,2.388,0,0,1,1.76.7,2.388,2.388,0,0,1,.7,1.76,2.263,2.263,0,0,1-.7,1.694,2.429,2.429,0,0,1-1.76.682H-4.73l.484-.4L-5.434-17.2l-.572-1.672a2.5,2.5,0,0,1,1.144-.836,12.09,12.09,0,0,1,2.024-.682A9.231,9.231,0,0,1-.594-20.68a10.393,10.393,0,0,1,5.28,1.342A9.865,9.865,0,0,1,8.36-15.686,10.187,10.187,0,0,1,9.7-10.472,9.587,9.587,0,0,1,8.734-6.2,11.116,11.116,0,0,1,6.072-2.728,12.634,12.634,0,0,1,2.2-.4,12.72,12.72,0,0,1-2.4.44Z" transform="translate(217 444)"/>
    </g>
    <g id="Grupo_397" data-name="Grupo 397" transform="translate(97 321)">
      <g id="Grupo_46" data-name="Grupo 46" transform="translate(0 0.784)">
        <g id="Unión_22" data-name="Unión 22" class="cls-6" transform="translate(0 0.216)">
          <path class="cls-7" d="M 19.99962043762207 37.5 L 3.062259912490845 37.5 L 3.062259912490845 28.08717918395996 L 3.062259912490845 27.58717918395996 L 2.562259912490845 27.58717918395996 L 0.5 27.58717918395996 L 0.5 0.5 L 40.5 0.5 L 40.5 27.58717918395996 L 20.49962043762207 27.58717918395996 L 19.99962043762207 27.58717918395996 L 19.99962043762207 28.08717918395996 L 19.99962043762207 37.5 Z"/>
          <path class="cls-9" d="M 19.49962043762207 37 L 19.49962043762207 28.08717918395996 L 19.49962043762207 27.08717918395996 L 20.49962043762207 27.08717918395996 L 40 27.08717918395996 L 40 1 L 1 1 L 1 27.08717918395996 L 2.562259912490845 27.08717918395996 L 3.562259912490845 27.08717918395996 L 3.562259912490845 28.08717918395996 L 3.562259912490845 37 L 19.49962043762207 37 M 20.49962043762207 38 L 2.562259912490845 38 L 2.562259912490845 28.08717918395996 L 0 28.08717918395996 L 0 0 L 41 0 L 41 28.08717918395996 L 20.49962043762207 28.08717918395996 L 20.49962043762207 38 Z"/>
        </g>
      </g>
      <path id="Trazado_453" data-name="Trazado 453" d="M.037-.6a.608.608,0,0,0,.6.6.592.592,0,0,0,.6-.6V-16.675a.721.721,0,0,0-.075-.45.633.633,0,0,0-.825-.225L-3.037-15.3a.577.577,0,0,0-.225.825.609.609,0,0,0,.525.3.613.613,0,0,0,.3-.1l2.475-1.45Z" transform="translate(20 24)"/>
    </g>
    <g id="Grupo_398" data-name="Grupo 398" transform="translate(155.824 321)">
      <g id="Grupo_46-2" data-name="Grupo 46" transform="translate(0 0.784)">
        <g id="Unión_22-2" data-name="Unión 22" class="cls-6" transform="translate(0.176 0.216)">
          <path class="cls-7" d="M 19.99962043762207 37.5 L 3.062259912490845 37.5 L 3.062259912490845 28.08717918395996 L 3.062259912490845 27.58717918395996 L 2.562259912490845 27.58717918395996 L 0.5 27.58717918395996 L 0.5 0.5 L 40.5 0.5 L 40.5 27.58717918395996 L 20.49962043762207 27.58717918395996 L 19.99962043762207 27.58717918395996 L 19.99962043762207 28.08717918395996 L 19.99962043762207 37.5 Z"/>
          <path class="cls-9" d="M 19.49962043762207 37 L 19.49962043762207 28.08717918395996 L 19.49962043762207 27.08717918395996 L 20.49962043762207 27.08717918395996 L 40 27.08717918395996 L 40 1 L 1 1 L 1 27.08717918395996 L 2.562259912490845 27.08717918395996 L 3.562259912490845 27.08717918395996 L 3.562259912490845 28.08717918395996 L 3.562259912490845 37 L 19.49962043762207 37 M 20.49962043762207 38 L 2.562259912490845 38 L 2.562259912490845 28.08717918395996 L 0 28.08717918395996 L 0 0 L 41 0 L 41 28.08717918395996 L 20.49962043762207 28.08717918395996 L 20.49962043762207 38 Z"/>
        </g>
      </g>
      <path id="Trazado_454" data-name="Trazado 454" d="M.037-.6a.608.608,0,0,0,.6.6.592.592,0,0,0,.6-.6V-16.675a.721.721,0,0,0-.075-.45.633.633,0,0,0-.825-.225L-3.037-15.3a.577.577,0,0,0-.225.825.609.609,0,0,0,.525.3.613.613,0,0,0,.3-.1l2.475-1.45Z" transform="translate(20.176 24)"/>
    </g>
    <g id="Grupo_399" data-name="Grupo 399" transform="translate(214.824 321)">
      <g id="Grupo_46-3" data-name="Grupo 46" transform="translate(0 0.784)">
        <g id="Unión_22-3" data-name="Unión 22" class="cls-6" transform="translate(0.176 0.216)">
          <path class="cls-7" d="M 19.99962043762207 37.5 L 3.062259912490845 37.5 L 3.062259912490845 28.08717918395996 L 3.062259912490845 27.58717918395996 L 2.562259912490845 27.58717918395996 L 0.5 27.58717918395996 L 0.5 0.5 L 40.5 0.5 L 40.5 27.58717918395996 L 20.49962043762207 27.58717918395996 L 19.99962043762207 27.58717918395996 L 19.99962043762207 28.08717918395996 L 19.99962043762207 37.5 Z"/>
          <path class="cls-9" d="M 19.49962043762207 37 L 19.49962043762207 28.08717918395996 L 19.49962043762207 27.08717918395996 L 20.49962043762207 27.08717918395996 L 40 27.08717918395996 L 40 1 L 1 1 L 1 27.08717918395996 L 2.562259912490845 27.08717918395996 L 3.562259912490845 27.08717918395996 L 3.562259912490845 28.08717918395996 L 3.562259912490845 37 L 19.49962043762207 37 M 20.49962043762207 38 L 2.562259912490845 38 L 2.562259912490845 28.08717918395996 L 0 28.08717918395996 L 0 0 L 41 0 L 41 28.08717918395996 L 20.49962043762207 28.08717918395996 L 20.49962043762207 38 Z"/>
        </g>
      </g>
      <path id="Trazado_455" data-name="Trazado 455" d="M.037-.6a.608.608,0,0,0,.6.6.592.592,0,0,0,.6-.6V-16.675a.721.721,0,0,0-.075-.45.633.633,0,0,0-.825-.225L-3.037-15.3a.577.577,0,0,0-.225.825.609.609,0,0,0,.525.3.613.613,0,0,0,.3-.1l2.475-1.45Z" transform="translate(20.176 24)"/>
    </g>
    <g id="Grupo_400" data-name="Grupo 400" transform="translate(155.824 251)">
      <g id="Grupo_46-4" data-name="Grupo 46" transform="translate(0 0.784)">
        <g id="Unión_22-4" data-name="Unión 22" class="cls-6" transform="translate(0.176 0.216)">
          <path class="cls-7" d="M 19.99962043762207 37.5 L 3.062259912490845 37.5 L 3.062259912490845 28.08717918395996 L 3.062259912490845 27.58717918395996 L 2.562259912490845 27.58717918395996 L 0.5 27.58717918395996 L 0.5 0.5 L 40.5 0.5 L 40.5 27.58717918395996 L 20.49962043762207 27.58717918395996 L 19.99962043762207 27.58717918395996 L 19.99962043762207 28.08717918395996 L 19.99962043762207 37.5 Z"/>
          <path class="cls-9" d="M 19.49962043762207 37 L 19.49962043762207 28.08717918395996 L 19.49962043762207 27.08717918395996 L 20.49962043762207 27.08717918395996 L 40 27.08717918395996 L 40 1 L 1 1 L 1 27.08717918395996 L 2.562259912490845 27.08717918395996 L 3.562259912490845 27.08717918395996 L 3.562259912490845 28.08717918395996 L 3.562259912490845 37 L 19.49962043762207 37 M 20.49962043762207 38 L 2.562259912490845 38 L 2.562259912490845 28.08717918395996 L 0 28.08717918395996 L 0 0 L 41 0 L 41 28.08717918395996 L 20.49962043762207 28.08717918395996 L 20.49962043762207 38 Z"/>
        </g>
      </g>
      <path id="Trazado_456" data-name="Trazado 456" d="M3.1-.6a.608.608,0,0,0,.6.6.614.614,0,0,0,.625-.6v-3H5.5a.614.614,0,0,0,.625-.6A.614.614,0,0,0,5.5-4.8H4.325V-16.875c0-.025-.025-.05-.025-.1a.791.791,0,0,0-.2-.3.577.577,0,0,0-.85.075l-.025.025L-6.9-4.575a.577.577,0,0,0,.075.85A.526.526,0,0,0-6.45-3.6H3.1ZM-5.175-4.8,3.1-15.05V-4.8Z" transform="translate(20.176 24)"/>
    </g>
  </g>
</svg>
