<svg xmlns="http://www.w3.org/2000/svg" width="175" height="211.501" viewBox="0 0 175 211.501">
  <g id="Grupo_395" data-name="Grupo 395" transform="translate(-4968 -3067)">
    <g id="Grupo_341" data-name="Grupo 341" transform="translate(4879 2834)">
      <g id="Grupo_109" data-name="Grupo 109" transform="translate(88.648 233)">
        <g id="Rectángulo_4" data-name="Rectángulo 4" transform="translate(0.352)" fill="#fff" stroke="#000" stroke-width="1">
          <rect width="175" height="175" rx="19" stroke="none"/>
          <rect x="0.5" y="0.5" width="174" height="174" rx="18.5" fill="none"/>
        </g>
      </g>
      <g id="Grupo_259" data-name="Grupo 259" transform="translate(0 -19)">
        <path id="Trazado_93" data-name="Trazado 93" d="M218.453,202.505l-15.917,15.948H179.978L164,202.505V179.948L179.978,164h22.557l15.917,15.948Z" transform="translate(38.988 178.47) rotate(22)" fill="#fff" stroke="#f0f0f0" stroke-width="1"/>
        <text id="_8" data-name="8" transform="translate(143 444)" fill="#f0f0f0" font-size="44" font-family="Quicksand" font-weight="700"><tspan x="-12.936" y="0">8</tspan></text>
        <path id="Trazado_95" data-name="Trazado 95" d="M218.453,202.505l-15.917,15.948H179.978L164,202.505V179.948L179.978,164h22.557l15.917,15.948Z" transform="translate(111.988 178.47) rotate(22)" fill="#858666"/>
        <text id="_3" data-name="3" transform="translate(217 444)" fill="#fff" font-size="44" font-family="Quicksand" font-weight="700"><tspan x="-11.484" y="0">3</tspan></text>
      </g>
      <g id="Grupo_352" data-name="Grupo 352" transform="translate(113.37 315.064)">
        <g id="Grupo_106" data-name="Grupo 106" transform="translate(0 0)">
          <g id="Grupo_46" data-name="Grupo 46" transform="translate(0 0)">
            <g id="Unión_22" data-name="Unión 22" transform="translate(-0.37 -0.064)" fill="#bebbbb">
              <path d="M 6.249879837036133 11.75 L 1.062420010566711 11.75 L 1.062420010566711 8.869640350341797 L 1.062420010566711 8.619640350341797 L 0.8124200105667114 8.619640350341797 L 0.25 8.619640350341797 L 0.25 0.25 L 12.75 0.25 L 12.75 8.619640350341797 L 6.499879837036133 8.619640350341797 L 6.249879837036133 8.619640350341797 L 6.249879837036133 8.869640350341797 L 6.249879837036133 11.75 Z" stroke="none"/>
              <path d="M 5.999879837036133 11.5 L 5.999879837036133 8.869640350341797 L 5.999879837036133 8.369640350341797 L 6.499879837036133 8.369640350341797 L 12.5 8.369640350341797 L 12.5 0.5 L 0.5 0.5 L 0.5 8.369640350341797 L 0.8124200105667114 8.369640350341797 L 1.312420010566711 8.369640350341797 L 1.312420010566711 8.869640350341797 L 1.312420010566711 11.5 L 5.999879837036133 11.5 M 6.499879837036133 12 L 0.8124200105667114 12 L 0.8124200105667114 8.869640350341797 L -8.881784197001252e-16 8.869640350341797 L -8.881784197001252e-16 -8.881784197001252e-16 L 13 -8.881784197001252e-16 L 13 8.869640350341797 L 6.499879837036133 8.869640350341797 L 6.499879837036133 12 Z" stroke="none" fill="#707070"/>
            </g>
          </g>
        </g>
      </g>
      <g id="Grupo_391" data-name="Grupo 391" transform="translate(113.37 285.064)">
        <g id="Grupo_106-2" data-name="Grupo 106" transform="translate(0 0)">
          <g id="Grupo_46-2" data-name="Grupo 46" transform="translate(0 0)">
            <g id="Unión_22-2" data-name="Unión 22" transform="translate(-0.37 -0.064)" fill="#fff">
              <path d="M 6.249879837036133 11.75 L 1.062420010566711 11.75 L 1.062420010566711 8.869640350341797 L 1.062420010566711 8.619640350341797 L 0.8124200105667114 8.619640350341797 L 0.25 8.619640350341797 L 0.25 0.25 L 12.75 0.25 L 12.75 8.619640350341797 L 6.499879837036133 8.619640350341797 L 6.249879837036133 8.619640350341797 L 6.249879837036133 8.869640350341797 L 6.249879837036133 11.75 Z" stroke="none"/>
              <path d="M 5.999879837036133 11.5 L 5.999879837036133 8.869640350341797 L 5.999879837036133 8.369640350341797 L 6.499879837036133 8.369640350341797 L 12.5 8.369640350341797 L 12.5 0.5 L 0.5 0.5 L 0.5 8.369640350341797 L 0.8124200105667114 8.369640350341797 L 1.312420010566711 8.369640350341797 L 1.312420010566711 8.869640350341797 L 1.312420010566711 11.5 L 5.999879837036133 11.5 M 6.499879837036133 12 L 0.8124200105667114 12 L 0.8124200105667114 8.869640350341797 L -8.881784197001252e-16 8.869640350341797 L -8.881784197001252e-16 -8.881784197001252e-16 L 13 -8.881784197001252e-16 L 13 8.869640350341797 L 6.499879837036133 8.869640350341797 L 6.499879837036133 12 Z" stroke="none" fill="#707070"/>
            </g>
          </g>
        </g>
      </g>
      <g id="Grupo_392" data-name="Grupo 392" transform="translate(113.37 345.064)">
        <g id="Grupo_106-3" data-name="Grupo 106" transform="translate(0 0)">
          <g id="Grupo_46-3" data-name="Grupo 46" transform="translate(0 0)">
            <g id="Unión_22-3" data-name="Unión 22" transform="translate(-0.37 -0.064)" fill="#fff">
              <path d="M 6.249879837036133 11.75 L 1.062420010566711 11.75 L 1.062420010566711 8.869640350341797 L 1.062420010566711 8.619640350341797 L 0.8124200105667114 8.619640350341797 L 0.25 8.619640350341797 L 0.25 0.25 L 12.75 0.25 L 12.75 8.619640350341797 L 6.499879837036133 8.619640350341797 L 6.249879837036133 8.619640350341797 L 6.249879837036133 8.869640350341797 L 6.249879837036133 11.75 Z" stroke="none"/>
              <path d="M 5.999879837036133 11.5 L 5.999879837036133 8.869640350341797 L 5.999879837036133 8.369640350341797 L 6.499879837036133 8.369640350341797 L 12.5 8.369640350341797 L 12.5 0.5 L 0.5 0.5 L 0.5 8.369640350341797 L 0.8124200105667114 8.369640350341797 L 1.312420010566711 8.369640350341797 L 1.312420010566711 8.869640350341797 L 1.312420010566711 11.5 L 5.999879837036133 11.5 M 6.499879837036133 12 L 0.8124200105667114 12 L 0.8124200105667114 8.869640350341797 L -8.881784197001252e-16 8.869640350341797 L -8.881784197001252e-16 -8.881784197001252e-16 L 13 -8.881784197001252e-16 L 13 8.869640350341797 L 6.499879837036133 8.869640350341797 L 6.499879837036133 12 Z" stroke="none" fill="#707070"/>
            </g>
          </g>
        </g>
      </g>
    </g>
    <path id="Polígono_3" data-name="Polígono 3" d="M3.5,0,7,6H0Z" transform="translate(4987.5 3150.5) rotate(90)"/>
    <g id="Grupo_393" data-name="Grupo 393" transform="translate(5036.074 3154.883)">
      <path id="Trazado_88" data-name="Trazado 88" d="M1587.865-587.729c-.019.378,4.787-4.846,21,0,.535.159,1.061.308,1.632.46,15.192,4.031,24.077-1.113,25.44-3.154,1.411-2.11-5.4,5.173-19.729-1.149S1587.884-588.107,1587.865-587.729Z" transform="translate(-1587.865 626.422)" fill="#37c837"/>
      <g id="Grupo_60" data-name="Grupo 60" transform="translate(25.566 16.312)">
        <path id="path977-5-8" d="M-51.621,326.65H-44.7" transform="translate(55.034 -305.878)" fill="none" stroke="#241f1c" stroke-linecap="round" stroke-linejoin="round" stroke-width="0.4"/>
        <path id="path979-8-6-6-8-5-7-2-3-7" d="M-49.015,327.75l-.047-13.211h1.541l.09,13.2Z" transform="translate(55.267 -306.978)" fill="#784421" stroke="#241f1c" stroke-linecap="round" stroke-linejoin="round" stroke-width="0.4"/>
        <ellipse id="path837-1-2-8-9-4" cx="4.962" cy="4.769" rx="4.962" ry="4.769" transform="translate(0 7.177)" fill="#5fd35f" stroke="rgba(36,31,28,0.99)" stroke-linecap="round" stroke-linejoin="round" stroke-width="0.4"/>
        <ellipse id="ellipse9017" cx="7.587" cy="7.292" rx="7.587" ry="7.292" transform="translate(2.044)" fill="#37c837" stroke="rgba(36,31,28,0.99)" stroke-linecap="round" stroke-linejoin="round" stroke-width="0.4"/>
      </g>
      <g id="Grupo_61" data-name="Grupo 61" transform="translate(5.702 0)">
        <ellipse id="path4729" cx="5.86" cy="5.437" rx="5.86" ry="5.437" transform="translate(4.089 13.329)" fill="#2ca02c" stroke="#241f1c" stroke-linecap="round" stroke-linejoin="round" stroke-width="0.4"/>
        <path id="path979-8-6-6-8-5-7" d="M-13.241,412.16l-.083-23.466h2.737l.16,23.446Z" transform="translate(26.262 -376.713)" fill="#784421" stroke="#241f1c" stroke-linecap="round" stroke-linejoin="round" stroke-width="0.4"/>
        <ellipse id="path4729-7" cx="7.854" cy="7.288" rx="7.854" ry="7.288" transform="translate(0 3.396)" fill="#37c837" stroke="#241f1c" stroke-linecap="round" stroke-linejoin="round" stroke-width="0.4"/>
        <ellipse id="path4729-7-7" cx="7.854" cy="7.288" rx="7.854" ry="7.288" transform="translate(9.057)" fill="#5fd35f" stroke="#241f1c" stroke-linecap="round" stroke-linejoin="round" stroke-width="0.4"/>
        <path id="path977-8-5-8-2-0" d="M-14.931,400.952h9.107" transform="translate(24.756 -365.22)" fill="none" stroke="#241f1c" stroke-linecap="round" stroke-linejoin="round" stroke-width="0.4"/>
        <ellipse id="path4729-7-7-7" cx="5.667" cy="5.258" rx="5.667" ry="5.258" transform="translate(15.926 11.914)" fill="#37c837" stroke="#241f1c" stroke-linecap="round" stroke-linejoin="round" stroke-width="0.4"/>
      </g>
    </g>
    <g id="Grupo_394" data-name="Grupo 394" transform="translate(5037.046 3105)">
      <path id="Trazado_7" data-name="Trazado 7" d="M218.625-393.293l-6.63-26.742,46.444,13.874-6.358,12.218Z" transform="translate(-211.995 420.035)" fill="#8dd1e4"/>
      <g id="Grupo_5" data-name="Grupo 5" transform="translate(19.339 15.047)">
        <ellipse id="Elipse_10" data-name="Elipse 10" cx="15" cy="5.5" rx="15" ry="5.5" transform="translate(-0.386 3.953)" fill="#388caf"/>
        <ellipse id="Elipse_11" data-name="Elipse 11" cx="15" cy="5.5" rx="15" ry="5.5" transform="translate(-0.386 3.953)" fill="#5abce6"/>
        <g id="Elipse_12" data-name="Elipse 12" transform="translate(-0.386 3.953)" fill="none" stroke="#b4d6c8" stroke-width="0.4">
          <ellipse cx="15" cy="5.5" rx="15" ry="5.5" stroke="none"/>
          <ellipse cx="15" cy="5.5" rx="14.8" ry="5.3" fill="none"/>
        </g>
        <path id="Trazado_4" data-name="Trazado 4" d="M249.153-383.622V-393.7" transform="translate(-242.613 395.626)" fill="none" stroke="#75c3e4" stroke-width="0.4"/>
        <line id="Línea_2" data-name="Línea 2" x2="4.511" transform="translate(6.764 8.885)" fill="none" stroke="#75c3e4" stroke-width="0.4"/>
        <line id="Línea_3" data-name="Línea 3" y1="9.658" transform="translate(11.275 2.053)" fill="none" stroke="#75c3e4" stroke-width="0.4"/>
        <line id="Línea_4" data-name="Línea 4" x2="4.511" transform="translate(6.764 6.19)" fill="none" stroke="#75c3e4" stroke-width="0.4"/>
        <line id="Línea_5" data-name="Línea 5" y1="3.222" transform="translate(3.542 2.053)" fill="none" stroke="#388caf" stroke-width="0.4"/>
        <line id="Línea_6" data-name="Línea 6" y1="3.222" transform="translate(8.053 1.409)" fill="none" stroke="#388caf" stroke-width="0.4"/>
        <path id="Trazado_5" data-name="Trazado 5" d="M244.508-394.359v.082l.05-.632a1.584,1.584,0,0,1,1.431-.777,1.462,1.462,0,0,1,1.513,1.409" transform="translate(-240.961 396.33)" fill="none" stroke="#75c3e4" stroke-width="0.4"/>
        <path id="Trazado_6" data-name="Trazado 6" d="M244.5-394.409v.127a.882.882,0,0,1,.1-.525,1.585,1.585,0,0,1,1.416-.879,1.828,1.828,0,0,1,1.685,1.8c.02.041.041.672.041.672" transform="translate(-236.443 395.686)" fill="none" stroke="#75c3e4" stroke-width="0.4"/>
      </g>
      <g id="Grupo_14" data-name="Grupo 14" transform="translate(9.141 8.234)">
        <path id="Unión_2" data-name="Unión 2" d="M12.428,18.027h-7.9a4.828,4.828,0,0,1,3.345-1.268l-.721-10.3a3.388,3.388,0,0,0-3.306.834c0,.014,0,.026,0,.039L3.829,7.31l-.023.031L3.8,7.29a2.944,2.944,0,0,0-3.793.75C-.162,4.246,2.9.842,7.15.017L7.181,0l.04.013C11.4-.062,15.1,2.5,15.79,6.115a2.872,2.872,0,0,0-3.8.167c0,.018,0,.037.006.055a3.728,3.728,0,0,0-4.177.4l.7,10c1.756.007,3.325.523,3.911,1.288h0ZM7.817,6.72c0-.008,0-.013,0-.013Z" transform="translate(0.75 0.828)" fill="none" stroke="#b4d6c8" stroke-width="0.4"/>
        <rect id="Rectángulo_19" data-name="Rectángulo 19" width="0.644" height="11.6" transform="matrix(0.998, -0.07, 0.07, 0.998, 7.858, 6.648)" fill="#85afbe"/>
        <path id="Sustracción_1" data-name="Sustracción 1" d="M7.9,1.289H0C.591.517,2.179,0,3.951,0S7.31.517,7.9,1.288Z" transform="translate(5.278 17.567)" fill="#3289ad"/>
        <g id="Grupo_12" data-name="Grupo 12" transform="matrix(0.995, -0.105, 0.105, 0.995, 0, 1.662)">
          <path id="Trazado_28" data-name="Trazado 28" d="M7.99,0C3.652.356.229,3.43,0,7.236a2.934,2.934,0,0,1,3.9-.308A7.485,7.485,0,0,1,7.99,0Z" transform="translate(0 0.01)" fill="#388caf"/>
          <path id="Trazado_29" data-name="Trazado 29" d="M1.935,1.3A7.392,7.392,0,0,1,4.119,6.741a2.87,2.87,0,0,1,3.8.226C7.614,3.289,4.178.347,0,0A7.828,7.828,0,0,1,1.935,1.3Z" transform="translate(7.975 0.014)" fill="#388caf"/>
          <path id="Trazado_30" data-name="Trazado 30" d="M8.25,6.8A7.445,7.445,0,0,0,6.261,1.5,6.718,6.718,0,0,0,4.125,0,6.575,6.575,0,0,0,1.989,1.5,7.5,7.5,0,0,0,0,6.947,3.233,3.233,0,0,1,4.014,6.8c-.011.342-.026.1,0,0s.085-.09,0,0C4.909,5.869,7.365,5.961,8.25,6.8Z" transform="translate(3.85 0)" fill="#d9eff7"/>
        </g>
      </g>
    </g>
    <text id="_" data-name="+" transform="translate(5058 3146)" font-size="15" font-family="HelveticaNeue, Helvetica Neue"><tspan x="-4.5" y="0">+</tspan></text>
  </g>
</svg>
