<svg xmlns="http://www.w3.org/2000/svg" width="175" height="210.886" viewBox="0 0 175 210.886">
  <g id="Grupo_428" data-name="Grupo 428" transform="translate(-88.687 -233)">
    <g id="Grupo_109" data-name="Grupo 109" transform="translate(88.334 233)">
      <g id="Rectángulo_4" data-name="Rectángulo 4" transform="translate(0.352)" fill="#fff" stroke="#000" stroke-width="1">
        <rect width="175" height="175" rx="19" stroke="none"/>
        <rect x="0.5" y="0.5" width="174" height="174" rx="18.5" fill="none"/>
      </g>
    </g>
    <g id="Grupo_106" data-name="Grupo 106" transform="translate(132.526 293.958)">
      <g id="Grupo_46" data-name="Grupo 46" transform="translate(0 0.768)">
        <g id="Unión_22" data-name="Unión 22" transform="translate(0.474 0.274)" fill="#fff">
          <path d="M 19.49962997436523 37.5 L 2.999769926071167 37.5 L 2.999769926071167 28.08717918395996 L 2.999769926071167 27.58717918395996 L 2.499769926071167 27.58717918395996 L 0.5 27.58717918395996 L 0.5 0.5 L 39.5 0.5 L 39.5 27.58717918395996 L 19.99962997436523 27.58717918395996 L 19.49962997436523 27.58717918395996 L 19.49962997436523 28.08717918395996 L 19.49962997436523 37.5 Z" stroke="none"/>
          <path d="M 18.99962997436523 37 L 18.99962997436523 28.08717918395996 L 18.99962997436523 27.08717918395996 L 19.99962997436523 27.08717918395996 L 39 27.08717918395996 L 39 1 L 1 1 L 1 27.08717918395996 L 2.499769926071167 27.08717918395996 L 3.499769926071167 27.08717918395996 L 3.499769926071167 28.08717918395996 L 3.499769926071167 37 L 18.99962997436523 37 M 19.99962997436523 38 L 2.499769926071167 38 L 2.499769926071167 28.08717918395996 L 0 28.08717918395996 L 0 0 L 40 0 L 40 28.08717918395996 L 19.99962997436523 28.08717918395996 L 19.99962997436523 38 Z" stroke="none" fill="#707070"/>
        </g>
      </g>
      <text id="_2" data-name="2" transform="translate(19.474 24.042)" font-size="25" font-family="Quicksand-Regular, Quicksand"><tspan x="-7.375" y="0">2</tspan></text>
    </g>
    <g id="Grupo_329" data-name="Grupo 329" transform="translate(190.09 293.958)">
      <g id="Grupo_46-2" data-name="Grupo 46" transform="translate(0 0.768)">
        <g id="Unión_22-2" data-name="Unión 22" transform="translate(-0.09 0.274)" fill="#fff">
          <path d="M 19.49962997436523 37.5 L 2.999769926071167 37.5 L 2.999769926071167 28.08717918395996 L 2.999769926071167 27.58717918395996 L 2.499769926071167 27.58717918395996 L 0.5 27.58717918395996 L 0.5 0.5 L 39.5 0.5 L 39.5 27.58717918395996 L 19.99962997436523 27.58717918395996 L 19.49962997436523 27.58717918395996 L 19.49962997436523 28.08717918395996 L 19.49962997436523 37.5 Z" stroke="none"/>
          <path d="M 18.99962997436523 37 L 18.99962997436523 28.08717918395996 L 18.99962997436523 27.08717918395996 L 19.99962997436523 27.08717918395996 L 39 27.08717918395996 L 39 1 L 1 1 L 1 27.08717918395996 L 2.499769926071167 27.08717918395996 L 3.499769926071167 27.08717918395996 L 3.499769926071167 28.08717918395996 L 3.499769926071167 37 L 18.99962997436523 37 M 19.99962997436523 38 L 2.499769926071167 38 L 2.499769926071167 28.08717918395996 L 0 28.08717918395996 L 0 0 L 40 0 L 40 28.08717918395996 L 19.99962997436523 28.08717918395996 L 19.99962997436523 38 Z" stroke="none" fill="#707070"/>
        </g>
      </g>
      <text id="_2-2" data-name="2" transform="translate(18.911 24.042)" font-size="25" font-family="Quicksand-Regular, Quicksand"><tspan x="-7.375" y="0">2</tspan></text>
    </g>
    <g id="Grupo_369" data-name="Grupo 369" transform="translate(160.157 241)">
      <g id="Grupo_46-3" data-name="Grupo 46" transform="translate(0 0.768)">
        <g id="Unión_22-3" data-name="Unión 22" transform="translate(-0.157 0.232)" fill="#fff">
          <path d="M 19.49962997436523 37.5 L 2.999769926071167 37.5 L 2.999769926071167 28.08717918395996 L 2.999769926071167 27.58717918395996 L 2.499769926071167 27.58717918395996 L 0.5 27.58717918395996 L 0.5 0.5 L 39.5 0.5 L 39.5 27.58717918395996 L 19.99962997436523 27.58717918395996 L 19.49962997436523 27.58717918395996 L 19.49962997436523 28.08717918395996 L 19.49962997436523 37.5 Z" stroke="none"/>
          <path d="M 18.99962997436523 37 L 18.99962997436523 28.08717918395996 L 18.99962997436523 27.08717918395996 L 19.99962997436523 27.08717918395996 L 39 27.08717918395996 L 39 1 L 1 1 L 1 27.08717918395996 L 2.499769926071167 27.08717918395996 L 3.499769926071167 27.08717918395996 L 3.499769926071167 28.08717918395996 L 3.499769926071167 37 L 18.99962997436523 37 M 19.99962997436523 38 L 2.499769926071167 38 L 2.499769926071167 28.08717918395996 L 0 28.08717918395996 L 0 0 L 40 0 L 40 28.08717918395996 L 19.99962997436523 28.08717918395996 L 19.99962997436523 38 Z" stroke="none" fill="#707070"/>
        </g>
      </g>
      <text id="_1" data-name="1" transform="translate(19.843 24)" font-size="25" font-family="Quicksand-Regular, Quicksand"><tspan x="-4.188" y="0">1</tspan></text>
    </g>
    <g id="Grupo_414" data-name="Grupo 414" transform="translate(0 -19)">
      <path id="Trazado_93" data-name="Trazado 93" d="M218.453,202.505l-15.917,15.948H179.978L164,202.505V179.948L179.978,164h22.557l15.917,15.948Z" transform="translate(38.776 178.507) rotate(22)" fill="#3f3832"/>
      <text id="_11" data-name="11" transform="translate(145 442)" fill="#fff" font-size="40" font-family="Quicksand" font-weight="700"><tspan x="-14.56" y="0">11</tspan></text>
      <path id="Trazado_95" data-name="Trazado 95" d="M218.453,202.505l-15.917,15.948H179.978L164,202.505V179.948L179.978,164h22.557l15.917,15.948Z" transform="translate(111.988 178.47) rotate(22)" fill="#858666"/>
      <text id="_6" data-name="6" transform="translate(217 444)" fill="#fff" font-size="44" font-family="Quicksand" font-weight="700"><tspan x="-12.056" y="0">6</tspan></text>
    </g>
    <g id="Grupo_429" data-name="Grupo 429" transform="translate(160.157 341)">
      <g id="Grupo_46-4" data-name="Grupo 46" transform="translate(0 0.768)">
        <g id="Unión_22-4" data-name="Unión 22" transform="translate(-0.157 0.232)" fill="#fff">
          <path d="M 19.49962997436523 37.5 L 2.999769926071167 37.5 L 2.999769926071167 28.08717918395996 L 2.999769926071167 27.58717918395996 L 2.499769926071167 27.58717918395996 L 0.5 27.58717918395996 L 0.5 0.5 L 39.5 0.5 L 39.5 27.58717918395996 L 19.99962997436523 27.58717918395996 L 19.49962997436523 27.58717918395996 L 19.49962997436523 28.08717918395996 L 19.49962997436523 37.5 Z" stroke="none"/>
          <path d="M 18.99962997436523 37 L 18.99962997436523 28.08717918395996 L 18.99962997436523 27.08717918395996 L 19.99962997436523 27.08717918395996 L 39 27.08717918395996 L 39 1 L 1 1 L 1 27.08717918395996 L 2.499769926071167 27.08717918395996 L 3.499769926071167 27.08717918395996 L 3.499769926071167 28.08717918395996 L 3.499769926071167 37 L 18.99962997436523 37 M 19.99962997436523 38 L 2.499769926071167 38 L 2.499769926071167 28.08717918395996 L 0 28.08717918395996 L 0 0 L 40 0 L 40 28.08717918395996 L 19.99962997436523 28.08717918395996 L 19.99962997436523 38 Z" stroke="none" fill="#707070"/>
        </g>
      </g>
      <text id="_3" data-name="3" transform="translate(19.843 24)" font-size="25" font-family="Quicksand-Regular, Quicksand"><tspan x="-7.625" y="0">3</tspan></text>
    </g>
  </g>
</svg>
