<svg xmlns="http://www.w3.org/2000/svg" width="175" height="211.501" viewBox="0 0 175 211.501">
  <defs>
    <style>
      .cls-1, .cls-2, .cls-3, .cls-6 {
        fill: #fff;
      }

      .cls-1 {
        stroke: #000;
      }

      .cls-3 {
        stroke: #f0f0f0;
      }

      .cls-4 {
        fill: #f0f0f0;
      }

      .cls-5 {
        fill: #858666;
      }

      .cls-7, .cls-9 {
        stroke: none;
      }

      .cls-8 {
        fill: none;
      }

      .cls-9 {
        fill: #707070;
      }
    </style>
  </defs>
  <g id="M_3_5_F" transform="translate(-88.687 -233)">
    <g id="Grupo_109" data-name="Grupo 109" transform="translate(88.334 233)">
      <g id="Rectángulo_4" data-name="Rectángulo 4" class="cls-1" transform="translate(0.352)">
        <rect class="cls-7" width="175" height="175" rx="19"/>
        <rect class="cls-8" x="0.5" y="0.5" width="174" height="174" rx="18.5"/>
      </g>
    </g>
    <g id="Grupo_106" data-name="Grupo 106" transform="translate(116 296)">
      <g id="Grupo_46" data-name="Grupo 46" transform="translate(0 0)">
        <g id="Unión_22" data-name="Unión 22" class="cls-2" transform="translate(0)">
          <path class="cls-7" d="M 25.49951934814453 48.5 L 3.74970006942749 48.5 L 3.74970006942749 36.21768188476562 L 3.74970006942749 35.71768188476562 L 3.24970006942749 35.71768188476562 L 0.5 35.71768188476562 L 0.5 0.5 L 51.5 0.5 L 51.5 35.71768188476562 L 25.99951934814453 35.71768188476562 L 25.49951934814453 35.71768188476562 L 25.49951934814453 36.21768188476562 L 25.49951934814453 48.5 Z"/>
          <path class="cls-9" d="M 24.99951934814453 48 L 24.99951934814453 36.21768188476562 L 24.99951934814453 35.21768188476562 L 25.99951934814453 35.21768188476562 L 51 35.21768188476562 L 51 1 L 1 1 L 1 35.21768188476562 L 3.24970006942749 35.21768188476562 L 4.24970006942749 35.21768188476562 L 4.24970006942749 36.21768188476562 L 4.24970006942749 48 L 24.99951934814453 48 M 25.99951934814453 49 L 3.24970006942749 49 L 3.24970006942749 36.21768188476562 L -3.552713678800501e-15 36.21768188476562 L -3.552713678800501e-15 -3.552713678800501e-15 L 52 -3.552713678800501e-15 L 52 36.21768188476562 L 25.99951934814453 36.21768188476562 L 25.99951934814453 49 Z"/>
        </g>
      </g>
      <path id="Trazado_361" data-name="Trazado 361" d="M-7.986-.231A.749.749,0,0,0-7.392,0h13A.8.8,0,0,0,6.4-.792a.81.81,0,0,0-.792-.825H-5.313l9.24-8.349A7.594,7.594,0,0,0,6.4-15.576a7.358,7.358,0,0,0-1.98-5.049A7.337,7.337,0,0,0-1.122-23.1a7.744,7.744,0,0,0-5.115,1.947L-7.359-20.1a.758.758,0,0,0-.033,1.122.758.758,0,0,0,1.122.033l1.122-1.023a6.009,6.009,0,0,1,4.026-1.518,5.889,5.889,0,0,1,4.389,1.947,5.881,5.881,0,0,1,1.551,3.96,5.993,5.993,0,0,1-1.98,4.422L-7.953-1.419A.868.868,0,0,0-7.986-.231Z" transform="translate(26 30)"/>
    </g>
    <g id="Grupo_259" data-name="Grupo 259" transform="translate(0 -19)">
      <path id="Trazado_93" data-name="Trazado 93" class="cls-3" d="M218.453,202.505l-15.917,15.948H179.978L164,202.505V179.948L179.978,164h22.557l15.917,15.948Z" transform="translate(38.988 178.47) rotate(22)"/>
      <path id="Trazado_270" data-name="Trazado 270" class="cls-4" d="M-3.5.22A2.783,2.783,0,0,1-5.412-.506a2.343,2.343,0,0,1-.814-1.826A2.8,2.8,0,0,1-5.962-3.52L4.818-27.148,5.3-25.96H-7.414a2.388,2.388,0,0,1-1.76-.7,2.388,2.388,0,0,1-.7-1.76,2.263,2.263,0,0,1,.7-1.694,2.429,2.429,0,0,1,1.76-.682H7.9a3,3,0,0,1,2,.726,2.337,2.337,0,0,1,.858,1.87,3.01,3.01,0,0,1-.264,1.188L-1.078-1.452A2.5,2.5,0,0,1-2.068-.22,2.6,2.6,0,0,1-3.5.22Z" transform="translate(143 444)"/>
      <path id="Trazado_95" data-name="Trazado 95" class="cls-5" d="M218.453,202.505l-15.917,15.948H179.978L164,202.505V179.948L179.978,164h22.557l15.917,15.948Z" transform="translate(111.988 178.47) rotate(22)"/>
      <path id="Trazado_271" data-name="Trazado 271" class="cls-6" d="M-7-6.2a3.136,3.136,0,0,1,.858.132A3.633,3.633,0,0,1-5.1-5.544,8.218,8.218,0,0,0-3.322-4.532a6.083,6.083,0,0,0,2.4.44A5.161,5.161,0,0,0,1.65-4.774a5.612,5.612,0,0,0,2-1.936,5.529,5.529,0,0,0,.792-3.014A5.177,5.177,0,0,0,3.762-12.5a4.493,4.493,0,0,0-1.8-1.672,5.206,5.206,0,0,0-2.4-.572,6.159,6.159,0,0,0-1.606.176q-.638.176-1.232.374a4.388,4.388,0,0,1-1.386.2,1.866,1.866,0,0,1-1.562-.7,2.635,2.635,0,0,1-.55-1.672,2.427,2.427,0,0,1,.242-1.1,5.472,5.472,0,0,1,.726-1.056l7.744-8.448L3.124-25.96H-7.7a2.388,2.388,0,0,1-1.76-.7,2.388,2.388,0,0,1-.7-1.76,2.263,2.263,0,0,1,.7-1.694A2.429,2.429,0,0,1-7.7-30.8H5.764a2.632,2.632,0,0,1,2.046.748,2.7,2.7,0,0,1,.682,1.892,2.279,2.279,0,0,1-.286,1.1,4.407,4.407,0,0,1-.77,1.012l-7.788,8.58-1.188-1.5A6.53,6.53,0,0,1-.2-19.36a7.362,7.362,0,0,1,1.43-.176,7.655,7.655,0,0,1,4.51,1.342A8.925,8.925,0,0,1,8.69-14.718a10.405,10.405,0,0,1,1.034,4.6A10.589,10.589,0,0,1,8.272-4.488,9.532,9.532,0,0,1,4.18-.836,14,14,0,0,1-1.98.44a13.194,13.194,0,0,1-3.212-.4A10.584,10.584,0,0,1-7.92-1.012a3.021,3.021,0,0,1-1.3-1.166,2.641,2.641,0,0,1-.33-1.21A3,3,0,0,1-8.822-5.3,2.25,2.25,0,0,1-7-6.2Z" transform="translate(217 444)"/>
    </g>
    <g id="Grupo_329" data-name="Grupo 329" transform="translate(191 296)">
      <g id="Grupo_46-2" data-name="Grupo 46" transform="translate(0 0)">
        <g id="Unión_22-2" data-name="Unión 22" class="cls-2" transform="translate(0)">
          <path class="cls-7" d="M 25.49951934814453 48.5 L 3.74970006942749 48.5 L 3.74970006942749 36.21768188476562 L 3.74970006942749 35.71768188476562 L 3.24970006942749 35.71768188476562 L 0.5 35.71768188476562 L 0.5 0.5 L 51.5 0.5 L 51.5 35.71768188476562 L 25.99951934814453 35.71768188476562 L 25.49951934814453 35.71768188476562 L 25.49951934814453 36.21768188476562 L 25.49951934814453 48.5 Z"/>
          <path class="cls-9" d="M 24.99951934814453 48 L 24.99951934814453 36.21768188476562 L 24.99951934814453 35.21768188476562 L 25.99951934814453 35.21768188476562 L 51 35.21768188476562 L 51 1 L 1 1 L 1 35.21768188476562 L 3.24970006942749 35.21768188476562 L 4.24970006942749 35.21768188476562 L 4.24970006942749 36.21768188476562 L 4.24970006942749 48 L 24.99951934814453 48 M 25.99951934814453 49 L 3.24970006942749 49 L 3.24970006942749 36.21768188476562 L -3.552713678800501e-15 36.21768188476562 L -3.552713678800501e-15 -3.552713678800501e-15 L 52 -3.552713678800501e-15 L 52 36.21768188476562 L 25.99951934814453 36.21768188476562 L 25.99951934814453 49 Z"/>
        </g>
      </g>
      <path id="Trazado_362" data-name="Trazado 362" d="M-2.128,0A8.017,8.017,0,0,0,3.415-2.277,7.735,7.735,0,0,0,5.693-7.821a7.627,7.627,0,0,0-2.277-5.544A7.607,7.607,0,0,0-2.1-15.642a7.784,7.784,0,0,0-3.927,1.056L-5.2-21.45H4.867a.8.8,0,0,0,.825-.825.817.817,0,0,0-.825-.825H-5.891a.749.749,0,0,0-.528.2.693.693,0,0,0-.33.594L-7.871-13a1.429,1.429,0,0,1-.033.165.643.643,0,0,0,.033.264.121.121,0,0,0,.033.1v.033a.513.513,0,0,0,.2.264.8.8,0,0,0,1.155,0A6.114,6.114,0,0,1-2.1-13.992,6.142,6.142,0,0,1,2.26-12.21,6.163,6.163,0,0,1,4.043-7.821,6.1,6.1,0,0,1,2.227-3.465,6.1,6.1,0,0,1-2.128-1.65,6.2,6.2,0,0,1-6.484-3.432a.837.837,0,0,0-1.188,0,.8.8,0,0,0,0,1.155A7.817,7.817,0,0,0-2.128,0Z" transform="translate(26 30)"/>
    </g>
  </g>
</svg>
