<svg xmlns="http://www.w3.org/2000/svg" width="175" height="210.887" viewBox="0 0 175 210.887">
  <defs>
    <style>
      .cls-1, .cls-2, .cls-4 {
        fill: #fff;
      }

      .cls-1 {
        stroke: #000;
      }

      .cls-3 {
        fill: #3f3832;
      }

      .cls-5 {
        fill: #858666;
      }

      .cls-6, .cls-8 {
        stroke: none;
      }

      .cls-7 {
        fill: none;
      }

      .cls-8 {
        fill: #707070;
      }
    </style>
  </defs>
  <g id="M_3_1_T" transform="translate(-88.687 -233)">
    <g id="Grupo_109" data-name="Grupo 109" transform="translate(88.334 233)">
      <g id="Rectángulo_4" data-name="Rectángulo 4" class="cls-1" transform="translate(0.352)">
        <rect class="cls-6" width="175" height="175" rx="19"/>
        <rect class="cls-7" x="0.5" y="0.5" width="174" height="174" rx="18.5"/>
      </g>
    </g>
    <g id="Grupo_106" data-name="Grupo 106" transform="translate(159.526 290.958)">
      <g id="Grupo_46" data-name="Grupo 46" transform="translate(0 0.768)">
        <g id="Unión_22" data-name="Unión 22" class="cls-2" transform="translate(0.474 0.274)">
          <path class="cls-6" d="M 19.49962997436523 37.5 L 2.999769926071167 37.5 L 2.999769926071167 28.08717918395996 L 2.999769926071167 27.58717918395996 L 2.499769926071167 27.58717918395996 L 0.5 27.58717918395996 L 0.5 0.5 L 39.5 0.5 L 39.5 27.58717918395996 L 19.99962997436523 27.58717918395996 L 19.49962997436523 27.58717918395996 L 19.49962997436523 28.08717918395996 L 19.49962997436523 37.5 Z"/>
          <path class="cls-8" d="M 18.99962997436523 37 L 18.99962997436523 28.08717918395996 L 18.99962997436523 27.08717918395996 L 19.99962997436523 27.08717918395996 L 39 27.08717918395996 L 39 1 L 1 1 L 1 27.08717918395996 L 2.499769926071167 27.08717918395996 L 3.499769926071167 27.08717918395996 L 3.499769926071167 28.08717918395996 L 3.499769926071167 37 L 18.99962997436523 37 M 19.99962997436523 38 L 2.499769926071167 38 L 2.499769926071167 28.08717918395996 L 0 28.08717918395996 L 0 0 L 40 0 L 40 28.08717918395996 L 19.99962997436523 28.08717918395996 L 19.99962997436523 38 Z"/>
        </g>
      </g>
      <path id="Trazado_246" data-name="Trazado 246" d="M-6.05-.175A.567.567,0,0,0-5.6,0H4.25a.608.608,0,0,0,.6-.6.614.614,0,0,0-.6-.625H-4.025l7-6.325A5.753,5.753,0,0,0,4.85-11.8a5.575,5.575,0,0,0-1.5-3.825A5.559,5.559,0,0,0-.85-17.5a5.867,5.867,0,0,0-3.875,1.475l-.85.8a.575.575,0,0,0-.025.85.575.575,0,0,0,.85.025l.85-.775a4.552,4.552,0,0,1,3.05-1.15A4.462,4.462,0,0,1,2.475-14.8a4.455,4.455,0,0,1,1.175,3,4.54,4.54,0,0,1-1.5,3.35L-6.025-1.075A.657.657,0,0,0-6.05-.175Z" transform="translate(19.474 24.042)"/>
    </g>
    <g id="Grupo_369" data-name="Grupo 369" transform="translate(160.157 241)">
      <g id="Grupo_46-2" data-name="Grupo 46" transform="translate(0 0.768)">
        <g id="Unión_22-2" data-name="Unión 22" class="cls-2" transform="translate(-0.157 0.232)">
          <path class="cls-6" d="M 19.49962997436523 37.5 L 2.999769926071167 37.5 L 2.999769926071167 28.08717918395996 L 2.999769926071167 27.58717918395996 L 2.499769926071167 27.58717918395996 L 0.5 27.58717918395996 L 0.5 0.5 L 39.5 0.5 L 39.5 27.58717918395996 L 19.99962997436523 27.58717918395996 L 19.49962997436523 27.58717918395996 L 19.49962997436523 28.08717918395996 L 19.49962997436523 37.5 Z"/>
          <path class="cls-8" d="M 18.99962997436523 37 L 18.99962997436523 28.08717918395996 L 18.99962997436523 27.08717918395996 L 19.99962997436523 27.08717918395996 L 39 27.08717918395996 L 39 1 L 1 1 L 1 27.08717918395996 L 2.499769926071167 27.08717918395996 L 3.499769926071167 27.08717918395996 L 3.499769926071167 28.08717918395996 L 3.499769926071167 37 L 18.99962997436523 37 M 19.99962997436523 38 L 2.499769926071167 38 L 2.499769926071167 28.08717918395996 L 0 28.08717918395996 L 0 0 L 40 0 L 40 28.08717918395996 L 19.99962997436523 28.08717918395996 L 19.99962997436523 38 Z"/>
        </g>
      </g>
      <path id="Trazado_245" data-name="Trazado 245" d="M.037-.6a.608.608,0,0,0,.6.6.592.592,0,0,0,.6-.6V-16.675a.721.721,0,0,0-.075-.45.633.633,0,0,0-.825-.225L-3.037-15.3a.577.577,0,0,0-.225.825.609.609,0,0,0,.525.3.613.613,0,0,0,.3-.1l2.475-1.45Z" transform="translate(19.843 24)"/>
    </g>
    <g id="Grupo_414" data-name="Grupo 414" transform="translate(0 -19)">
      <path id="Trazado_93" data-name="Trazado 93" class="cls-3" d="M218.453,202.505l-15.917,15.948H179.978L164,202.505V179.948L179.978,164h22.557l15.917,15.948Z" transform="translate(38.776 178.507) rotate(22)"/>
      <path id="Trazado_248" data-name="Trazado 248" class="cls-4" d="M-9.08,0a2.53,2.53,0,0,1-1.84-.7,2.329,2.329,0,0,1-.72-1.74V-22.6l.56.88-3.04,1.84a2.447,2.447,0,0,1-1.28.36,2.183,2.183,0,0,1-1.72-.78,2.49,2.49,0,0,1-.68-1.66,2.279,2.279,0,0,1,1.24-2.08l6.04-3.6A3.655,3.655,0,0,1-8.8-28a2.232,2.232,0,0,1,1.7.7,2.438,2.438,0,0,1,.66,1.74V-2.44A2.3,2.3,0,0,1-7.18-.7,2.653,2.653,0,0,1-9.08,0ZM14.56-4.4a2.171,2.171,0,0,1,1.6.64,2.171,2.171,0,0,1,.64,1.6,2.057,2.057,0,0,1-.64,1.54,2.208,2.208,0,0,1-1.6.62H.96A2.139,2.139,0,0,1-.68-.64a2.3,2.3,0,0,1-.6-1.64A2.482,2.482,0,0,1-.56-4.04l8.72-9.32a15.924,15.924,0,0,0,2.32-3.18,6.382,6.382,0,0,0,.88-3.02,4.269,4.269,0,0,0-.6-2.24A4.716,4.716,0,0,0,9.2-23.4,3.852,3.852,0,0,0,7.12-24a4.321,4.321,0,0,0-2.36.78,7.955,7.955,0,0,0-2.12,2.06,2.133,2.133,0,0,1-.96.8,2.8,2.8,0,0,1-.88.16,2.385,2.385,0,0,1-1.62-.66,2.008,2.008,0,0,1-.74-1.54,2.236,2.236,0,0,1,.46-1.32A10.827,10.827,0,0,1,.04-25.04a12.06,12.06,0,0,1,3.52-2.44A9.18,9.18,0,0,1,7.4-28.4a9.281,9.281,0,0,1,4.68,1.12,7.85,7.85,0,0,1,3.04,3.08,9.046,9.046,0,0,1,1.08,4.44,10.147,10.147,0,0,1-.62,3.42,15.753,15.753,0,0,1-1.7,3.38A24.8,24.8,0,0,1,11.4-9.8L6-4.04,5.56-4.4Z" transform="translate(145 442)"/>
      <path id="Trazado_95" data-name="Trazado 95" class="cls-5" d="M218.453,202.505l-15.917,15.948H179.978L164,202.505V179.948L179.978,164h22.557l15.917,15.948Z" transform="translate(111.988 178.47) rotate(22)"/>
      <path id="Trazado_249" data-name="Trazado 249" class="cls-4" d="M-3.5.22A2.783,2.783,0,0,1-5.412-.506a2.343,2.343,0,0,1-.814-1.826A2.8,2.8,0,0,1-5.962-3.52L4.818-27.148,5.3-25.96H-7.414a2.388,2.388,0,0,1-1.76-.7,2.388,2.388,0,0,1-.7-1.76,2.263,2.263,0,0,1,.7-1.694,2.429,2.429,0,0,1,1.76-.682H7.9a3,3,0,0,1,2,.726,2.337,2.337,0,0,1,.858,1.87,3.01,3.01,0,0,1-.264,1.188L-1.078-1.452A2.5,2.5,0,0,1-2.068-.22,2.6,2.6,0,0,1-3.5.22Z" transform="translate(217 444)"/>
    </g>
    <g id="Grupo_429" data-name="Grupo 429" transform="translate(160.157 341)">
      <g id="Grupo_46-3" data-name="Grupo 46" transform="translate(0 0.768)">
        <g id="Unión_22-3" data-name="Unión 22" class="cls-2" transform="translate(-0.157 0.232)">
          <path class="cls-6" d="M 19.49962997436523 37.5 L 2.999769926071167 37.5 L 2.999769926071167 28.08717918395996 L 2.999769926071167 27.58717918395996 L 2.499769926071167 27.58717918395996 L 0.5 27.58717918395996 L 0.5 0.5 L 39.5 0.5 L 39.5 27.58717918395996 L 19.99962997436523 27.58717918395996 L 19.49962997436523 27.58717918395996 L 19.49962997436523 28.08717918395996 L 19.49962997436523 37.5 Z"/>
          <path class="cls-8" d="M 18.99962997436523 37 L 18.99962997436523 28.08717918395996 L 18.99962997436523 27.08717918395996 L 19.99962997436523 27.08717918395996 L 39 27.08717918395996 L 39 1 L 1 1 L 1 27.08717918395996 L 2.499769926071167 27.08717918395996 L 3.499769926071167 27.08717918395996 L 3.499769926071167 28.08717918395996 L 3.499769926071167 37 L 18.99962997436523 37 M 19.99962997436523 38 L 2.499769926071167 38 L 2.499769926071167 28.08717918395996 L 0 28.08717918395996 L 0 0 L 40 0 L 40 28.08717918395996 L 19.99962997436523 28.08717918395996 L 19.99962997436523 38 Z"/>
        </g>
      </g>
      <path id="Trazado_247" data-name="Trazado 247" d="M-6.425-6.725a8.661,8.661,0,0,0,.05,1.15A5.771,5.771,0,0,0-.6,0,5.767,5.767,0,0,0,5.2-5.775,5.783,5.783,0,0,0-.6-11.55,5.748,5.748,0,0,0-4.925-9.575a11.432,11.432,0,0,1,1.25-3.5,5.928,5.928,0,0,1,5.1-3.175.654.654,0,0,0,.6-.65.608.608,0,0,0-.625-.575,7.1,7.1,0,0,0-6.125,3.8A14.436,14.436,0,0,0-6.425-6.725Zm1.275.95A4.567,4.567,0,0,1-.6-10.325,4.577,4.577,0,0,1,4-5.775,4.577,4.577,0,0,1-.6-1.225a4.581,4.581,0,0,1-4.525-3.95A.371.371,0,0,0-5.1-5.35a1.267,1.267,0,0,1-.05-.325Z" transform="translate(19.843 24)"/>
    </g>
  </g>
</svg>
