<svg xmlns="http://www.w3.org/2000/svg" width="175" height="211.538" viewBox="0 0 175 211.538">
  <defs>
    <style>
      .cls-1, .cls-2, .cls-3, .cls-6 {
        fill: #fff;
      }

      .cls-1 {
        stroke: #000;
      }

      .cls-3 {
        stroke: #f0f0f0;
      }

      .cls-4 {
        fill: #f0f0f0;
      }

      .cls-5 {
        fill: #858666;
      }

      .cls-7, .cls-9 {
        stroke: none;
      }

      .cls-8 {
        fill: none;
      }

      .cls-9 {
        fill: #707070;
      }
    </style>
  </defs>
  <g id="M_3_0_F" transform="translate(-88.687 -233)">
    <g id="Grupo_109" data-name="Grupo 109" transform="translate(88.334 233)">
      <g id="Rectángulo_4" data-name="Rectángulo 4" class="cls-1" transform="translate(0.352)">
        <rect class="cls-7" width="175" height="175" rx="19"/>
        <rect class="cls-8" x="0.5" y="0.5" width="174" height="174" rx="18.5"/>
      </g>
    </g>
    <g id="Grupo_106" data-name="Grupo 106" transform="translate(132.526 293.958)">
      <g id="Grupo_46" data-name="Grupo 46" transform="translate(0 0.768)">
        <g id="Unión_22" data-name="Unión 22" class="cls-2" transform="translate(0.474 0.274)">
          <path class="cls-7" d="M 19.49962997436523 37.5 L 2.999769926071167 37.5 L 2.999769926071167 28.08717918395996 L 2.999769926071167 27.58717918395996 L 2.499769926071167 27.58717918395996 L 0.5 27.58717918395996 L 0.5 0.5 L 39.5 0.5 L 39.5 27.58717918395996 L 19.99962997436523 27.58717918395996 L 19.49962997436523 27.58717918395996 L 19.49962997436523 28.08717918395996 L 19.49962997436523 37.5 Z"/>
          <path class="cls-9" d="M 18.99962997436523 37 L 18.99962997436523 28.08717918395996 L 18.99962997436523 27.08717918395996 L 19.99962997436523 27.08717918395996 L 39 27.08717918395996 L 39 1 L 1 1 L 1 27.08717918395996 L 2.499769926071167 27.08717918395996 L 3.499769926071167 27.08717918395996 L 3.499769926071167 28.08717918395996 L 3.499769926071167 37 L 18.99962997436523 37 M 19.99962997436523 38 L 2.499769926071167 38 L 2.499769926071167 28.08717918395996 L 0 28.08717918395996 L 0 0 L 40 0 L 40 28.08717918395996 L 19.99962997436523 28.08717918395996 L 19.99962997436523 38 Z"/>
        </g>
      </g>
      <path id="Trazado_241" data-name="Trazado 241" d="M-6.05-.175A.567.567,0,0,0-5.6,0H4.25a.608.608,0,0,0,.6-.6.614.614,0,0,0-.6-.625H-4.025l7-6.325A5.753,5.753,0,0,0,4.85-11.8a5.575,5.575,0,0,0-1.5-3.825A5.559,5.559,0,0,0-.85-17.5a5.867,5.867,0,0,0-3.875,1.475l-.85.8a.575.575,0,0,0-.025.85.575.575,0,0,0,.85.025l.85-.775a4.552,4.552,0,0,1,3.05-1.15A4.462,4.462,0,0,1,2.475-14.8a4.455,4.455,0,0,1,1.175,3,4.54,4.54,0,0,1-1.5,3.35L-6.025-1.075A.657.657,0,0,0-6.05-.175Z" transform="translate(19.474 24.042)"/>
    </g>
    <g id="Grupo_329" data-name="Grupo 329" transform="translate(190.09 293.958)">
      <g id="Grupo_46-2" data-name="Grupo 46" transform="translate(0 0.768)">
        <g id="Unión_22-2" data-name="Unión 22" class="cls-2" transform="translate(-0.09 0.274)">
          <path class="cls-7" d="M 19.49962997436523 37.5 L 2.999769926071167 37.5 L 2.999769926071167 28.08717918395996 L 2.999769926071167 27.58717918395996 L 2.499769926071167 27.58717918395996 L 0.5 27.58717918395996 L 0.5 0.5 L 39.5 0.5 L 39.5 27.58717918395996 L 19.99962997436523 27.58717918395996 L 19.49962997436523 27.58717918395996 L 19.49962997436523 28.08717918395996 L 19.49962997436523 37.5 Z"/>
          <path class="cls-9" d="M 18.99962997436523 37 L 18.99962997436523 28.08717918395996 L 18.99962997436523 27.08717918395996 L 19.99962997436523 27.08717918395996 L 39 27.08717918395996 L 39 1 L 1 1 L 1 27.08717918395996 L 2.499769926071167 27.08717918395996 L 3.499769926071167 27.08717918395996 L 3.499769926071167 28.08717918395996 L 3.499769926071167 37 L 18.99962997436523 37 M 19.99962997436523 38 L 2.499769926071167 38 L 2.499769926071167 28.08717918395996 L 0 28.08717918395996 L 0 0 L 40 0 L 40 28.08717918395996 L 19.99962997436523 28.08717918395996 L 19.99962997436523 38 Z"/>
        </g>
      </g>
      <path id="Trazado_243" data-name="Trazado 243" d="M-6.05-.175A.567.567,0,0,0-5.6,0H4.25a.608.608,0,0,0,.6-.6.614.614,0,0,0-.6-.625H-4.025l7-6.325A5.753,5.753,0,0,0,4.85-11.8a5.575,5.575,0,0,0-1.5-3.825A5.559,5.559,0,0,0-.85-17.5a5.867,5.867,0,0,0-3.875,1.475l-.85.8a.575.575,0,0,0-.025.85.575.575,0,0,0,.85.025l.85-.775a4.552,4.552,0,0,1,3.05-1.15A4.462,4.462,0,0,1,2.475-14.8a4.455,4.455,0,0,1,1.175,3,4.54,4.54,0,0,1-1.5,3.35L-6.025-1.075A.657.657,0,0,0-6.05-.175Z" transform="translate(18.911 24.042)"/>
    </g>
    <g id="Grupo_369" data-name="Grupo 369" transform="translate(160.157 241)">
      <g id="Grupo_46-3" data-name="Grupo 46" transform="translate(0 0.768)">
        <g id="Unión_22-3" data-name="Unión 22" class="cls-2" transform="translate(-0.157 0.232)">
          <path class="cls-7" d="M 19.49962997436523 37.5 L 2.999769926071167 37.5 L 2.999769926071167 28.08717918395996 L 2.999769926071167 27.58717918395996 L 2.499769926071167 27.58717918395996 L 0.5 27.58717918395996 L 0.5 0.5 L 39.5 0.5 L 39.5 27.58717918395996 L 19.99962997436523 27.58717918395996 L 19.49962997436523 27.58717918395996 L 19.49962997436523 28.08717918395996 L 19.49962997436523 37.5 Z"/>
          <path class="cls-9" d="M 18.99962997436523 37 L 18.99962997436523 28.08717918395996 L 18.99962997436523 27.08717918395996 L 19.99962997436523 27.08717918395996 L 39 27.08717918395996 L 39 1 L 1 1 L 1 27.08717918395996 L 2.499769926071167 27.08717918395996 L 3.499769926071167 27.08717918395996 L 3.499769926071167 28.08717918395996 L 3.499769926071167 37 L 18.99962997436523 37 M 19.99962997436523 38 L 2.499769926071167 38 L 2.499769926071167 28.08717918395996 L 0 28.08717918395996 L 0 0 L 40 0 L 40 28.08717918395996 L 19.99962997436523 28.08717918395996 L 19.99962997436523 38 Z"/>
        </g>
      </g>
      <path id="Trazado_242" data-name="Trazado 242" d="M.037-.6a.608.608,0,0,0,.6.6.592.592,0,0,0,.6-.6V-16.675a.721.721,0,0,0-.075-.45.633.633,0,0,0-.825-.225L-3.037-15.3a.577.577,0,0,0-.225.825.609.609,0,0,0,.525.3.613.613,0,0,0,.3-.1l2.475-1.45Z" transform="translate(19.843 24)"/>
    </g>
    <g id="Grupo_414" data-name="Grupo 414" transform="translate(0 -19)">
      <path id="Trazado_93" data-name="Trazado 93" class="cls-3" d="M218.453,202.505l-15.917,15.948H179.978L164,202.505V179.948L179.978,164h22.557l15.917,15.948Z" transform="translate(38.776 178.507) rotate(22)"/>
      <path id="Trazado_239" data-name="Trazado 239" class="cls-4" d="M-5.64,0A2.53,2.53,0,0,1-7.48-.7,2.329,2.329,0,0,1-8.2-2.44V-22.6l.56.88-3.04,1.84a2.447,2.447,0,0,1-1.28.36,2.183,2.183,0,0,1-1.72-.78,2.49,2.49,0,0,1-.68-1.66,2.279,2.279,0,0,1,1.24-2.08l6.04-3.6A3.655,3.655,0,0,1-5.36-28a2.232,2.232,0,0,1,1.7.7A2.438,2.438,0,0,1-3-25.56V-2.44A2.3,2.3,0,0,1-3.74-.7,2.653,2.653,0,0,1-5.64,0ZM8.92,0A2.53,2.53,0,0,1,7.08-.7a2.329,2.329,0,0,1-.72-1.74V-22.6l.56.88L3.88-19.88a2.447,2.447,0,0,1-1.28.36A2.183,2.183,0,0,1,.88-20.3,2.49,2.49,0,0,1,.2-21.96a2.279,2.279,0,0,1,1.24-2.08l6.04-3.6A3.655,3.655,0,0,1,9.2-28a2.232,2.232,0,0,1,1.7.7,2.438,2.438,0,0,1,.66,1.74V-2.44A2.3,2.3,0,0,1,10.82-.7,2.653,2.653,0,0,1,8.92,0Z" transform="translate(145 442)"/>
      <path id="Trazado_95" data-name="Trazado 95" class="cls-5" d="M218.453,202.505l-15.917,15.948H179.978L164,202.505V179.948L179.978,164h22.557l15.917,15.948Z" transform="translate(111.988 178.47) rotate(22)"/>
      <path id="Trazado_240" data-name="Trazado 240" class="cls-6" d="M.044.44a9.2,9.2,0,0,1-4.29-.99A9.815,9.815,0,0,1-7.5-3.256,12.927,12.927,0,0,1-9.57-7.128a13.833,13.833,0,0,1-.726-4.444,23.928,23.928,0,0,1,.33-3.608A24.362,24.362,0,0,1-8.8-19.624a20.141,20.141,0,0,1,2.332-4.532,17.017,17.017,0,0,1,3.806-3.96A16.456,16.456,0,0,1,2.992-30.8,4.172,4.172,0,0,1,4-30.932,3.283,3.283,0,0,1,5.83-30.4a2.132,2.132,0,0,1,.814,1.936,2.486,2.486,0,0,1-.638,1.694A3.5,3.5,0,0,1,4.312-25.74a13.448,13.448,0,0,0-2.97,1.3,13.764,13.764,0,0,0-2.728,2.09,13.026,13.026,0,0,0-2.156,2.794,11.707,11.707,0,0,0-1.3,3.366l-1.188-.044A18.4,18.4,0,0,1-4.51-17.842a8.785,8.785,0,0,1,2.2-1.5,6.859,6.859,0,0,1,3.058-.638,7.985,7.985,0,0,1,3.41.792,10.816,10.816,0,0,1,3.08,2.178A10.775,10.775,0,0,1,9.46-13.75,9.646,9.646,0,0,1,10.3-9.768,9.888,9.888,0,0,1,8.91-4.62a10.378,10.378,0,0,1-3.7,3.7A9.976,9.976,0,0,1,.044.44Zm0-4.84a4.661,4.661,0,0,0,2.53-.7A5.049,5.049,0,0,0,4.356-7.04a5.684,5.684,0,0,0,.66-2.728,5.649,5.649,0,0,0-.66-2.75,5.092,5.092,0,0,0-1.782-1.914,4.661,4.661,0,0,0-2.53-.7,4.661,4.661,0,0,0-2.53.7,5.092,5.092,0,0,0-1.782,1.914,5.649,5.649,0,0,0-.66,2.75,5.684,5.684,0,0,0,.66,2.728A5.049,5.049,0,0,0-2.486-5.1,4.661,4.661,0,0,0,.044-4.4Z" transform="translate(217 444)"/>
    </g>
    <g id="Grupo_429" data-name="Grupo 429" transform="translate(160.157 341)">
      <g id="Grupo_46-4" data-name="Grupo 46" transform="translate(0 0.768)">
        <g id="Unión_22-4" data-name="Unión 22" class="cls-2" transform="translate(-0.157 0.232)">
          <path class="cls-7" d="M 19.49962997436523 37.5 L 2.999769926071167 37.5 L 2.999769926071167 28.08717918395996 L 2.999769926071167 27.58717918395996 L 2.499769926071167 27.58717918395996 L 0.5 27.58717918395996 L 0.5 0.5 L 39.5 0.5 L 39.5 27.58717918395996 L 19.99962997436523 27.58717918395996 L 19.49962997436523 27.58717918395996 L 19.49962997436523 28.08717918395996 L 19.49962997436523 37.5 Z"/>
          <path class="cls-9" d="M 18.99962997436523 37 L 18.99962997436523 28.08717918395996 L 18.99962997436523 27.08717918395996 L 19.99962997436523 27.08717918395996 L 39 27.08717918395996 L 39 1 L 1 1 L 1 27.08717918395996 L 2.499769926071167 27.08717918395996 L 3.499769926071167 27.08717918395996 L 3.499769926071167 28.08717918395996 L 3.499769926071167 37 L 18.99962997436523 37 M 19.99962997436523 38 L 2.499769926071167 38 L 2.499769926071167 28.08717918395996 L 0 28.08717918395996 L 0 0 L 40 0 L 40 28.08717918395996 L 19.99962997436523 28.08717918395996 L 19.99962997436523 38 Z"/>
        </g>
      </g>
      <path id="Trazado_244" data-name="Trazado 244" d="M4.45-16.6a.5.5,0,0,0,.075-.275A.619.619,0,0,0,3.9-17.5H-4.275a.619.619,0,0,0-.625.625.619.619,0,0,0,.625.625h6.7l-4.35,4.475a.634.634,0,0,0,0,.9H-1.9a.653.653,0,0,0,.5.25A4.576,4.576,0,0,1,1.9-9.25a4.576,4.576,0,0,1,1.375,3.3A4.674,4.674,0,0,1,1.9-2.625a4.754,4.754,0,0,1-3.325,1.35,4.7,4.7,0,0,1-3.3-1.35.6.6,0,0,0-.875,0,.6.6,0,0,0,0,.875A5.83,5.83,0,0,0-1.425,0a5.948,5.948,0,0,0,4.2-1.75,5.845,5.845,0,0,0,1.75-4.2A5.922,5.922,0,0,0,2.8-10.15a5.883,5.883,0,0,0-3-1.6L4.325-16.4A.544.544,0,0,0,4.45-16.6Z" transform="translate(19.843 24)"/>
    </g>
  </g>
</svg>
