<svg xmlns="http://www.w3.org/2000/svg" width="175" height="211.538" viewBox="0 0 175 211.538">
  <defs>
    <style>
      .cls-1, .cls-2, .cls-3, .cls-6 {
        fill: #fff;
      }

      .cls-1 {
        stroke: #000;
      }

      .cls-3 {
        stroke: #f0f0f0;
      }

      .cls-4 {
        fill: #f0f0f0;
      }

      .cls-5 {
        fill: #858666;
      }

      .cls-7, .cls-9 {
        stroke: none;
      }

      .cls-8 {
        fill: none;
      }

      .cls-9 {
        fill: #707070;
      }
    </style>
  </defs>
  <g id="M_3_4_F" transform="translate(-88.687 -233)">
    <g id="Grupo_109" data-name="Grupo 109" transform="translate(88.334 233)">
      <g id="Rectángulo_4" data-name="Rectángulo 4" class="cls-1" transform="translate(0.352)">
        <rect class="cls-7" width="175" height="175" rx="19"/>
        <rect class="cls-8" x="0.5" y="0.5" width="174" height="174" rx="18.5"/>
      </g>
    </g>
    <g id="Grupo_106" data-name="Grupo 106" transform="translate(159.526 290.958)">
      <g id="Grupo_46" data-name="Grupo 46" transform="translate(0 0.768)">
        <g id="Unión_22" data-name="Unión 22" class="cls-2" transform="translate(0.474 0.274)">
          <path class="cls-7" d="M 19.49962997436523 37.5 L 2.999769926071167 37.5 L 2.999769926071167 28.08717918395996 L 2.999769926071167 27.58717918395996 L 2.499769926071167 27.58717918395996 L 0.5 27.58717918395996 L 0.5 0.5 L 39.5 0.5 L 39.5 27.58717918395996 L 19.99962997436523 27.58717918395996 L 19.49962997436523 27.58717918395996 L 19.49962997436523 28.08717918395996 L 19.49962997436523 37.5 Z"/>
          <path class="cls-9" d="M 18.99962997436523 37 L 18.99962997436523 28.08717918395996 L 18.99962997436523 27.08717918395996 L 19.99962997436523 27.08717918395996 L 39 27.08717918395996 L 39 1 L 1 1 L 1 27.08717918395996 L 2.499769926071167 27.08717918395996 L 3.499769926071167 27.08717918395996 L 3.499769926071167 28.08717918395996 L 3.499769926071167 37 L 18.99962997436523 37 M 19.99962997436523 38 L 2.499769926071167 38 L 2.499769926071167 28.08717918395996 L 0 28.08717918395996 L 0 0 L 40 0 L 40 28.08717918395996 L 19.99962997436523 28.08717918395996 L 19.99962997436523 38 Z"/>
        </g>
      </g>
      <path id="Trazado_364" data-name="Trazado 364" d="M3.1-.6a.608.608,0,0,0,.6.6.614.614,0,0,0,.625-.6v-3H5.5a.614.614,0,0,0,.625-.6A.614.614,0,0,0,5.5-4.8H4.325V-16.875c0-.025-.025-.05-.025-.1a.791.791,0,0,0-.2-.3.577.577,0,0,0-.85.075l-.025.025L-6.9-4.575a.577.577,0,0,0,.075.85A.526.526,0,0,0-6.45-3.6H3.1ZM-5.175-4.8,3.1-15.05V-4.8Z" transform="translate(19.474 24.042)"/>
    </g>
    <g id="Grupo_369" data-name="Grupo 369" transform="translate(160.157 241)">
      <g id="Grupo_46-2" data-name="Grupo 46" transform="translate(0 0.768)">
        <g id="Unión_22-2" data-name="Unión 22" class="cls-2" transform="translate(-0.157 0.232)">
          <path class="cls-7" d="M 19.49962997436523 37.5 L 2.999769926071167 37.5 L 2.999769926071167 28.08717918395996 L 2.999769926071167 27.58717918395996 L 2.499769926071167 27.58717918395996 L 0.5 27.58717918395996 L 0.5 0.5 L 39.5 0.5 L 39.5 27.58717918395996 L 19.99962997436523 27.58717918395996 L 19.49962997436523 27.58717918395996 L 19.49962997436523 28.08717918395996 L 19.49962997436523 37.5 Z"/>
          <path class="cls-9" d="M 18.99962997436523 37 L 18.99962997436523 28.08717918395996 L 18.99962997436523 27.08717918395996 L 19.99962997436523 27.08717918395996 L 39 27.08717918395996 L 39 1 L 1 1 L 1 27.08717918395996 L 2.499769926071167 27.08717918395996 L 3.499769926071167 27.08717918395996 L 3.499769926071167 28.08717918395996 L 3.499769926071167 37 L 18.99962997436523 37 M 19.99962997436523 38 L 2.499769926071167 38 L 2.499769926071167 28.08717918395996 L 0 28.08717918395996 L 0 0 L 40 0 L 40 28.08717918395996 L 19.99962997436523 28.08717918395996 L 19.99962997436523 38 Z"/>
        </g>
      </g>
      <path id="Trazado_365" data-name="Trazado 365" d="M.037-.6a.608.608,0,0,0,.6.6.592.592,0,0,0,.6-.6V-16.675a.721.721,0,0,0-.075-.45.633.633,0,0,0-.825-.225L-3.037-15.3a.577.577,0,0,0-.225.825.609.609,0,0,0,.525.3.613.613,0,0,0,.3-.1l2.475-1.45Z" transform="translate(19.843 24)"/>
    </g>
    <g id="Grupo_414" data-name="Grupo 414" transform="translate(0 -19)">
      <path id="Trazado_93" data-name="Trazado 93" class="cls-3" d="M218.453,202.505l-15.917,15.948H179.978L164,202.505V179.948L179.978,164h22.557l15.917,15.948Z" transform="translate(38.776 178.507) rotate(22)"/>
      <path id="Trazado_266" data-name="Trazado 266" class="cls-4" d="M-8.8,0a2.53,2.53,0,0,1-1.84-.7,2.329,2.329,0,0,1-.72-1.74V-22.6l.56.88-3.04,1.84a2.447,2.447,0,0,1-1.28.36,2.183,2.183,0,0,1-1.72-.78,2.49,2.49,0,0,1-.68-1.66,2.279,2.279,0,0,1,1.24-2.08l6.04-3.6A3.655,3.655,0,0,1-8.52-28a2.232,2.232,0,0,1,1.7.7,2.438,2.438,0,0,1,.66,1.74V-2.44A2.3,2.3,0,0,1-6.9-.7,2.653,2.653,0,0,1-8.8,0ZM.92-5.64a2.851,2.851,0,0,1,.78.12,3.3,3.3,0,0,1,.94.48,7.471,7.471,0,0,0,1.62.92,5.53,5.53,0,0,0,2.18.4,4.692,4.692,0,0,0,2.34-.62A5.1,5.1,0,0,0,10.6-6.1a5.026,5.026,0,0,0,.72-2.74,4.706,4.706,0,0,0-.62-2.52,4.085,4.085,0,0,0-1.64-1.52,4.733,4.733,0,0,0-2.18-.52,5.6,5.6,0,0,0-1.46.16q-.58.16-1.12.34a3.989,3.989,0,0,1-1.26.18,1.7,1.7,0,0,1-1.42-.64,2.4,2.4,0,0,1-.5-1.52,2.206,2.206,0,0,1,.22-1A4.975,4.975,0,0,1,2-16.84l7.04-7.68,1.08.92H.28a2.171,2.171,0,0,1-1.6-.64,2.171,2.171,0,0,1-.64-1.6,2.057,2.057,0,0,1,.64-1.54A2.208,2.208,0,0,1,.28-28H12.52a2.393,2.393,0,0,1,1.86.68A2.455,2.455,0,0,1,15-25.6a2.072,2.072,0,0,1-.26,1,4.006,4.006,0,0,1-.7.92l-7.08,7.8L5.88-17.24A5.936,5.936,0,0,1,7.1-17.6a6.693,6.693,0,0,1,1.3-.16,6.959,6.959,0,0,1,4.1,1.22,8.113,8.113,0,0,1,2.68,3.16,9.459,9.459,0,0,1,.94,4.18A9.627,9.627,0,0,1,14.8-4.08,8.665,8.665,0,0,1,11.08-.76,12.731,12.731,0,0,1,5.48.4,12,12,0,0,1,2.56.04,9.622,9.622,0,0,1,.08-.92,2.746,2.746,0,0,1-1.1-1.98a2.4,2.4,0,0,1-.3-1.1A2.732,2.732,0,0,1-.74-4.82,2.045,2.045,0,0,1,.92-5.64Z" transform="translate(145 442)"/>
      <path id="Trazado_95" data-name="Trazado 95" class="cls-5" d="M218.453,202.505l-15.917,15.948H179.978L164,202.505V179.948L179.978,164h22.557l15.917,15.948Z" transform="translate(111.988 178.47) rotate(22)"/>
      <path id="Trazado_267" data-name="Trazado 267" class="cls-6" d="M-3.5.22A2.783,2.783,0,0,1-5.412-.506a2.343,2.343,0,0,1-.814-1.826A2.8,2.8,0,0,1-5.962-3.52L4.818-27.148,5.3-25.96H-7.414a2.388,2.388,0,0,1-1.76-.7,2.388,2.388,0,0,1-.7-1.76,2.263,2.263,0,0,1,.7-1.694,2.429,2.429,0,0,1,1.76-.682H7.9a3,3,0,0,1,2,.726,2.337,2.337,0,0,1,.858,1.87,3.01,3.01,0,0,1-.264,1.188L-1.078-1.452A2.5,2.5,0,0,1-2.068-.22,2.6,2.6,0,0,1-3.5.22Z" transform="translate(217 444)"/>
    </g>
    <g id="Grupo_429" data-name="Grupo 429" transform="translate(160.157 341)">
      <g id="Grupo_46-3" data-name="Grupo 46" transform="translate(0 0.768)">
        <g id="Unión_22-3" data-name="Unión 22" class="cls-2" transform="translate(-0.157 0.232)">
          <path class="cls-7" d="M 19.49962997436523 37.5 L 2.999769926071167 37.5 L 2.999769926071167 28.08717918395996 L 2.999769926071167 27.58717918395996 L 2.499769926071167 27.58717918395996 L 0.5 27.58717918395996 L 0.5 0.5 L 39.5 0.5 L 39.5 27.58717918395996 L 19.99962997436523 27.58717918395996 L 19.49962997436523 27.58717918395996 L 19.49962997436523 28.08717918395996 L 19.49962997436523 37.5 Z"/>
          <path class="cls-9" d="M 18.99962997436523 37 L 18.99962997436523 28.08717918395996 L 18.99962997436523 27.08717918395996 L 19.99962997436523 27.08717918395996 L 39 27.08717918395996 L 39 1 L 1 1 L 1 27.08717918395996 L 2.499769926071167 27.08717918395996 L 3.499769926071167 27.08717918395996 L 3.499769926071167 28.08717918395996 L 3.499769926071167 37 L 18.99962997436523 37 M 19.99962997436523 38 L 2.499769926071167 38 L 2.499769926071167 28.08717918395996 L 0 28.08717918395996 L 0 0 L 40 0 L 40 28.08717918395996 L 19.99962997436523 28.08717918395996 L 19.99962997436523 38 Z"/>
        </g>
      </g>
      <path id="Trazado_363" data-name="Trazado 363" d="M-1.612,0a6.074,6.074,0,0,0,4.2-1.725,5.86,5.86,0,0,0,1.725-4.2,5.778,5.778,0,0,0-1.725-4.2A5.763,5.763,0,0,0-1.588-11.85a5.9,5.9,0,0,0-2.975.8l.625-5.2H3.688a.6.6,0,0,0,.625-.625.619.619,0,0,0-.625-.625h-8.15a.568.568,0,0,0-.4.15.525.525,0,0,0-.25.45l-.85,7.05a1.083,1.083,0,0,1-.025.125.487.487,0,0,0,.025.2.092.092,0,0,0,.025.075v.025a.389.389,0,0,0,.15.2.6.6,0,0,0,.875,0A4.632,4.632,0,0,1-1.588-10.6a4.653,4.653,0,0,1,3.3,1.35,4.669,4.669,0,0,1,1.35,3.325,4.618,4.618,0,0,1-1.375,3.3,4.618,4.618,0,0,1-3.3,1.375,4.7,4.7,0,0,1-3.3-1.35.634.634,0,0,0-.9,0,.6.6,0,0,0,0,.875A5.922,5.922,0,0,0-1.612,0Z" transform="translate(19.843 24)"/>
    </g>
  </g>
</svg>
