<svg xmlns="http://www.w3.org/2000/svg" width="121.756" height="100.672" viewBox="0 0 121.756 100.672">
  <g id="Grupo_27" data-name="Grupo 27" transform="translate(-384.245 -130)">
    <g id="Unión_13" data-name="Unión 13" transform="translate(1382.233 1)" fill="#da5468" stroke-linecap="square">
      <path d="M -974.89892578125 229.1711120605469 C -980.59326171875 229.1711120605469 -985.9539794921875 228.3470458984375 -989.9935913085938 226.8507080078125 C -994.1895141601562 225.2964782714844 -996.5003051757812 223.1670227050781 -996.5003051757812 220.8545989990234 C -996.5003051757812 220.5467987060547 -996.4002075195312 220.2731323242188 -996.1448974609375 219.9164276123047 L -996.5499267578125 219.8759155273438 L -995.3895874023438 219.1013641357422 L -974.73291015625 205.3125457763672 L -974.73291015625 169.9533081054688 C -974.73291015625 164.8968963623047 -972.5014038085938 160.1070861816406 -968.4494018554688 156.4662017822266 C -964.5414428710938 152.9547271728516 -959.33154296875 150.8610687255859 -953.7332153320312 150.5427398681641 L -953.7332153320312 150.5001983642578 L -953.2332153320312 150.5001983642578 L -937.732177734375 150.5001983642578 L -937.7276000976562 132.3115692138672 C -937.731201171875 132.2561645507812 -937.7330322265625 132.1996765136719 -937.7330322265625 132.1434020996094 C -937.7330322265625 130.6856079101562 -936.6112060546875 129.4996032714844 -935.2322998046875 129.4996032714844 C -934.4591674804688 129.4996032714844 -933.7456665039062 129.8687591552734 -933.2734985351562 130.5003967285156 L -911.23291015625 130.5003967285156 L -910.73291015625 130.5003967285156 L -910.73291015625 131.0003967285156 L -910.73291015625 142.0001983642578 L -910.73291015625 142.5001983642578 L -911.23291015625 142.5001983642578 L -932.7325439453125 142.5001983642578 L -932.7325439453125 150.5001983642578 L -899.29443359375 150.5001983642578 L -898.5357055664062 150.5001983642578 L -898.0357055664062 150.5001983642578 L -898.0357055664062 150.5297241210938 C -892.3695678710938 150.7976684570312 -887.087158203125 152.8700866699219 -883.1145629882812 156.3933258056641 C -878.9985961914062 160.043701171875 -876.7318115234375 164.8597106933594 -876.7318115234375 169.9542083740234 L -876.7318115234375 207 L -876.7318115234375 207.5 L -877.2318115234375 207.5 L -898.5357055664062 207.5 L -930.2328491210938 207.5 L -933.0795288085938 207.5 L -954.2897338867188 223.4113922119141 C -955.64013671875 225.0854339599609 -958.3021850585938 226.5189819335938 -961.9953002929688 227.5600280761719 C -965.7343139648438 228.6139984130859 -970.1962890625 229.1711120605469 -974.89892578125 229.1711120605469 Z" stroke="none"/>
      <path d="M -974.89892578125 228.6711120605469 C -965.3013305664062 228.6711120605469 -957.2012939453125 226.2987060546875 -954.6408081054688 223.0496978759766 L -933.2462158203125 207 L -933.2325439453125 207 L -930.2328491210938 207 L -898.5357055664062 207 L -877.2318115234375 207 L -877.2318115234375 169.9542083740234 C -877.2318115234375 159.7041015625 -886.7025146484375 151.3538970947266 -898.5357055664062 151.0110015869141 L -898.5357055664062 151.0001983642578 L -899.29443359375 151.0001983642578 L -933.2325439453125 151.0001983642578 L -933.2325439453125 142.0001983642578 L -911.23291015625 142.0001983642578 L -911.23291015625 131.0003967285156 L -933.54052734375 131.0003967285156 C -933.89501953125 130.3992004394531 -934.5204467773438 129.9996032714844 -935.2322998046875 129.9996032714844 C -936.3366088867188 129.9996032714844 -937.2330322265625 130.9598999023438 -937.2330322265625 132.1434020996094 C -937.2330322265625 132.1938018798828 -937.231201171875 132.2451171875 -937.2276000976562 132.2946014404297 L -937.2322998046875 151.0001983642578 L -953.2332153320312 151.0001983642578 L -953.2332153320312 151.0194396972656 C -964.9190063476562 151.4698791503906 -974.23291015625 159.7741851806641 -974.23291015625 169.9533081054688 L -974.23291015625 205.6941070556641 L -974.4039306640625 205.6941070556641 L -995.1119995117188 219.5172119140625 L -995.093994140625 219.5190124511719 C -995.2794189453125 219.662109375 -995.4288330078125 219.8070068359375 -995.53955078125 219.951904296875 C -995.9111938476562 220.4001007080078 -996.0003051757812 220.6260070800781 -996.0003051757812 220.8545989990234 C -996.0003051757812 225.1719055175781 -986.5530395507812 228.6711120605469 -974.89892578125 228.6711120605469 M -974.89892578125 229.6711120605469 C -980.6510620117188 229.6711120605469 -986.073486328125 228.8359832763672 -990.167236328125 227.3195953369141 C -992.2198486328125 226.5592651367188 -993.8461303710938 225.6609497070312 -995.0009155273438 224.6495666503906 C -996.32763671875 223.4876403808594 -997.0003051757812 222.2108306884766 -997.0003051757812 220.8545989990234 C -997.0003051757812 220.6722717285156 -996.9736938476562 220.5028839111328 -996.924560546875 220.3409423828125 L -997.9879150390625 220.234619140625 L -995.6671752929688 218.6855010986328 L -975.23291015625 205.0451354980469 L -975.23291015625 169.9533081054688 C -975.23291015625 164.7531433105469 -972.9425048828125 159.8312530517578 -968.7835693359375 156.0942840576172 C -964.9014282226562 152.60595703125 -959.7653198242188 150.4874420166016 -954.2332153320312 150.0745391845703 L -954.2332153320312 150.0001983642578 L -953.2332153320312 150.0001983642578 L -938.2320556640625 150.0001983642578 L -938.2276000976562 132.3271636962891 C -938.231201171875 132.2664184570312 -938.2330322265625 132.2047729492188 -938.2330322265625 132.1434020996094 C -938.2330322265625 130.409912109375 -936.8869018554688 128.9996032714844 -935.2322998046875 128.9996032714844 C -934.3843994140625 128.9996032714844 -933.597412109375 129.3652801513672 -933.0360107421875 130.0003967285156 L -911.23291015625 130.0003967285156 L -910.23291015625 130.0003967285156 L -910.23291015625 131.0003967285156 L -910.23291015625 142.0001983642578 L -910.23291015625 143.0001983642578 L -911.23291015625 143.0001983642578 L -932.2325439453125 143.0001983642578 L -932.2325439453125 150.0001983642578 L -899.29443359375 150.0001983642578 L -898.5357055664062 150.0001983642578 L -897.5357055664062 150.0001983642578 L -897.5357055664062 150.0570373535156 C -891.9364013671875 150.4212951660156 -886.72900390625 152.5194396972656 -882.7827758789062 156.0192565917969 C -878.558349609375 159.7658386230469 -876.2318115234375 164.7146911621094 -876.2318115234375 169.9542083740234 L -876.2318115234375 207 L -876.2318115234375 208 L -877.2318115234375 208 L -898.5357055664062 208 L -930.2328491210938 208 L -932.9127807617188 208 L -953.9409790039062 223.7747955322266 C -956.8521118164062 227.3063507080078 -965.238037109375 229.6711120605469 -974.89892578125 229.6711120605469 Z" stroke="none" fill="#b4d6c8"/>
    </g>
    <g id="Grupo_26" data-name="Grupo 26" transform="translate(-216.864 599.885)">
      <path id="Unión_10" data-name="Unión 10" d="M0,24,0,2.295q0-.075,0-.152A2.075,2.075,0,0,1,2,0,2.066,2.066,0,0,1,4,2.027H4v.085c0,.01,0,.02,0,.03s0,.027,0,.04L3.945,24Z" transform="translate(661.864 -468.885)" fill="#da5468"/>
      <rect id="Rectángulo_34" data-name="Rectángulo 34" width="23" height="11" transform="translate(664.864 -467.885)" fill="#da5468"/>
      <path id="Unión_8" data-name="Unión 8" d="M55.7,56H1V0H55.7V.011C67.53.354,77,8.7,77,18.954V56Z" transform="translate(644.864 -447.885)" fill="#da5468"/>
      <path id="Unión_9" data-name="Unión 9" d="M0,56V18.954C0,8.486,9.849,0,22,0S44,8.486,44,18.954V56Z" transform="translate(624.864 -447.885)" fill="#da5468"/>
      <path id="Unión_11" data-name="Unión 11" d="M0,22.977,23.136,5.622C25.7,2.373,33.8,0,43.394,0c11.654,0,21.1,3.5,21.1,7.817,0,.229-.089.454-.461.9a2.362,2.362,0,0,1-.445.433l.017,0L42.9,22.977Z" transform="translate(667.592 -370.214) rotate(180)" fill="#da5468"/>
      <path id="Unión_12" data-name="Unión 12" d="M0,53V17.938C0,8.031,8.73,0,19.5,0S39,8.031,39,17.938V53Z" transform="translate(626.864 -444.885)" fill="#b6374d"/>
      <rect id="Rectángulo_36" data-name="Rectángulo 36" width="1" height="20" transform="translate(664.864 -467.885)" fill="#be4256"/>
      <text id="BIS" transform="translate(668.864 -405.885)" fill="#ea94a8" font-size="29" font-family="HelveticaNeue, Helvetica Neue"><tspan x="0" y="0">BIS</tspan></text>
    </g>
  </g>
</svg>
