<svg xmlns="http://www.w3.org/2000/svg" width="93" height="95" viewBox="0 0 93 95">
  <g id="Grupo_282" data-name="Grupo 282" transform="translate(-3288 -1239)">
    <path id="iconfinder_arrow-right-01_186409" d="M35.573,25.591,11.627,1.645a5.663,5.663,0,0,0-7.981,0l-2,2a5.66,5.66,0,0,0,0,7.979L19.918,29.9,1.645,48.17a5.66,5.66,0,0,0,0,7.979l2,2a5.658,5.658,0,0,0,7.981,0L35.57,34.2a5.6,5.6,0,0,0,1.616-4.3A5.593,5.593,0,0,0,35.573,25.591Z" transform="translate(3318.804 1256.206)"/>
    <g id="Elipse_45" data-name="Elipse 45" transform="translate(3288 1239)" fill="none" stroke="#000" stroke-width="1">
      <ellipse cx="46.5" cy="47.5" rx="46.5" ry="47.5" stroke="none"/>
      <ellipse cx="46.5" cy="47.5" rx="46" ry="47" fill="none"/>
    </g>
  </g>
</svg>
