<svg xmlns="http://www.w3.org/2000/svg" width="102.405" height="87.279" viewBox="0 0 102.405 87.279">
  <g id="Grupo_60" data-name="Grupo 60" transform="translate(-1768.445 384.585)">
    <path id="Trazado_88" data-name="Trazado 88" d="M1587.866-581.035c-.04.8,10.16-10.284,44.563,0,1.135.339,2.253.655,3.464.975,32.243,8.555,51.1-2.361,53.992-6.692,2.994-4.479-11.465,10.979-41.871-2.439S1587.906-581.838,1587.866-581.035Z" transform="translate(180.58 279.569)" fill="#37c837"/>
    <g id="Grupo_60-2" data-name="Grupo 60" transform="translate(1822.703 -348.965)">
      <path id="path977-5-8" d="M-51.621,326.65h14.681" transform="translate(58.864 -282.566)" fill="none" stroke="#241f1c" stroke-linecap="round" stroke-linejoin="round" stroke-width="2"/>
      <path id="path979-8-6-6-8-5-7-2-3-7" d="M-48.962,342.577l-.1-28.038h3.27l.191,28.014Z" transform="translate(62.231 -298.493)" fill="#784421" stroke="#241f1c" stroke-linecap="round" stroke-linejoin="round" stroke-width="2"/>
      <ellipse id="path837-1-2-8-9-4" cx="10.531" cy="10.122" rx="10.531" ry="10.122" transform="translate(0 15.232)" fill="#5fd35f" stroke="rgba(36,31,28,0.99)" stroke-linecap="round" stroke-linejoin="round" stroke-width="2"/>
      <ellipse id="ellipse9017" cx="16.102" cy="15.476" rx="16.102" ry="15.476" transform="translate(4.338)" fill="#37c837" stroke="rgba(36,31,28,0.99)" stroke-linecap="round" stroke-linejoin="round" stroke-width="2"/>
    </g>
    <path id="path972-85-1-7-4-9" d="M-11.637,403.773s14.1,1.522,11.9-9.8" transform="translate(1826.582 -730.422)" fill="none" stroke="#241f1c" stroke-linecap="round" stroke-linejoin="round" stroke-width="0.003"/>
    <g id="Grupo_61" data-name="Grupo 61" transform="translate(1780.546 -383.585)">
      <ellipse id="path4729" cx="12.436" cy="11.54" rx="12.436" ry="11.54" transform="translate(8.678 28.287)" fill="#2ca02c" stroke="#241f1c" stroke-linecap="round" stroke-linejoin="round" stroke-width="2"/>
      <path id="path979-8-6-6-8-5-7" d="M-13.148,438.5l-.177-49.8h5.808l.34,49.76Z" transform="translate(40.783 -363.267)" fill="#784421" stroke="#241f1c" stroke-linecap="round" stroke-linejoin="round" stroke-width="2"/>
      <ellipse id="path4729-7" cx="16.669" cy="15.468" rx="16.669" ry="15.468" transform="translate(0 7.208)" fill="#37c837" stroke="#241f1c" stroke-linecap="round" stroke-linejoin="round" stroke-width="2"/>
      <ellipse id="path4729-7-7" cx="16.669" cy="15.468" rx="16.669" ry="15.468" transform="translate(19.222)" fill="#5fd35f" stroke="#241f1c" stroke-linecap="round" stroke-linejoin="round" stroke-width="2"/>
      <path id="path977-8-5-8-2-0" d="M-14.931,400.952H4.4" transform="translate(35.782 -325.117)" fill="none" stroke="#241f1c" stroke-linecap="round" stroke-linejoin="round" stroke-width="2"/>
      <ellipse id="path4729-7-7-7" cx="12.027" cy="11.16" rx="12.027" ry="11.16" transform="translate(33.8 25.286)" fill="#37c837" stroke="#241f1c" stroke-linecap="round" stroke-linejoin="round" stroke-width="2"/>
    </g>
    <path id="path8203" d="M-11.637,403.773s14.1,1.522,11.9-9.8" transform="translate(1826.582 -730.422)" fill="none" stroke="#241f1c" stroke-linecap="round" stroke-linejoin="round" stroke-width="0.003"/>
    <path id="path8755" d="M-11.637,403.773s14.1,1.522,11.9-9.8" transform="translate(1826.582 -730.422)" fill="none" stroke="#241f1c" stroke-linecap="round" stroke-linejoin="round" stroke-width="0.003"/>
  </g>
</svg>
