<svg xmlns="http://www.w3.org/2000/svg" width="124.483" height="78.099" viewBox="0 0 124.483 78.099">
  <g id="Grupo_29" data-name="Grupo 29" transform="translate(-343.909 -130.901)">
    <path id="Trazado_67" data-name="Trazado 67" d="M375.91-368.866l26.518-45.4,59.365-14.621-8.24-6.843,46.841-3.37-31.262,33.24v-12.258L400.572-381.9Z" transform="translate(-32 570)" fill="#a677ae"/>
    <path id="Unión_16" data-name="Unión 16" d="M0,32.518V0H31V32.518C31,37.2,24.06,41,15.5,41S0,37.2,0,32.518Z" transform="translate(400.249 157)" fill="#9c66a2"/>
    <path id="Trazado_75" data-name="Trazado 75" d="M384.526-390.479s10.818,11.248,29.795.488" transform="translate(16.722 568.842)" fill="none" stroke="#945b9c" stroke-width="1"/>
    <path id="Trazado_76" data-name="Trazado 76" d="M384.526-390.479s10.818,11.248,29.795.488" transform="translate(16.722 563.195)" fill="none" stroke="#945b9c" stroke-width="1"/>
    <path id="Trazado_77" data-name="Trazado 77" d="M384.526-390.479s10.818,11.248,29.795.488" transform="translate(16.722 556.136)" fill="none" stroke="#945b9c" stroke-width="1"/>
    <path id="Trazado_74" data-name="Trazado 74" d="M384.526-390.479s10.818,11.248,29.795.488" transform="translate(16.722 575.9)" fill="none" stroke="#945b9c" stroke-width="1"/>
    <path id="Unión_15" data-name="Unión 15" d="M0,21.429V0H31V21.429C31,26.163,24.06,30,15.5,30S0,26.163,0,21.429Z" transform="translate(378.249 173)" fill="#9c66a2"/>
    <path id="Trazado_72" data-name="Trazado 72" d="M384.526-390.479s10.818,11.248,29.795.488" transform="translate(-5.865 580.135)" fill="none" stroke="#945b9c" stroke-width="1"/>
    <path id="Trazado_73" data-name="Trazado 73" d="M384.526-390.479s10.818,11.248,29.795.488" transform="translate(-5.865 573.077)" fill="none" stroke="#945b9c" stroke-width="1"/>
    <path id="Unión_14" data-name="Unión 14" d="M0,11.428V0H31V11.428C31,16.162,24.06,20,15.5,20S0,16.162,0,11.428Z" transform="translate(356.249 189)" fill="#9c66a2"/>
    <ellipse id="Elipse_27" data-name="Elipse 27" cx="15.5" cy="8.5" rx="15.5" ry="8.5" transform="translate(356.249 181)" fill="#c28ebb"/>
    <ellipse id="Elipse_29" data-name="Elipse 29" cx="15.5" cy="8.5" rx="15.5" ry="8.5" transform="translate(400.249 148)" fill="#c28ebb"/>
    <ellipse id="Elipse_31" data-name="Elipse 31" cx="15.5" cy="8.5" rx="15.5" ry="8.5" transform="translate(378.249 165)" fill="#c28ebb"/>
    <g id="iconfinder_Currency_dollar_381602" transform="translate(360.978 183.141)">
      <g id="_x24_-sign_1_" transform="translate(0 0)">
        <g id="_x24_-sign">
          <path id="Top" d="M0,0H5.647V1.949L0,2.122Z" transform="translate(8.188)" fill="#34b67a"/>
          <path id="Bottom" d="M0,1.049,5.647.9V3.756H0Z" transform="translate(8.188 6.41)" fill="#34b67a"/>
          <path id="Shadow" d="M9.7,32.647v0Z" transform="translate(4.135 -20.505)" fill="#0ba55f"/>
          <path id="S" d="M1.594,8.851c1.976.186,5.082.371,8.188.371,3.388,0,5.223-.265,5.223-.689,0-.371-1.553-.61-5.506-.848C3.994,7.314.465,6.757.465,5.856.465,4.8,5.123,4,12.888,4c3.812,0,6.494.133,8.329.318L19.523,5.432c-1.271-.133-3.67-.292-6.776-.292-3.247,0-4.8.292-4.8.583,0,.4,1.835.557,6.07.875,5.788.4,8.47.981,8.47,1.856,0,1.034-4.235,1.909-13.27,1.909-3.812,0-7.482-.186-9.317-.371Z" transform="translate(0.1 -2.455)" fill="#34b67a"/>
        </g>
      </g>
    </g>
    <g id="iconfinder_Currency_dollar_381602-2" data-name="iconfinder_Currency_dollar_381602" transform="translate(404.741 150.672)">
      <g id="_x24_-sign_1_2" data-name="_x24_-sign_1_" transform="translate(0 0)">
        <g id="_x24_-sign-2" data-name="_x24_-sign">
          <path id="Top-2" data-name="Top" d="M0,0H5.647V1.949L0,2.122Z" transform="translate(8.188)" fill="#e2c4db"/>
          <path id="Bottom-2" data-name="Bottom" d="M0,1.049,5.647.9V3.756H0Z" transform="translate(8.188 6.41)" fill="#e2c4db"/>
          <path id="Shadow-2" data-name="Shadow" d="M9.7,32.647v0Z" transform="translate(4.135 -20.505)" fill="#e2c4db"/>
          <path id="S-2" data-name="S" d="M1.594,8.851c1.976.186,5.082.371,8.188.371,3.388,0,5.223-.265,5.223-.689,0-.371-1.553-.61-5.506-.848C3.994,7.314.465,6.757.465,5.856.465,4.8,5.123,4,12.888,4c3.812,0,6.494.133,8.329.318L19.523,5.432c-1.271-.133-3.67-.292-6.776-.292-3.247,0-4.8.292-4.8.583,0,.4,1.835.557,6.07.875,5.788.4,8.47.981,8.47,1.856,0,1.034-4.235,1.909-13.27,1.909-3.812,0-7.482-.186-9.317-.371Z" transform="translate(0.1 -2.455)" fill="#e2c4db"/>
        </g>
      </g>
    </g>
    <g id="iconfinder_Currency_dollar_381602-3" data-name="iconfinder_Currency_dollar_381602" transform="translate(360.978 183.141)">
      <g id="_x24_-sign_1_3" data-name="_x24_-sign_1_" transform="translate(0 0)">
        <g id="_x24_-sign-3" data-name="_x24_-sign">
          <path id="Top-3" data-name="Top" d="M0,0H5.647V1.949L0,2.122Z" transform="translate(8.188)" fill="#e2c4db"/>
          <path id="Bottom-3" data-name="Bottom" d="M0,1.049,5.647.9V3.756H0Z" transform="translate(8.188 6.41)" fill="#e2c4db"/>
          <path id="Shadow-3" data-name="Shadow" d="M9.7,32.647v0Z" transform="translate(4.135 -20.505)" fill="#e2c4db"/>
          <path id="S-3" data-name="S" d="M1.594,8.851c1.976.186,5.082.371,8.188.371,3.388,0,5.223-.265,5.223-.689,0-.371-1.553-.61-5.506-.848C3.994,7.314.465,6.757.465,5.856.465,4.8,5.123,4,12.888,4c3.812,0,6.494.133,8.329.318L19.523,5.432c-1.271-.133-3.67-.292-6.776-.292-3.247,0-4.8.292-4.8.583,0,.4,1.835.557,6.07.875,5.788.4,8.47.981,8.47,1.856,0,1.034-4.235,1.909-13.27,1.909-3.812,0-7.482-.186-9.317-.371Z" transform="translate(0.1 -2.455)" fill="#e2c4db"/>
        </g>
      </g>
    </g>
    <g id="iconfinder_Currency_dollar_381602-4" data-name="iconfinder_Currency_dollar_381602" transform="translate(382.153 169.024)">
      <g id="_x24_-sign_1_4" data-name="_x24_-sign_1_" transform="translate(0 0)">
        <g id="_x24_-sign-4" data-name="_x24_-sign">
          <path id="Top-4" data-name="Top" d="M0,0H5.647V1.949L0,2.122Z" transform="translate(8.188)" fill="#e2c4db"/>
          <path id="Bottom-4" data-name="Bottom" d="M0,1.049,5.647.9V3.756H0Z" transform="translate(8.188 6.41)" fill="#e2c4db"/>
          <path id="Shadow-4" data-name="Shadow" d="M9.7,32.647v0Z" transform="translate(4.135 -20.505)" fill="#e2c4db"/>
          <path id="S-4" data-name="S" d="M1.594,8.851c1.976.186,5.082.371,8.188.371,3.388,0,5.223-.265,5.223-.689,0-.371-1.553-.61-5.506-.848C3.994,7.314.465,6.757.465,5.856.465,4.8,5.123,4,12.888,4c3.812,0,6.494.133,8.329.318L19.523,5.432c-1.271-.133-3.67-.292-6.776-.292-3.247,0-4.8.292-4.8.583,0,.4,1.835.557,6.07.875,5.788.4,8.47.981,8.47,1.856,0,1.034-4.235,1.909-13.27,1.909-3.812,0-7.482-.186-9.317-.371Z" transform="translate(0.1 -2.455)" fill="#e2c4db"/>
        </g>
      </g>
    </g>
    <path id="Trazado_71" data-name="Trazado 71" d="M384.526-390.479s10.818,11.248,29.795.488" transform="translate(-27.041 587.194)" fill="none" stroke="#945b9c" stroke-width="1"/>
  </g>
</svg>
