<svg xmlns="http://www.w3.org/2000/svg" width="127.429" height="101.952" viewBox="0 0 127.429 101.952">
  <g id="Grupo_25" data-name="Grupo 25" transform="translate(-2495.381 690.055)">
    <path id="Trazado_43" data-name="Trazado 43" d="M2540.98-600.014h-33.606V-643H2494.38l40.174-46.055,11.7,13.993h31.606v-8.59h12.268v8.59h7.224l13.389,21.621v53.426Z" transform="translate(1 -1)" fill="#beb2a6"/>
    <g id="Grupo_20" data-name="Grupo 20" transform="translate(2541.275 -666.854)">
      <path id="Unión_3" data-name="Unión 3" d="M66.622,72.793H59.707v3.673H53.978V75.105H52.616V72.793H47.14v3.673H42.176V75.105H40.815V72.793H36.258v3.635H31.032V75.067H29.67V72.793H25.617v3.673H19.833V75.105H18.472V72.793H13.66V76.92H5.735v-.106l-.817.146-.006-4.167H0V64.172H4.9L4.852,30.14H0V21.519H4.839l-.01-7.141H2.721V13.017H1.814V10.023H4.827V8.736H2.721L4.1,7.374H1.814L9.3,0l6.287,8.971h-.047l.954,1.362H13.66v.615h1.932v1.361H16.5v2.069H13.66v7.141h4.812V16.24l3.434-3.62,1.077,1.66.284-.3,2.349,3.62v3.918H29.67V16.584l3.167-3.85.978,1.827L34.2,14.1l2.06,3.85v3.574h4.557V16.035l3-3.684.977,1.833.384-.472L47.14,17.4v4.122h5.476V16.327l3.869-3.869,1.11,1.613.251-.251,1.861,2.7v5H66.55l-.01-7.141H64.431V13.017h-.907V10.023h3.014V8.736H64.431l1.383-1.361h-2.29L71.015,0,77.3,8.971h-.047l.954,1.362H75.37v.615H77.3v1.361h.907v2.069H75.37v7.141h2.222V30.14H75.37V64.172h2.222v8.621H75.37V76.92H67.445v-.106l-.817.146Zm-.012-8.621L66.562,30.14H59.707V64.172Zm-13.994,0V30.14H47.14V64.172Zm-11.8,0V30.14H36.258V64.172Zm-11.145,0V30.14H25.617V64.172Zm-11.2,0V30.14H13.66V64.172Z" transform="translate(0.443 0)" fill="none" stroke="#d4cfb9" stroke-width="3"/>
      <g id="Grupo_19" data-name="Grupo 19" transform="translate(0 0)">
        <path id="Trazado_48" data-name="Trazado 48" d="M2742.6-558.964l7.835-1.4v-62.542h2.839v-2.069h-2.839v-1.976h2.839l-6.287-8.971-7.49,7.374h3.014v2.649H2739.5v2.993h3.014Z" transform="translate(-2675.531 635.924)" fill="#686367"/>
        <path id="Trazado_49" data-name="Trazado 49" d="M2742.511-560.365h7.925v-62.542h2.839v-2.069h-2.839v-1.976h2.839l-6.287-8.971-7.49,7.374h3.014v2.649H2739.5v2.993h3.014Z" transform="translate(-2674.624 637.286)" fill="#fefeff"/>
        <path id="Trazado_50" data-name="Trazado 50" d="M2742.6-558.964l7.835-1.4v-62.542h2.839v-2.069h-2.839v-1.976h2.839l-6.287-8.971-7.49,7.374h3.014v2.649H2739.5v2.993h3.014Z" transform="translate(-2737.241 635.924)" fill="#686367"/>
        <path id="Trazado_51" data-name="Trazado 51" d="M2742.511-560.365h7.925v-62.542h2.839v-2.069h-2.839v-1.976h2.839l-6.287-8.971-7.49,7.374h3.014v2.649H2739.5v2.993h3.014Z" transform="translate(-2736.334 637.286)" fill="#fefeff"/>
        <path id="Trazado_52" data-name="Trazado 52" d="M2643.21-544.627h5.784v-58.865l-2.35-3.62-3.434,3.62Z" transform="translate(-2624.296 619.732)" fill="#6a6569"/>
        <path id="Trazado_53" data-name="Trazado 53" d="M2667.889-603.01l3.166-3.85,2.06,3.85v58.483h-5.226Z" transform="translate(-2637.776 619.594)" fill="#6a6569"/>
        <path id="Trazado_54" data-name="Trazado 54" d="M2692.45-544.95h4.964v-59.07l-1.963-3.684-3,3.684Z" transform="translate(-2651.192 620.055)" fill="#6a6569"/>
        <path id="Trazado_55" data-name="Trazado 55" d="M2718.458-544.822h5.729v-59.943l-1.861-2.7-3.869,3.869Z" transform="translate(-2665.4 619.927)" fill="#6a6569"/>
        <path id="Trazado_44" data-name="Trazado 44" d="M2643.21-544.627h5.784v-58.865l-2.35-3.62-3.434,3.62Z" transform="translate(-2622.934 621.093)" fill="#fff"/>
        <path id="Trazado_45" data-name="Trazado 45" d="M2667.889-603.01l3.166-3.85,2.06,3.85v58.483h-5.226Z" transform="translate(-2636.415 620.955)" fill="#fff"/>
        <path id="Trazado_46" data-name="Trazado 46" d="M2692.45-544.95h4.964v-59.07l-1.963-3.684-3,3.684Z" transform="translate(-2649.831 621.417)" fill="#fff"/>
        <path id="Trazado_47" data-name="Trazado 47" d="M2718.458-544.822h5.729v-59.943l-1.861-2.7-3.869,3.869Z" transform="translate(-2664.038 621.289)" fill="#fff"/>
        <rect id="Rectángulo_23" data-name="Rectángulo 23" width="78" height="9" transform="translate(-0.21 64.277)" fill="#686868"/>
        <rect id="Rectángulo_22" data-name="Rectángulo 22" width="76" height="7" transform="translate(1.79 64.277)" fill="#fff"/>
        <rect id="Rectángulo_24" data-name="Rectángulo 24" width="78" height="9" transform="translate(-0.21 21.277)" fill="#686868"/>
        <rect id="Rectángulo_25" data-name="Rectángulo 25" width="76" height="8" transform="translate(1.79 21.277)" fill="#fff"/>
      </g>
    </g>
  </g>
</svg>
