<svg xmlns="http://www.w3.org/2000/svg" width="109.448" height="106.921" viewBox="0 0 109.448 106.921">
  <g id="Grupo_11" data-name="Grupo 11" transform="translate(-271 -424)">
    <path id="Trazado_8" data-name="Trazado 8" d="M351.958-320.739l-53.618-54.443,53.618-52.477,55.829,54.57Z" transform="translate(-27.339 851.659)" fill="#f2986e"/>
    <path id="Trazado_9" data-name="Trazado 9" d="M6.453,0h8.524L2.819,66.536H-5.7Z" transform="translate(295.791 450.978)" fill="#ec7130"/>
    <path id="Trazado_10" data-name="Trazado 10" d="M2.815,0H-5.7L6.447,66.536h8.52Z" transform="translate(346.309 450.978)" fill="#ec7130"/>
    <rect id="Rect치ngulo_16" data-name="Rect치ngulo 16" width="81" height="11" transform="translate(284.661 478.659)" fill="#fac66a"/>
    <path id="Trazado_11" data-name="Trazado 11" d="M305.5-390.686h8.124l6.871-10.976H305.5Z" transform="translate(-20.842 880.345)" fill="#ec7130"/>
    <path id="Trazado_12" data-name="Trazado 12" d="M336.242-390.494h13.884V-401.47h-8.1Z" transform="translate(15.534 880.153)" fill="#eb7132"/>
    <path id="Trazado_14" data-name="Trazado 14" d="M314.36-390.512h10.281l6.454-10.976H320.632Z" transform="translate(14.224 880.171)" fill="#ec7130"/>
    <path id="Trazado_19" data-name="Trazado 19" d="M314.36-390.512h10.281l6.454-10.976H320.632Z" transform="translate(-9.218 880.171)" fill="#ec7130"/>
    <g id="Grupo_10" data-name="Grupo 10" transform="translate(-1.339 -0.341)">
      <rect id="Rect치ngulo_17" data-name="Rect치ngulo 17" width="81" height="11" transform="translate(286 459)" fill="#fac66a"/>
      <path id="Trazado_20" data-name="Trazado 20" d="M305.5-390.686h8.124l6.871-10.976H305.5Z" transform="translate(-19.503 860.686)" fill="#ec7130"/>
      <path id="Trazado_21" data-name="Trazado 21" d="M336.242-390.494h13.884V-401.47h-8.1Z" transform="translate(16.873 860.494)" fill="#eb7132"/>
      <path id="Trazado_22" data-name="Trazado 22" d="M314.36-390.512h10.281l6.454-10.976H320.632Z" transform="translate(15.563 860.512)" fill="#ec7130"/>
      <path id="Trazado_23" data-name="Trazado 23" d="M314.36-390.512h10.281l6.454-10.976H320.632Z" transform="translate(-7.879 860.512)" fill="#ec7130"/>
    </g>
  </g>
</svg>
