<svg xmlns="http://www.w3.org/2000/svg" width="97.135" height="85.039" viewBox="0 0 97.135 85.039">
  <g id="Grupo_257" data-name="Grupo 257" transform="translate(3781 -14339)">
    <g id="Grupo_254" data-name="Grupo 254" transform="translate(-3781 14339)">
      <g id="Grupo_224" data-name="Grupo 224" transform="translate(36.874 20.642)">
        <path id="Intersección_3" data-name="Intersección 3" d="M9.48,34.643a1.187,1.187,0,0,1-.2-.3Q-1.386,19.508.207,11.6c1.547-7.673,10.481-.288,15,2.044a1.782,1.782,0,0,0,2.193-1.09C17.573,9.435,17.932-.008,27.807,0c11.6-.01,10.068,13.027,10.53,13.53.6.659,9.9,2.721,16.2,6.531C38.6,34.96,17.4,43.556,3.542,47.946,7.047,41.636,10.73,35.991,9.48,34.643Z" transform="translate(0 0)" fill="rgba(255,255,255,0.1)"/>
      </g>
      <g id="Grupo_234" data-name="Grupo 234" transform="translate(35.05 20.642)">
        <path id="Unión_32" data-name="Unión 32" d="M.108,60.733c1.345-9.268,13.368-23.864,11.254-26.144a1.183,1.183,0,0,1-.2-.3Q.513,19.477,2.1,11.584c1.544-7.661,10.465-.287,14.976,2.041a1.779,1.779,0,0,0,2.189-1.088C19.441,9.42,19.8-.008,29.659,0,41.242-.01,39.711,13.007,40.172,13.509c.926,1.009,22.283,5.318,21.908,14.17s-11.707,4.306-14.124,6.91c-2.113,2.28,9.91,16.876,11.254,26.144.439,3.021-.418,3.607-3.377,3.607-5.367,0-10.492,0-15.21,0-2.132,0-2.889-1.215-3.989-2.89-2.435-3.707-5.376-9.666-6.975-9.665s-4.54,5.958-6.975,9.666c-1.1,1.675-1.858,2.89-3.99,2.89-4.719,0-9.843,0-15.21,0C.526,64.34-.331,63.754.108,60.733Z" transform="translate(0 0.057)" fill="#ea4335"/>
        <path id="Sustracción_5" data-name="Sustracción 5" d="M3.615,47.728h0c.617-1.108,1.237-2.192,1.836-3.24h0c1.359-2.376,2.642-4.621,3.427-6.353.867-1.914,1.053-3.041.586-3.545a1.191,1.191,0,0,1-.2-.3c-1.767-2.457-3.3-4.8-4.56-6.973a47.285,47.285,0,0,1-3.03-6.108,28.771,28.771,0,0,1-.941-2.73,20.408,20.408,0,0,1-.559-2.514A14.63,14.63,0,0,1,0,13.665a10.95,10.95,0,0,1,.206-2.081A6.391,6.391,0,0,1,.724,10,3.535,3.535,0,0,1,1.5,8.951a2.816,2.816,0,0,1,.989-.582,3.615,3.615,0,0,1,1.168-.18A10.2,10.2,0,0,1,7.883,9.433c1.507.729,3.076,1.689,4.461,2.535h0c1.036.633,2.015,1.232,2.839,1.657a2,2,0,0,0,.537.076,1.605,1.605,0,0,0,.844-.232,2.253,2.253,0,0,0,.808-.932l.007-.126v-.023a28.617,28.617,0,0,1,.332-3.309,17.1,17.1,0,0,1,.471-2.041A12.675,12.675,0,0,1,19,4.974a9.626,9.626,0,0,1,1.259-1.912,8.219,8.219,0,0,1,1.809-1.584A8.841,8.841,0,0,1,24.529.4,12.31,12.31,0,0,1,27.75,0h.026A12.314,12.314,0,0,1,31,.4,8.841,8.841,0,0,1,33.46,1.477a8.218,8.218,0,0,1,1.809,1.583,9.622,9.622,0,0,1,1.259,1.912,12.668,12.668,0,0,1,.813,2.064,17.091,17.091,0,0,1,.471,2.041,28.625,28.625,0,0,1,.332,3.309,3.6,3.6,0,0,0,.132,1.122A14.756,14.756,0,0,0,41.4,14.666c1.55.5,3.479,1.114,5.541,1.882a49.616,49.616,0,0,1,6.214,2.746C51.135,21.09,49,22.862,46.8,24.562c-2.084,1.615-4.275,3.207-6.511,4.733-2.114,1.442-4.324,2.862-6.567,4.22-2.11,1.277-4.3,2.532-6.521,3.73-4,2.162-8.205,4.208-12.5,6.083C11.083,44.911,7.351,46.391,3.615,47.728Z" transform="translate(1.885 0)" fill="#fff" opacity="0.1"/>
      </g>
      <g id="Grupo_219" data-name="Grupo 219" transform="translate(0 0.092)">
        <path id="Trazado_144" data-name="Trazado 144" d="M169.528,332h53.017v9.717q-31.153,37.3-31.582,75.167H175.387l-2.144-3.144q15.719-48.873,30.01-68.022-28.009-1.286-33.154.429Q168.528,334.429,169.528,332Z" transform="translate(-169.139 -332)" fill="#b5b5b5"/>
      </g>
      <path id="Intersección_4" data-name="Intersección 4" d="M34.114,13.719Q6.105,12.433.961,14.147-.611,2.429.389,0H53.406V9.717Q26.541,41.882,22.525,74.469c-5.508,1.547-11.3,2.895-17.35,3.972Q20.311,32.216,34.114,13.719Z" transform="translate(0 0)" fill="#fff" opacity="0.2"/>
    </g>
  </g>
</svg>
