<svg xmlns="http://www.w3.org/2000/svg" width="107.126" height="130.396" viewBox="0 0 107.126 130.396">
  <g id="door-1" transform="translate(-1785.542 -2646.857)">
    <path id="Trazado_218" data-name="Trazado 218" d="M2.624,0A2.685,2.685,0,0,1,.64-.768,2.529,2.529,0,0,1-.128-2.624V-39.04l.768.9-7.424,4.48a2.591,2.591,0,0,1-1.28.32,2.4,2.4,0,0,1-1.856-.864,2.65,2.65,0,0,1-.768-1.76,2.533,2.533,0,0,1,1.344-2.24L1.088-44.416a3.377,3.377,0,0,1,1.92-.384,2.173,2.173,0,0,1,1.728.736,2.681,2.681,0,0,1,.64,1.824V-2.624A2.529,2.529,0,0,1,4.608-.768,2.685,2.685,0,0,1,2.624,0Z" transform="translate(1839.686 2736)"/>
    <g id="iconfinder_architecture-interior-30_809098" transform="translate(1774 2646.857)">
      <path id="Trazado_87" data-name="Trazado 87" d="M113.235,114.1h-4.572V5.433A5.133,5.133,0,0,0,103.23,0H27.166a5.133,5.133,0,0,0-5.433,5.433V114.1H16.975a5.133,5.133,0,0,0-5.433,5.433V130.4H118.669V119.53A5.133,5.133,0,0,0,113.235,114.1ZM27.166,5.433H103.23V114.1H27.166Zm-10.19,119.53V119.53h96.26v5.433Z"/>
    </g>
  </g>
</svg>
