<svg xmlns="http://www.w3.org/2000/svg" width="107.126" height="130.396" viewBox="0 0 107.126 130.396">
  <g id="door-12" transform="translate(-1908.542 -2646.857)">
    <path id="Trazado_229" data-name="Trazado 229" d="M-15.2,0a2.685,2.685,0,0,1-1.984-.768,2.529,2.529,0,0,1-.768-1.856V-39.04l.768.9-7.424,4.48a2.591,2.591,0,0,1-1.28.32,2.4,2.4,0,0,1-1.856-.864,2.65,2.65,0,0,1-.768-1.76,2.533,2.533,0,0,1,1.344-2.24l10.432-6.208a3.377,3.377,0,0,1,1.92-.384,2.173,2.173,0,0,1,1.728.736,2.681,2.681,0,0,1,.64,1.824V-2.624a2.529,2.529,0,0,1-.768,1.856A2.685,2.685,0,0,1-15.2,0ZM23.84-4.8a2.349,2.349,0,0,1,1.728.7,2.349,2.349,0,0,1,.7,1.728,2.245,2.245,0,0,1-.7,1.7A2.408,2.408,0,0,1,23.84,0H.608A2.692,2.692,0,0,1-1.28-.672,2.348,2.348,0,0,1-2.016-2.5a2.672,2.672,0,0,1,.768-1.856L13.216-20.16a33.847,33.847,0,0,0,4.8-6.24,11.4,11.4,0,0,0,1.664-5.664,8.86,8.86,0,0,0-1.12-4.544,7.721,7.721,0,0,0-3.1-2.976,9.806,9.806,0,0,0-4.672-1.056,9.677,9.677,0,0,0-4.9,1.344,9.177,9.177,0,0,0-3.68,4.16,2.746,2.746,0,0,1-.992.992,2.366,2.366,0,0,1-1.12.288,2.721,2.721,0,0,1-1.728-.672A1.976,1.976,0,0,1-2.464-36.1a2.428,2.428,0,0,1,.416-1.344,15.36,15.36,0,0,1,.992-1.344,13.42,13.42,0,0,1,5.312-4.928A14.691,14.691,0,0,1,11.1-45.44a15.582,15.582,0,0,1,7.456,1.664,11.417,11.417,0,0,1,4.736,4.64,13.809,13.809,0,0,1,1.632,6.752,15.279,15.279,0,0,1-.864,4.96,22.751,22.751,0,0,1-2.656,5.216,44.589,44.589,0,0,1-4.544,5.632L5.664-4.16l-.64-.64Z" transform="translate(1962.686 2736)"/>
    <g id="iconfinder_architecture-interior-30_809098" transform="translate(1897 2646.857)">
      <path id="Trazado_87" data-name="Trazado 87" d="M113.235,114.1h-4.572V5.433A5.133,5.133,0,0,0,103.23,0H27.166a5.133,5.133,0,0,0-5.433,5.433V114.1H16.975a5.133,5.133,0,0,0-5.433,5.433V130.4H118.669V119.53A5.133,5.133,0,0,0,113.235,114.1ZM27.166,5.433H103.23V114.1H27.166Zm-10.19,119.53V119.53h96.26v5.433Z"/>
    </g>
  </g>
</svg>
