<svg xmlns="http://www.w3.org/2000/svg" width="107.126" height="130.396" viewBox="0 0 107.126 130.396">
  <defs>
    <style>
      .cls-1 {
        opacity: 0.995;
      }
    </style>
  </defs>
  <g id="door-6" transform="translate(-1908.542 -2646.857)">
    <path id="Trazado_223" data-name="Trazado 223" class="cls-1" d="M.736.64A14.339,14.339,0,0,1-5.7-.736a13.288,13.288,0,0,1-4.64-3.744,17.159,17.159,0,0,1-2.816-5.312,19.488,19.488,0,0,1-.96-6.08,30.5,30.5,0,0,1,.7-6.144,40.309,40.309,0,0,1,2.144-6.944A33.858,33.858,0,0,1-7.52-35.776a29.149,29.149,0,0,1,5.5-5.856,23.591,23.591,0,0,1,7.36-4,4.782,4.782,0,0,1,1.024-.128,3.167,3.167,0,0,1,1.824.544,2.192,2.192,0,0,1,.8,1.952A2.335,2.335,0,0,1,8.416-41.7,3.376,3.376,0,0,1,6.88-40.7,20.645,20.645,0,0,0,1.856-37.92a26.859,26.859,0,0,0-4.544,4.288A29.745,29.745,0,0,0-6.272-28.32a20.845,20.845,0,0,0-2.08,5.92l-1.536.512a16.215,16.215,0,0,1,2.752-3.264,13.718,13.718,0,0,1,3.872-2.5,11.988,11.988,0,0,1,4.832-.96,11.572,11.572,0,0,1,5.248,1.216A14.49,14.49,0,0,1,11.1-24.128a15.424,15.424,0,0,1,2.912,4.7,14.85,14.85,0,0,1,1.056,5.536,14.235,14.235,0,0,1-1.888,7.2,14.9,14.9,0,0,1-5.12,5.312A13.558,13.558,0,0,1,.736.64ZM.672-4.16a8.964,8.964,0,0,0,4.7-1.248,9.015,9.015,0,0,0,3.3-3.456,10.241,10.241,0,0,0,1.216-5.024A10.984,10.984,0,0,0,8.8-18.752a9.121,9.121,0,0,0-3.1-3.616A8.363,8.363,0,0,0,.864-23.744,9.669,9.669,0,0,0-4.32-22.4a9.138,9.138,0,0,0-3.36,3.616A10.705,10.705,0,0,0-8.864-13.76,9.966,9.966,0,0,0-7.712-9.024a9.155,9.155,0,0,0,3.3,3.52A9.382,9.382,0,0,0,.672-4.16Z" transform="translate(1962.686 2736)"/>
    <g id="iconfinder_architecture-interior-30_809098" transform="translate(1897 2646.857)">
      <path id="Trazado_87" data-name="Trazado 87" d="M113.235,114.1h-4.572V5.433A5.133,5.133,0,0,0,103.23,0H27.166a5.133,5.133,0,0,0-5.433,5.433V114.1H16.975a5.133,5.133,0,0,0-5.433,5.433V130.4H118.669V119.53A5.133,5.133,0,0,0,113.235,114.1ZM27.166,5.433H103.23V114.1H27.166Zm-10.19,119.53V119.53h96.26v5.433Z"/>
    </g>
  </g>
</svg>
