<svg xmlns="http://www.w3.org/2000/svg" width="107.126" height="130.396" viewBox="0 0 107.126 130.396">
  <g id="door-8" transform="translate(-2172.542 -2646.857)">
    <path id="Trazado_225" data-name="Trazado 225" d="M6.368-22.592l-.128-.9a13.972,13.972,0,0,1,4.032,2.624,13,13,0,0,1,2.848,3.808,10.358,10.358,0,0,1,1.056,4.64,11.472,11.472,0,0,1-1.888,6.368,13.632,13.632,0,0,1-5.12,4.64A15.027,15.027,0,0,1-.032.32,14.841,14.841,0,0,1-7.2-1.408a13.7,13.7,0,0,1-5.088-4.64,11.472,11.472,0,0,1-1.888-6.368,10.414,10.414,0,0,1,1.184-5.056,12.791,12.791,0,0,1,3.008-3.712,16.389,16.389,0,0,1,3.808-2.432l-.32,1.024a11.126,11.126,0,0,1-3.168-2.08A11.087,11.087,0,0,1-12.128-28a9.95,9.95,0,0,1-.96-4.448A11.754,11.754,0,0,1-11.36-38.72a12.352,12.352,0,0,1,4.736-4.448A13.6,13.6,0,0,1-.032-44.8,13.365,13.365,0,0,1,6.56-43.168a12.729,12.729,0,0,1,4.7,4.448,11.594,11.594,0,0,1,1.76,6.272A9.717,9.717,0,0,1,12-27.872a11.137,11.137,0,0,1-2.528,3.264A12.24,12.24,0,0,1,6.368-22.592ZM-7.9-32.384a7.577,7.577,0,0,0,1.056,4.032,7.518,7.518,0,0,0,2.88,2.72,8.109,8.109,0,0,0,3.936.992A7.876,7.876,0,0,0,3.9-25.632a7.907,7.907,0,0,0,2.848-2.72A7.407,7.407,0,0,0,7.84-32.384a7.3,7.3,0,0,0-2.208-5.472A7.793,7.793,0,0,0-.032-40,7.793,7.793,0,0,0-5.7-37.856,7.3,7.3,0,0,0-7.9-32.384ZM-.032-4.48a9.27,9.27,0,0,0,6.5-2.3,7.4,7.4,0,0,0,2.528-5.7,7.382,7.382,0,0,0-1.216-4.192,8.551,8.551,0,0,0-3.264-2.88A9.767,9.767,0,0,0-.032-20.608a9.63,9.63,0,0,0-4.48,1.056,8.551,8.551,0,0,0-3.264,2.88A7.382,7.382,0,0,0-8.992-12.48a7.4,7.4,0,0,0,2.528,5.7A9.181,9.181,0,0,0-.032-4.48Z" transform="translate(2226.686 2736)"/>
    <g id="iconfinder_architecture-interior-30_809098" transform="translate(2161 2646.857)">
      <path id="Trazado_87" data-name="Trazado 87" d="M113.235,114.1h-4.572V5.433A5.133,5.133,0,0,0,103.23,0H27.166a5.133,5.133,0,0,0-5.433,5.433V114.1H16.975a5.133,5.133,0,0,0-5.433,5.433V130.4H118.669V119.53A5.133,5.133,0,0,0,113.235,114.1ZM27.166,5.433H103.23V114.1H27.166Zm-10.19,119.53V119.53h96.26v5.433Z"/>
    </g>
  </g>
</svg>
