<svg xmlns="http://www.w3.org/2000/svg" width="107.126" height="130.396" viewBox="0 0 107.126 130.396">
  <g id="door-9" transform="translate(-2303.542 -2646.857)">
    <path id="Trazado_226" data-name="Trazado 226" d="M-.128-45.568A14.339,14.339,0,0,1,6.3-44.192a13.288,13.288,0,0,1,4.64,3.744,17.159,17.159,0,0,1,2.816,5.312,19.488,19.488,0,0,1,.96,6.08,30.037,30.037,0,0,1-.7,6.112,37.981,37.981,0,0,1-2.144,6.816A33.3,33.3,0,0,1,8.128-9.472a28.519,28.519,0,0,1-5.5,5.728,25.472,25.472,0,0,1-7.36,4A4.782,4.782,0,0,1-5.76.384a2.84,2.84,0,0,1-1.824-.64,2.311,2.311,0,0,1-.8-1.92,2.335,2.335,0,0,1,.576-1.568,3.376,3.376,0,0,1,1.536-.992A22.466,22.466,0,0,0,.352-8.672a28.118,28.118,0,0,0,5.5-6.24,21.062,21.062,0,0,0,3.1-7.616L10.5-23.04a13.976,13.976,0,0,1-2.688,3.232,14.113,14.113,0,0,1-3.872,2.464,12.152,12.152,0,0,1-4.9.96,11.829,11.829,0,0,1-5.248-1.184A14.036,14.036,0,0,1-10.5-20.8a15.424,15.424,0,0,1-2.912-4.7,14.85,14.85,0,0,1-1.056-5.536,14.183,14.183,0,0,1,1.888-7.232,14.889,14.889,0,0,1,5.152-5.28A13.6,13.6,0,0,1-.128-45.568Zm.064,4.8a8.964,8.964,0,0,0-4.7,1.248,9.078,9.078,0,0,0-3.3,3.424A10.192,10.192,0,0,0-9.28-31.04a11.047,11.047,0,0,0,1.088,4.832,8.758,8.758,0,0,0,3.136,3.616,8.549,8.549,0,0,0,4.8,1.344,9.669,9.669,0,0,0,5.184-1.344,9.138,9.138,0,0,0,3.36-3.616,10.57,10.57,0,0,0,1.184-4.96A9.911,9.911,0,0,0,8.32-35.936a9.221,9.221,0,0,0-3.3-3.488A9.382,9.382,0,0,0-.064-40.768Z" transform="translate(2357.686 2736)"/>
    <g id="iconfinder_architecture-interior-30_809098" transform="translate(2292 2646.857)">
      <path id="Trazado_87" data-name="Trazado 87" d="M113.235,114.1h-4.572V5.433A5.133,5.133,0,0,0,103.23,0H27.166a5.133,5.133,0,0,0-5.433,5.433V114.1H16.975a5.133,5.133,0,0,0-5.433,5.433V130.4H118.669V119.53A5.133,5.133,0,0,0,113.235,114.1ZM27.166,5.433H103.23V114.1H27.166Zm-10.19,119.53V119.53h96.26v5.433Z"/>
    </g>
  </g>
</svg>
