<svg xmlns="http://www.w3.org/2000/svg" width="107.126" height="130.396" viewBox="0 0 107.126 130.396">
  <g id="door-15" transform="translate(-2303.542 -2646.857)">
    <path id="Trazado_232" data-name="Trazado 232" d="M-15.264,0a2.685,2.685,0,0,1-1.984-.768,2.529,2.529,0,0,1-.768-1.856V-39.04l.768.9-7.424,4.48a2.591,2.591,0,0,1-1.28.32,2.4,2.4,0,0,1-1.856-.864,2.65,2.65,0,0,1-.768-1.76,2.533,2.533,0,0,1,1.344-2.24L-16.8-44.416a3.377,3.377,0,0,1,1.92-.384,2.173,2.173,0,0,1,1.728.736,2.681,2.681,0,0,1,.64,1.824V-2.624A2.529,2.529,0,0,1-13.28-.768,2.685,2.685,0,0,1-15.264,0ZM7.776.32A17.389,17.389,0,0,1,2.56-.512,13.947,13.947,0,0,1-2.08-2.944,3.339,3.339,0,0,1-2.912-4.1a3.248,3.248,0,0,1-.32-1.344,2.233,2.233,0,0,1,.672-1.5A2.271,2.271,0,0,1-.8-7.68a3.334,3.334,0,0,1,1.92.832A11.79,11.79,0,0,0,4.256-5.12a9.891,9.891,0,0,0,3.456.64,12.526,12.526,0,0,0,6.016-1.408A10.616,10.616,0,0,0,17.856-9.76a10.414,10.414,0,0,0,1.5-5.536,9.9,9.9,0,0,0-1.312-5.152A8.966,8.966,0,0,0,14.4-23.872a11.4,11.4,0,0,0-5.344-1.216,11.417,11.417,0,0,0-4.032.672A23.676,23.676,0,0,0,1.952-23.04a4.678,4.678,0,0,1-2.112.7,3.065,3.065,0,0,1-1.92-.544,2.534,2.534,0,0,1-.928-1.376,3.484,3.484,0,0,1-.1-1.536l2.5-16.96a2.668,2.668,0,0,1,.9-1.44A2.552,2.552,0,0,1,2.016-44.8H21.024a2.349,2.349,0,0,1,1.728.7,2.349,2.349,0,0,1,.7,1.728,2.349,2.349,0,0,1-.7,1.728,2.349,2.349,0,0,1-1.728.7H3.3l.64-.576L1.568-25.728.544-27.072a8.18,8.18,0,0,1,2.144-1.28A19.042,19.042,0,0,1,6.016-29.44a16.713,16.713,0,0,1,3.872-.448A14.73,14.73,0,0,1,17.344-28a14.054,14.054,0,0,1,5.216,5.152,14.49,14.49,0,0,1,1.92,7.488,15.377,15.377,0,0,1-1.248,6.24,14.825,14.825,0,0,1-3.52,4.96A16.519,16.519,0,0,1,14.4-.864,18.1,18.1,0,0,1,7.776.32Z" transform="translate(2357.686 2736)"/>
    <g id="iconfinder_architecture-interior-30_809098" transform="translate(2292 2646.857)">
      <path id="Trazado_87" data-name="Trazado 87" d="M113.235,114.1h-4.572V5.433A5.133,5.133,0,0,0,103.23,0H27.166a5.133,5.133,0,0,0-5.433,5.433V114.1H16.975a5.133,5.133,0,0,0-5.433,5.433V130.4H118.669V119.53A5.133,5.133,0,0,0,113.235,114.1ZM27.166,5.433H103.23V114.1H27.166Zm-10.19,119.53V119.53h96.26v5.433Z"/>
    </g>
  </g>
</svg>
