<svg xmlns="http://www.w3.org/2000/svg" width="107.126" height="130.396" viewBox="0 0 107.126 130.396">
  <g id="door-7" transform="translate(-2042.542 -2646.857)">
    <path id="Trazado_224" data-name="Trazado 224" d="M-5.088.256a2.8,2.8,0,0,1-1.856-.7A2.244,2.244,0,0,1-7.776-2.24,2.816,2.816,0,0,1-7.52-3.392L9.056-41.152,9.76-40H-10.848a2.349,2.349,0,0,1-1.728-.7,2.349,2.349,0,0,1-.7-1.728,2.245,2.245,0,0,1,.7-1.7,2.408,2.408,0,0,1,1.728-.672h23.1a2.666,2.666,0,0,1,1.92.672,2.322,2.322,0,0,1,.7,1.76,2.961,2.961,0,0,1-.256,1.216L-2.72-1.408A2.3,2.3,0,0,1-3.648-.192,2.549,2.549,0,0,1-5.088.256Z" transform="translate(2096.686 2736)"/>
    <g id="iconfinder_architecture-interior-30_809098" transform="translate(2031 2646.857)">
      <path id="Trazado_87" data-name="Trazado 87" d="M113.235,114.1h-4.572V5.433A5.133,5.133,0,0,0,103.23,0H27.166a5.133,5.133,0,0,0-5.433,5.433V114.1H16.975a5.133,5.133,0,0,0-5.433,5.433V130.4H118.669V119.53A5.133,5.133,0,0,0,113.235,114.1ZM27.166,5.433H103.23V114.1H27.166Zm-10.19,119.53V119.53h96.26v5.433Z"/>
    </g>
  </g>
</svg>
