<svg xmlns="http://www.w3.org/2000/svg" width="107.126" height="130.396" viewBox="0 0 107.126 130.396">
  <g id="door-4" transform="translate(-1785.542 -2646.857)">
    <path id="Trazado_221" data-name="Trazado 221" d="M7.136,0A2.425,2.425,0,0,1,5.312-.768a2.585,2.585,0,0,1-.736-1.856V-37.632l1.024.384L-9.7-17.28l-.256-.768H13.472a2.349,2.349,0,0,1,1.728.7,2.349,2.349,0,0,1,.7,1.728,2.172,2.172,0,0,1-.7,1.632,2.408,2.408,0,0,1-1.728.672H-13.472a2.493,2.493,0,0,1-1.76-.768,2.41,2.41,0,0,1-.8-1.792,2.392,2.392,0,0,1,.64-1.664L5.024-43.776a2.41,2.41,0,0,1,1.024-.8A3.158,3.158,0,0,1,7.2-44.8a2.372,2.372,0,0,1,1.792.736,2.536,2.536,0,0,1,.7,1.824V-2.624A2.585,2.585,0,0,1,8.96-.768,2.425,2.425,0,0,1,7.136,0Z" transform="translate(1839.686 2736)"/>
    <g id="iconfinder_architecture-interior-30_809098" transform="translate(1774 2646.857)">
      <path id="Trazado_87" data-name="Trazado 87" d="M113.235,114.1h-4.572V5.433A5.133,5.133,0,0,0,103.23,0H27.166a5.133,5.133,0,0,0-5.433,5.433V114.1H16.975a5.133,5.133,0,0,0-5.433,5.433V130.4H118.669V119.53A5.133,5.133,0,0,0,113.235,114.1ZM27.166,5.433H103.23V114.1H27.166Zm-10.19,119.53V119.53h96.26v5.433Z"/>
    </g>
  </g>
</svg>
