<svg xmlns="http://www.w3.org/2000/svg" width="107.126" height="130.396" viewBox="0 0 107.126 130.396">
  <defs>
    <style>
      .cls-1 {
        opacity: 0.995;
      }
    </style>
  </defs>
  <g id="door-3" transform="translate(-1908.542 -2646.857)">
    <path id="Trazado_220" data-name="Trazado 220" class="cls-1" d="M-10.784-7.424a2.765,2.765,0,0,1,.864.16,3.186,3.186,0,0,1,1.056.672A10.2,10.2,0,0,0-5.856-4.736a10.451,10.451,0,0,0,3.968.7A10.444,10.444,0,0,0,3.168-5.28,9.956,9.956,0,0,0,6.912-8.832a9.812,9.812,0,0,0,1.44-5.312,9.188,9.188,0,0,0-1.44-5.344A8.735,8.735,0,0,0,3.264-22.56a11.2,11.2,0,0,0-4.64-.992,10.137,10.137,0,0,0-1.664.128,13.062,13.062,0,0,0-1.44.32,4.562,4.562,0,0,1-1.248.192,1.953,1.953,0,0,1-1.6-.7A2.64,2.64,0,0,1-7.9-25.344,2.819,2.819,0,0,1-7.712-26.4a3.531,3.531,0,0,1,.64-.992L5.472-41.216,6.5-40H-11.68a2.349,2.349,0,0,1-1.728-.7,2.349,2.349,0,0,1-.7-1.728,2.245,2.245,0,0,1,.7-1.7A2.408,2.408,0,0,1-11.68-44.8H9.184a2.468,2.468,0,0,1,2.048.8,2.754,2.754,0,0,1,.64,1.76,2.209,2.209,0,0,1-.256,1.056,3.953,3.953,0,0,1-.7.928L-1.568-26.368l-1.472-1.28a3.933,3.933,0,0,1,1.472-.48,10.4,10.4,0,0,1,1.92-.224,13,13,0,0,1,6.592,1.728,12.821,12.821,0,0,1,4.8,4.864,14.449,14.449,0,0,1,1.792,7.3,14.824,14.824,0,0,1-2.112,8A14.213,14.213,0,0,1,5.632-1.216,18.146,18.146,0,0,1-2.656.64,16.173,16.173,0,0,1-7.68-.16,12.282,12.282,0,0,1-11.936-2.5a2.527,2.527,0,0,1-1.12-1.024,2.556,2.556,0,0,1-.288-1.152,2.9,2.9,0,0,1,.736-1.856A2.271,2.271,0,0,1-10.784-7.424Z" transform="translate(1962.686 2736)"/>
    <g id="iconfinder_architecture-interior-30_809098" transform="translate(1897 2646.857)">
      <path id="Trazado_87" data-name="Trazado 87" d="M113.235,114.1h-4.572V5.433A5.133,5.133,0,0,0,103.23,0H27.166a5.133,5.133,0,0,0-5.433,5.433V114.1H16.975a5.133,5.133,0,0,0-5.433,5.433V130.4H118.669V119.53A5.133,5.133,0,0,0,113.235,114.1ZM27.166,5.433H103.23V114.1H27.166Zm-10.19,119.53V119.53h96.26v5.433Z"/>
    </g>
  </g>
</svg>
