<svg xmlns="http://www.w3.org/2000/svg" width="107.126" height="130.396" viewBox="0 0 107.126 130.396">
  <g id="door-14" transform="translate(-2172.542 -2646.857)">
    <path id="Trazado_231" data-name="Trazado 231" d="M-16.8,0a2.685,2.685,0,0,1-1.984-.768,2.529,2.529,0,0,1-.768-1.856V-39.04l.768.9-7.424,4.48a2.591,2.591,0,0,1-1.28.32,2.4,2.4,0,0,1-1.856-.864,2.65,2.65,0,0,1-.768-1.76,2.533,2.533,0,0,1,1.344-2.24l10.432-6.208a3.377,3.377,0,0,1,1.92-.384,2.173,2.173,0,0,1,1.728.736,2.681,2.681,0,0,1,.64,1.824V-2.624a2.529,2.529,0,0,1-.768,1.856A2.685,2.685,0,0,1-16.8,0ZM18.144,0A2.425,2.425,0,0,1,16.32-.768a2.585,2.585,0,0,1-.736-1.856V-37.632l1.024.384L1.312-17.28l-.256-.768H24.48a2.349,2.349,0,0,1,1.728.7,2.349,2.349,0,0,1,.7,1.728,2.172,2.172,0,0,1-.7,1.632,2.408,2.408,0,0,1-1.728.672H-2.464a2.493,2.493,0,0,1-1.76-.768,2.41,2.41,0,0,1-.8-1.792,2.392,2.392,0,0,1,.64-1.664l20.416-26.24a2.41,2.41,0,0,1,1.024-.8,3.158,3.158,0,0,1,1.152-.224A2.372,2.372,0,0,1,20-44.064a2.536,2.536,0,0,1,.7,1.824V-2.624a2.585,2.585,0,0,1-.736,1.856A2.425,2.425,0,0,1,18.144,0Z" transform="translate(2226.686 2736)"/>
    <g id="iconfinder_architecture-interior-30_809098" transform="translate(2161 2646.857)">
      <path id="Trazado_87" data-name="Trazado 87" d="M113.235,114.1h-4.572V5.433A5.133,5.133,0,0,0,103.23,0H27.166a5.133,5.133,0,0,0-5.433,5.433V114.1H16.975a5.133,5.133,0,0,0-5.433,5.433V130.4H118.669V119.53A5.133,5.133,0,0,0,113.235,114.1ZM27.166,5.433H103.23V114.1H27.166Zm-10.19,119.53V119.53h96.26v5.433Z"/>
    </g>
  </g>
</svg>
