<svg xmlns="http://www.w3.org/2000/svg" width="107.126" height="130.396" viewBox="0 0 107.126 130.396">
  <g id="door-2" transform="translate(-1785.542 -2646.857)">
    <path id="Trazado_219" data-name="Trazado 219" d="M12.832-4.8a2.349,2.349,0,0,1,1.728.7,2.349,2.349,0,0,1,.7,1.728,2.245,2.245,0,0,1-.7,1.7A2.408,2.408,0,0,1,12.832,0H-10.4a2.692,2.692,0,0,1-1.888-.672A2.348,2.348,0,0,1-13.024-2.5a2.672,2.672,0,0,1,.768-1.856L2.208-20.16a33.847,33.847,0,0,0,4.8-6.24,11.4,11.4,0,0,0,1.664-5.664,8.86,8.86,0,0,0-1.12-4.544,7.721,7.721,0,0,0-3.1-2.976A9.806,9.806,0,0,0-.224-40.64,9.677,9.677,0,0,0-5.12-39.3a9.177,9.177,0,0,0-3.68,4.16,2.746,2.746,0,0,1-.992.992,2.366,2.366,0,0,1-1.12.288,2.721,2.721,0,0,1-1.728-.672,1.976,1.976,0,0,1-.832-1.568,2.428,2.428,0,0,1,.416-1.344,15.36,15.36,0,0,1,.992-1.344,13.419,13.419,0,0,1,5.312-4.928A14.691,14.691,0,0,1,.1-45.44a15.582,15.582,0,0,1,7.456,1.664,11.417,11.417,0,0,1,4.736,4.64,13.809,13.809,0,0,1,1.632,6.752,15.279,15.279,0,0,1-.864,4.96A22.751,22.751,0,0,1,10.4-22.208a44.589,44.589,0,0,1-4.544,5.632L-5.344-4.16l-.64-.64Z" transform="translate(1839.686 2736)"/>
    <g id="iconfinder_architecture-interior-30_809098" transform="translate(1774 2646.857)">
      <path id="Trazado_87" data-name="Trazado 87" d="M113.235,114.1h-4.572V5.433A5.133,5.133,0,0,0,103.23,0H27.166a5.133,5.133,0,0,0-5.433,5.433V114.1H16.975a5.133,5.133,0,0,0-5.433,5.433V130.4H118.669V119.53A5.133,5.133,0,0,0,113.235,114.1ZM27.166,5.433H103.23V114.1H27.166Zm-10.19,119.53V119.53h96.26v5.433Z"/>
    </g>
  </g>
</svg>
