<svg xmlns="http://www.w3.org/2000/svg" width="107.126" height="130.396" viewBox="0 0 107.126 130.396">
  <g id="door-13" transform="translate(-2042.542 -2646.857)">
    <path id="Trazado_230" data-name="Trazado 230" d="M-14.048,0a2.685,2.685,0,0,1-1.984-.768A2.529,2.529,0,0,1-16.8-2.624V-39.04l.768.9-7.424,4.48a2.591,2.591,0,0,1-1.28.32,2.4,2.4,0,0,1-1.856-.864,2.65,2.65,0,0,1-.768-1.76,2.533,2.533,0,0,1,1.344-2.24l10.432-6.208a3.377,3.377,0,0,1,1.92-.384,2.173,2.173,0,0,1,1.728.736,2.681,2.681,0,0,1,.64,1.824V-2.624a2.529,2.529,0,0,1-.768,1.856A2.685,2.685,0,0,1-14.048,0ZM.224-7.424a2.765,2.765,0,0,1,.864.16,3.186,3.186,0,0,1,1.056.672A10.2,10.2,0,0,0,5.152-4.736a10.451,10.451,0,0,0,3.968.7A10.444,10.444,0,0,0,14.176-5.28,9.956,9.956,0,0,0,17.92-8.832a9.812,9.812,0,0,0,1.44-5.312,9.188,9.188,0,0,0-1.44-5.344,8.735,8.735,0,0,0-3.648-3.072,11.2,11.2,0,0,0-4.64-.992,10.137,10.137,0,0,0-1.664.128,13.062,13.062,0,0,0-1.44.32,4.562,4.562,0,0,1-1.248.192,1.953,1.953,0,0,1-1.6-.7A2.64,2.64,0,0,1,3.1-25.344,2.819,2.819,0,0,1,3.3-26.4a3.531,3.531,0,0,1,.64-.992L16.48-41.216,17.5-40H-.672A2.349,2.349,0,0,1-2.4-40.7a2.349,2.349,0,0,1-.7-1.728,2.245,2.245,0,0,1,.7-1.7A2.408,2.408,0,0,1-.672-44.8H20.192a2.468,2.468,0,0,1,2.048.8,2.754,2.754,0,0,1,.64,1.76,2.209,2.209,0,0,1-.256,1.056,3.953,3.953,0,0,1-.7.928L9.44-26.368l-1.472-1.28a3.933,3.933,0,0,1,1.472-.48,10.4,10.4,0,0,1,1.92-.224,13,13,0,0,1,6.592,1.728,12.821,12.821,0,0,1,4.8,4.864,14.449,14.449,0,0,1,1.792,7.3,14.824,14.824,0,0,1-2.112,8A14.213,14.213,0,0,1,16.64-1.216,18.146,18.146,0,0,1,8.352.64a16.173,16.173,0,0,1-5.024-.8A12.282,12.282,0,0,1-.928-2.5,2.527,2.527,0,0,1-2.048-3.52a2.556,2.556,0,0,1-.288-1.152A2.9,2.9,0,0,1-1.6-6.528,2.271,2.271,0,0,1,.224-7.424Z" transform="translate(2096.686 2736)"/>
    <g id="iconfinder_architecture-interior-30_809098" transform="translate(2031 2646.857)">
      <path id="Trazado_87" data-name="Trazado 87" d="M113.235,114.1h-4.572V5.433A5.133,5.133,0,0,0,103.23,0H27.166a5.133,5.133,0,0,0-5.433,5.433V114.1H16.975a5.133,5.133,0,0,0-5.433,5.433V130.4H118.669V119.53A5.133,5.133,0,0,0,113.235,114.1ZM27.166,5.433H103.23V114.1H27.166Zm-10.19,119.53V119.53h96.26v5.433Z"/>
    </g>
  </g>
</svg>
