<svg xmlns="http://www.w3.org/2000/svg" width="107.126" height="130.396" viewBox="0 0 107.126 130.396">
  <g id="door-10" transform="translate(-1785.542 -2646.857)">
    <path id="Trazado_227" data-name="Trazado 227" d="M-16.608,0a2.685,2.685,0,0,1-1.984-.768,2.529,2.529,0,0,1-.768-1.856V-39.04l.768.9-7.424,4.48a2.591,2.591,0,0,1-1.28.32,2.4,2.4,0,0,1-1.856-.864,2.65,2.65,0,0,1-.768-1.76,2.533,2.533,0,0,1,1.344-2.24l10.432-6.208a3.377,3.377,0,0,1,1.92-.384,2.173,2.173,0,0,1,1.728.736,2.681,2.681,0,0,1,.64,1.824V-2.624a2.529,2.529,0,0,1-.768,1.856A2.685,2.685,0,0,1-16.608,0ZM11.04.64A13.242,13.242,0,0,1,2.176-2.368,18.468,18.468,0,0,1-3.2-10.624,35.718,35.718,0,0,1-5.024-22.4,35.572,35.572,0,0,1-3.2-34.24a18.489,18.489,0,0,1,5.376-8.192A13.242,13.242,0,0,1,11.04-45.44,13.242,13.242,0,0,1,19.9-42.432a18.262,18.262,0,0,1,5.344,8.192A36.153,36.153,0,0,1,27.04-22.4a36.3,36.3,0,0,1-1.792,11.776A18.245,18.245,0,0,1,19.9-2.368,13.242,13.242,0,0,1,11.04.64Zm0-5.184A8.091,8.091,0,0,0,16.768-6.72,13.666,13.666,0,0,0,20.32-12.9a32.873,32.873,0,0,0,1.216-9.5,33.131,33.131,0,0,0-1.216-9.568,13.432,13.432,0,0,0-3.552-6.144,8.159,8.159,0,0,0-5.728-2.144,8.159,8.159,0,0,0-5.728,2.144,13.655,13.655,0,0,0-3.584,6.144A32.334,32.334,0,0,0,.48-22.4a32.082,32.082,0,0,0,1.248,9.5A13.9,13.9,0,0,0,5.312-6.72,8.091,8.091,0,0,0,11.04-4.544Z" transform="translate(1839.686 2736)"/>
    <g id="iconfinder_architecture-interior-30_809098" transform="translate(1774 2646.857)">
      <path id="Trazado_87" data-name="Trazado 87" d="M113.235,114.1h-4.572V5.433A5.133,5.133,0,0,0,103.23,0H27.166a5.133,5.133,0,0,0-5.433,5.433V114.1H16.975a5.133,5.133,0,0,0-5.433,5.433V130.4H118.669V119.53A5.133,5.133,0,0,0,113.235,114.1ZM27.166,5.433H103.23V114.1H27.166Zm-10.19,119.53V119.53h96.26v5.433Z"/>
    </g>
  </g>
</svg>
